<svg xmlns="http://www.w3.org/2000/svg" viewBox="0 0 1419.11 259.01"><g id="Layer_2" data-name="Layer 2"><g id="Layer_1-2" data-name="Layer 1"><path d="M180.58,78.78H36.33V70.51c0-24.46,11.15-39.57,32.74-39.57h89.21V0H69.07C25.18,0,0,27.34,0,70.51v186H36.33V108.28h84.18c-14.75,14.39-23,35.61-23,62.95,0,47.49,31.65,87.78,76.26,87.78H186.7c45,0,76.26-38.5,76.26-89.94C263,119.07,236.34,78.78,180.58,78.78Zm5.76,148.93H174.47c-22.3,0-39.57-24.46-39.57-58.64s17.27-58.63,39.57-58.63h11.87c22.3,0,39.21,24.46,39.21,58.63S208.64,227.71,186.34,227.71Z"/><path d="M395.7,175.19c0,28.42-16.91,51.44-37.41,51.44h-13c-16.91,0-29.5-16.91-29.5-39.21V81.66H279.51v110.8c0,38.13,23.38,66.55,55,66.55h15.82c17.63,0,36.34-11.88,45.33-29.14v26.62H432V81.66H395.7Z"/><path d="M894.63,78.78H881c-41.36,0-75.18,39.21-75.18,89.21,0,52.16,32.38,91,75.9,91h13c38.86,0,66.55-29.14,69.43-60.44H929.17c-3.6,17.63-17.63,29.5-34.18,29.5H881.68c-20.5,0-36-21.59-38.49-51.44H965.14a131.62,131.62,0,0,0,.72-14.75C965.86,121.59,938.52,78.78,894.63,78.78Zm-50,69.79c5.4-24.46,19.79-40.29,37.77-40.29h12.23c20.51,0,32.38,18.7,34.54,40.29Z"/><path d="M553.26,78.78H537.43c-17.63,0-36.33,11.87-45.33,29.14V81.66H455.77V256.49H492.1V162.6c0-28.42,16.91-51.44,37.42-51.44h13c16.9,0,29.49,16.9,29.49,39.21V256.49H608.3V145.33C608.3,107.2,584.92,78.78,553.26,78.78Z"/><path d="M1293.57,175.19c0,28.42-16.91,51.44-37.41,51.44h-13c-16.91,0-29.5-16.91-29.5-39.21V81.66h-90.65v-1.8c0-23.74,10.43-36.33,30.21-36.33h18.35V13h-18.35c-42.44,0-66.55,24.46-66.55,66.91v1.8h-29.13c-19.07,0-30.58,7.55-38.14,25.18V81.66H983.12V256.49h36.33V162.6c0-31.66,14-51.44,36-51.44h31.29V256.49h36.34V111.16h54.32v81.3c0,38.13,23.38,66.55,55,66.55h15.82c17.63,0,36.34-11.88,45.33-29.14v26.62h36.33V81.66h-36.33Z"/><path d="M1410.12,226.63c-12.95,0-20.15-7.19-20.15-19.43V13h-36.33V207.2c0,33.82,17.63,50,54.32,50h11.15V226.63Z"/><path d="M752.91,103.24c-10.08-14.39-28.06-24.46-45-24.46H697.51c-41.37,0-72.67,38.85-72.67,90.29S656.14,259,697.51,259h10.43c16.55,0,34.53-9.72,45-24.11v21.59h36.33V13H752.91ZM714.77,227.71H702.54c-22.3,0-40.29-26.26-40.29-58.64s18-58.63,40.29-58.63h12.23c23.39,0,41,25.18,41,58.63S738.16,227.71,714.77,227.71Z"/></g></g></svg>