<svg width="1868" height="245" viewBox="0 0 1868 245" fill="none" xmlns="http://www.w3.org/2000/svg">
<path d="M327.566 77.8603H239.35V72.798C239.35 57.8253 246.168 48.576 259.372 48.576H313.928V29.6367H259.372C232.531 29.6367 217.132 46.3724 217.132 72.798V186.642H239.35V95.9181H290.83C281.81 104.727 276.752 117.716 276.752 134.452C276.752 163.516 296.114 188.178 323.389 188.178H331.309C358.81 188.178 377.946 164.617 377.946 133.13C377.946 101.642 361.666 77.8603 327.566 77.8603ZM331.089 169.025H323.83C310.192 169.025 299.63 154.052 299.63 133.13C299.63 112.207 310.192 97.2342 323.83 97.2342H331.089C344.726 97.2342 355.068 112.207 355.068 133.13C355.068 154.052 344.726 169.025 331.089 169.025Z" fill="black"/>
<path d="M459.121 136.874C459.121 154.27 448.779 168.362 436.243 168.362H428.323C417.982 168.362 410.282 158.01 410.282 144.36V79.6211H388.064V147.445C388.064 170.786 402.363 188.182 421.724 188.182H431.405C442.187 188.182 453.623 180.916 459.127 170.345V186.64H481.345V79.6211H459.127V136.874H459.121Z" fill="black"/>
<path d="M145.415 29.6367H132.878C115.498 29.6367 102.08 39.5471 96.1422 56.7235C91.0847 52.5426 84.7001 50.339 77.0006 50.339H64.0235C42.9066 50.339 27.7217 67.5153 27.7217 90.1947C27.7217 104.066 32.1188 114.637 40.4787 121.022C15.8392 128.949 0 153.611 0 186.642H25.9604C25.9604 159.996 38.0631 132.034 61.6017 132.034H67.9802V118.604L64.0174 117.722C54.1163 115.519 49.9394 107.151 49.9394 92.6188C49.9394 78.0868 56.7582 69.4986 66.6593 69.4986H76.3402C84.2598 69.4986 90.1979 75.8831 92.1794 87.1157C94.1608 98.3483 99.2184 106.937 107.138 112.66C78.5417 121.028 59.8405 148.996 59.8405 186.648H87.5621C87.5621 156.482 101.42 124.774 126.72 124.774H138.382V110.022L135.52 109.581C122.543 107.598 115.718 97.2526 115.718 77.8726C115.718 60.9166 123.858 49.029 134.639 49.029H144.32C155.102 49.029 162.802 60.9227 162.802 77.8726H185.9C185.894 52.3161 171.155 29.6367 145.415 29.6367Z" fill="black"/>
<path d="M764.245 77.8604H755.885C730.585 77.8604 709.908 101.862 709.908 132.468C709.908 163.075 729.71 188.178 756.325 188.178H764.245C788.004 188.178 804.944 170.341 806.705 151.187H785.368C783.166 161.979 774.586 169.245 764.471 169.245H756.331C743.794 169.245 734.334 156.035 732.793 137.757H807.371C807.592 135.554 807.812 133.136 807.812 128.728C807.812 104.066 791.092 77.8604 764.251 77.8604H764.245ZM733.667 120.581C736.969 105.608 745.77 95.9182 756.765 95.9182H764.245C776.782 95.9182 784.047 107.371 785.362 120.581H733.661H733.667Z" fill="black"/>
<path d="M555.479 77.8604H545.798C535.016 77.8604 523.58 85.1263 518.076 95.6978V79.6233H495.858V186.642H518.076V129.169C518.076 111.772 528.417 97.6811 540.954 97.6811H548.874C559.215 97.6811 566.915 108.032 566.915 121.683V186.642H589.132V118.598C589.132 95.2571 574.834 77.8604 555.473 77.8604H555.479Z" fill="black"/>
<path d="M1008.22 136.679C1008.22 154.076 997.876 168.167 985.339 168.167H977.42C967.079 168.167 959.379 157.816 959.379 144.166V79.4266H903.942V78.3248C903.942 63.7928 910.32 56.0861 922.423 56.0861H933.645V37.3672H922.423C896.462 37.3672 881.724 52.3399 881.724 78.3248V79.4266H863.903C852.241 79.4266 845.202 84.0482 840.585 94.8401V79.4266H818.367V186.445H840.585V128.972C840.585 109.592 849.165 97.4845 862.582 97.4845H881.724V186.445H903.942V97.4845H937.161V147.251C937.161 170.591 951.459 187.988 970.821 187.988H980.502C991.284 187.988 1002.72 180.722 1008.22 170.15V186.445H1030.44V79.4266H1008.22V136.679H1008.22Z" fill="black"/>
<path d="M1079.95 169.903C1072.03 169.903 1067.63 165.502 1067.63 158.01V39.1035H1045.41V158.01C1045.41 178.706 1056.19 188.616 1078.63 188.616H1085.45V169.897H1079.95L1079.95 169.903Z" fill="black"/>
<path d="M677.575 92.8268C671.417 84.0183 660.415 77.8541 650.074 77.8541H643.695C618.396 77.8541 599.254 101.635 599.254 133.123C599.254 164.611 618.396 188.172 643.695 188.172H650.074C660.195 188.172 671.191 182.228 677.575 173.42V186.63H699.793V37.5576H677.575V92.8268ZM654.257 169.019H646.778C633.14 169.019 622.138 152.944 622.138 133.123C622.138 113.303 633.14 97.228 646.778 97.228H654.257C668.555 97.228 679.337 112.641 679.337 133.123C679.337 153.605 668.555 169.019 654.257 169.019Z" fill="black"/>
<path d="M1134.5 204.067C1100.4 202.025 1098.76 175.851 1109.5 148.363C1134.45 84.5142 1215.5 12.5826 1257.63 17.5187C1243.49 42.6127 1283.89 29.7726 1271.35 8.91138C1264.34 -2.74403 1245.27 -0.146398 1234.7 2.75357C1163.49 22.2821 1049.74 146.129 1092.39 206.837C1123.12 250.571 1243.71 191.85 1260.86 176.98C1264.92 173.457 1263.49 169.008 1258.12 171.618C1240.22 180.3 1170.67 206.233 1134.5 204.067Z" fill="black"/>
<path d="M1534.55 138.046C1530.52 141.983 1510.67 149.14 1528.44 110.638C1530.91 105.301 1532.97 97.0641 1528.2 92.8622C1523.88 89.0552 1519.36 88.8455 1514.77 90.9742C1503.57 96.1571 1482.48 120.986 1471.69 131.179C1476.13 119.462 1485.5 101.235 1489.86 90.2708C1491.21 86.2972 1492.77 80.0715 1489.7 75.0428C1486.31 69.5082 1477.41 70.7299 1471.26 72.8895C1454.17 78.9054 1431.52 106.474 1418.9 124.805C1421.86 114.563 1437.04 88.611 1434.99 79.6643C1433.21 71.9393 1424.96 70.8533 1419.31 74.2222C1415.67 76.3879 1414.13 82.0089 1408.68 87.2289C1388.93 106.134 1335.63 154.996 1328.52 147.974C1323.9 143.42 1334.45 119.357 1341.66 106.973C1346.44 97.9649 1354.7 94.2073 1361.31 85.3655C1367.1 77.6035 1362.83 68.8665 1354.86 67.8299C1350.94 67.3178 1346.51 68.9714 1341.54 73.7533C1317.32 44.3957 1229.26 116.259 1234.19 146.512C1235.28 153.157 1238.31 157.877 1244.26 159.759C1267.94 164.35 1295.21 145.901 1314.61 125.589C1314.41 126.058 1311.36 136.035 1310.98 138.04C1307.76 155.026 1318.85 169.557 1333.76 165.473C1362 157.729 1387.04 125.866 1410.06 106.017C1393.31 140.946 1405.96 150.312 1417.15 147.906C1430.06 145.13 1448.05 107.899 1469.93 92.0724C1479.22 85.3593 1453.6 121.523 1453.95 133.468C1454.16 140.872 1457.23 147.986 1464.47 149.165C1481.08 151.874 1496.99 123.966 1511.56 112.459C1519.22 106.406 1499.74 128.772 1507.17 146.894C1513.36 161.974 1531.29 159.864 1541.16 149.171C1545.93 143.815 1546.52 140.021 1544.98 137.3C1542.88 133.604 1538.38 134.319 1534.57 138.034L1534.55 138.046ZM1320.66 103.709C1308.43 116.901 1255.61 153.058 1253 141.829C1248.78 123.608 1310.87 76.2892 1327.17 81.0711C1328.72 81.5277 1329.32 81.8238 1328.78 83.3911C1327.23 87.4263 1323.88 90.9927 1326.31 95.3796C1328.49 99.1249 1322.89 101.309 1320.66 103.709Z" fill="black"/>
<path d="M1716.66 76.7893C1732.24 80.7382 1688.51 114.507 1712.48 131.013C1726.39 140.589 1748.17 127.489 1758.02 116.365C1757.16 126.768 1759.29 150.51 1771.7 154.496C1775.66 155.767 1782.66 153.114 1780.94 148.542C1762.89 100.52 1796.63 88.1918 1785.37 77.9C1768.05 63.6901 1740.6 123.886 1725.86 114.403C1719.98 110.614 1746.65 84.2182 1738.08 70.0886C1720.62 41.2802 1623.03 90.7894 1604.88 99.6374C1607.04 96.0464 1618.38 84.1318 1615.31 78.1036C1611.78 71.1745 1601.45 71.4275 1597.96 76.6783C1590.62 87.7414 1587.02 106.77 1571.74 120.196C1544.92 143.754 1550.5 152.386 1553.86 158.741C1546.9 171.674 1514.12 220.591 1526.23 231.728C1529.41 234.64 1536.32 232.184 1537.83 226.101C1543.33 203.845 1581.02 140.397 1586.5 130.013C1588.41 126.416 1590.84 123.51 1594.4 121.196C1623.32 102.414 1698.97 72.3036 1716.67 76.7955L1716.66 76.7893Z" fill="black"/>
<path d="M1829.38 87.2666C1808.58 72.452 1838.76 64.11 1849.34 71.4154C1846.56 100.298 1884.93 76.2405 1858.91 56.9465C1843.65 45.6304 1809.26 50.2148 1804.14 71.0452C1796.36 102.698 1850.81 105.499 1847.6 137.078C1845.36 159.247 1811.19 163.449 1793.17 163.653C1774.94 163.998 1790.68 178.813 1801.29 178.177C1827.55 176.604 1866.92 168.916 1867.54 136.264C1868.01 111.164 1842.2 96.386 1829.39 87.2604L1829.38 87.2666Z" fill="black"/>
<path d="M1566.7 166.176C1602.64 176.826 1653.19 153.898 1666.62 117.624C1682.77 74.013 1655.65 32.3398 1571.92 38.1151C1558.25 39.0591 1567.5 54.5955 1576.85 54.0526C1630.94 50.9181 1668.18 71.5881 1651.25 114.761C1640.41 142.384 1597.98 158.797 1573.09 151.152L1563.31 156.545L1566.7 166.17L1566.7 166.176Z" fill="black"/>
</svg>
