<svg width="1280" height="1419" viewBox="0 0 1280 1419" fill="none" xmlns="http://www.w3.org/2000/svg">
<rect x="-3" width="1283" height="1419" fill="white"/>
<path d="M706.002 393.2C705.202 393.733 702.802 394.933 700.535 395.733C691.469 398.667 685.335 403.867 681.602 411.6C679.602 415.733 676.269 420.8 674.135 422.667C668.669 427.6 668.935 432.933 674.535 438.4C676.935 440.667 679.335 442.667 679.869 442.933C681.069 443.467 686.669 458.267 686.669 461.067C686.669 462.267 690.402 466.667 694.935 470.933L703.069 478.533L700.002 490.933C698.269 497.733 696.402 504.267 695.869 505.333C695.335 506.4 693.469 511.467 691.869 516.667C690.269 521.733 688.535 526.667 687.869 527.333C687.335 528.133 686.135 531.733 685.335 535.333C684.402 539.067 682.535 545.733 681.069 550.4C679.602 554.933 678.002 561.467 677.335 565.067C676.535 570.267 676.135 570.8 675.335 568.267C674.402 565.6 673.469 565.333 665.202 565.333C656.135 565.333 641.602 569.067 637.602 572.4C636.402 573.333 636.002 575.733 636.269 578.933L636.669 584L631.869 583.2C628.002 582.533 626.402 582.933 624.135 585.2C620.802 588.533 620.402 596.667 623.469 601.067C625.869 604.533 632.135 608 636.002 608C639.069 608 644.002 612.4 644.002 615.067C644.002 616.133 642.402 617.733 640.535 618.8C632.535 622.933 625.735 638.133 622.135 659.333C620.935 666.667 619.202 675.333 618.535 678.667C617.735 682 616.802 689.067 616.402 694.267L615.602 704H602.935C592.669 704 590.535 703.6 591.069 702.133C591.469 701.067 590.935 699.467 589.869 698.667C586.535 695.867 587.869 694.667 594.002 694.667C599.202 694.667 600.669 694 604.802 689.867C612.802 681.6 609.469 678.4 590.002 675.6C583.735 674.667 578.535 673.333 578.669 672.667C578.669 671.867 583.335 671.2 589.202 670.933C597.735 670.667 600.135 670.133 602.135 667.867C604.535 665.2 604.535 665.067 601.469 662.533C599.735 661.2 596.402 660 593.869 660C591.469 660 589.069 659.333 588.669 658.667C587.735 657.067 576.935 656.8 575.469 658.267C574.935 658.933 570.535 660 565.869 660.667L557.335 662.133V653.867C557.335 647.067 556.802 645.2 554.002 642.133C551.469 639.333 549.869 638.667 547.602 639.467C543.335 640.8 542.669 642.4 542.669 652.667C542.669 660.4 542.135 662.933 539.335 666.933C537.469 669.733 535.469 674.133 534.935 676.933C534.135 681.2 532.935 682.533 528.135 684.933C524.935 686.533 521.202 689.067 519.735 690.667C518.402 692.133 516.002 693.333 514.669 693.333C513.069 693.333 511.735 694.533 511.202 696.667C510.802 698.4 508.269 701.2 505.602 702.8C488.935 712.933 483.869 714.133 478.935 708.933C474.935 704.667 464.002 685.2 464.002 682.4C464.002 681.067 463.469 680 462.669 680C459.202 680 456.269 654.533 459.469 651.867C462.402 649.467 461.735 646.133 456.935 639.867C452.135 633.6 447.469 625.467 448.269 624.667C448.535 624.4 451.335 624.667 454.402 625.467C457.469 626.133 461.469 626.4 463.202 625.867C468.002 624.667 473.069 619.067 474.802 612.933C475.735 609.867 476.935 606.8 477.602 606C478.135 605.333 478.669 603.733 478.669 602.4C478.669 600.8 479.735 600 481.869 600C486.802 600 492.002 597.6 492.002 595.333C492.002 594.267 492.669 593.333 493.335 593.333C495.735 593.333 494.802 589.867 491.735 587.067C490.002 585.6 487.069 584 485.069 583.467C483.069 583.067 480.669 581.333 479.869 579.6C478.935 578 477.869 576.4 477.335 576C475.735 574.933 473.469 559.333 474.802 558.933C476.802 558.133 476.135 554.667 473.869 554.667C472.669 554.667 472.002 554.267 472.269 553.6C475.469 547.2 476.535 545.333 477.602 545.333C480.269 545.333 478.402 538.267 474.669 534.267L470.669 530L449.602 530.267C436.802 530.4 426.935 531.2 424.535 532.133C422.402 533.067 420.402 533.867 420.002 534C419.602 534 416.935 535.333 414.002 536.933C405.869 541.2 397.735 550.4 396.269 556.8C393.735 568.267 398.535 584.4 406.935 592C410.402 595.2 410.669 596.133 409.469 598.533C408.535 600 407.335 601.333 406.802 601.333C406.135 601.333 405.202 602.8 404.802 604.533C404.002 607.733 400.002 611.6 388.802 620C374.935 630.4 352.802 654.667 347.069 666C345.869 668.133 344.535 670.267 344.135 670.667C343.069 671.6 332.002 693.867 332.002 695.2C332.002 695.733 330.669 698.933 329.202 702.4C327.602 705.867 325.869 710.133 325.202 712L324.135 715.333L323.335 712.267C322.802 710.667 321.869 709.333 321.335 709.333C320.802 709.333 319.869 707.733 319.335 705.733C318.935 703.733 316.535 697.867 314.135 692.8C311.735 687.6 307.469 678 304.535 671.6C297.869 656.533 290.135 648.667 280.669 647.2C272.935 646.133 242.802 648.667 240.802 650.667C240.135 651.333 237.469 652 234.935 652C228.935 652 211.335 656.533 204.402 660C201.335 661.467 198.135 662.667 197.335 662.667C196.535 662.667 194.802 664.667 193.335 666.933C190.535 671.6 190.002 678.667 192.002 687.333C192.669 690.267 193.602 694.4 194.002 696.667C194.535 698.8 195.469 701.867 196.135 703.333C196.802 704.8 198.935 711.733 200.802 718.667C202.535 725.6 204.669 733.467 205.335 736C206.002 738.533 207.469 744.8 208.669 750C209.869 755.067 211.335 759.867 211.869 760.667C212.535 761.333 214.402 768 216.002 775.333C217.735 782.667 219.469 789.467 220.002 790.667C220.535 791.733 222.402 798.4 224.002 805.333C225.735 812.267 227.469 818.533 228.002 819.333C228.535 820 229.735 824 230.535 828C231.469 832 233.602 840.133 235.335 846C236.935 851.867 239.069 860 240.002 864C240.935 868 242.135 871.867 242.669 872.667C243.202 873.333 244.935 880 246.669 887.333C249.735 900.267 255.469 912 258.935 912C259.735 912 260.002 913.333 259.602 914.933C259.202 916.667 257.335 925.467 255.469 934.667C253.469 943.867 251.335 952.533 250.669 954C250.002 955.467 248.269 962.667 246.935 970C245.469 977.333 243.869 984.533 243.469 986C242.535 989.2 237.469 1012.27 237.335 1013.73C237.335 1016 244.402 1017.47 248.135 1015.87C250.269 1015.07 251.869 1014 251.735 1013.47C251.602 1013.07 252.002 1011.73 252.402 1010.67C252.802 1009.6 254.402 1002 256.002 994C257.602 985.867 259.202 978.4 259.602 977.333C260.402 975.467 262.402 966.8 269.202 936C270.669 929.067 272.269 922 272.669 920.267C273.335 917.467 273.869 917.333 290.002 917.333C306.535 917.333 306.669 917.333 306.669 920.4C306.669 922.133 306.269 924 305.735 924.533C303.869 926.267 297.469 962 298.669 963.2C300.802 965.333 308.269 964.533 310.135 962.133C311.069 960.8 312.269 957.2 312.669 954.267C313.202 951.2 314.135 948 314.669 947.333C315.335 946.533 316.802 940.267 318.002 933.333C319.335 926.4 320.935 919.867 321.735 918.933C322.669 917.733 332.669 917.333 366.269 917.6L409.469 918L409.335 965.2C409.335 998.8 409.735 1012.8 410.802 1014.13C412.402 1016 418.269 1016.67 421.869 1015.2C423.469 1014.53 424.002 1012.4 424.135 1006.13C424.135 999.6 424.402 998.533 425.602 1000.8C426.669 1003.2 428.535 1003.73 436.935 1004.53C461.335 1006.53 488.935 1005.2 507.335 1001.07C514.802 999.333 515.335 998.933 515.735 995.067C516.002 992.267 515.202 989.867 513.069 987.467C510.402 984.267 508.669 983.733 498.002 982.667C483.069 981.333 480.669 980.4 473.602 973.333C467.602 967.333 466.535 964 470.402 964C473.735 964 476.002 958.667 476.002 950.667C476.002 947.067 476.535 942.8 477.202 941.067C477.869 939.333 479.735 932.267 481.335 925.333C482.935 918.4 484.802 912 485.335 911.333C485.869 910.533 487.735 905.6 489.335 900.133C490.935 894.667 493.069 889.333 494.135 888.4C495.202 887.333 496.002 885.6 496.002 884.667C496.002 883.6 496.535 882.533 497.069 882.133C497.602 881.867 497.869 885.2 497.602 889.733C496.802 904 501.602 942.8 505.469 952.933C506.402 955.6 507.335 956.133 509.869 955.467C512.935 954.667 512.935 954.933 513.735 967.467C514.669 984.267 515.602 985.2 527.735 983.733C544.002 981.867 556.402 979.733 558.535 978.667C559.735 978.133 568.002 976.267 577.069 974.667C586.002 973.067 593.735 971.2 594.135 970.533C594.535 969.867 595.469 969.333 596.269 969.333C598.002 969.333 596.535 989.6 594.669 990.667C594.002 991.067 593.335 997.333 593.069 1004.67L592.669 1018H596.535C600.002 1018 600.535 1017.47 602.002 1011.33C602.935 1007.6 605.069 996.133 606.535 985.733C608.002 975.2 609.869 965.6 610.535 964.4C611.202 963.067 613.335 951.2 615.202 938C620.002 904.667 620.402 903.333 622.669 903.333C623.869 903.333 624.535 904.4 624.269 906C622.402 921.467 618.402 958.933 618.402 962.267C618.402 964.667 617.869 966.667 617.202 966.667C614.402 966.667 616.269 972.133 619.335 973.6C625.069 976.133 626.535 973.067 629.469 952.533C630.935 942.4 632.535 932.8 633.202 931.333C633.869 929.867 635.202 922.8 636.135 915.6L637.869 902.667H691.602C721.202 902.667 745.335 902.933 745.335 903.2C745.335 903.467 742.002 905.333 737.869 907.467C729.069 911.867 727.735 914.133 731.869 917.6C734.135 919.333 737.202 920 743.335 920C750.269 920 753.069 919.2 760.802 915.2C765.869 912.533 772.269 908.667 775.069 906.4C778.002 904.133 781.335 902.667 782.935 902.933C785.335 903.2 785.869 904.267 785.869 908.667C786.002 913.733 786.269 914 790.002 914C793.735 914 794.002 913.6 794.402 908.267L794.802 902.667H823.335C840.802 902.667 852.135 903.2 852.669 904C854.269 906.533 853.869 919.2 852.269 919.733C851.335 920 850.669 921.067 850.669 922.133C850.669 924.4 846.135 933.733 843.335 937.067C834.535 947.867 824.002 957.467 818.935 959.467C814.002 961.333 813.202 962.133 813.602 965.2C814.002 968.4 814.535 968.667 821.735 969.067C834.669 969.733 841.602 966.533 853.602 954.533C864.535 943.333 865.335 943.333 865.335 954C865.335 958.4 865.869 959.867 867.869 960.4C872.935 961.6 873.602 959.6 874.269 940.533C874.935 924.667 874.669 921.333 872.802 917.467C871.069 914.4 870.669 911.6 871.335 907.867L872.269 902.667L937.069 902.933L1002 903.333L1004.94 921.333C1011.07 959.6 1013.34 972.267 1014 973.467C1015.07 975.067 1019.07 975.067 1020.8 973.333C1022.14 972 1017.6 922.533 1016 921.333C1015.47 920.933 1014.67 916.533 1014.14 911.6C1013.2 902.667 1013.34 902.533 1016.27 902.933C1019.6 903.333 1019.2 901.6 1026.54 946C1028.67 959.2 1030.94 971.467 1031.34 973.333C1031.74 975.2 1033.34 985.067 1034.94 995.333C1037.74 1014.13 1039.47 1018.67 1044 1018.67C1048 1018.67 1049.34 1015.73 1047.87 1010C1047.2 1007.07 1045.07 993.6 1043.34 980C1041.47 966.4 1039.34 950.8 1038.54 945.2C1037.6 939.6 1037.34 934.133 1037.74 933.067C1038.27 931.467 1042 931.067 1055.47 930.8C1064.94 930.667 1072.94 930.267 1073.2 929.867C1073.6 929.467 1073.87 761.333 1073.34 740.667C1073.2 734.933 1068.54 728.533 1051.74 711.6L1044.14 704H1026.67H1009.34V695.333C1009.34 690.4 1008.8 686.667 1008 686.667C1007.34 686.667 1006.67 684.133 1006.67 680.933C1006.54 671.333 1001.87 647.333 998.135 637.467C996.135 632.4 992.269 625.6 989.602 622.533C985.202 617.6 983.469 616.8 973.335 614.4C959.735 611.333 938.802 608.133 930.802 608C925.869 608 925.202 607.733 926.002 605.6C926.535 604.4 927.335 600.267 927.735 596.4C928.269 590.533 927.735 588.133 924.002 580.533C920.269 572.667 919.869 570.933 920.802 564.8C922.802 551.333 920.535 543.2 913.069 535.6C910.669 533.2 906.935 530.533 904.669 529.733C902.535 528.933 899.469 527.733 898.002 527.2C896.535 526.667 891.735 526.4 887.335 526.533C862.002 527.6 841.469 539.2 839.335 553.733C838.269 560.267 840.802 567.067 844.935 568.533C846.935 569.333 846.402 570.267 841.469 574.8C835.869 580 835.869 580.267 838.135 582.8C839.335 584.133 841.335 585.333 842.535 585.333C844.002 585.333 845.735 588.133 847.735 593.867C849.335 598.667 850.669 603.2 850.669 603.867C850.669 604.8 845.869 605.333 837.202 605.333H823.735L824.535 601.6C826.802 591.2 826.935 569.467 824.669 555.333C823.469 547.2 822.002 540 821.335 539.333C820.802 538.533 820.002 536.133 819.469 534C817.869 527.2 814.269 515.333 813.335 514.667C812.935 514.267 811.469 511.067 810.135 507.467C804.935 493.733 792.535 478.667 782.669 474.267C779.335 472.8 776.402 471.067 776.002 470.533C775.602 469.867 770.802 468.667 765.335 467.733C759.869 466.8 754.935 465.467 754.402 464.667C752.669 462.267 754.935 454.133 758.135 451.2C759.869 449.6 761.335 447.733 761.335 447.067C761.335 445.067 758.135 442.667 754.802 442C750.935 441.333 749.335 440.133 749.335 438.133C749.335 437.067 748.402 435.6 747.335 434.667C746.269 433.733 745.335 431.2 745.469 428.8C745.469 418.533 743.735 411.467 739.735 405.867C735.602 400 728.269 394.667 724.535 394.667C723.469 394.667 722.669 394 722.669 393.333C722.669 391.733 707.735 391.6 706.002 393.2ZM724.269 397.6C727.202 398.4 730.135 400.267 730.802 401.6C731.469 402.933 732.935 404 734.002 404C736.402 404 738.135 407.2 739.335 414C740.269 419.2 740.269 419.2 737.869 417.067C731.069 410.667 726.269 407.733 718.535 405.333C713.869 403.867 708.669 402.667 706.935 402.667C703.335 402.667 701.469 398.933 704.135 397.2C706.802 395.467 718.135 395.733 724.269 397.6ZM706.669 405.467C711.469 406.133 718.002 408.267 721.202 410.133C724.402 411.867 727.602 413.333 728.402 413.333C729.202 413.333 731.069 414.533 732.669 415.867C734.135 417.333 736.935 420 738.935 421.867C740.935 423.733 742.402 426 742.002 426.933C740.935 429.733 733.069 428.933 728.269 425.6C725.869 423.867 722.002 421.867 719.602 421.2C708.935 417.867 702.002 416.267 701.069 416.8C700.402 417.2 700.002 416.8 700.002 416C700.002 414.4 692.935 414.8 687.069 416.667C682.535 418.133 683.069 413.333 687.869 408.133C692.135 403.6 693.735 403.333 706.669 405.467ZM698.002 421.6C698.935 422.4 698.535 423.467 697.069 424.533C694.135 426.8 694.002 428.533 696.802 427.467C698.002 426.933 702.802 428.4 707.469 430.667C712.135 432.8 716.802 434.667 717.869 434.667C720.269 434.667 725.335 440.933 725.335 444C725.335 447.067 728.802 449.867 731.335 448.8C732.402 448.4 733.335 446.533 733.335 444.533C733.335 440.667 737.069 432 738.669 432C740.802 432 741.469 439.733 739.869 445.867C738.802 450.4 737.735 452 735.869 452C734.402 452 733.335 452.8 733.335 453.6C733.335 454.533 732.935 456.8 732.535 458.667C731.735 461.467 732.002 461.733 733.469 460.267C736.535 457.467 737.602 458.533 735.069 462C733.335 464.4 731.335 465.2 728.002 465.333C720.935 465.333 714.402 467.6 710.402 471.333C705.735 475.6 702.135 475.6 698.935 470.933C696.802 467.867 696.669 466.933 698.269 464C701.069 458.667 700.269 456.133 697.202 460.267C695.735 462.4 693.469 464 692.402 464C690.802 464 690.535 463.067 691.202 460.267C693.469 450.667 693.469 447.067 691.469 442.133C690.402 439.467 688.802 437.467 688.002 438C687.069 438.533 687.335 439.867 688.669 441.733C691.335 445.6 691.202 446.267 687.469 446.267C684.802 446.267 684.135 445.467 683.469 441.467C682.269 434.133 682.535 428 684.002 428C684.935 428 684.935 427.2 684.002 425.467C683.335 424 682.669 422.267 682.669 421.467C682.669 418.8 695.069 418.8 698.002 421.6ZM726.669 434.667C726.669 435.333 726.135 436 725.335 436C724.669 436 724.002 435.333 724.002 434.667C724.002 433.867 724.669 433.333 725.335 433.333C726.135 433.333 726.669 433.867 726.669 434.667ZM753.469 469.067C762.135 469.733 766.002 470.533 766.402 471.867C766.935 473.333 765.602 473.467 759.869 472.533C751.069 471.333 745.735 471.2 741.202 472.4C738.535 473.067 737.335 472.8 736.802 471.2C735.735 468.4 736.935 466.667 739.335 467.467C740.402 467.867 746.802 468.667 753.469 469.067ZM721.069 471.867C722.269 472.667 726.135 473.6 729.602 474C734.935 474.667 736.002 475.333 737.869 479.2C739.069 481.733 740.002 485.067 740.002 486.667C740.002 489.333 739.602 489.6 735.069 488.667C732.269 488.133 728.535 486.933 726.669 486C724.802 485.067 719.869 483.867 715.735 483.467C708.802 482.533 708.002 482.133 708.002 479.333C708.002 476.133 713.602 470.667 716.802 470.667C717.869 470.667 719.735 471.2 721.069 471.867ZM778.002 481.2C789.735 482.667 790.135 482.933 795.069 488.267C798.535 492.133 799.602 494.267 798.669 495.2C797.735 496.133 796.402 496 794.269 494.8C792.135 493.467 784.669 492.667 767.735 492.267L744.002 491.6V487.2C744.002 484.8 743.335 482.667 742.402 482.4C741.469 482 741.335 481.067 741.869 480.133C743.069 478.267 756.802 478.667 778.002 481.2ZM716.002 490.8C719.335 491.6 723.469 492.533 725.335 492.8C727.069 493.2 729.202 493.867 730.002 494.533C733.869 497.2 742.802 498.533 762.669 499.333C783.069 500 802.669 502.933 806.135 505.6C807.602 506.667 811.602 518.667 810.935 519.867C810.402 520.933 795.335 519.867 784.002 517.867C777.735 516.8 768.135 516 762.669 516.267C757.202 516.4 751.869 516.133 750.935 515.467C750.135 514.933 748.669 514.933 747.869 515.467C746.002 516.533 733.335 517.6 733.335 516.667C733.335 516.267 734.269 513.867 735.202 511.333C736.935 507.333 736.935 506.667 735.335 506.667C734.402 506.667 733.069 507.867 732.669 509.333C731.602 512.667 731.069 512.667 724.535 509.467C721.602 508 714.935 506.4 709.602 506C698.935 504.933 699.069 504.933 701.469 495.2C703.202 488.667 704.669 488.133 716.002 490.8ZM719.602 515.467C723.469 516.533 726.935 518 727.469 518.8C728.802 521.067 722.535 533.333 720.002 533.333C718.669 533.333 715.335 532.533 712.535 531.467C709.602 530.533 703.869 529.333 699.735 528.8C695.202 528.267 692.002 527.2 692.002 526.267C692.002 524.267 694.935 515.867 696.535 513.6C697.735 511.6 708.535 512.4 719.602 515.467ZM740.002 525.333C740.002 526 738.002 527.6 735.735 528.933C732.135 530.8 731.869 531.333 733.735 531.733C735.202 532 738.535 530.4 741.602 528L746.935 523.6L765.869 524.533C790.002 525.6 796.535 526.133 804.669 527.733C808.269 528.4 812.002 528.8 812.935 528.4C814.935 527.6 816.669 531.2 817.869 538C818.402 540.933 819.469 545.333 820.402 547.6C821.202 550 821.469 552.267 821.069 552.667C820.135 553.6 798.402 549.333 796.802 547.867C796.002 547.2 796.135 545.6 797.069 543.733C799.202 539.333 799.602 534.4 797.735 533.733C796.802 533.333 795.602 536 794.669 540.533L793.202 548L782.935 546.933C769.335 545.733 744.135 545.733 733.069 547.067C724.802 548.133 724.135 548 722.669 545.333C721.469 543.067 721.602 541.333 723.602 536.533C724.935 533.333 726.535 530.667 727.069 530.667C727.735 530.667 727.869 530.133 727.469 529.467C726.135 527.333 731.335 524.533 737.735 524.133C738.935 524.133 740.002 524.533 740.002 525.333ZM900.002 530.667C905.869 532.267 914.402 540.267 916.935 546.533C918.535 550.133 918.802 554 918.135 562.667C917.202 573.6 917.335 574.267 921.202 581.6C926.135 590.667 926.535 597.867 922.669 604.533C918.135 612 916.402 611.6 916.935 602.933L917.335 595.333L915.202 600C914.002 602.533 912.135 606.667 911.202 609.067C910.135 611.467 908.002 613.867 906.402 614.533C904.402 615.2 904.002 615.867 905.202 616.533C906.135 617.2 907.602 616.933 908.402 616.133C910.802 613.733 911.735 614.4 910.935 618C910.669 619.867 908.002 623.467 905.202 626C898.402 632 890.402 632.533 884.135 627.2C879.335 623.2 878.935 620.667 882.535 618.8C884.935 617.467 888.802 609.333 887.069 609.333C886.669 609.333 884.269 611.467 881.735 614C876.002 620 871.869 620.933 865.469 618C860.802 616 860.002 615.867 856.402 617.867C853.069 619.6 849.069 619.733 833.202 619.067C805.469 617.733 740.002 617.867 726.269 619.2C719.869 619.867 714.269 620.933 713.735 621.733C713.202 622.533 716.935 622.667 724.135 622C752.802 619.333 846.669 620.933 846.669 624.133C846.669 624.533 845.602 626.4 844.135 628.133C840.802 632.4 839.869 635.467 838.002 648.533C837.469 652 836.535 655.067 835.869 655.467C835.202 655.867 834.669 657.067 834.669 658.267C834.669 659.333 832.535 665.2 829.869 671.067C825.735 680 824.802 683.733 824.269 693.467C823.735 704.667 823.735 705.2 827.069 708.267C832.402 713.2 834.269 714.533 839.869 717.467C846.269 720.8 846.802 722.667 841.335 722.667C833.735 722.667 824.935 726 819.735 730.8C816.802 733.467 811.869 740.933 808.269 748.133L801.869 760.667L779.735 761.067C752.535 761.467 752.935 761.733 757.069 746.933C761.469 731.333 762.935 719.867 763.335 698.667C763.469 688 764.135 676 764.669 671.867L765.602 664.4L761.335 663.467C758.935 663.067 753.869 662.667 750.135 662.667C743.469 662.533 729.735 659.867 726.802 658C726.002 657.6 714.535 657.2 701.469 657.067C682.802 657.067 676.135 657.6 670.535 659.333C657.069 663.6 655.202 664 648.935 664C645.602 664 641.335 664.533 639.469 665.333C636.135 666.533 636.002 667.067 636.002 676.667V686.667H632.135C628.535 686.667 628.135 687.2 626.269 694.8C624.269 702.667 624.269 702.8 627.069 703.867C629.869 704.933 630.002 705.733 630.002 727.467C630.135 739.867 630.669 752.533 631.202 755.6L632.402 761.333H626.402C623.069 761.333 619.735 760.533 618.935 759.6C616.269 756.4 618.269 706.933 622.535 670.933C623.869 660.4 627.735 643.867 631.469 634C632.002 632.533 634.402 628.8 636.935 625.733C643.335 617.733 647.202 616.667 692.669 611.333C705.735 609.733 727.335 609.2 781.335 608.933C825.602 608.8 853.069 608.133 853.602 607.333C854.135 606.667 855.069 606.533 855.602 607.2C857.069 608.533 851.069 613.333 847.735 613.333C846.402 613.333 845.602 613.867 846.002 614.667C847.602 617.333 853.335 616 857.335 612C861.202 608.133 865.469 607.067 869.869 608.8C872.935 610 870.135 614.667 866.402 614.667C864.269 614.667 863.869 615.067 864.935 616.133C868.802 620 877.069 611.733 878.269 602.667C878.935 598.267 878.669 597.333 876.669 597.333C875.469 597.333 872.935 598.533 871.069 600C869.069 601.467 867.335 602.4 866.935 602C866.535 601.6 867.335 600.533 868.669 599.467C872.135 596.933 874.669 587.6 874.669 576.667C874.669 568.8 875.069 567.067 877.335 565.6C878.802 564.667 880.002 564.533 880.002 565.2C880.002 565.867 881.869 567.067 884.002 567.867C886.269 568.533 888.002 568.933 888.002 568.533C888.002 568.133 884.935 565.067 881.202 561.733C877.602 558.4 873.735 553.733 872.669 551.467C871.602 549.067 870.802 548.267 870.802 549.6C870.669 553.067 873.202 558.933 875.735 560.933C877.869 562.533 877.735 562.667 875.335 561.867C868.402 559.467 865.202 554.4 864.135 543.2C863.469 536.667 863.602 535.067 864.935 535.6C866.002 536 867.869 535.333 869.069 534.267C870.402 533.067 872.935 531.6 874.669 530.8C879.069 529.067 894.135 528.933 900.002 530.667ZM706.135 538C711.735 539.067 716.669 540.267 717.069 540.667C717.469 540.933 716.935 543.867 716.002 547.067L714.402 553.067L699.602 552.267C691.335 552 684.535 551.6 684.402 551.467C683.602 550.8 687.335 537.867 688.535 537.067C690.669 535.6 694.669 535.733 706.135 538ZM859.602 537.467C858.402 538.133 856.402 540.533 855.335 542.667C854.135 545.067 852.135 546.667 850.669 546.667C848.135 546.667 846.935 550 849.069 550.933C849.602 551.067 849.469 554.933 848.669 559.333L847.335 567.333L844.402 564.267C840.669 560.667 840.402 554 843.602 549.333C846.535 544.933 853.335 538.667 856.669 537.333C860.402 535.733 862.402 535.867 859.602 537.467ZM862.002 547.6C862.402 550.4 864.669 555.467 866.802 558.933C871.335 565.867 872.935 575.733 871.469 585.867C870.802 590.4 869.202 593.333 865.869 596.667C863.069 599.467 861.735 602 862.135 603.333C863.735 607.2 858.935 605.333 854.802 600.4C850.402 595.067 849.602 592 852.535 592C854.402 592 856.002 589.2 856.002 585.867C856.002 583.067 854.135 583.6 852.669 586.933C851.069 590.8 848.935 590.533 848.002 586.4C847.469 584.267 846.135 583.2 843.602 582.933C839.069 582.4 838.935 579.067 843.335 577.333C845.202 576.667 847.602 574 848.669 571.733C850.535 567.6 850.669 567.467 851.469 570.267C851.869 572 852.802 573.333 853.469 573.333C855.602 573.333 854.802 567.733 852.402 566C850.402 564.533 850.269 563.733 852.002 558.8C853.069 555.2 854.402 553.467 855.469 553.867C856.802 554.4 857.069 553.467 856.402 550.667C855.735 546.933 857.602 542.667 860.002 542.667C860.535 542.667 861.469 544.933 862.002 547.6ZM722.135 552.667C722.802 556.4 722.269 558.4 719.869 562C718.135 564.533 716.269 566.667 715.735 566.667C714.135 566.667 714.535 559.2 716.269 553.333C718.402 546.8 720.935 546.533 722.135 552.667ZM468.135 552.8C469.469 554.533 469.469 555.467 467.469 558.8C466.135 561.067 465.469 563.2 465.869 563.6C466.269 564 466.935 563.333 467.469 562.133C467.869 560.933 469.069 560 470.002 560C472.002 560 474.002 572.4 472.002 573.067C471.335 573.333 470.802 575.733 470.802 578.4C471.069 582.533 471.202 582.667 471.602 579.6C472.402 574.933 473.335 575.067 476.669 580.4C478.269 582.933 481.202 585.333 484.002 586.133C490.269 588.267 491.869 591.067 488.802 594.533C487.069 596.4 484.669 597.333 481.069 597.333C478.269 597.333 476.002 597.733 476.002 598.267C476.002 598.933 475.469 600.133 474.802 601.067C473.202 603.733 467.069 600.4 465.469 596.133L464.269 592.667L464.135 596.133C464.002 599.6 468.002 604.267 472.269 605.733C474.135 606.4 474.269 607.2 473.069 611.067C469.602 622.133 464.669 624.667 451.069 622.267L445.602 621.333L443.335 628C442.135 631.733 440.402 634.667 439.469 634.667C436.535 634.667 428.535 626.933 426.002 621.467C424.535 618.533 422.935 616 422.402 616C422.002 616 420.802 613.733 420.002 610.933C419.069 608.267 417.469 604 416.269 601.6C414.802 598.267 414.669 596.8 415.869 595.6C416.935 594.533 417.735 594.533 418.935 595.733C422.935 599.733 428.002 596.8 428.002 590.4C428.002 588.133 428.269 588 430.002 589.867C431.069 590.933 432.002 592.533 432.002 593.333C432.002 596.133 436.269 601.333 438.669 601.333C440.002 601.333 441.869 602.667 443.069 604.267C445.069 607.333 445.069 607.2 444.935 602.4C444.669 597.867 444.402 597.6 441.202 598.267C438.135 598.8 437.335 598.267 434.802 593.067C431.469 586 431.069 576.267 434.002 575.2C436.935 574 440.802 578.933 442.535 586C443.335 589.333 444.802 592 445.735 592C447.602 592 450.669 583.2 450.669 577.6C450.669 575.2 452.002 572.533 454.002 570.667L457.469 567.467L454.402 565.2L451.335 562.8L454.269 557.733C456.935 553.2 458.535 552.133 465.469 550.8C466.002 550.8 467.069 551.6 468.135 552.8ZM788.535 556C789.869 557.333 783.469 569.467 779.469 573.067C777.069 575.333 773.869 575.733 753.735 576.4L730.802 577.2L730.002 570.933C729.602 567.467 728.802 563.2 728.402 561.333C726.802 555.6 727.069 555.333 736.002 554.533C747.202 553.333 786.935 554.533 788.535 556ZM806.002 558.533C808.935 559.333 813.202 560 815.335 560C821.602 560.133 822.669 561.6 823.602 571.333L824.402 580.4L821.202 579.467C819.469 578.933 810.669 578.133 801.735 577.733C792.802 577.333 784.802 576.533 783.869 575.867C782.535 575.067 783.335 573.067 786.935 567.733C789.469 563.867 792.002 559.6 792.535 558.133C793.469 555.6 794.935 555.6 806.002 558.533ZM707.602 562.4C704.402 565.867 704.669 568.533 707.869 566.667C711.869 564.667 712.935 565.067 713.735 568.8C714.535 573.2 711.202 575.333 699.335 577.867C694.135 579.067 688.802 580.267 687.202 580.8C684.935 581.467 684.135 580.533 682.269 575.733C679.602 568.8 679.335 561.867 681.735 560.933C682.535 560.533 689.335 560.133 696.535 560.133C709.202 560 709.602 560.133 707.602 562.4ZM725.335 564C725.335 565.467 724.802 566.667 724.002 566.667C723.335 566.667 722.669 565.467 722.669 564C722.669 562.533 723.335 561.333 724.002 561.333C724.802 561.333 725.335 562.533 725.335 564ZM667.869 568.533C666.135 570.267 653.069 574.533 648.269 574.8C640.535 575.333 640.669 573.067 648.669 570.4C654.535 568.533 669.469 567.067 667.869 568.533ZM673.335 574.133C675.869 580.8 674.935 583.067 667.335 589.2C659.069 595.733 657.869 599.867 663.069 603.333C665.869 605.2 666.669 605.2 670.669 603.2C675.469 600.8 677.735 601.467 680.935 606.267C682.669 608.933 682.535 609.067 673.069 610.4C667.735 611.2 659.869 612.667 655.602 613.467C646.535 615.467 646.135 615.067 644.669 605.6C644.135 602.4 642.669 595.467 641.202 590.133C639.869 584.933 638.669 580 638.669 579.2C638.669 578.267 642.535 577.467 649.069 577.067C656.002 576.667 661.069 575.6 664.669 573.6C671.469 570 671.869 570 673.335 574.133ZM679.202 577.6C680.269 581.733 680.135 582.667 678.802 582.667C678.135 582.667 677.335 580.8 677.069 578.667C676.402 574 678.002 573.2 679.202 577.6ZM719.602 585.733L722.402 592.667L719.735 594.8C716.669 597.2 700.535 602.667 696.402 602.667C694.535 602.667 692.935 600.933 691.202 596.933C689.869 593.867 688.135 590.933 687.469 590.533C685.069 588.667 688.269 586.933 695.069 586.4C699.069 586.133 705.069 584.267 708.802 582.4C712.402 580.533 715.602 578.933 716.002 578.8C716.402 578.8 718.002 581.867 719.602 585.733ZM725.069 585.6C726.669 589.2 727.335 592.267 726.535 592.667C725.202 593.6 722.935 588.533 721.735 582C720.669 576.8 721.735 577.867 725.069 585.6ZM762.135 584.667C758.402 587.6 759.869 588 766.002 585.867C772.535 583.6 790.535 583.6 808.669 585.733L822.002 587.333L822.402 592.533C823.202 601.733 818.402 608.267 813.869 604.133C810.402 600.933 760.535 598 742.669 599.867C735.735 600.667 730.002 601.067 729.735 600.8C729.469 600.667 729.735 596.8 730.135 592.267L731.069 584.133L745.202 583.6C752.935 583.467 760.535 583.067 762.002 582.933C764.669 582.8 764.669 582.8 762.135 584.667ZM635.602 587.867C637.069 589.333 638.802 592.8 639.202 595.6C639.735 598.4 640.402 601.733 640.802 602.933C641.869 606.4 635.735 606 630.002 602.267C624.269 598.667 622.402 592 626.002 588C629.069 584.667 632.135 584.667 635.602 587.867ZM685.202 591.467C686.402 594.533 688.135 598 689.202 599.2C690.669 600.933 690.669 601.467 688.669 602.133C685.335 603.467 679.602 601.067 678.002 597.867L676.535 594.933L672.669 598.133C670.402 599.867 667.602 601.333 666.402 601.333C661.469 601.333 662.402 598.133 669.069 591.733C677.869 583.333 682.002 583.333 685.202 591.467ZM417.069 610.533C419.202 615.6 424.402 624.8 428.535 630.933C432.669 637.067 436.002 643.333 436.002 644.667C436.002 646 436.935 647.733 438.002 648.533C439.602 649.733 440.135 652.933 440.135 662.4C440.135 669.2 439.602 675.6 438.935 676.4C438.269 677.333 437.202 681.2 436.669 684.933C435.735 691.733 433.335 694.933 433.335 689.333C433.335 687.6 432.402 686.667 430.669 686.667C429.069 686.667 426.135 685.733 424.002 684.667C420.669 682.933 420.002 681.733 420.002 677.6C420.002 672.267 414.935 660.667 410.935 656.933C409.735 655.733 406.935 653.2 404.802 651.333C400.935 648 400.935 648 403.469 644.933C406.402 641.467 411.069 637.467 412.135 637.333C413.202 637.333 418.269 647.867 419.469 652.4C420.135 655.467 420.935 656.133 423.202 655.467C432.269 652.933 432.002 652.8 433.469 657.2C435.069 661.867 438.135 663.067 436.669 658.267C436.135 656.667 435.735 653.6 435.735 651.6C435.869 648 435.735 647.867 431.602 648.667C429.202 649.2 427.202 650.133 426.935 650.8C425.869 653.467 422.535 651.733 420.802 647.6C419.735 645.333 417.069 639.067 414.802 633.867C412.535 628.667 410.669 623.6 410.669 622.533C410.669 621.467 409.869 619.467 408.802 618C405.202 612.667 405.069 609.6 408.135 605.333C409.869 603.2 411.602 601.333 412.002 601.333C412.535 601.333 414.802 605.467 417.069 610.533ZM725.335 604C725.335 606.133 724.402 606.667 720.402 606.667H715.335L719.335 604C724.402 600.667 725.335 600.667 725.335 604ZM692.002 607.2C692.002 608.267 685.202 608.933 684.535 607.867C684.135 607.2 685.735 606.667 687.869 606.667C690.135 606.667 692.002 606.933 692.002 607.2ZM950.002 613.333C970.802 615.333 981.069 618.133 986.269 623.067C997.069 633.2 1003.07 657.467 1005.34 699.333C1006.14 713.2 1007.34 726.8 1008 729.333C1009.74 735.467 1009.6 748.8 1007.87 755.067L1006.54 760.133L994.402 759.733L982.269 759.333L980.669 752C979.869 748 976.402 739.2 973.069 732.667C969.735 726 965.869 717.333 964.669 713.333C963.335 709.333 961.869 705.333 961.335 704.667C959.735 702.667 955.869 687.2 954.269 676.667C952.669 665.733 952.669 655.333 954.002 645.733C954.802 640.4 954.535 637.6 952.802 634.133C951.602 631.6 950.669 628.667 950.669 627.467C950.669 624.267 956.535 624.8 962.669 628.667C965.602 630.533 968.535 632 969.202 632C969.869 632 971.602 633.333 972.935 635.067C974.269 636.8 976.402 638.533 977.735 639.067C979.735 639.733 979.869 639.6 978.669 637.333C977.202 634.533 970.402 629.333 968.269 629.333C967.469 629.333 966.669 628.667 966.402 627.867C965.735 626 956.535 622.667 952.002 622.667C950.135 622.667 946.135 621.467 943.335 620C938.402 617.467 934.802 616.267 925.069 614.133C918.269 612.533 920.802 610.267 928.402 611.067C932.135 611.467 942.002 612.533 950.002 613.333ZM407.202 622.8C409.202 626.533 410.669 630.4 410.669 631.467C410.669 632.533 407.735 636.4 404.002 640C399.335 644.8 396.402 646.667 393.735 646.667C391.735 646.667 389.069 647.333 388.002 648C386.402 649.067 386.802 649.333 389.469 649.333C394.002 649.333 401.335 651.867 401.335 653.467C401.335 654.133 402.135 654.667 403.069 654.667C405.735 654.667 411.202 661.2 414.402 668C416.535 672.533 417.735 679.467 419.202 695.733C420.269 707.6 421.469 717.867 421.869 718.533C423.335 720.8 430.135 748.933 429.602 750.4C429.335 751.333 427.869 751.733 426.135 751.2C424.535 750.8 420.535 751.733 417.335 753.2L411.335 755.867L419.335 755.2C423.735 754.8 428.135 754.133 429.069 753.867C430.002 753.6 434.535 755.067 439.069 757.2C446.935 760.8 452.535 762.667 455.202 762.533C458.002 762.4 458.802 767.067 457.335 773.733C456.402 777.6 455.202 781.2 454.669 782C454.135 782.667 452.935 785.6 452.002 788.4C450.535 793.2 450.135 793.6 446.135 792.933C443.869 792.533 437.335 790.8 431.602 789.067C422.269 786.267 421.202 785.6 419.869 781.733C418.269 776.933 414.802 774.267 406.802 771.867C401.602 770.267 398.535 767.333 394.002 759.867C388.669 750.8 382.002 736.667 379.735 729.333C378.269 724.533 376.535 720 376.002 719.333C375.469 718.533 374.135 715.333 373.335 712C372.402 708.667 371.335 706.8 371.069 707.733C370.269 709.867 374.535 727.733 376.002 728.667C376.669 729.067 378.402 733.2 380.002 737.867C381.602 742.667 383.735 747.2 384.802 748C385.869 748.933 386.669 750.4 386.669 751.2C386.669 753.067 391.869 763.067 393.335 764C394.002 764.4 394.802 766.267 395.335 768.133L396.269 771.733L374.935 771.867C349.069 772.133 349.869 772.667 351.469 757.067C352.135 750.933 352.535 745.067 352.269 744C352.135 742.933 352.669 740.8 353.335 739.333C355.202 735.333 358.935 719.733 358.135 719.067C357.735 718.667 357.069 719.867 356.535 721.867C356.135 723.733 355.202 725.333 354.535 725.333C353.869 725.333 353.335 727.067 353.335 729.2C353.335 731.333 352.402 735.067 351.335 737.6C350.269 740.533 349.335 748 349.069 757.067L348.669 772H337.335C319.069 772 319.735 772.533 320.269 758.133C320.935 743.867 325.735 718 329.202 710.133C330.535 707.2 332.135 703.2 332.669 701.333C333.202 699.467 336.935 691.333 341.069 683.333C345.069 675.2 349.069 667.333 349.869 665.733C350.669 664 351.735 662.667 352.269 662.667C352.802 662.667 354.802 660.4 356.535 657.6C361.469 649.733 374.402 635.867 385.335 626.533C390.802 621.867 395.602 617.6 395.735 616.933C396.002 616.4 398.002 616 400.002 616C403.335 616 404.402 616.933 407.202 622.8ZM936.802 620.533C945.869 624.667 949.202 629.733 950.135 640.267C950.935 648.533 947.735 672.4 945.469 675.333C944.802 676 943.069 681.2 941.335 686.667C939.735 692.133 938.002 697.2 937.469 698C936.935 698.667 935.069 703.2 933.335 708C931.602 712.8 929.735 716.933 929.335 717.333C928.802 717.733 927.735 720.133 926.802 722.667C924.002 730.933 915.602 737.333 916.935 730.133C917.335 728.4 916.269 724.133 914.669 720.667C912.402 715.733 912.002 712.933 912.669 708.533C913.069 705.333 914.002 702.667 914.535 702.667C915.469 702.667 922.002 679.867 922.002 676.4C922.002 675.6 922.535 674.4 923.069 673.867C923.602 673.333 924.002 670.133 924.002 666.8C924.002 663.467 924.935 657.467 925.869 653.6C926.935 649.867 927.202 646.667 926.669 646.667C924.935 646.667 920.402 663.333 918.135 678.533C916.935 686.267 915.469 692.8 914.802 693.2C914.269 693.733 912.935 697.2 911.869 701.2C910.935 705.067 909.335 708.533 908.535 708.933C907.602 709.2 904.935 708.4 902.402 707.067C900.002 705.733 895.735 704.4 892.935 704C888.669 703.467 887.469 702.533 885.069 698C879.469 686.933 878.935 685.467 879.602 682.933C880.135 680.667 879.335 680.133 874.935 679.333C866.935 678 864.935 675.067 864.535 663.333C864.135 653.467 860.802 642.8 857.335 640.667C854.535 638.933 854.669 640.8 858.002 647.467C861.335 654 862.402 662.267 860.269 664.667C858.402 666.8 853.335 680.133 853.335 682.8C853.335 684.267 852.802 685.333 852.002 685.333C851.335 685.333 850.669 686.8 850.669 688.667C850.669 691.067 850.002 692 848.002 692C844.669 692 838.669 694.8 838.669 696.267C838.669 696.933 839.735 697.2 841.069 696.8C848.669 694.533 850.269 694.667 854.669 697.6C863.335 703.467 871.735 708 873.869 708C876.535 708 876.669 710.133 874.002 711.2C871.335 712.133 871.469 718.667 874.269 722.533C876.402 725.733 876.402 725.733 873.202 724.8C871.469 724.4 866.669 723.333 862.669 722.533C858.669 721.867 854.135 720.667 852.669 720C851.202 719.333 847.335 717.733 844.002 716.267C840.669 714.8 835.469 711.467 832.402 708.667C826.669 703.867 826.669 703.733 826.669 694.667C826.669 689.6 827.202 685.2 827.869 684.8C828.402 684.4 829.335 682.133 829.869 679.733C830.269 677.333 832.402 671.867 834.669 667.333C836.802 662.933 839.469 654 840.669 647.333C842.402 638.533 844.002 634 846.935 629.733C852.135 622.667 858.935 619.067 863.602 621.2C865.335 622 869.202 622.667 872.135 622.667C876.535 622.667 877.602 623.2 878.669 626C881.069 632.4 894.669 635.467 902.402 631.467C907.202 628.933 911.469 624.267 913.335 619.467C914.669 615.733 914.802 615.733 922.402 616.667C926.535 617.067 933.069 618.933 936.802 620.533ZM453.069 639.867C458.135 647.6 458.135 648 454.535 652.533C452.135 655.6 452.135 656.133 453.869 656.8C457.069 658 456.535 665.2 451.869 684.8C449.602 694.267 447.469 703.467 447.069 705.333C446.535 707.2 445.469 709.867 444.669 711.333C443.735 712.8 442.535 715.733 442.135 718C440.935 723.467 432.935 741.333 431.735 741.333C431.069 741.333 430.669 740.667 430.669 740C430.669 738.267 435.869 722.533 437.069 720.667C437.602 720 438.002 719.067 438.135 718.667C438.135 718.267 438.669 717.067 439.069 716C439.469 714.933 442.135 706.133 444.802 696.667C449.202 681.067 449.735 677.733 449.735 663.333C449.735 651.733 449.069 645.733 447.469 641.467C445.469 636 445.602 633.333 447.869 633.333C448.402 633.333 450.802 636.267 453.069 639.867ZM444.402 642.533C445.202 644.4 445.869 646.933 446.002 648.133C446.135 649.333 446.669 651.733 447.069 653.467C448.669 660.533 443.069 692 436.802 711.067C434.135 719.067 432.002 726.267 432.002 727.2C432.002 728.267 431.202 729.733 430.135 730.533C426.802 733.333 426.802 728.8 430.135 721.867C431.869 718.267 433.335 714.533 433.335 713.467C433.335 710.4 437.335 694.267 438.669 691.867C440.002 689.333 442.135 677.733 443.335 665.6C444.269 656.933 440.935 640 438.402 640C437.735 640 437.469 639.467 438.002 638.667C439.202 636.667 442.802 638.8 444.402 642.533ZM552.002 644.133C553.335 646.4 553.869 655.867 553.069 662.667C553.069 663.733 553.069 668.267 553.069 672.667C553.335 680.4 553.469 680.533 555.469 677.6C556.669 675.733 557.335 672.8 557.069 670.533C556.669 668.4 557.202 666 558.002 665.333C563.735 660.533 599.335 660.667 599.335 665.333C599.335 668.4 577.335 669.733 574.935 666.933C573.602 665.2 573.469 666.267 574.135 672.8C574.935 679.867 574.002 685.733 571.469 692.133C570.669 693.867 571.602 694.4 576.002 695.067C578.935 695.467 583.069 696.8 585.069 698.267L588.669 700.667L583.602 701.067C580.402 701.333 576.402 700.533 573.069 698.8C570.002 697.333 567.069 696.4 566.535 696.8C564.402 698.133 552.935 698.667 551.469 697.467C550.669 696.8 547.869 695.867 545.335 695.467L540.669 694.533L544.002 697.6L547.335 700.667L544.002 703.733C542.135 705.333 539.335 707.6 537.602 708.8C534.669 710.8 534.535 710.667 532.002 705.067C528.535 697.333 528.402 688.533 531.869 686.667C534.002 685.6 534.669 685.867 535.335 688C536.935 693.2 538.269 690.533 537.602 683.2C537.069 677.333 537.469 675.067 539.602 672.267C543.735 666.4 545.735 660.4 545.869 652.267C546.135 641.6 548.802 638.133 552.002 644.133ZM284.935 652.133C291.602 655.867 294.935 658.933 297.602 664.267C302.935 674.8 312.002 696.133 312.002 698C312.002 699.067 312.535 700 313.069 700C313.602 700 315.602 703.867 317.469 708.667C319.202 713.467 321.069 717.333 321.602 717.333C322.135 717.333 322.402 719.2 322.402 721.333C322.269 725.733 319.602 726.133 318.935 721.867C318.669 720.533 314.669 711.467 310.002 702C305.469 692.4 299.469 680.133 296.802 674.667C294.135 669.2 290.269 662.667 288.002 660.133C284.269 655.733 283.602 655.6 273.735 654.933C261.069 654.267 236.535 656.533 233.869 658.667C232.935 659.6 231.202 660 230.135 659.6C229.202 659.2 227.869 659.333 227.202 660C226.535 660.533 223.735 661.733 221.069 662.667C217.469 663.733 216.002 664.933 216.002 666.8C216.002 668.933 215.069 669.333 210.402 669.333C199.069 669.333 198.135 664.4 208.802 661.6C212.402 660.533 216.535 659.2 218.002 658.533C219.469 657.867 222.802 657.067 225.335 656.667C227.869 656.4 234.802 655.2 240.669 654.133C251.869 652 268.402 649.867 275.602 649.467C278.002 649.467 282.135 650.533 284.935 652.133ZM264.002 658.933C264.002 660.133 264.402 660.133 265.602 658.933C268.002 656.533 278.802 657.067 283.335 659.867C286.269 661.6 289.335 666.133 294.135 676.133C297.869 683.733 301.735 692.133 302.669 694.667C303.602 697.2 305.202 700.267 306.002 701.333C306.935 702.4 308.535 705.733 309.469 708.667C310.402 711.6 312.002 714.933 312.935 716.133C316.935 720.933 319.469 732.4 318.402 740.667C317.869 745.067 317.469 753.733 317.602 760L317.869 771.333L311.869 771.2C299.869 770.8 283.869 760.4 276.402 748.133C270.002 737.6 262.402 720.4 259.069 708.667C258.935 707.867 257.335 702.133 255.469 695.867C249.602 674.533 247.469 672.4 231.202 670.667C224.669 670 218.935 669.333 218.402 669.333C217.735 669.333 217.335 668.533 217.335 667.6C217.335 665.733 230.802 662.133 244.002 660.533C248.002 660.133 252.269 659.2 253.335 658.533C256.402 656.8 264.002 657.067 264.002 658.933ZM736.402 663.333C740.669 664.4 748.269 665.333 753.335 665.333H762.669V670C762.669 672.533 762.135 674.667 761.469 674.667C760.802 674.667 759.869 686.533 759.469 701.6C758.669 734.933 758.802 733.6 757.469 735.333C756.802 736 755.202 741.333 754.002 746.933C752.802 752.667 751.202 757.333 750.669 757.333C748.669 757.333 748.669 763.333 750.669 764.933C752.402 766.267 752.269 766.8 750.135 769.2C748.135 771.333 746.002 772 740.669 772C736.935 772 733.202 771.333 732.402 770.533C731.335 769.467 727.335 769.6 718.135 770.667C703.469 772.4 667.202 772.8 655.069 771.467C647.869 770.533 646.802 770.667 646.135 772.933C644.935 776.533 637.735 776.533 636.535 773.067C636.135 771.467 636.402 769.867 637.202 769.333C638.402 768.667 638.269 766.133 636.669 759.2C635.469 754.133 633.869 748.933 633.202 747.733C631.602 744.533 631.602 713.733 633.335 712.667C634.135 712.267 634.669 710.267 634.669 708.267C634.669 706.267 635.602 700.8 636.802 696C637.869 691.2 638.935 683.067 639.069 678L639.335 668.667H646.802C650.935 668.533 655.202 667.867 656.135 667.067C658.669 665.067 668.135 662.667 678.669 661.333C691.602 659.6 727.335 660.8 736.402 663.333ZM200.402 669.733C201.069 671.6 218.269 673.867 227.069 673.467C230.935 673.333 243.602 676.933 246.402 679.067C247.202 679.733 248.002 681.067 248.002 682.133C248.002 683.067 248.669 685.467 249.469 687.6C250.402 689.6 252.669 697.333 254.802 704.667C263.469 736.4 273.469 754.133 288.535 765.2C301.602 774.8 301.602 774.8 355.869 775.333C382.669 775.6 406.535 776.133 408.669 776.667C417.469 778.8 417.735 780 420.002 810C420.802 820.267 421.869 831.333 422.669 834.667C423.335 838 425.202 856.267 426.802 875.2C429.602 908.667 429.602 909.867 427.202 911.6C425.335 912.933 409.602 913.333 345.069 913.333H265.335L259.335 907.867C256.002 904.8 253.335 901.2 253.335 899.867C253.335 898.4 252.802 896.267 252.135 894.933C251.335 893.733 249.469 886.933 247.869 880C246.269 873.067 244.135 865.467 243.335 863.333C242.402 861.067 240.669 854.133 239.335 847.6C238.002 841.2 236.402 836 235.735 836C235.069 836 234.802 835.467 235.335 834.667C235.735 834 235.469 832.4 234.802 831.067C234.002 829.733 232.135 823.867 230.802 818C225.202 795.467 221.202 780.533 220.135 778C219.469 776.533 217.469 769.333 215.869 762C214.269 754.667 212.402 747.733 211.735 746.667C211.202 745.6 209.602 740.133 208.269 734.667C201.869 709.2 198.135 694.933 196.402 690.933C193.602 684.4 192.669 672.533 194.669 670C196.669 667.467 199.469 667.467 200.402 669.733ZM867.869 679.467C872.802 682 876.535 686.667 880.402 695.2C883.602 702.267 883.869 703.333 882.135 705.067C880.669 706.533 879.602 706.667 878.402 705.733C877.469 704.933 874.535 704 872.002 703.467C864.669 702.133 854.669 694.667 854.669 690.667C854.669 685.6 857.335 676.933 859.735 674.267C861.602 672.133 861.869 672.133 863.202 674.933C864.002 676.667 866.135 678.667 867.869 679.467ZM954.535 692.667C955.335 694.133 956.935 698.933 958.135 703.333C959.335 707.733 960.802 711.867 961.469 712.533C962.135 713.333 962.669 714.8 962.669 716C962.669 719.333 953.602 728 947.202 730.8C941.469 733.333 925.335 735.867 925.335 734.133C925.335 733.6 927.469 728.667 930.002 723.2C932.535 717.733 934.669 712.933 934.669 712.4C934.669 711.867 935.735 709.067 937.069 706.133C943.069 692.933 944.002 690.4 944.002 688.267C944.002 687.067 944.802 684.4 945.869 682.533C946.802 680.667 948.002 677.333 948.669 675.2C949.602 671.733 949.869 672.267 951.469 680.667C952.402 685.733 953.869 691.2 954.535 692.667ZM590.669 678C601.602 679.6 606.669 681.333 606.669 683.6C606.669 685.467 605.202 685.6 595.735 684.933C589.602 684.4 583.069 684 581.069 684C577.735 684 577.335 683.467 577.335 679.867C577.335 676.133 577.602 675.867 581.069 676.533C583.069 676.933 587.335 677.6 590.669 678ZM470.402 702C472.269 704.933 475.069 708.667 476.402 710.267C478.669 712.8 478.935 714.533 478.135 722.533C477.202 733.2 479.202 736.8 480.402 726.533C481.335 719.333 483.069 716 486.135 716C487.735 716 492.135 714 504.535 707.733C507.602 706.133 508.802 707.733 510.002 715.733C510.535 719.067 511.469 723.067 512.269 724.8C513.335 727.2 513.335 728.4 511.869 730.133C510.802 731.333 509.469 733.867 508.669 735.6C506.802 740.133 493.735 745.333 481.869 746.267C472.935 746.933 471.735 746.667 464.269 742.667C455.869 738.133 442.669 726.933 442.669 724.133C442.669 723.333 444.002 722 445.735 721.2C448.535 720 453.069 714.133 456.935 706.8C457.869 705.067 458.669 701.867 458.535 699.467C458.535 695.333 458.535 695.333 457.069 698.667C454.402 705.2 450.002 713.333 449.202 713.333C447.869 713.333 450.135 702.8 455.335 685.6L457.869 677.067L462.402 686.933C464.802 692.267 468.402 699.067 470.402 702ZM595.069 687.467C602.269 688.667 601.602 692 594.135 692C584.002 692 576.002 690.4 576.002 688.533C576.002 686.533 585.869 686 595.069 687.467ZM429.335 692.533C429.335 698.4 427.602 699.6 424.002 696C419.602 691.6 420.669 688 426.269 688C428.935 688 429.335 688.667 429.335 692.533ZM631.069 694.933C630.269 699.6 629.602 700.8 628.802 699.867C627.869 698.8 629.602 690.667 630.802 690.667C631.469 690.667 631.602 692.667 631.069 694.933ZM527.202 699.733C527.735 703.467 530.135 709.733 533.335 715.2C536.269 720.133 538.669 725.467 538.669 726.8C538.669 729.867 533.735 731.2 522.935 730.8C517.069 730.667 513.869 725.067 512.669 713.333C511.335 700.4 512.535 696.267 517.735 694.8C525.602 692.533 526.269 692.8 527.202 699.733ZM427.202 704.933C426.135 711.067 424.002 713.867 424.002 709.2C424.002 707.467 423.469 705.067 422.802 704C421.202 701.6 422.135 700 425.469 700C427.869 700 428.002 700.667 427.202 704.933ZM573.335 701.867C575.869 702.8 578.002 704.267 578.002 705.067C578.002 705.867 575.202 709.6 571.735 713.067C568.135 716.667 565.335 719.867 565.335 720.267C565.335 720.533 562.802 723.6 559.602 726.8C554.269 732.4 553.469 732.8 548.269 732.267C542.402 731.733 541.469 730.667 544.402 728.133C546.002 726.933 546.002 725.2 544.535 717.733L542.802 708.667L547.069 705.333C550.802 702.4 557.202 700.667 566.002 700.267C567.469 700.267 570.802 700.933 573.335 701.867ZM613.335 708.8C613.335 709.2 611.602 712 609.602 715.067C607.469 718.133 603.335 724.267 600.535 728.667L595.202 736.667L578.269 737.067C556.402 737.467 555.602 740 577.202 740H593.202L593.602 756.267C593.869 765.333 593.869 807.6 593.602 850.267L593.202 928H574.002H554.669V850V772L557.735 770.533C563.069 768.133 567.335 760.267 567.202 753.067C567.069 746.267 564.402 742 559.069 739.867C557.335 739.2 556.002 738.267 556.002 737.733C556.002 736.4 576.669 711.867 579.602 709.6C581.869 708 613.335 707.2 613.335 708.8ZM904.535 712C909.602 716.533 913.735 724.267 912.935 727.733C912.535 729.733 912.269 729.6 911.469 727.333C909.069 721.067 907.602 719.2 902.935 716C900.269 714.133 897.602 712.4 897.069 712.267C895.202 711.467 896.002 714.4 898.135 716.667C900.935 719.333 902.535 730 900.002 729.067C899.069 728.8 897.335 725.867 896.135 722.667C894.669 718.667 893.069 716.533 891.335 716.267C889.735 716 889.202 716.267 890.002 716.933C892.002 718.4 894.669 724.933 894.669 728C894.669 732 892.535 731.2 890.669 726.667C888.135 720.667 886.402 720.267 887.335 725.867C887.869 728.667 887.735 730.667 887.069 730.667C885.202 730.667 881.869 726.533 880.802 723.2C880.269 721.6 878.669 720 877.335 719.6C873.869 718.667 874.002 715.867 877.735 711.733C880.402 708.8 882.002 708.4 890.402 708.267C899.202 708.133 900.269 708.4 904.535 712ZM1046.8 710.267C1048.94 711.6 1050.67 713.067 1050.67 713.867C1050.67 714.533 1054.54 719.333 1059.07 724.533C1063.74 729.733 1068.4 735.6 1069.47 737.6C1071.07 740.533 1071.34 756.667 1070.94 834.533L1070.67 928H1053.34H1036.14L1035.47 923.6C1032.54 904.933 1031.47 892.133 1031.47 872L1031.34 848.667L1035.07 848.267C1038.27 847.867 1038.67 847.2 1038.8 842.933C1039.2 833.333 1038.4 828.667 1034.67 821.333L1031.07 814L1031.34 778C1031.47 758.133 1031.74 741.6 1031.87 740.933C1031.87 740.4 1039.2 740 1048 740C1057.74 740 1064 739.467 1064 738.667C1064 737.467 1046.8 736.533 1035.2 737.2C1031.47 737.333 1030.27 736.533 1025.47 729.333C1022.4 724.933 1020 720.933 1020 720.267C1020 719.733 1018.54 717.2 1016.67 714.667C1014.8 712.133 1013.34 709.6 1013.34 709.067C1013.34 708.533 1020 708 1028.14 708C1039.74 708 1043.74 708.533 1046.8 710.267ZM614.935 737.6C614.402 761.867 614.269 763.333 611.335 767.2C609.602 769.467 606.935 774 605.469 777.333C603.869 780.667 601.469 784.8 600.002 786.667L597.335 790V763.867V737.733L601.069 732.933C603.069 730.267 606.935 724.4 609.869 720C612.669 715.6 615.069 712 615.202 712C615.202 712 615.069 723.467 614.935 737.6ZM1019.74 725.067L1028 737.867V764L1027.87 790L1023.47 782C1020.94 777.6 1018.14 773.067 1017.2 771.867C1011.34 765.2 1010.67 762 1010.67 742.4C1010.8 731.867 1010.4 720.8 1009.87 717.6C1009.47 714.533 1009.47 712 1010.14 712C1010.8 712.133 1015.07 717.867 1019.74 725.067ZM906.002 722.667C906.402 723.333 906.135 724 905.469 724C904.669 724 904.002 723.333 904.002 722.667C904.002 721.867 904.269 721.333 904.535 721.333C904.935 721.333 905.602 721.867 906.002 722.667ZM908.135 728.8C909.735 730.667 909.602 730.933 907.469 730.533C906.002 730.267 904.669 729.2 904.269 728.267C903.602 726 906.002 726.267 908.135 728.8ZM446.002 733.333C447.069 733.333 448.669 734.533 449.602 736C450.535 737.6 454.535 740.533 458.402 742.667C462.135 744.933 465.335 746.933 465.335 747.333C465.335 747.733 458.402 748 450.002 748C435.735 748 434.669 747.867 434.669 745.333C434.669 742.533 436.802 737.067 439.869 732.267C441.469 729.6 442.002 729.467 442.935 731.2C443.602 732.4 444.935 733.333 446.002 733.333ZM543.069 734.667H549.602L549.069 746.667C548.669 753.333 547.869 759.333 547.202 760C545.469 761.733 530.135 764 520.402 764H512.002V748.533V732.933L524.269 733.867C530.935 734.267 539.335 734.667 543.069 734.667ZM561.335 745.2C567.469 750.933 566.269 758.933 558.135 766.533C552.935 771.467 552.135 766.933 557.335 761.467C559.735 758.8 561.335 755.6 561.335 753.467C561.335 749.467 557.069 744 554.002 744C552.935 744 552.002 743.333 552.002 742.667C552.002 740 557.469 741.467 561.335 745.2ZM501.735 747.333C501.069 749.467 498.402 750 496.935 748.4C495.869 747.467 500.269 744 501.602 744.8C502.135 745.2 502.269 746.267 501.735 747.333ZM509.335 749.467C509.335 750 507.602 753.467 505.469 757.2L501.469 763.867L505.602 765.2C511.469 767.333 527.335 767.067 539.602 764.667C545.335 763.6 550.135 762.667 550.402 762.667C550.535 762.667 550.669 763.6 550.669 764.667C550.669 768 544.935 770.533 534.269 772.267C528.669 773.2 524.002 774.4 524.002 774.933C524.002 777.067 526.935 777.2 534.135 775.333C542.935 773.067 548.002 772.8 548.002 774.533C548.002 777.067 540.935 780 532.669 781.067C527.869 781.6 523.735 782.533 523.602 783.333C523.202 785.2 531.335 785.733 534.535 784.133C536.269 783.067 537.469 783.067 538.002 784C538.935 785.6 530.935 789.333 526.802 789.333C522.802 789.333 522.002 791.867 525.602 793.2C528.402 794.267 528.402 794.533 526.269 795.333C522.269 797.067 499.735 795.2 493.335 792.8C490.002 791.467 485.602 790.133 483.469 789.733C479.869 789.067 479.735 788.8 480.535 782.933C480.935 779.6 481.335 774.4 481.335 771.2C481.335 766.4 481.735 765.333 483.869 765.333C485.335 765.333 486.935 763.867 487.869 761.6C488.935 759.2 491.335 757.2 495.602 755.467C499.202 754 502.535 751.467 503.869 749.2C505.469 746.4 506.402 745.867 507.602 746.933C508.535 747.733 509.335 748.8 509.335 749.467ZM558.402 753.6C557.869 759.067 554.669 760.267 554.669 754.933C554.669 752.8 555.069 750.667 555.602 750.267C557.602 748.133 558.802 749.6 558.402 753.6ZM492.002 751.867C492.002 753.333 482.802 762.667 481.335 762.667C480.669 762.667 479.869 761.6 479.335 760.133C478.802 758.133 476.802 757.6 468.935 756.933C463.469 756.4 458.802 756.667 458.135 757.333C457.335 758.133 455.469 758.667 453.735 758.667C450.002 758.667 440.002 754.933 437.335 752.533C435.735 750.933 439.869 750.667 463.735 750.667C479.602 750.667 492.002 751.2 492.002 751.867ZM477.069 762.133C481.202 763.467 476.535 791.867 470.802 799.867C467.602 804.267 465.335 804.8 455.735 803.2C449.602 802.133 449.469 800.8 454.402 790.133C458.535 781.333 462.135 766.667 460.935 763.467C460.535 762.4 460.535 761.333 460.935 760.933C461.602 760.133 473.869 761.067 477.069 762.133ZM632.002 767.6C632.002 770 632.535 772 633.202 772C633.869 772 634.669 773.333 634.935 774.933C635.335 777.733 635.869 778 643.335 777.6C647.735 777.333 652.002 776.533 652.935 775.733C654.002 774.933 656.935 774.8 660.935 775.6C670.535 777.2 701.602 776.667 708.669 774.667C714.802 772.933 738.135 773.6 743.469 775.6C745.469 776.4 745.469 776.533 743.602 778C742.402 778.8 740.802 781.2 740.135 783.067L738.669 786.667H682.402C651.335 786.667 625.335 787.2 624.535 787.733C623.735 788.267 620.802 793.2 618.135 798.667C615.335 804.133 611.735 810.8 610.269 813.333C608.669 815.867 606.402 819.733 605.335 822C604.135 824.267 602.135 826.133 600.402 826.4C597.335 826.8 597.335 826.533 597.335 813.333C597.335 800.4 597.469 799.467 602.802 788.267C605.869 781.867 609.602 774.8 611.202 772.667C612.802 770.4 614.535 767.6 615.069 766.4C615.869 764 619.335 763.067 627.069 763.2C631.735 763.2 632.002 763.467 632.002 767.6ZM799.469 767.333C798.935 769.467 798.135 771.467 797.469 772C796.935 772.4 795.335 775.867 794.135 779.6C792.802 783.467 791.602 786.667 791.335 786.667C791.069 786.667 790.002 787.067 788.802 787.467C786.935 788.133 786.669 786.933 786.669 779.733C786.669 773.2 786.135 770.533 784.402 768.933C781.069 766.133 771.469 764.933 762.402 766.4C756.669 767.333 754.669 767.2 754.669 766C754.669 765.2 755.069 764 755.602 763.6C756.002 763.067 766.269 762.8 778.269 763.067L800.135 763.333L799.469 767.333ZM1010.4 765.6C1011.2 766.4 1012 767.733 1012 768.533C1012 769.333 1013.87 772.4 1016 775.2C1018.27 778.133 1020 781.067 1020 781.867C1020 782.667 1021.87 786.933 1024 791.333C1028.14 799.6 1028.94 802.667 1026.8 802.667C1025.6 802.667 1021.07 796.133 1018 790C1016.67 787.467 1015.07 787.333 994.269 786.933L972.002 786.667L976.669 777.867C979.202 773.067 981.335 768 981.335 766.8C981.335 765.467 981.602 764.133 982.002 763.867C983.069 762.667 1008.67 764.267 1010.4 765.6ZM779.735 770.267C785.335 771.733 780.002 773.333 769.735 773.333C760.935 773.333 757.469 772.267 759.602 770.133C760.669 769.067 775.735 769.067 779.735 770.267ZM551.602 838.4C551.869 878.667 551.469 900 550.669 898.667C550.002 897.6 549.335 894.4 549.335 891.733C549.335 889.067 548.669 886.4 547.869 886C547.069 885.467 546.669 883.2 546.802 880.8C546.935 878.533 546.669 875.733 546.269 874.667C545.869 873.6 544.535 864 543.335 853.333C542.002 842.667 540.535 833.733 540.002 833.333C539.469 832.933 538.669 829.6 538.135 826C536.802 816 533.602 807.333 530.002 803.333C525.869 798.933 525.869 798.267 530.002 796C531.869 795.067 533.335 793.467 533.335 792.667C533.335 791.733 535.202 790.267 537.335 789.333C539.602 788.4 541.735 786.4 542.135 784.8C542.535 783.333 544.802 780.667 547.069 779.067C549.469 777.6 551.335 776.133 551.335 776.133C551.335 776 551.469 804 551.602 838.4ZM783.735 787.467C784.135 798.133 782.535 804 778.669 804.933C777.202 805.333 776.002 806.133 776.002 806.667C776.002 807.2 772.535 807.6 768.402 807.733C762.535 807.733 759.869 807.2 757.335 805.067C754.402 802.667 754.002 801.333 753.869 792.133C753.602 776.533 752.535 777.467 769.069 777.733L783.335 778L783.735 787.467ZM750.669 782.667C750.669 786.267 750.269 786.667 746.669 786.667C742.135 786.667 742.135 786.8 744.002 782.133C745.869 777.067 750.669 777.467 750.669 782.667ZM429.735 791.333C431.735 792.4 435.469 793.6 438.002 794.133C442.135 794.933 442.669 795.467 442.669 799.333C442.669 802.533 443.602 804.267 446.269 806C448.669 807.6 450.002 807.867 450.402 806.933C451.069 804.8 453.602 804.933 458.135 807.333C460.269 808.4 462.669 809.333 463.602 809.333C466.269 809.333 474.269 801.467 475.202 798C476.802 791.733 487.335 792.267 502.935 799.6C512.002 803.733 514.935 808.933 514.935 820.933C515.069 828.267 510.802 845.2 508.002 848.667C507.469 849.333 506.269 852.4 505.335 855.333C503.602 861.067 497.735 874.267 492.802 884C491.069 887.333 489.202 891.467 488.669 893.333C488.135 895.2 486.669 899.067 485.335 902C484.135 904.933 481.869 911.867 480.535 917.333C479.202 922.8 477.735 927.6 477.202 928C475.869 929.067 473.335 945.333 473.335 952.533C473.335 958 472.935 958.933 470.002 960C468.135 960.667 463.869 961.467 460.669 961.733C457.469 961.867 454.402 962.533 453.869 963.067C452.535 964.267 434.669 964.267 434.669 962.933C434.669 962.4 432.802 961.867 430.535 961.733C428.135 961.6 426.002 961.067 425.602 960.8C424.802 959.867 429.202 931.067 430.669 928.133C431.202 926.933 433.202 920.533 435.069 914C439.202 899.2 444.802 882.933 446.402 880.8C447.069 880 448.669 876 450.002 872C453.469 860.933 456.402 857.067 466.802 849.333C478.002 841.067 487.202 832 484.669 832C483.069 832 479.869 834.4 466.669 845.733C465.602 846.8 461.735 849.2 458.269 851.2C451.869 854.933 447.602 855.333 432.669 854.267C427.869 854 427.735 853.333 424.802 822C423.735 810.933 422.535 799.2 422.135 795.6C421.202 788.533 422.669 787.6 429.735 791.333ZM740.002 791.2C740.002 792.133 741.469 794 743.202 795.067C747.735 798.133 750.802 801.333 750.002 802.533C749.735 803.2 750.935 804.933 752.669 806.667C758.535 812.267 781.602 811.867 785.602 806.133C786.135 805.333 786.669 801.2 786.669 796.933V789.333H897.869C964.935 789.333 1010.54 789.867 1012.54 790.667C1014.8 791.467 1017.34 794.933 1020.67 801.6C1023.34 806.933 1026 811.867 1026.67 812.667C1027.2 813.333 1028.14 815.467 1028.67 817.333C1029.2 819.067 1030.94 822.267 1032.4 824.267C1033.87 826.267 1034.94 828.133 1034.54 828.267C1034.27 828.533 937.602 828.533 819.735 828.267L605.469 828L607.735 823.733C608.935 821.333 610.402 818.8 611.069 818.133C611.602 817.333 613.602 813.6 615.602 810C619.869 801.6 624.535 793.2 625.735 791.067C626.535 789.867 640.935 789.467 683.335 789.333C730.935 789.333 740.002 789.6 740.002 791.2ZM750.135 790.8C750.535 791.6 750.402 792.8 749.735 793.467C748.002 795.2 744.002 793.6 744.002 791.2C744.002 789.067 748.802 788.667 750.135 790.8ZM523.335 802C529.202 804.533 533.735 815.6 536.669 834C537.869 842 539.469 849.867 540.002 851.333C540.669 852.8 542.135 862.933 543.335 874C544.669 884.933 546.402 894.8 547.202 895.867C548.002 896.933 548.402 898 548.269 898.267C548.002 898.533 548.535 903.067 549.335 908.4C550.135 913.6 551.069 919.467 551.335 921.333C551.602 923.2 552.135 927.067 552.669 930C553.869 938.133 551.735 939.867 527.335 948.933C524.402 950 518.669 951.2 514.535 951.6L507.069 952.267L505.602 943.2C504.802 938.133 503.735 927.067 503.202 918.667C502.669 910.267 501.869 902.667 501.335 902C500.002 900.4 500.535 885.6 501.869 882.533C502.402 881.2 502.269 879.867 501.469 879.333C499.869 878.4 499.469 872 501.069 872C501.602 872 503.069 869.2 504.535 865.6C505.869 862.133 508.002 856.933 509.335 854C510.669 851.067 512.802 845.067 514.135 840.667C515.469 836.267 517.069 832.4 517.469 832C518.535 831.2 519.202 823.067 518.935 815.867C518.802 813.2 517.202 808.8 515.335 806.133C510.135 798.4 512.135 797.467 523.335 802ZM600.669 844.933C601.335 847.6 602.269 848 608.002 848C614.002 848 614.669 848.267 614.669 850.933C614.669 853.467 612.802 866.133 608.402 893.6C607.735 897.867 607.202 898.533 603.202 898.933C600.669 899.2 598.269 899.2 598.002 898.8C596.935 897.733 597.202 831.2 598.402 830.133C598.935 829.6 599.469 832 599.735 835.6C599.869 839.067 600.402 843.333 600.669 844.933ZM1036 838.667V844H820.002H604.002V838.667V833.333H820.002H1036V838.667ZM637.335 849.733C637.335 853.067 634.402 867.333 633.069 870.667C630.002 878.267 628.402 880.667 626.269 881.067C624.269 881.467 624.002 880.8 624.802 875.733C625.335 872.533 626.269 868.667 626.802 866.933C628.535 862.267 628.269 857.067 626.402 857.6C625.335 858 623.735 864.267 622.402 873.467C621.202 881.867 619.469 892 618.669 896C617.869 900 616.135 910.8 614.669 919.867C613.202 928.933 610.802 943.067 609.335 951.2C606.535 966.667 602.135 992.133 599.735 1006.27C598.935 1011.2 597.735 1014.67 596.802 1014.67C595.602 1014.67 595.469 1012.53 596.269 1006.27C600.535 973.2 601.602 965.733 602.002 963.333C602.535 960.8 605.335 940.4 614.002 876.667C615.869 862.667 617.735 850.533 618.002 849.6C618.802 847.2 637.335 847.333 637.335 849.733ZM643.469 850.933C643.069 852.667 642.669 855.067 642.669 856.267C642.669 857.6 641.869 858.667 640.802 858.667C639.202 858.667 639.069 854.933 640.669 849.6C641.735 846.533 644.402 847.867 643.469 850.933ZM769.069 852C768.669 856.533 769.202 856.8 774.802 853.867C777.069 852.8 779.202 852.133 779.602 852.4C780.535 853.467 776.002 868.133 772.269 875.867C770.402 879.867 765.335 886.667 761.202 890.933L753.602 898.667H696.002H638.402L639.335 891.6C639.735 887.867 640.669 883.467 641.335 882C641.869 880.533 643.069 874.533 643.869 868.667C645.202 859.2 645.869 857.467 650.269 853.067L655.202 848H712.402H769.602L769.069 852ZM871.469 874C870.402 900.8 868.935 910.267 865.202 914.133C862.002 917.467 859.335 918.267 858.002 916C857.602 915.333 856.402 909.733 855.335 903.733C854.269 897.6 852.802 891.467 852.135 890C851.602 888.533 849.602 882.267 848.002 876C846.269 869.733 844.402 864.4 843.869 864C843.335 863.6 842.669 862.133 842.402 860.8C842.135 858.667 843.069 857.867 848.002 856.933C851.335 856.267 854.269 855.333 854.669 854.8C855.069 854.267 858.669 852.667 862.669 851.067L870.002 848.4L871.202 851.2C871.735 852.667 871.869 862.933 871.469 874ZM990.002 853.6C994.269 858.4 995.202 860.533 996.135 868C997.602 878.8 999.469 890.133 1000.67 894.933L1001.6 898.667H937.469H873.335L873.869 873.6C874.269 859.867 874.535 848.533 874.535 848.267C874.669 848.133 899.469 848 929.735 848H984.935L990.002 853.6ZM997.335 849.2C997.335 850.8 993.469 852.267 991.735 851.2C990.935 850.667 991.069 849.867 992.135 849.2C994.535 847.733 997.335 847.733 997.335 849.2ZM1022.14 854.533C1022.67 857.867 1023.2 861.6 1023.47 862.667C1025.6 875.333 1028.27 900.133 1027.6 900.933C1026.94 901.467 1025.47 901.333 1024.27 900.533C1022.54 899.467 1021.34 894.4 1019.2 880.533C1016.4 861.2 1015.34 857.333 1013.07 857.333C1011.74 857.333 1012.4 867.467 1014.27 878L1014.94 882L1011.34 878.533C1008.67 875.867 1007.34 872.667 1005.87 865.2C1004.94 859.733 1003.87 853.733 1003.47 851.733L1002.8 848.133L1011.87 848.267L1021.07 848.4L1022.14 854.533ZM1027.87 853.6L1027.6 859.333L1026.8 854.667C1025.87 850.267 1026.14 848 1027.47 848C1027.74 848 1027.87 850.533 1027.87 853.6ZM806.669 850C806.669 851.6 797.869 864.8 793.869 869.067C790.002 873.2 788.669 874 784.002 873.867C781.069 873.733 778.269 873.333 777.869 872.933C776.802 872 780.135 860 782.935 854.267L785.335 849.333H796.002C801.869 849.333 806.669 849.6 806.669 850ZM822.402 854.933C825.602 856.267 830.535 857.333 833.335 857.333C837.469 857.333 838.669 857.867 839.469 860.267C839.869 862 841.335 865.733 842.669 868.667C844.002 871.6 845.602 876.4 846.402 879.333C849.202 889.067 850.669 895.333 850.669 896.933C850.669 898.267 844.269 898.667 822.802 898.667H795.069L795.735 894.933C796.002 892.933 796.935 890.533 797.602 889.733C799.469 887.333 799.335 874.533 797.335 873.333C796.269 872.667 797.069 870.533 800.269 865.867C802.669 862.267 805.335 858.667 806.269 857.733C807.069 856.8 808.269 854.8 808.669 853.333C809.602 850.267 812.402 850.667 822.402 854.933ZM432.002 859.333C431.069 860.4 429.869 861.333 429.202 861.333C428.535 861.333 428.002 860.4 428.002 859.333C428.002 858.133 429.202 857.333 430.802 857.333C433.202 857.333 433.335 857.6 432.002 859.333ZM450.935 861.6C450.402 864.533 446.802 872 445.202 873.333C444.802 873.733 444.002 876.4 443.469 879.333C442.402 884.933 434.935 902 434.002 901.067C433.602 900.8 433.069 896.667 432.535 891.867C432.135 887.2 431.202 882.8 430.535 882C429.869 881.333 429.335 877.867 429.335 874.267C429.335 869.067 430.135 866.8 433.335 862.933C437.069 858.267 437.735 858 444.269 858.133C450.802 858.4 451.335 858.667 450.935 861.6ZM639.602 869.333C639.069 873.867 638.402 878 638.002 878.8C637.469 879.467 636.935 883.467 636.669 887.733C636.269 891.867 635.469 898.267 634.669 902C633.069 909.6 626.802 947.867 626.669 950.267C626.669 951.6 622.669 952.933 622.669 951.6C622.669 951.467 623.335 946.133 624.135 940C624.935 933.733 625.869 927.2 626.135 925.333C626.269 923.467 627.602 912.933 628.802 901.733C630.669 884.933 631.469 881.467 633.335 880.933C635.069 880.533 636.002 878.4 636.669 873.2C637.735 864.8 638.535 861.333 639.602 861.333C640.002 861.333 640.002 864.933 639.602 869.333ZM1003.34 871.333C1003.87 874.933 1004.8 878.533 1005.34 879.333C1007.2 882 1008.27 887.733 1012 918.667C1014.14 935.867 1016 951.067 1016.27 952.267C1016.54 953.467 1016.14 954.667 1015.34 954.933C1014.54 955.2 1012.67 947.2 1011.07 936.667C1009.47 926.4 1006.94 911.067 1005.34 902.667C1003.87 894.267 1002.8 885.867 1002.8 884C1002.94 882.133 1002.8 879.733 1002.4 878.667C999.602 870.667 998.402 865.2 999.202 863.2C1000.54 859.6 1002.27 862.933 1003.34 871.333ZM1015.47 887.333C1016.67 888.4 1017.87 891.467 1018.27 894C1018.94 898.4 1018.8 898.667 1015.47 898.667C1012.14 898.667 1012 898.267 1012 892C1012 884.8 1012.4 884.267 1015.47 887.333ZM626.402 892.267C626.135 896.4 625.335 898.133 623.735 898.4C621.735 898.8 621.469 898.133 622.135 894.4C623.335 887.867 623.735 886.667 625.335 886.667C626.269 886.667 626.669 888.933 626.402 892.267ZM600.002 908.133C598.269 914.133 597.335 914.533 597.335 909.067C597.335 904.267 598.269 902.267 600.135 903.333C600.669 903.733 600.535 905.867 600.002 908.133ZM604.669 922.933C603.469 933.467 601.735 943.733 600.935 945.867L599.335 949.6L582.669 948.933C569.869 948.4 564.535 947.6 559.735 945.467C552.935 942.533 552.135 941.333 555.335 938.667C556.402 937.733 557.335 935.467 557.335 933.6V930.267L576.935 930.8L596.402 931.333L601.069 916.933C603.602 909.067 606.002 902.933 606.402 903.2C606.669 903.6 606.002 912.4 604.669 922.933ZM766.002 906C764.535 907.067 762.535 908.667 761.602 909.467C759.469 911.333 748.669 914.667 745.069 914.667C740.935 914.667 743.469 912.4 748.669 911.467C751.202 910.933 753.335 910 753.335 909.333C753.335 908.8 755.069 907.867 757.335 907.333C759.469 906.8 761.602 905.867 762.002 905.2C762.535 904.533 764.135 904 765.735 904C768.669 904.133 768.669 904.133 766.002 906ZM1029.6 908.8C1030.14 913.6 1029.47 915.2 1027.34 913.6C1025.74 912.4 1024.94 908.267 1025.87 905.867C1027.2 902.533 1029.07 903.867 1029.6 908.8ZM266.935 916.133C269.335 917.467 269.602 918.4 268.802 924.267C268.269 927.867 267.335 931.867 266.669 933.067C265.602 934.933 263.869 942.667 259.469 964C259.202 965.067 258.669 966.933 258.269 968C257.735 969.067 256.535 975.333 255.335 982C254.135 988.533 252.802 994.933 252.402 996C251.202 999.067 250.935 1000.13 249.202 1006.93C248.002 1012.4 247.335 1013.33 244.535 1013.33C240.669 1013.33 240.269 1009.87 243.202 1001.07C244.269 997.867 246.402 988.667 248.002 980.667C249.469 972.533 251.202 965.067 251.602 964C252.402 962.133 258.002 938.667 261.602 921.6C263.335 913.867 263.069 914.133 266.935 916.133ZM427.469 928C426.402 934.8 425.202 940.667 424.802 941.067C424.402 941.467 424.002 936.533 424.002 930C424.002 920.4 424.402 918 426.269 916.533C427.602 915.6 428.802 915.067 429.069 915.333C429.335 915.467 428.535 921.2 427.469 928ZM317.335 919.333C317.335 921.867 314.669 934.8 313.602 937.333C313.202 938.4 311.869 943.867 310.669 949.333C308.802 958.667 308.402 959.333 304.935 959.733C302.935 960 301.335 959.733 301.335 959.067C301.335 956 305.869 935.2 306.669 934.667C307.202 934.267 308.002 931.067 308.535 927.467C309.069 923.867 309.869 920.133 310.269 919.2C311.202 916.667 317.335 916.8 317.335 919.333ZM420.002 965.333V1013.33H416.669H413.335V965.333V917.333H416.669H420.002V965.333ZM1031.47 926.4C1032.27 926.933 1034.27 937.467 1035.87 950C1037.47 962.4 1039.07 973.867 1039.34 975.333C1040.67 982.4 1044 1008.8 1044 1011.6C1044 1016.13 1041.74 1014.27 1040.94 1009.07C1033.87 965.467 1031.87 953.6 1031.2 951.6C1029.87 947.2 1027.07 926.667 1027.74 926C1028.67 925.067 1029.74 925.2 1031.47 926.4ZM552.002 945.333C552.002 947.067 544.135 950.933 542.669 950C540.269 948.533 541.335 946.533 545.602 944.667C550.002 942.933 552.002 943.067 552.002 945.333ZM556.669 952.667C552.002 956.533 550.269 956.8 548.002 954C546.669 952.4 546.935 951.867 549.469 950.8C551.202 950.133 554.535 949.467 556.669 949.467H560.669L556.669 952.667ZM569.335 951.6C569.202 954.267 563.869 958.667 560.802 958.667C556.002 958.667 556.402 955.467 561.735 952.8C566.402 950.533 569.335 950.133 569.335 951.6ZM577.069 953.6C576.269 956 569.469 960.667 568.402 959.467C567.735 958.933 569.202 956.933 571.335 955.2C575.735 951.733 577.869 951.067 577.069 953.6ZM599.735 954.267C599.469 955.6 596.935 957.2 593.335 958.267C590.002 959.2 584.402 960.933 580.935 962.133C577.335 963.2 574.002 963.733 573.602 963.333C573.069 962.8 575.335 960 578.535 957.2C583.869 952.4 584.935 952 592.269 952C598.935 952 600.135 952.4 599.735 954.267ZM623.735 963.6C623.069 967.733 622.269 971.467 622.002 971.867C621.069 972.667 621.202 961.2 622.135 957.733C623.735 951.733 624.935 956.133 623.735 963.6ZM830.669 961.333C828.135 963.467 824.935 965.333 823.602 965.333C820.402 965.333 821.869 963.067 827.202 959.867C833.602 955.867 836.002 956.8 830.669 961.333ZM1017.87 961.6C1018.27 963.333 1018.67 966.4 1018.67 968.667V972.667L1016.67 968.8C1014.54 964.667 1014 958.667 1015.87 958.667C1016.54 958.667 1017.34 960 1017.87 961.6ZM598.669 963.333C598.669 966.267 597.869 966.8 590.669 968.267C586.269 969.067 582.669 970.267 582.669 970.8C582.669 971.2 573.869 973.067 563.069 974.8C552.135 976.533 543.069 978.267 542.669 978.8C542.135 979.467 522.535 981.867 520.002 981.467C518.402 981.333 518.669 976 520.135 976C525.202 976 555.735 971.733 558.002 970.667C559.469 970 566.935 968.133 574.535 966.533C582.135 964.933 589.869 962.8 591.869 961.867C596.935 959.2 598.669 959.6 598.669 963.333ZM427.069 972.4C425.469 987.6 424.269 989.2 424.135 976.4C424.002 966.133 424.269 964.267 425.869 964.8C427.335 965.333 427.735 967.2 427.069 972.4ZM465.335 967.333C465.335 968.4 464.135 969.333 462.669 969.333C461.202 969.333 459.602 969.333 459.069 969.467C458.402 969.467 457.869 968.533 457.602 967.467C457.202 965.867 458.269 965.333 461.202 965.333C464.002 965.333 465.335 966 465.335 967.333ZM470.269 974.133C470.935 976.267 464.002 977.867 462.135 976C461.069 974.933 461.202 974.267 462.669 973.333C465.202 971.6 469.602 972.133 470.269 974.133ZM475.202 979.333C476.002 981.733 471.735 984.267 468.802 983.2C465.869 982.133 466.135 980.933 469.735 979.2C473.869 977.067 474.269 977.067 475.202 979.333ZM482.669 984C482.669 985.333 478.402 988 476.135 988C474.135 988 474.269 984.4 476.402 983.6C479.202 982.4 482.669 982.667 482.669 984ZM506.402 987.333C510.935 988.4 512.269 990.667 508.402 990.8C505.335 990.8 488.935 992.933 482.402 994.133C479.069 994.667 477.335 994.4 477.335 993.467C477.335 992.667 479.602 990.533 482.402 988.667C486.535 985.867 488.535 985.467 494.669 985.867C498.669 986.267 504.002 986.8 506.402 987.333ZM513.335 995.333C513.335 996.267 511.469 997.6 509.202 998C493.602 1001.47 441.335 1004 441.335 1001.33C441.335 1000.67 438.402 1000 434.535 1000C428.269 1000 427.869 999.733 428.269 996.933C428.535 995.067 429.469 994.267 430.669 994.533C446.002 998.8 505.869 997.333 510.535 992.667C511.469 991.6 513.335 993.467 513.335 995.333Z" fill="black"/>
<path d="M689.336 410.667C689.336 411.333 691.736 412 694.803 412C698.003 412 699.869 411.467 699.336 410.667C698.936 409.867 696.403 409.333 693.869 409.333C691.336 409.333 689.336 409.867 689.336 410.667Z" fill="black"/>
<path d="M702.267 444C702.667 445.467 703.867 446.667 704.934 446.667C706.267 446.667 706.667 445.867 706.134 444.533C705.734 443.333 705.334 442.133 705.334 441.867C705.334 441.6 704.534 441.333 703.467 441.333C702.267 441.333 701.867 442.267 702.267 444Z" fill="black"/>
<path d="M714.667 454.267C714.667 456.4 713.2 459.467 711.067 461.6C706.267 466.667 708 467.733 713.2 462.8C716.134 460.133 717.334 457.733 717.334 454.8C717.334 452.533 716.8 450.667 716 450.667C715.334 450.667 714.667 452.267 714.667 454.267Z" fill="black"/>
<path d="M882 556C883.2 558.267 887.6 562.667 892 565.733C896.267 568.8 900.534 572.667 901.2 574.4C902.267 576.667 903.334 577.333 905.334 576.667C907.6 575.867 908 576.4 908 580.667C908 583.6 908.534 585.2 909.334 584.667C912.8 582.533 908.8 566.4 904.667 565.467C902.934 565.2 902.534 565.6 903.067 567.2C904.134 569.867 902.134 570 900 567.333C899.067 566.267 897.734 565.333 897.067 565.333C895.467 565.333 892.667 563.067 886.8 556.933C880.934 550.933 879.2 550.667 882 556Z" fill="black"/>
<path d="M898.269 610.667C895.603 614.4 893.336 616.133 890.003 616.8C887.336 617.2 885.336 618.4 885.336 619.467C885.336 625.733 903.603 612.8 904.003 606.267C904.003 604 901.736 605.733 898.269 610.667Z" fill="black"/>
<path d="M678 624.533C672.933 625.333 668.133 626.4 667.333 626.8C666.667 627.333 663.067 628.667 659.333 629.867C652 632.267 643.067 638.533 646.933 638.667C648.133 638.667 650 637.733 651.2 636.667C654.667 633.2 674.8 627.333 694.667 624.133L702 622.933H694.667C690.667 623.067 683.2 623.733 678 624.533Z" fill="black"/>
<path d="M399.469 689.733C397.869 693.867 397.336 699.867 397.336 711.6C397.336 727.6 397.869 732 400.003 732C400.669 732 400.803 726 400.403 718.667C399.869 710.8 400.269 701.333 401.203 695.333C402.136 689.733 402.669 684.8 402.269 684.533C402.003 684.267 400.669 686.533 399.469 689.733Z" fill="black"/>
<path d="M356 701.733C356 704.667 365.2 721.867 369.333 726.667C374.533 732.667 374.4 730.8 368.8 721.467C366.267 717.333 362.667 710.8 360.8 706.933C357.333 700 356 698.533 356 701.733Z" fill="black"/>
<path d="M848.402 640.4C849.202 645.2 853.069 651.867 855.069 652C856.802 652 856.002 648.667 853.336 645.333C851.869 643.467 850.669 640.933 850.669 639.733C850.669 638.533 850.002 637.067 849.069 636.533C848.002 635.867 847.869 636.933 848.402 640.4Z" fill="black"/>
<path d="M938.27 664.4C934.537 676.8 932.004 683.867 930.27 685.733C927.47 688.667 925.337 693.333 926.537 693.333C928.404 693.333 932.804 686.667 935.47 679.867C936.67 676.667 938.27 673.333 938.937 672.4C940.137 670.8 942.137 656 941.204 656C940.937 656 939.604 659.733 938.27 664.4Z" fill="black"/>
<path d="M891.336 667.867C888.403 672.8 902.803 687.067 906.803 683.067C908.003 681.867 907.07 680.933 902.67 679.2C898.27 677.467 896.536 675.733 894.67 671.6C893.336 668.667 891.87 667.067 891.336 667.867Z" fill="black"/>
<path d="M674.003 672C670.403 672.533 665.203 673.733 662.67 674.533C660.137 675.467 657.203 676.533 656.137 676.8C655.07 677.2 654.67 677.733 655.07 678.133C655.47 678.533 658.937 678.267 662.937 677.467C666.803 676.667 671.47 675.867 673.337 675.6C675.203 675.333 677.737 674.667 678.937 674.133C681.203 673.067 700.003 673.733 704.67 674.933C706.137 675.333 711.603 676 716.67 676.533L726.003 677.2L721.337 675.2C712.67 671.2 690.137 669.733 674.003 672Z" fill="black"/>
<path d="M744.135 706C744.135 715.6 743.469 724 742.935 724.667C741.469 726.4 738.135 747.867 739.069 748.933C739.469 749.333 740.269 747.867 740.802 745.867C741.335 743.733 742.135 741.333 742.802 740.667C745.735 736.8 747.602 701.733 745.335 692.667C744.669 690.133 744.269 695.2 744.135 706Z" fill="black"/>
<path d="M238.668 688.533C238.668 691.733 241.335 704.4 242.668 707.333C243.335 708.8 244.801 713.2 245.868 716.933C247.735 723.467 258.268 746.533 260.135 748C260.535 748.4 262.001 750.667 263.201 752.933C264.401 755.333 265.868 757.333 266.401 757.333C266.935 757.333 268.535 759.2 269.868 761.467C272.935 766.667 281.335 774.533 287.735 778.133C290.401 779.6 294.135 781.6 296.001 782.667C297.868 783.733 299.601 784.667 300.001 784.667C300.401 784.8 303.068 785.6 306.001 786.4C309.601 787.467 324.935 788 352.935 788H394.401L395.868 792.133C396.668 794.533 397.335 798 397.335 799.867C397.335 801.867 397.868 804 398.535 804.667C399.068 805.467 400.401 811.333 401.201 818C403.335 833.2 406.268 851.6 407.201 856.133C408.135 860.533 413.335 894.8 413.335 896.933C413.335 897.867 414.268 898.667 415.335 898.667C417.468 898.667 418.268 891.333 416.135 890.133C415.601 889.733 414.668 886.533 414.268 883.067C410.935 856.533 409.201 844 408.135 840C406.935 835.467 405.735 828.267 402.535 804.933C400.668 791.2 398.001 786 392.135 784.933C389.868 784.4 370.135 784 348.401 784C304.001 783.733 298.535 782.933 287.601 774.267C276.535 765.6 265.468 752.933 262.001 745.2C260.801 742.667 258.801 738.8 257.468 736.533C256.135 734.4 254.535 731.067 254.001 729.2C253.468 727.467 252.535 725.733 252.135 725.333C251.601 724.933 249.868 720.133 248.268 714.667C246.668 709.2 244.401 701.867 243.335 698.533C242.268 695.067 241.335 691.333 241.335 690.267C241.335 689.067 240.801 687.733 240.001 687.333C239.335 686.933 238.668 687.467 238.668 688.533Z" fill="black"/>
<path d="M468.802 774.933C468.402 775.867 467.869 779.6 467.469 783.333C467.202 786.933 466.402 791.333 466.002 792.933C464.269 798.267 467.202 796.133 469.735 790.267C472.269 784.133 472.802 775.333 470.669 774C469.869 773.6 469.069 774 468.802 774.933Z" fill="black"/>
<path d="M496.935 826C495.601 829.2 493.335 832.8 491.868 834.133C490.535 835.333 489.335 836.933 489.335 837.733C489.335 839.6 478.268 850.667 476.401 850.667C475.468 850.667 474.668 851.2 474.668 852C474.668 857.333 492.268 841.733 496.535 832.667C497.735 830.133 499.335 827.733 500.001 827.333C501.601 826.4 501.735 821.733 500.268 820.8C499.735 820.533 498.268 822.8 496.935 826Z" fill="black"/>
<path d="M445.602 910.267C444.535 912.133 444.402 913.467 445.335 914C446.002 914.4 446.668 916.8 446.668 919.067C446.668 924.667 449.868 934.8 453.602 941.467C458.268 949.867 458.935 947.467 454.535 938C452.002 932.8 449.735 924.933 448.802 918.267C447.335 908.667 447.068 907.733 445.602 910.267Z" fill="black"/>
<path d="M509.336 924.267C509.336 926.8 516.536 932.4 522.536 934.4C527.736 936.267 541.869 936.533 540.803 934.933C540.403 934.267 537.336 933.6 533.869 933.6C526.936 933.333 516.936 929.333 512.403 925.067C510.003 922.8 509.336 922.667 509.336 924.267Z" fill="black"/>
<path d="M658.934 484C650.934 496.267 649.734 509.6 655.334 523.6C656.534 526.533 657.334 529.467 657.2 530.133C656.667 532.933 657.467 534.8 658.667 534C660.8 532.667 660.134 525.067 657.334 518.8C654.134 511.733 653.867 500.8 656.8 494.533C658 492 660.267 487.467 661.734 484.4C665.6 476.4 664 476.133 658.934 484Z" fill="black"/>
<path d="M640.67 496.533C634.937 506.4 634.67 514.667 640.004 524.533C643.737 531.333 644.137 533.067 643.337 538.8C642.804 542.4 641.87 545.6 641.204 546.133C640.537 546.533 640.004 548.133 640.004 549.867C640.004 552.8 642.804 560 644.004 560C644.404 560 644.804 555.6 645.07 550.267C645.337 545.067 645.604 538 645.737 534.667C645.87 530.4 644.937 526.667 642.27 521.733C637.737 512.933 637.737 508.133 642.137 500C646.804 491.333 645.47 488.267 640.67 496.533Z" fill="black"/>
</svg>
