<svg width="290" height="54" viewBox="0 0 290 54" fill="none" xmlns="http://www.w3.org/2000/svg">
<path d="M37.2441 16.153H7.82371V14.4647C7.82371 9.47125 10.0978 6.3866 14.5012 6.3866H32.6959V0.0703125H14.5012C5.54962 0.0703125 0.414062 5.65167 0.414062 14.4647V52.4318H7.82371V22.1753H24.9925C21.9842 25.1129 20.2975 29.4449 20.2975 35.0263C20.2975 44.7191 26.7547 52.9442 35.851 52.9442H38.4923C47.6641 52.9442 54.0458 45.0866 54.0458 34.5853C54.0458 24.084 48.6165 16.153 37.2441 16.153ZM38.4188 46.5565H35.9979C31.4497 46.5565 27.9274 41.563 27.9274 34.5853C27.9274 27.6076 31.4497 22.6142 35.9979 22.6142H38.4188C42.967 22.6142 46.4159 27.6076 46.4159 34.5853C46.4159 41.563 42.967 46.5565 38.4188 46.5565Z" fill="black"/>
<path d="M81.1183 35.836C81.1183 41.6378 77.6694 46.3373 73.4884 46.3373H70.8472C67.3983 46.3373 64.8305 42.8852 64.8305 38.3327V16.7422H57.4209V39.3616C57.4209 47.1457 62.1893 52.9475 68.6465 52.9475H71.8751C75.4708 52.9475 79.2848 50.5243 81.1203 46.9987V52.4331H88.53V16.7422H81.1203V35.836H81.1183Z" fill="black"/>
<path d="M182.877 16.1523H180.089C171.652 16.1523 164.756 24.1569 164.756 34.3642C164.756 44.5715 171.36 52.9436 180.236 52.9436H182.877C190.801 52.9436 196.45 46.9948 197.038 40.607H189.922C189.187 44.2061 186.326 46.6293 182.953 46.6293H180.238C176.057 46.6293 172.902 42.2239 172.388 36.1281H197.26C197.333 35.3931 197.407 34.5868 197.407 33.1169C197.407 24.8918 191.831 16.1523 182.879 16.1523H182.877ZM172.679 30.3997C173.781 25.4063 176.716 22.1747 180.383 22.1747H182.877C187.058 22.1747 189.481 25.9942 189.92 30.3997H172.677H172.679Z" fill="black"/>
<path d="M113.254 16.1523H110.025C106.429 16.1523 102.615 18.5756 100.78 22.1012V16.7403H93.3701V52.4312H100.78V33.2639C100.78 27.462 104.229 22.7626 108.41 22.7626H111.051C114.5 22.7626 117.068 26.2147 117.068 30.7672V52.4312H124.477V29.7383C124.477 21.9542 119.709 16.1523 113.252 16.1523H113.254Z" fill="black"/>
<path d="M264.242 35.7672C264.242 41.569 260.793 46.2685 256.612 46.2685H253.971C250.522 46.2685 247.954 42.8163 247.954 38.2639V16.6734H229.466V16.3059C229.466 11.4595 231.593 8.88928 235.629 8.88928H239.372V2.64648H235.629C226.972 2.64648 222.056 7.6399 222.056 16.3059V16.6734H216.113C212.224 16.6734 209.876 18.2147 208.336 21.8138V16.6734H200.927V52.3643H208.336V33.197C208.336 26.7337 211.198 22.6957 215.673 22.6957H222.056V52.3643H229.466V22.6957H240.545V39.2928C240.545 47.0769 245.313 52.8787 251.77 52.8787H254.999C258.595 52.8787 262.409 50.4555 264.244 46.9299V52.3643H271.654V16.6734H264.244V35.7672H264.242Z" fill="black"/>
<path d="M288.164 46.8485C285.523 46.8485 284.056 45.3807 284.056 42.882V3.22656H276.646V42.882C276.646 49.7842 280.242 53.0893 287.725 53.0893H289.999V46.8465H288.166L288.164 46.8485Z" fill="black"/>
<path d="M153.973 21.1453C151.919 18.2076 148.25 16.1518 144.801 16.1518H142.674C134.236 16.1518 127.853 24.0829 127.853 34.5842C127.853 45.0855 134.236 52.9431 142.674 52.9431H144.801C148.177 52.9431 151.844 50.9608 153.973 48.0231V52.4286H161.383V2.71289H153.973V21.1453ZM146.196 46.5553H143.702C139.154 46.5553 135.484 41.1945 135.484 34.5842C135.484 27.9739 139.154 22.6131 143.702 22.6131H146.196C150.965 22.6131 154.56 27.7535 154.56 34.5842C154.56 41.4149 150.965 46.5553 146.196 46.5553Z" fill="black"/>
</svg>
