<svg width="62" height="53" viewBox="0 0 62 53" fill="none" xmlns="http://www.w3.org/2000/svg">
<path d="M48.4961 0.0703125H44.3151C38.5187 0.0703125 34.044 3.37544 32.0636 9.10378C30.3769 7.70947 28.2476 6.97454 25.6798 6.97454H21.3519C14.3094 6.97454 9.24523 12.7029 9.24523 20.2665C9.24523 24.8925 10.7117 28.4181 13.4997 30.5473C5.2824 33.191 0 41.4161 0 52.4318H8.65784C8.65784 43.5453 12.6941 34.2199 20.5443 34.2199H22.6715V29.7409L21.3499 29.447C18.0479 28.712 16.6549 25.9214 16.6549 21.0749C16.6549 16.2285 18.929 13.3643 22.231 13.3643H25.4596C28.1008 13.3643 30.0812 15.4936 30.742 19.2396C31.4028 22.9857 33.0895 25.8499 35.7307 27.7587C26.1938 30.5494 19.9569 39.8768 19.9569 52.4338H29.2021C29.2021 42.3735 33.8237 31.7987 42.2613 31.7987H46.1507V26.8788L45.1962 26.7318C40.8683 26.0704 38.5921 22.6203 38.5921 16.157C38.5921 10.5022 41.3068 6.53767 44.9025 6.53767H48.1311C51.7268 6.53767 54.2945 10.5042 54.2945 16.157H61.9979C61.9958 7.63393 57.0806 0.0703125 48.4961 0.0703125Z" fill="black"/>
</svg>
