<svg xmlns="http://www.w3.org/2000/svg" viewBox="0 0 1774.16 259.01"><g id="Layer_2" data-name="Layer 2"><g id="Layer_1-2" data-name="Layer 1"><path d="M535.63,78.78H391.38V70.51c0-24.46,11.15-39.57,32.74-39.57h89.21V0H424.12c-43.89,0-69.07,27.34-69.07,70.51v186h36.33V108.28h84.18c-14.75,14.39-23,35.61-23,62.95,0,47.49,31.65,87.78,76.26,87.78h13c45,0,76.26-38.5,76.26-89.94C618,119.07,591.39,78.78,535.63,78.78Zm5.76,148.93H529.52c-22.3,0-39.57-24.46-39.57-58.64s17.27-58.63,39.57-58.63h11.87c22.3,0,39.21,24.46,39.21,58.63S563.69,227.71,541.39,227.71Z"/><path d="M750.75,175.19c0,28.42-16.91,51.44-37.41,51.44h-13c-16.91,0-29.5-16.91-29.5-39.21V81.66H634.56v110.8c0,38.13,23.38,66.55,55,66.55h15.82c17.63,0,36.34-11.88,45.33-29.14v26.62h36.33V81.66H750.75Z"/><path d="M237.78,0h-20.5c-28.42,0-50.37,16.19-60.08,44.25-8.27-6.84-18.7-10.44-31.29-10.44H104.68c-34.53,0-59.35,28.06-59.35,65.12,0,22.66,7.19,39.93,20.86,50.36C25.9,162.24,0,202.53,0,256.49H42.45c0-43.53,19.78-89.22,58.27-89.22h10.44V145.33l-6.48-1.44c-16.19-3.6-23-17.27-23-41,0-23,11.15-37.77,27.34-37.77h15.83c13,0,22.66,10.43,25.9,28.78s11.51,32.38,24.46,41.73C128.42,149.29,97.85,195,97.85,256.49h45.32c0-49.29,22.67-101.09,64-101.09h19.07V131.3l-4.68-.72c-21.22-3.24-32.37-20.14-32.37-51.8,0-27.7,13.31-47.12,30.93-47.12H236c17.63,0,30.22,19.42,30.22,47.12H304C304,37.05,279.87,0,237.78,0Z"/><path d="M1249.68,78.78H1236c-41.37,0-75.19,39.21-75.19,89.21,0,52.16,32.38,91,75.9,91h13c38.86,0,66.55-29.14,69.43-60.44h-34.89c-3.6,17.63-17.63,29.5-34.18,29.5h-13.31c-20.5,0-36-21.59-38.49-51.44h122a131.62,131.62,0,0,0,.72-14.75C1320.91,121.59,1293.57,78.78,1249.68,78.78Zm-50,69.79c5.4-24.46,19.79-40.29,37.77-40.29h12.23c20.51,0,32.38,18.7,34.54,40.29Z"/><path d="M908.31,78.78H892.48c-17.63,0-36.33,11.87-45.32,29.14V81.66H810.82V256.49h36.34V162.6c0-28.42,16.9-51.44,37.41-51.44h12.95c16.9,0,29.5,16.9,29.5,39.21V256.49h36.33V145.33C963.35,107.2,940,78.78,908.31,78.78Z"/><path d="M1648.62,175.19c0,28.42-16.91,51.44-37.41,51.44h-13c-16.91,0-29.5-16.91-29.5-39.21V81.66h-90.65v-1.8c0-23.74,10.43-36.33,30.22-36.33h18.34V13h-18.34c-42.45,0-66.55,24.46-66.55,66.91v1.8h-29.14c-19.07,0-30.58,7.55-38.13,25.18V81.66h-36.34V256.49h36.34V162.6c0-31.66,14-51.44,36-51.44h31.3V256.49h36.33V111.16h54.32v81.3c0,38.13,23.38,66.55,55,66.55h15.82c17.63,0,36.34-11.88,45.33-29.14v26.62H1685V81.66h-36.33Z"/><path d="M1765.17,226.63c-13,0-20.15-7.19-20.15-19.43V13h-36.33V207.2c0,33.82,17.63,50,54.32,50h11.15V226.63Z"/><path d="M1108,103.24c-10.08-14.39-28.06-24.46-45-24.46h-10.43c-41.37,0-72.67,38.85-72.67,90.29s31.3,89.94,72.67,89.94H1063c16.55,0,34.53-9.72,45-24.11v21.59h36.33V13H1108Zm-38.13,124.47h-12.24c-22.3,0-40.28-26.26-40.28-58.64s18-58.63,40.28-58.63h12.24c23.38,0,41,25.18,41,58.63S1093.21,227.71,1069.83,227.71Z"/></g></g></svg>