<svg width="1167" height="360" viewBox="0 0 1167 360" fill="none" xmlns="http://www.w3.org/2000/svg">
<path d="M77.0438 299.875C26.3698 296.875 23.9361 258.429 39.8955 218.052C76.9624 124.266 197.4 18.6075 260.017 25.8581C238.991 62.7181 299.038 43.8576 280.4 13.2149C269.987 -3.90546 241.642 -0.0898569 225.935 4.16985C120.127 32.8549 -48.9128 214.771 14.4726 303.944C60.1344 368.184 239.325 281.93 264.812 260.087C270.846 254.912 268.72 248.378 260.731 252.212C234.141 264.963 130.794 303.056 77.0438 299.875Z" fill="black"/>
<path d="M671.506 202.899C665.517 208.681 636.023 219.195 662.432 162.64C666.096 154.8 669.154 142.701 662.07 136.529C655.647 130.937 648.933 130.629 642.112 133.756C625.474 141.369 594.125 177.839 578.102 192.812C584.698 175.601 598.621 148.828 605.099 132.723C607.099 126.886 609.424 117.741 604.855 110.355C599.825 102.225 586.588 104.019 577.46 107.191C552.064 116.028 518.399 156.522 499.653 183.449C504.05 168.404 526.605 130.285 523.556 117.143C520.923 105.796 508.664 104.201 500.259 109.149C494.849 112.33 492.56 120.587 484.462 128.254C455.122 156.024 375.922 227.796 365.346 217.482C358.488 210.793 374.158 175.446 384.87 157.257C391.981 144.024 404.258 138.505 414.074 125.517C422.678 114.116 416.327 101.282 404.484 99.7597C398.658 99.0074 392.089 101.436 384.698 108.46C348.708 65.3376 217.856 170.897 225.185 215.334C226.795 225.095 231.301 232.028 240.14 234.792C275.334 241.535 315.848 214.436 344.681 184.6C344.383 185.289 339.85 199.944 339.289 202.89C334.503 227.841 350.978 249.185 373.135 243.185C415.106 231.81 452.308 185.008 486.516 155.852C461.627 207.159 480.418 220.917 497.047 217.382C516.237 213.303 542.962 158.616 575.487 135.369C589.285 125.508 551.213 178.628 551.729 196.174C552.046 207.05 556.615 217.5 567.363 219.231C592.044 223.21 615.685 182.217 637.335 165.314C648.725 156.423 619.774 189.277 630.821 215.896C640.013 238.046 666.657 234.946 681.332 219.24C688.416 211.373 689.284 205.799 686.995 201.802C683.883 196.373 677.188 197.425 671.534 202.881L671.506 202.899ZM353.665 152.462C335.499 171.839 257.004 224.95 253.132 208.455C246.862 181.691 339.126 112.185 363.346 119.209C365.644 119.88 366.54 120.315 365.735 122.617C363.428 128.544 358.452 133.783 362.07 140.227C365.309 145.728 356.977 148.937 353.665 152.462Z" fill="black"/>
<path d="M942.12 112.919C965.263 118.72 900.276 168.323 935.896 192.567C956.569 206.633 988.931 187.392 1003.58 171.051C1002.29 186.331 1005.46 221.207 1023.9 227.061C1029.78 228.928 1040.19 225.031 1037.63 218.315C1010.81 147.776 1060.95 129.668 1044.22 114.551C1018.48 93.6782 977.685 182.099 955.781 168.169C947.042 162.604 986.678 123.832 973.949 103.077C947.992 60.7607 802.982 133.484 776.012 146.48C779.214 141.206 796.069 123.705 791.51 114.85C786.262 104.672 770.918 105.044 765.734 112.756C754.823 129.007 749.467 156.958 726.767 176.679C686.914 211.282 695.201 223.962 700.204 233.297C689.854 252.293 641.152 324.146 659.147 340.505C663.861 344.783 674.139 341.176 676.374 332.24C684.543 299.549 740.555 206.352 748.707 191.099C751.539 185.815 755.148 181.546 760.441 178.147C803.407 150.559 915.82 106.33 942.129 112.928L942.12 112.919Z" fill="black"/>
<path d="M1109.61 128.309C1078.7 106.548 1123.55 94.2945 1139.28 105.025C1135.14 147.45 1192.16 112.113 1153.49 83.7722C1130.82 67.1503 1079.71 73.8842 1072.1 104.482C1060.54 150.976 1141.45 155.091 1136.69 201.476C1133.35 234.04 1082.59 240.212 1055.81 240.511C1028.72 241.019 1052.1 262.779 1067.88 261.846C1106.89 259.535 1165.39 248.242 1166.31 200.28C1167.02 163.411 1128.66 141.704 1109.62 128.3L1109.61 128.309Z" fill="black"/>
<path d="M719.275 244.218C772.682 259.861 847.802 226.182 867.76 172.9C891.753 108.841 851.448 47.6281 727.038 56.1113C706.727 57.4979 720.461 80.3191 734.366 79.5215C814.743 74.9174 870.076 105.279 844.915 168.694C828.811 209.27 765.76 233.378 728.766 222.149L714.245 230.07L719.284 244.209L719.275 244.218Z" fill="black"/>
</svg>
