<?xml version="1.0" standalone="no"?>
<!DOCTYPE svg PUBLIC "-//W3C//DTD SVG 20010904//EN"
 "http://www.w3.org/TR/2001/REC-SVG-20010904/DTD/svg10.dtd">
<svg version="1.0" xmlns="http://www.w3.org/2000/svg"
 width="335.000000pt" height="91.000000pt" viewBox="0 0 335.000000 91.000000"
 preserveAspectRatio="xMidYMid meet">

<g transform="translate(0.000000,91.000000) scale(0.100000,-0.100000)"
fill="#000000" stroke="none">
<path d="M14 885 c-5 -11 -8 -64 -8 -118 1 -89 3 -100 25 -123 38 -41 185
-109 235 -109 69 0 103 45 78 104 -11 26 -29 39 -98 71 -83 38 -168 107 -208
170 -16 24 -16 24 -24 5z"/>
<path d="M313 775 c-33 -23 -28 -49 17 -94 58 -57 53 -93 -24 -180 -69 -77
-89 -123 -92 -211 -3 -94 11 -152 44 -182 23 -21 25 -21 18 -3 -4 11 -9 36
-12 55 l-4 35 11 -38 c11 -37 74 -115 85 -105 3 4 -4 24 -15 47 -26 50 -27 79
-1 31 26 -50 80 -99 117 -106 l32 -6 -44 45 c-52 54 -99 149 -120 241 -19 80
-12 126 22 158 57 53 80 143 53 207 -18 46 -9 74 30 93 27 14 30 18 14 18 -12
0 -41 3 -65 6 -32 4 -50 1 -66 -11z"/>
<path d="M572 458 l3 -73 48 -3 c28 -2 47 1 47 7 0 6 -16 11 -35 11 -31 0 -35
3 -35 25 0 21 5 25 30 25 17 0 30 5 30 10 0 6 -13 10 -30 10 -23 0 -30 4 -30
20 0 16 7 20 35 20 19 0 35 5 35 10 0 6 -23 10 -50 10 l-51 0 3 -72z"/>
<path d="M740 455 c0 -84 17 -103 22 -24 l3 51 40 -50 c22 -28 43 -51 48 -52
4 0 7 34 7 75 0 84 -17 103 -22 24 l-3 -50 -39 50 c-21 28 -42 51 -47 51 -5 0
-9 -34 -9 -75z"/>
<path d="M920 520 c0 -5 11 -10 25 -10 23 0 24 -4 27 -62 2 -35 8 -63 13 -63
6 0 11 28 13 63 3 59 4 62 28 62 14 0 22 4 19 10 -3 6 -33 10 -66 10 -33 0
-59 -4 -59 -10z"/>
<path d="M1104 516 c-10 -25 1 -129 14 -134 7 -2 12 6 12 22 0 34 32 35 50 1
7 -14 20 -25 28 -25 12 0 11 5 -3 26 -12 19 -14 29 -6 37 15 15 14 60 -1 75
-17 17 -87 15 -94 -2z m84 -33 c3 -20 -1 -23 -27 -23 -27 0 -31 4 -31 26 0 22
4 25 28 22 19 -2 28 -9 30 -25z"/>
<path d="M1282 458 l3 -73 48 -3 c28 -2 47 1 47 7 0 6 -16 11 -35 11 -31 0
-35 3 -35 25 0 21 5 25 30 25 17 0 30 5 30 10 0 6 -13 10 -30 10 -23 0 -30 4
-30 20 0 16 7 20 35 20 19 0 35 5 35 10 0 6 -23 10 -50 10 l-51 0 3 -72z"/>
<path d="M1450 455 c0 -43 4 -75 10 -75 6 0 10 11 10 25 0 19 5 25 21 25 36 0
59 19 59 48 0 38 -17 52 -62 52 l-38 0 0 -75z m78 28 c3 -20 -1 -23 -27 -23
-27 0 -31 4 -31 26 0 22 4 25 28 22 19 -2 28 -9 30 -25z"/>
<path d="M1620 455 c0 -43 4 -75 10 -75 6 0 10 11 10 25 0 18 5 25 18 25 10 0
25 -11 32 -25 7 -14 20 -25 28 -25 12 0 11 5 -3 26 -12 19 -14 29 -6 37 15 15
14 60 -1 75 -7 7 -29 12 -50 12 l-38 0 0 -75z m78 28 c3 -20 -1 -23 -27 -23
-27 0 -31 4 -31 26 0 22 4 25 28 22 19 -2 28 -9 30 -25z"/>
<path d="M1792 458 l3 -73 48 -3 c28 -2 47 1 47 7 0 6 -16 11 -35 11 -31 0
-35 3 -35 25 0 21 5 25 30 25 17 0 30 5 30 10 0 6 -13 10 -30 10 -23 0 -30 4
-30 20 0 16 7 20 35 20 19 0 35 5 35 10 0 6 -23 10 -50 10 l-51 0 3 -72z"/>
<path d="M1960 455 c0 -84 17 -103 22 -25 l3 51 40 -51 c22 -27 43 -50 47 -50
5 0 8 34 8 75 0 85 -17 103 -22 23 l-3 -52 -40 52 c-21 29 -43 52 -47 52 -4 0
-8 -34 -8 -75z"/>
<path d="M2160 455 l0 -75 44 0 c25 0 48 5 51 10 4 6 -10 10 -34 10 -37 0 -41
2 -41 25 0 21 5 25 30 25 17 0 30 5 30 10 0 6 -13 10 -30 10 -23 0 -30 4 -30
20 0 16 7 20 35 20 19 0 35 5 35 10 0 6 -20 10 -45 10 l-45 0 0 -75z"/>
<path d="M2320 475 c0 -83 47 -120 100 -77 17 14 22 29 23 71 1 35 -2 55 -10
58 -10 3 -13 -11 -13 -51 0 -44 -4 -57 -19 -66 -25 -13 -27 -13 -45 6 -10 10
-16 33 -16 65 0 27 -4 49 -10 49 -5 0 -10 -25 -10 -55z"/>
<path d="M2520 455 c0 -43 4 -75 10 -75 6 0 10 11 10 25 0 16 6 25 16 25 9 0
25 -11 36 -25 27 -34 42 -31 23 4 -9 19 -11 32 -5 36 14 9 13 58 -2 73 -7 7
-29 12 -50 12 l-38 0 0 -75z m78 28 c3 -20 -1 -23 -27 -23 -27 0 -31 4 -31 26
0 22 4 25 28 22 19 -2 28 -9 30 -25z"/>
<path d="M2717 518 c-44 -34 -37 -107 14 -128 24 -10 33 -10 54 4 29 19 34 31
6 16 -31 -16 -69 -12 -81 9 -16 30 -12 59 10 81 24 24 43 25 64 4 9 -8 16 -12
16 -7 0 30 -53 43 -83 21z"/>
<path d="M2882 458 l-2 -78 45 0 c25 0 45 5 45 10 0 6 -18 10 -40 10 l-39 0
-4 68 -3 67 -2 -77z"/>
<path d="M3031 473 c-1 -54 2 -64 21 -77 55 -39 98 -3 98 81 0 73 -18 59 -22
-17 -3 -52 -4 -55 -32 -58 -39 -5 -50 9 -57 76 l-6 57 -2 -62z"/>
<path d="M3222 458 l3 -73 32 -3 c44 -4 73 13 73 43 0 14 -4 25 -10 25 -6 0
-5 10 2 25 16 36 -4 55 -59 55 l-44 0 3 -72z m83 32 c0 -21 -5 -26 -32 -28
-31 -3 -33 -1 -33 28 0 29 2 31 33 28 27 -2 32 -7 32 -28z m10 -65 c0 -16 -8
-21 -37 -23 -35 -3 -38 -1 -38 23 0 24 3 26 38 23 29 -2 37 -7 37 -23z"/>
</g>
</svg>
