<svg width="95" height="29" viewBox="0 0 95 29" fill="none" xmlns="http://www.w3.org/2000/svg">
<g clip-path="url(#clip0_765_1675)">
<path d="M0 11.8155H5.94222V5.68088H19.9322V0.58606H0V11.8155Z" fill="black"/>
<path d="M0 28.1397H19.9322V23.0449H5.94222V16.9103H0V28.1397Z" fill="black"/>
<path d="M18.7366 11.8165H5.94238V16.9113H18.7366V11.8165Z" fill="black"/>
<path d="M44.71 3.1183C43.8648 2.30688 42.8588 1.6817 41.7571 1.28312C40.3387 0.783892 38.8412 0.547808 37.3381 0.586485H25.0273V28.1401H30.9696V16.9107H37.3381C38.8342 16.9468 40.3245 16.7108 41.7363 16.2141C42.8454 15.8181 43.8587 15.1928 44.71 14.3789C45.4496 13.6468 46.0162 12.7587 46.3684 11.7795C47.0615 9.82546 47.0615 7.69252 46.3684 5.73849C46.0175 4.75252 45.451 3.85734 44.71 3.1183ZM40.5509 10.3238C40.2462 10.7315 39.8415 11.0538 39.376 11.2596C38.8346 11.491 38.2616 11.64 37.676 11.7015C37.01 11.78 36.3399 11.8182 35.6693 11.8159H30.9696V5.6813H35.6745C36.3451 5.67895 37.0152 5.71714 37.6812 5.79568C38.2675 5.85621 38.841 6.00702 39.3812 6.24277C39.8456 6.44567 40.2488 6.76648 40.5509 7.17336C40.8626 7.63222 41.0192 8.17873 40.998 8.73299C41.026 9.29779 40.869 9.8563 40.5509 10.3238Z" fill="black"/>
<path d="M80.825 23.0448V0.58606H74.8828V28.1397H94.815V23.0448H80.825Z" fill="black"/>
<path d="M50.6465 11.8155H56.5887V5.68088H70.5787V0.58606H50.6465V11.8155Z" fill="black"/>
<path d="M56.5887 16.9105H50.6465V28.1399H56.5887V16.9105Z" fill="black"/>
<path d="M69.3821 11.8165H56.5879V16.9113H69.3821V11.8165Z" fill="black"/>
</g>
<defs>
<clipPath id="clip0_765_1675">
<rect width="94.826" height="27.5536" fill="white" transform="translate(0 0.58606)"/>
</clipPath>
</defs>
</svg>
