<?xml version="1.0" standalone="no"?>
<!DOCTYPE svg PUBLIC "-//W3C//DTD SVG 20010904//EN"
 "http://www.w3.org/TR/2001/REC-SVG-20010904/DTD/svg10.dtd">
<svg version="1.0" xmlns="http://www.w3.org/2000/svg"
 width="326.000000pt" height="28.000000pt" viewBox="0 0 326.000000 28.000000"
 preserveAspectRatio="xMidYMid meet">

<g transform="translate(0.000000,28.000000) scale(0.100000,-0.100000)"
fill="#000000" stroke="none">
<path d="M50 266 c0 -2 -11 -58 -25 -126 -14 -68 -25 -124 -25 -126 0 -2 44
-4 99 -4 94 0 99 1 105 23 12 44 8 47 -49 47 -42 0 -55 3 -55 15 0 12 13 15
60 15 45 0 60 4 60 14 0 8 3 21 6 30 5 14 -3 16 -54 16 -55 0 -60 2 -55 20 5
18 14 20 94 20 102 0 97 6 74 -100 -22 -98 -21 -100 24 -100 l38 0 19 97 19
98 33 3 c38 4 38 -1 17 -98 -22 -98 -21 -100 24 -100 38 0 39 0 47 47 9 45 11
48 43 51 l33 3 -7 -50 -7 -51 40 0 40 0 22 122 c13 68 25 127 27 131 3 5 -15
7 -38 5 -44 -3 -44 -3 -53 -50 -8 -46 -9 -48 -43 -48 -34 0 -34 1 -28 33 4 17
9 40 11 50 5 16 -11 17 -245 17 -138 0 -251 -2 -251 -4z"/>
<path d="M739 140 l-26 -130 1247 0 1247 0 22 113 c12 61 24 120 27 130 5 16
-59 17 -1243 17 l-1249 0 -25 -130z m2491 96 c0 -13 -21 -123 -35 -183 l-5
-23 -1225 0 c-709 0 -1225 4 -1225 9 0 5 9 53 20 106 11 53 20 99 20 101 0 2
551 4 1225 4 1057 0 1225 -2 1225 -14z"/>
<path d="M820 140 l0 -80 50 0 c28 0 50 5 50 10 0 6 -18 10 -40 10 -36 0 -40
3 -40 25 0 22 4 25 35 25 19 0 35 5 35 10 0 6 -16 10 -35 10 -31 0 -35 3 -35
25 0 23 4 25 40 25 22 0 40 5 40 10 0 6 -22 10 -50 10 l-50 0 0 -80z"/>
<path d="M960 140 c0 -47 4 -80 10 -80 6 0 10 28 10 63 l0 62 41 -62 c23 -35
46 -63 50 -63 5 0 9 36 9 80 0 47 -4 80 -10 80 -6 0 -10 -28 -10 -62 l0 -63
-41 63 c-23 34 -46 62 -50 62 -5 0 -9 -36 -9 -80z"/>
<path d="M1110 210 c0 -5 11 -10 25 -10 23 0 24 -3 28 -72 l3 -73 2 73 c2 64
4 72 21 72 11 0 23 5 26 10 4 6 -15 10 -49 10 -31 0 -56 -4 -56 -10z"/>
<path d="M1250 140 c0 -47 4 -80 10 -80 6 0 10 16 10 35 0 27 4 35 18 35 11 0
25 -14 35 -35 9 -19 22 -35 28 -35 6 0 9 3 7 8 -2 4 -10 19 -17 34 -12 23 -11
29 3 43 37 38 12 75 -51 75 l-43 0 0 -80z m85 35 c0 -15 -8 -21 -32 -23 -30
-3 -33 -1 -33 23 0 24 3 26 33 23 24 -2 32 -8 32 -23z"/>
<path d="M1400 140 l0 -80 50 0 c28 0 50 5 50 10 0 6 -18 10 -40 10 -36 0 -40
3 -40 25 0 21 5 25 29 25 17 0 33 5 36 10 4 6 -8 10 -29 10 -32 0 -36 3 -36
25 0 22 4 25 34 25 19 0 38 5 41 10 4 6 -13 10 -44 10 l-51 0 0 -80z"/>
<path d="M1541 138 c1 -56 4 -72 8 -48 4 24 12 36 26 38 59 9 65 12 65 40 0
38 -17 52 -62 52 l-38 0 1 -82z m85 47 c9 -23 -15 -45 -47 -45 -26 0 -29 4
-29 30 0 28 3 30 35 30 23 0 38 -6 41 -15z"/>
<path d="M1680 140 c0 -47 4 -80 10 -80 6 0 10 16 10 35 0 27 4 35 18 35 11 0
25 -14 35 -35 9 -19 21 -35 27 -35 5 0 2 15 -7 34 -15 32 -15 36 1 51 35 35 6
75 -55 75 l-39 0 0 -80z m85 35 c0 -15 -8 -21 -32 -23 -30 -3 -33 -1 -33 23 0
24 3 26 33 23 24 -2 32 -8 32 -23z"/>
<path d="M1830 140 l0 -80 51 0 c31 0 48 4 44 10 -3 6 -24 10 -46 10 -35 0
-39 3 -39 25 0 22 4 25 35 25 19 0 35 5 35 10 0 6 -16 10 -35 10 -31 0 -35 3
-35 25 0 22 4 25 39 25 22 0 43 5 46 10 4 6 -13 10 -44 10 l-51 0 0 -80z"/>
<path d="M1960 140 c0 -94 18 -108 22 -18 l3 63 40 -63 c22 -34 43 -62 48 -62
4 0 7 36 7 80 0 91 -17 109 -22 23 l-3 -57 -38 57 c-20 31 -42 57 -47 57 -6 0
-10 -34 -10 -80z"/>
<path d="M2130 140 l0 -80 51 0 c31 0 48 4 44 10 -3 6 -22 10 -41 10 -30 0
-34 3 -34 25 0 21 5 25 29 25 17 0 33 5 36 10 4 6 -8 10 -29 10 -32 0 -36 3
-36 25 0 22 4 25 34 25 19 0 38 5 41 10 4 6 -13 10 -44 10 l-51 0 0 -80z"/>
<path d="M2260 162 c0 -69 19 -102 59 -102 42 0 51 17 49 94 -1 57 -2 61 -5
21 -6 -85 -10 -95 -42 -95 -35 0 -41 13 -41 86 0 30 -4 54 -10 54 -6 0 -10
-26 -10 -58z"/>
<path d="M2420 140 c0 -47 4 -80 10 -80 6 0 10 16 10 35 0 27 4 35 18 35 11 0
25 -14 35 -35 9 -19 21 -35 27 -35 5 0 2 15 -7 34 -15 32 -15 36 1 51 37 38
12 75 -51 75 l-43 0 0 -80z m85 35 c0 -15 -8 -21 -32 -23 -30 -3 -33 -1 -33
23 0 24 3 26 33 23 24 -2 32 -8 32 -23z"/>
<path d="M2637 202 c-24 -26 -23 -104 1 -125 23 -21 56 -22 76 -1 26 25 18 37
-10 15 -40 -32 -64 -14 -64 49 0 40 4 51 21 61 17 9 25 7 45 -12 26 -24 34
-10 8 15 -21 21 -57 20 -77 -2z"/>
<path d="M2770 140 l0 -80 50 0 c28 0 50 5 50 10 0 6 -18 10 -40 10 l-40 0 0
70 c0 40 -4 70 -10 70 -6 0 -10 -33 -10 -80z"/>
<path d="M2890 156 c0 -71 14 -96 55 -96 41 0 55 25 55 96 0 85 -18 82 -22 -3
l-3 -68 -30 0 -30 0 -3 68 c-4 85 -22 88 -22 3z"/>
<path d="M3050 140 l0 -80 39 0 c40 0 71 20 71 45 0 8 -4 17 -10 20 -5 3 -7
19 -3 35 8 41 -11 60 -58 60 l-39 0 0 -80z m84 51 c13 -21 -7 -41 -40 -41 -30
0 -34 3 -34 25 0 22 4 25 34 25 19 0 37 -4 40 -9z m1 -86 c0 -16 -8 -21 -37
-23 -35 -3 -38 -1 -38 23 0 24 3 26 38 23 29 -2 37 -7 37 -23z"/>
</g>
</svg>
