<svg width="148" height="25" viewBox="0 0 148 25" fill="none" xmlns="http://www.w3.org/2000/svg">
<g clip-path="url(#clip0_1272_1948)">
<path d="M42.226 6.4682C42.0704 6.46089 41.9832 6.45358 41.896 6.45358C40.0307 6.45309 38.166 6.45602 36.3008 6.4487C36.0749 6.44773 35.993 6.50525 35.947 6.7475C35.6873 8.11425 35.395 9.47417 35.1227 10.8385C34.8978 11.9654 34.688 13.0958 34.4665 14.2237C34.2422 15.3662 34.0086 16.5073 33.7842 17.6498C33.5206 18.9912 33.2647 20.3346 33.0006 21.676C32.8431 22.4768 32.6682 23.2747 32.5184 24.077C32.4816 24.274 32.3861 24.2964 32.2223 24.2959C30.6881 24.292 29.1543 24.2935 27.6201 24.2935C26.8772 24.2935 26.1343 24.2935 25.3919 24.2935C25.2964 24.2935 25.2014 24.2935 25.0711 24.2935C25.1559 23.8689 25.2349 23.4765 25.3124 23.0841C25.4961 22.1561 25.6807 21.2285 25.8629 20.3C26.1576 18.7992 26.4483 17.2974 26.7449 15.7966C27.0177 14.4157 27.2959 13.0363 27.5731 11.6559C27.8498 10.2765 28.1284 8.89754 28.4047 7.51812C28.4633 7.22469 28.5093 6.92833 28.5714 6.63588C28.5995 6.50281 28.552 6.45407 28.4274 6.45358C28.363 6.45358 28.298 6.4526 28.2336 6.4526C22.8482 6.4526 17.4628 6.4526 12.078 6.4526C11.7174 6.4526 11.7276 6.45504 11.6612 6.80063C11.495 7.6663 11.3225 8.53051 11.1446 9.39375C11.0753 9.73056 11.0705 9.73592 11.4111 9.73592C14.7374 9.73592 18.0642 9.73592 21.3905 9.73592C21.486 9.73592 21.5815 9.73592 21.708 9.73592C21.6924 9.90213 21.692 10.0464 21.6639 10.1848C21.4371 11.302 21.204 12.4182 20.9757 13.5354C20.888 13.9634 20.7979 14.3914 20.7281 14.8222C20.6937 15.0357 20.5929 15.085 20.3894 15.0845C17.0388 15.0786 13.6878 15.0835 10.3373 15.0733C10.0838 15.0723 9.97914 15.1488 9.93504 15.3896C9.76931 16.2889 9.59146 17.1863 9.41943 18.0841C9.4044 18.1616 9.39907 18.2411 9.38502 18.3561H20.0225C19.912 18.9313 19.8103 19.4699 19.7051 20.0075C19.5248 20.9287 19.3431 21.8495 19.1599 22.7698C19.0669 23.2377 18.9709 23.7051 18.8677 24.1711C18.8575 24.2174 18.795 24.2706 18.7461 24.2852C18.6792 24.3056 18.6021 24.2935 18.5295 24.2935C12.7326 24.2935 6.93536 24.2935 1.13856 24.2935C1.03582 24.2935 0.933569 24.2935 0.801758 24.2935C0.844887 24.0351 0.875417 23.8133 0.919031 23.594C1.24468 21.9684 1.57615 20.3438 1.89938 18.7178C2.07917 17.8131 2.24054 16.905 2.42033 16.0008C2.63937 14.8983 2.87391 13.7986 3.09198 12.6956C3.31006 11.5925 3.50971 10.4861 3.72875 9.38351C3.9507 8.26535 4.19155 7.15109 4.41495 6.03341C4.64174 4.89819 4.85497 3.76054 5.0774 2.62483C5.20291 1.98191 5.33763 1.34094 5.46072 0.697536C5.48931 0.547896 5.56006 0.487942 5.70738 0.503052C5.77135 0.509389 5.83628 0.504027 5.90122 0.504027C20.7329 0.504027 35.5646 0.504027 50.3964 0.504027C50.5151 0.504027 50.6338 0.504027 50.7836 0.504027C50.7472 0.758465 50.7264 0.98122 50.6828 1.20007C50.36 2.81005 50.0295 4.41808 49.7077 6.02854C49.4766 7.18667 49.259 8.34773 49.0259 9.50537C48.9891 9.68815 49.0414 9.73738 49.213 9.73738C50.8436 9.73446 52.4748 9.73202 54.1055 9.74031C54.3304 9.74128 54.3488 9.59993 54.3783 9.44931C54.546 8.59193 54.7108 7.73454 54.878 6.87715C55.1716 5.37587 55.4648 3.87411 55.7614 2.3738C55.8665 1.84251 55.9969 1.3156 56.0861 0.781861C56.1273 0.536197 56.2426 0.500128 56.4587 0.500615C58.7112 0.507439 60.9641 0.505002 63.2165 0.505002C63.3115 0.505002 63.4065 0.505002 63.5334 0.505002C63.4617 0.885684 63.4002 1.23225 63.3309 1.57783C63.1957 2.25195 63.0532 2.9246 62.9189 3.59871C62.681 4.79681 62.4484 5.99588 62.2109 7.19398C61.9657 8.43156 61.7142 9.66768 61.47 10.9057C61.1962 12.2944 60.9292 13.6841 60.6563 15.0728C60.3225 16.7715 59.9866 18.4702 59.6498 20.1684C59.392 21.4693 59.1269 22.7693 58.8759 24.0722C58.8401 24.2589 58.7572 24.2983 58.5852 24.2978C56.2843 24.293 53.9829 24.2949 51.682 24.2939C51.6035 24.2939 51.525 24.2852 51.4334 24.2793C52.0406 21.2129 52.643 18.1699 53.2511 15.0967C53.1222 15.0898 53.036 15.0811 52.9497 15.0811C51.367 15.0801 49.7848 15.0845 48.2021 15.0757C47.9787 15.0742 47.9079 15.1435 47.8658 15.3657C47.6525 16.4941 47.4102 17.6167 47.1878 18.7431C46.9276 20.0597 46.679 21.3786 46.4221 22.6957C46.3291 23.1719 46.2225 23.6457 46.1314 24.1219C46.1004 24.2852 46.0005 24.2964 45.8687 24.2964C44.8835 24.2939 43.8988 24.2949 42.9136 24.2949C41.6217 24.2949 40.3302 24.2949 39.0383 24.2949C38.9423 24.2949 38.8469 24.2949 38.6971 24.2949C39.8747 18.3463 41.0465 12.427 42.2255 6.46918L42.226 6.4682Z" fill="black"/>
<path d="M143.201 24.2914C143.306 23.7552 143.399 23.2717 143.495 22.7886C143.789 21.322 144.083 19.8558 144.376 18.3891C144.661 16.9702 144.959 15.5537 145.223 14.1305C145.365 13.3652 145.459 12.5853 145.259 11.8137C145.041 10.9685 144.521 10.3724 143.695 10.0794C142.79 9.75871 141.889 9.84011 140.992 10.1423C139.959 10.4903 139.158 11.1376 138.573 12.0477C138.069 12.8329 137.803 13.7137 137.632 14.6262C137.475 15.4611 137.317 16.2956 137.154 17.1291C136.945 18.2005 136.73 19.2714 136.517 20.3418C136.279 21.5316 136.04 22.7209 135.801 23.9102C135.777 24.0292 135.748 24.1466 135.718 24.2777H133.378C133.424 24.0111 133.461 23.7586 133.511 23.5091C133.838 21.8918 134.172 20.2764 134.494 18.6587C134.773 17.2627 135.037 15.8637 135.313 14.4673C135.632 12.8563 135.957 11.2468 136.28 9.63685C136.523 8.42364 136.771 7.21141 137.011 5.99771C137.33 4.38725 137.645 2.77532 137.962 1.16437C137.976 1.09321 137.994 1.02253 138.012 0.951853C138.086 0.653222 138.282 0.503906 138.599 0.503906C139.195 0.503906 139.791 0.503906 140.453 0.503906C139.857 3.51573 139.267 6.49343 138.663 9.54229C138.999 9.27372 139.263 9.04219 139.548 8.83893C140.397 8.23403 141.353 7.93085 142.384 7.82703C143.194 7.74514 143.997 7.74417 144.781 7.98593C146.128 8.40122 147.042 9.27908 147.505 10.6176C147.858 11.6387 147.87 12.6828 147.663 13.7342C147.373 15.2018 147.075 16.668 146.783 18.1357C146.511 19.5083 146.245 20.8823 145.973 22.2554C145.849 22.8822 145.721 23.5086 145.586 24.133C145.573 24.1929 145.494 24.2841 145.445 24.2846C144.713 24.2943 143.981 24.2914 143.2 24.2914H143.201Z" fill="black"/>
<path d="M85.6642 7.97713C85.591 8.37828 85.528 8.75019 85.4548 9.11966C85.2523 10.1433 85.0454 11.1664 84.8404 12.1895C84.5627 13.5777 84.2729 14.9634 84.0117 16.3546C83.828 17.3309 83.6449 18.3101 83.5319 19.2962C83.4321 20.1697 83.624 20.9929 84.2845 21.6378C84.822 22.1628 85.4941 22.3611 86.222 22.3894C88.1201 22.4625 89.8691 21.3312 90.642 19.5896C91.051 18.6674 91.2197 17.6906 91.4111 16.7157C91.6544 15.4772 91.8976 14.2381 92.1404 12.9996C92.3832 11.7615 92.6226 10.523 92.8688 9.28539C92.9536 8.85743 93.0529 8.43288 93.1484 7.99419H95.5307C95.4643 8.33247 95.4027 8.64686 95.3417 8.96125C95.0858 10.2705 94.8329 11.5807 94.5726 12.8894C94.3453 14.0315 94.1055 15.1706 93.8787 16.3126C93.6049 17.693 93.3403 19.0754 93.0694 20.4568C92.8324 21.6631 92.5945 22.869 92.3473 24.0735C92.3309 24.1549 92.2368 24.2826 92.1767 24.2836C91.46 24.2982 90.7433 24.2928 89.9839 24.2928C90.0794 23.745 90.1695 23.2273 90.2708 22.6439C89.9718 22.8959 89.7319 23.1157 89.4741 23.3116C88.611 23.9672 87.6292 24.3094 86.5592 24.4391C85.732 24.5395 84.9208 24.5278 84.1154 24.2928C83.0154 23.9721 82.1814 23.3165 81.6459 22.3022C81.0464 21.1669 80.9611 19.9542 81.1933 18.7113C81.4428 17.3752 81.7031 16.0411 81.9681 14.708C82.1906 13.5894 82.4314 12.4746 82.6548 11.356C82.8656 10.3017 83.0619 9.24444 83.2746 8.19062C83.2906 8.11117 83.3875 7.98785 83.4486 7.98688C84.1726 7.97274 84.8975 7.97762 85.6647 7.97762L85.6642 7.97713Z" fill="black"/>
<path d="M76.9179 22.192C76.8568 22.5322 76.8059 22.831 76.7483 23.1288C76.6848 23.4544 76.6053 23.7771 76.5515 24.1042C76.5258 24.2621 76.4507 24.2977 76.3078 24.2957C75.9041 24.2894 75.5004 24.2938 75.0968 24.2938C71.8674 24.2938 68.6385 24.2938 65.4091 24.2938H65.0742C65.1081 24.0715 65.1304 23.8736 65.1692 23.6792C65.2511 23.2673 65.3325 22.8544 65.4328 22.4469C65.4619 22.329 65.5375 22.213 65.6189 22.1199C66.7078 20.8779 67.803 19.6413 68.8943 18.4008C70.746 16.2961 72.5957 14.1899 74.4474 12.0852C75.0202 11.434 75.5969 10.7862 76.2171 10.0853H68.1495C68.1888 9.8279 68.2144 9.61197 68.2561 9.39945C68.339 8.9788 68.4243 8.55864 68.5246 8.14237C68.5406 8.07657 68.6356 8.02247 68.7049 7.98103C68.7407 7.95959 68.7994 7.97665 68.8478 7.97665C72.3113 7.97665 75.7742 7.97665 79.2377 7.97665H79.5294C79.4882 8.22426 79.4572 8.44409 79.4145 8.66197C79.354 8.971 79.2643 9.27613 79.2256 9.5876C79.1858 9.90589 79.0094 10.1301 78.8107 10.3548C77.0003 12.4015 75.1917 14.4502 73.3817 16.4974C71.7709 18.3189 70.1587 20.1394 68.5478 21.961C68.497 22.0185 68.4543 22.0833 68.3724 22.192H76.9169H76.9179Z" fill="black"/>
<path d="M132.282 10.2266C131.705 10.718 131.138 11.2015 130.551 11.7016C130.403 11.511 130.268 11.3346 130.131 11.1601C129.316 10.1223 128.224 9.78063 126.957 9.89713C125.198 10.059 123.945 11.0138 123.029 12.4707C122.274 13.6727 121.896 15.0117 121.651 16.398C121.501 17.2456 121.377 18.0962 121.443 18.9579C121.531 20.1136 121.908 21.1397 122.913 21.8196C123.692 22.346 124.568 22.4533 125.485 22.369C126.694 22.2573 127.652 21.6597 128.5 20.8384C128.541 20.799 128.578 20.7565 128.618 20.7156C128.831 20.4924 128.833 20.4914 129.026 20.7278C129.418 21.2064 129.808 21.6866 130.227 22.2013C130.037 22.3758 129.861 22.5478 129.674 22.7053C128.099 24.0321 126.278 24.616 124.233 24.482C123.206 24.4147 122.231 24.1466 121.369 23.5554C120.313 22.8306 119.661 21.8279 119.329 20.5908C119.016 19.4254 119.027 18.2555 119.171 17.073C119.327 15.7916 119.606 14.5394 120.08 13.3379C120.894 11.2722 122.12 9.54618 124.161 8.53671C125.495 7.87674 126.916 7.67933 128.396 7.82312C130.031 7.98251 131.269 8.7853 132.209 10.1038C132.227 10.1301 132.241 10.1589 132.282 10.2271V10.2266Z" fill="black"/>
<path d="M97.6602 24.2538C97.7459 23.8049 97.8283 23.3536 97.918 22.9041C98.1297 21.8411 98.3478 20.7794 98.5581 19.7164C98.7369 18.8112 98.9051 17.9041 99.0834 16.9989C99.2647 16.0782 99.4517 15.1589 99.6359 14.2386C99.8646 13.0976 100.096 11.9565 100.321 10.8145C100.487 9.97364 100.651 9.13234 100.804 8.28909C100.844 8.06341 100.92 7.9591 101.176 7.96934C101.749 7.99225 102.323 7.97665 102.895 7.97665C102.982 7.97665 103.068 7.97665 103.203 7.97665C103.086 8.56985 102.978 9.12405 102.869 9.67826C102.886 9.6846 102.902 9.69093 102.919 9.69727C103.156 9.47257 103.38 9.23226 103.632 9.02559C104.623 8.21256 105.779 7.83481 107.044 7.78119C108.132 7.73488 109.167 7.9279 110.07 8.58252C110.316 8.76092 110.527 8.98757 110.754 9.19181C110.847 9.27613 110.839 9.35022 110.745 9.43406C110.195 9.92831 109.646 10.4245 109.099 10.9227C108.994 11.0187 108.915 11.0192 108.822 10.9012C107.91 9.74114 106.431 9.6729 105.235 10.1511C103.706 10.7623 102.733 11.9146 102.239 13.4592C101.986 14.2484 101.843 15.0746 101.671 15.8886C101.481 16.7903 101.316 17.6969 101.138 18.6016C100.856 20.0376 100.573 21.4735 100.29 22.9095C100.212 23.3063 100.139 23.7045 100.045 24.0974C100.027 24.1739 99.9228 24.2845 99.8569 24.2855C99.1547 24.2982 98.4525 24.2918 97.7503 24.2894C97.7285 24.2894 97.7062 24.2733 97.6602 24.2548V24.2538Z" fill="black"/>
<path d="M111.181 24.2914C111.295 23.6948 111.401 23.1391 111.509 22.5844C111.719 21.5053 111.929 20.4261 112.144 19.3484C112.42 17.9602 112.704 16.5735 112.98 15.1853C113.152 14.3206 113.315 13.4544 113.486 12.5892C113.715 11.4306 113.948 10.2725 114.178 9.11386C114.241 8.79605 114.293 8.4763 114.364 8.16045C114.38 8.0927 114.456 7.98692 114.506 7.98595C115.238 7.97474 115.971 7.97815 116.74 7.97815C116.71 8.18287 116.691 8.36419 116.656 8.5421C116.418 9.75629 116.178 10.9705 115.937 12.1837C115.773 13.0079 115.603 13.8312 115.438 14.6554C115.247 15.6152 115.059 16.5754 114.871 17.5356C114.582 19.0043 114.294 20.4734 114.004 21.942C113.861 22.6722 113.717 23.4019 113.564 24.1301C113.552 24.1905 113.476 24.2831 113.429 24.2841C112.696 24.2938 111.963 24.2909 111.181 24.2909L111.181 24.2914Z" fill="black"/>
<path d="M85.9927 3.42361C86.0804 2.94105 86.1599 2.48043 86.2485 2.02176C86.3314 1.59429 86.4259 1.16876 86.5117 0.741777C86.5369 0.617971 86.5548 0.502938 86.7239 0.503912C87.4169 0.507812 88.1099 0.50635 88.8029 0.508299C88.8247 0.508299 88.8465 0.523897 88.9056 0.546806C88.8436 0.881182 88.783 1.21994 88.7171 1.55773C88.6061 2.12851 88.4966 2.69978 88.3716 3.26763C88.3546 3.34416 88.2524 3.4587 88.1879 3.45968C87.4954 3.47235 86.8024 3.4665 86.1095 3.46358C86.0799 3.46358 86.0503 3.44408 85.9922 3.42361H85.9927Z" fill="black"/>
<path d="M95.2282 0.505862C95.1468 0.962095 95.0785 1.37495 94.999 1.78585C94.9118 2.2377 94.8057 2.68613 94.7257 3.13944C94.685 3.36999 94.6109 3.48746 94.3419 3.47674C93.7623 3.45334 93.1808 3.4704 92.6003 3.46894C92.514 3.46894 92.4277 3.45919 92.2998 3.45139C92.3773 3.03805 92.4466 2.65152 92.5232 2.26645C92.6274 1.74344 92.7321 1.22092 92.8493 0.700833C92.8658 0.627719 92.9526 0.515611 93.0083 0.514636C93.7323 0.501963 94.4568 0.506349 95.2282 0.506349V0.505862Z" fill="black"/>
<path d="M115.312 3.42751C115.34 3.23546 115.359 3.0439 115.395 2.85624C115.535 2.14314 115.676 1.42954 115.832 0.719844C115.851 0.636981 115.965 0.515612 116.036 0.514149C116.73 0.499527 117.423 0.506351 118.117 0.5083C118.14 0.5083 118.162 0.522923 118.222 0.543883C118.131 1.01376 118.041 1.48706 117.95 1.95986C117.865 2.39611 117.786 2.83333 117.687 3.26666C117.67 3.34367 117.568 3.45822 117.504 3.45968C116.81 3.47284 116.117 3.4665 115.423 3.46407C115.393 3.46407 115.363 3.44554 115.312 3.428L115.312 3.42751Z" fill="black"/>
</g>
<defs>
<clipPath id="clip0_1272_1948">
<rect width="147" height="24" fill="white" transform="translate(0.799805 0.5)"/>
</clipPath>
</defs>
</svg>
