<?xml version="1.0" standalone="no"?>
<!DOCTYPE svg PUBLIC "-//W3C//DTD SVG 20010904//EN"
 "http://www.w3.org/TR/2001/REC-SVG-20010904/DTD/svg10.dtd">
<svg version="1.0" xmlns="http://www.w3.org/2000/svg"
 width="184.000000pt" height="85.000000pt" viewBox="0 0 184.000000 85.000000"
 preserveAspectRatio="xMidYMid meet">

<g transform="translate(0.000000,85.000000) scale(0.100000,-0.100000)"
fill="#000000" stroke="none">
<path d="M730 425 c0 -270 3 -415 10 -415 7 0 10 145 10 415 0 270 -3 415 -10
415 -7 0 -10 -145 -10 -415z"/>
<path d="M182 682 c-186 -67 -241 -304 -103 -442 60 -60 128 -85 215 -78 137
11 233 107 244 244 15 196 -172 341 -356 276z m175 -239 c59 -127 61 -133 39
-133 -19 0 -30 16 -71 105 -26 58 -51 105 -54 105 -3 0 -27 -46 -53 -103 -35
-75 -52 -103 -68 -105 -11 -2 -20 1 -20 6 0 5 32 77 71 158 66 139 72 147 82
124 6 -14 39 -85 74 -157z"/>
<path d="M963 650 c-24 -10 -43 -39 -43 -68 0 -25 29 -50 68 -58 22 -4 32 -12
32 -24 0 -24 -26 -33 -44 -15 -15 16 -56 21 -56 7 0 -18 31 -50 54 -56 57 -14
106 36 86 88 -6 16 -23 28 -51 37 -23 8 -44 20 -47 26 -5 19 27 28 49 15 42
-27 68 -2 32 30 -25 22 -54 28 -80 18z"/>
<path d="M1090 630 c0 -16 7 -20 30 -20 l30 0 0 -85 c0 -78 2 -85 20 -85 18 0
20 7 20 85 l0 85 30 0 c23 0 30 4 30 20 0 18 -7 20 -80 20 -73 0 -80 -2 -80
-20z"/>
<path d="M1302 545 c-51 -102 -51 -105 -28 -105 19 0 28 11 51 62 31 69 37 68
72 -18 14 -34 23 -44 41 -44 21 0 20 5 -29 103 -28 56 -52 103 -53 104 -1 1
-25 -45 -54 -102z"/>
<path d="M1490 545 c0 -98 1 -105 20 -105 16 0 20 7 20 35 0 24 5 35 14 35 8
0 24 -16 36 -35 15 -25 29 -35 46 -35 l25 0 -25 37 c-22 32 -24 39 -12 52 27
30 29 65 6 94 -19 23 -29 27 -76 27 l-54 0 0 -105z m104 49 c9 -22 -11 -44
-40 -44 -20 0 -24 5 -24 30 0 26 3 30 29 30 17 0 31 -6 35 -16z"/>
<path d="M1680 630 c0 -15 7 -20 25 -20 25 0 25 -1 25 -85 0 -78 2 -85 20 -85
18 0 20 7 20 85 l0 85 30 0 c23 0 30 4 30 20 0 18 -7 20 -75 20 -68 0 -75 -2
-75 -20z"/>
<path d="M948 320 c-24 -25 -29 -36 -24 -58 9 -37 42 -62 82 -62 32 0 34 2 34
35 0 28 -4 35 -20 35 -11 0 -20 -4 -20 -10 0 -5 5 -10 10 -10 6 0 10 -7 10
-15 0 -9 -9 -15 -25 -15 -30 0 -59 40 -50 70 8 24 41 44 62 36 21 -8 39 4 22
15 -25 16 -50 9 -81 -21z"/>
<path d="M1078 344 c-5 -4 -8 -38 -8 -76 l0 -68 45 0 c25 0 45 5 45 10 0 6
-16 10 -35 10 l-34 0 -3 66 c-2 36 -6 62 -10 58z"/>
<path d="M1220 343 c-23 -8 -50 -45 -50 -69 0 -37 37 -74 74 -74 77 0 99 107
29 139 -26 12 -30 12 -53 4z m65 -47 c13 -19 14 -29 6 -45 -22 -40 -82 -35
-96 9 -17 54 58 85 90 36z"/>
<path d="M1347 343 c-4 -3 -7 -37 -7 -75 l0 -69 41 3 c46 3 67 24 54 54 -4 11
-7 29 -6 41 3 33 -60 69 -82 46z m61 -40 c-2 -10 -13 -19 -26 -21 -17 -3 -22
2 -22 17 0 16 6 21 26 21 19 0 25 -5 22 -17z m7 -63 c0 -9 -11 -16 -27 -18
-23 -3 -28 1 -28 18 0 17 5 21 28 18 16 -2 27 -9 27 -18z"/>
<path d="M1608 344 c-5 -4 -8 -38 -8 -76 l0 -68 45 0 c25 0 45 5 45 10 0 6
-16 10 -35 10 l-34 0 -3 66 c-2 36 -6 62 -10 58z"/>
<path d="M1483 270 c-17 -38 -27 -70 -23 -70 5 0 14 9 20 20 15 27 66 27 75 0
6 -17 25 -29 25 -15 0 9 -58 135 -62 135 -2 0 -18 -31 -35 -70z m47 -2 c0 -5
-6 -8 -14 -8 -9 0 -12 7 -9 21 4 16 8 17 14 7 5 -7 9 -16 9 -20z"/>
</g>
</svg>
