<svg width="179" height="39" viewBox="0 0 179 39" fill="none" xmlns="http://www.w3.org/2000/svg">
<g clip-path="url(#clip0_1273_2055)">
<path d="M31.7011 34.9669C31.7011 35.6025 31.6866 36.2389 31.7075 36.8737C31.7179 37.1838 31.657 37.3405 31.3087 37.3567C30.9939 37.3713 30.6504 37.5954 30.3757 37.5199C29.5636 37.2958 28.7068 37.489 27.9091 37.187C27.745 37.1245 27.5352 37.1408 27.3558 37.1732C26.7415 37.2853 26.1705 37.0872 25.6028 36.9216C24.6266 36.6375 23.6576 36.3428 22.6253 36.3834C21.8853 36.4126 21.1414 36.519 20.4134 36.2625C20.2941 36.2202 20.1459 36.2349 20.0162 36.2543C19.4484 36.3396 18.9014 36.2397 18.3801 36.0344C17.7202 35.7738 17.0243 35.6658 16.3396 35.553C15.7222 35.4515 15.1776 35.1374 14.5578 35.0537C14.3031 35.0197 14.0709 34.971 13.8186 35.0473C13.274 35.212 12.7535 35.2137 12.1785 35.0537C11.6532 34.9084 11.0549 34.8735 10.4984 35.087C10.4007 35.1244 10.2926 35.143 10.1884 35.1552C10.098 35.1658 9.98744 35.1844 9.92978 35.0935C9.86411 34.9896 9.92497 34.8995 9.98423 34.8013C10.5232 33.9108 11.0413 33.0097 11.67 32.1753C12.1465 31.5429 12.3146 30.7393 12.6782 30.0338C13.0506 29.3122 13.483 28.6417 13.9283 27.9728C14.3015 27.4119 14.589 26.7901 15.0487 26.2916C15.8895 25.38 16.6615 24.3881 17.7987 23.8109C18.1334 23.6412 18.4169 23.8012 18.694 23.927C19.3587 24.2281 20.0706 24.4384 20.6496 24.91C21.0509 25.2372 21.372 25.6463 21.6867 26.0546C22.1328 26.6342 22.6549 27.1148 23.3596 27.3185C24.3254 27.5994 25.0654 28.2285 25.8134 28.856C26.3788 29.3309 26.7696 29.9811 27.3918 30.4081C28.0108 30.8326 28.6627 31.1906 29.3226 31.5364C29.6501 31.7077 29.9649 31.8968 30.2716 32.1014C30.5383 32.2792 30.8242 32.4009 31.1405 32.4496C31.5929 32.5194 31.7011 32.6453 31.7011 33.099C31.7011 33.7208 31.7011 34.3435 31.7011 34.9653V34.9669Z" fill="black"/>
<path d="M31.7005 4.75163C31.7005 5.86049 31.7005 6.96935 31.7005 8.07903C31.7005 8.56364 31.2184 9.22036 30.7659 9.403C29.7457 9.81456 28.8583 10.4567 27.9766 11.1028C27.1574 11.7035 26.4342 12.4406 25.4116 12.7345C25.1041 12.8229 24.7925 13.0113 24.5098 13.1972C23.8243 13.6485 23.0147 13.7703 22.2811 14.0909C21.8151 14.2947 21.3137 14.414 20.939 14.8052C20.7412 15.0114 20.4352 15.0325 20.179 15.1324C19.5495 15.3775 18.9833 15.7688 18.245 15.7558C17.7012 15.7461 17.2271 15.6138 16.7626 15.3808C16.504 15.2509 16.3542 14.7005 16.5616 14.5398C17.1847 14.0576 17.0133 13.4228 16.9364 12.8156C16.8011 11.749 16.094 11.2181 15.169 10.8195C14.6645 10.602 14.1143 10.3763 13.766 9.86164C13.5633 9.56292 13.649 9.38758 13.9037 9.24309C14.3393 8.9955 14.7982 8.79662 15.2779 8.64969C15.9162 8.45406 16.4391 8.03357 17.0133 7.71455C17.1535 7.63662 17.276 7.59846 17.4145 7.60577C18.1241 7.64392 18.7879 7.48563 19.3669 7.07407C19.6905 6.84353 20.0693 6.80213 20.4112 6.75018C21.0255 6.65683 21.5035 6.32482 22.0209 6.04963C22.4637 5.81422 22.8345 5.49845 23.1556 5.10637C23.468 4.72484 23.9437 4.61282 24.3713 4.42043C25.1145 4.08599 25.7671 3.58189 26.4799 3.19793C27.352 2.72873 28.1376 2.11991 28.9224 1.54681C29.6824 0.993193 30.5361 1.13444 31.3049 0.821913C31.5331 0.729372 31.7085 0.907147 31.7053 1.21967C31.6909 2.39591 31.6997 3.57296 31.6997 4.7492L31.7005 4.75163Z" fill="black"/>
<path d="M3.57574 23.0072C2.99033 23.0097 2.66039 22.4593 2.78612 21.913C2.93027 21.2847 2.83657 20.6677 2.54587 20.1141C2.37049 19.7797 2.30643 19.4249 2.23515 19.0808C2.05657 18.2122 1.70821 17.4167 1.39509 16.5976C1.1148 15.8654 0.768038 15.1705 0.474935 14.4497C0.360417 14.168 0.412471 13.8092 0.417276 13.4861C0.426085 12.9431 0.398857 12.4276 0.113762 11.9284C-0.0664238 11.6134 -0.0175733 11.2213 0.155405 10.8771C0.244297 10.7002 0.3436 10.5281 0.422882 10.3471C0.591856 9.96067 0.825697 9.69197 1.29418 9.79507C1.31981 9.80075 1.35184 9.804 1.37346 9.79344C2.16948 9.39 2.7629 10.0061 3.42839 10.2302C3.60937 10.2911 3.77594 10.3463 3.96093 10.3357C4.63443 10.2984 5.30632 10.2131 5.98302 10.3268C6.31537 10.3828 6.64611 10.2951 6.97284 10.2261C7.5094 10.1125 8.04515 9.98421 8.5713 10.2773C8.7723 10.3893 8.94288 10.1807 9.15029 10.205C9.77814 10.2789 10.4012 10.2894 11.0338 10.1644C11.6136 10.05 12.2022 10.1547 12.758 10.3649C13.0928 10.4916 13.4435 10.9104 13.1264 11.3195C12.7292 11.8326 12.6115 12.4706 12.4137 13.0689C12.2655 13.517 12.8013 14.4286 13.2906 14.6851C13.6061 14.8507 13.9296 15.0001 14.0882 15.3921C14.1915 15.6462 14.2219 15.8029 13.9945 15.9742C13.5116 16.337 13.0343 16.7072 12.5594 17.0806C12.4569 17.161 12.3496 17.191 12.2271 17.1942C12.147 17.1967 12.0557 17.1853 12.0036 17.2567C11.5776 17.838 10.9081 17.9751 10.3051 18.2455C8.95489 18.8494 7.73603 19.662 6.67734 20.7124C6.00545 21.3788 5.2839 21.9869 4.51511 22.5324C4.19798 22.7572 3.84321 22.9301 3.57654 23.0072H3.57574Z" fill="black"/>
<path d="M12.0223 19.9348C12.4187 19.8317 12.7967 20.0346 13.1899 20.1377C13.3773 20.1864 13.5262 20.3577 13.5863 20.5136C13.7369 20.9048 13.9963 21.1946 14.295 21.4585C14.9445 22.0324 14.9397 22.9107 14.5289 23.612C14.3054 23.9928 14.05 24.2923 13.6848 24.5602C13.2219 24.9003 12.9977 25.4872 12.6694 25.9653C12.0255 26.9037 11.3832 27.847 10.8723 28.8706C10.7378 29.1401 10.6 29.4088 10.5616 29.7262C10.5327 29.9689 10.4006 30.193 10.2525 30.3975C9.69268 31.1719 9.39237 32.0608 9.15532 32.9781C8.9391 33.8175 8.56512 34.5651 7.87721 35.113C7.72505 35.234 7.56729 35.3866 7.34466 35.3354C6.92903 35.2405 6.50219 35.2876 6.08095 35.1601C5.63329 35.0245 5.44429 34.7526 5.46752 34.3053C5.48754 33.9059 5.40345 33.5577 5.18162 33.2468C5.08712 33.1145 5.05589 32.9838 5.05269 32.8369C5.03587 32.0673 4.87731 31.3205 4.70753 30.5753C4.68431 30.4722 4.63306 30.3748 4.59141 30.2766C4.04124 28.9826 3.46945 27.6976 2.94892 26.3923C2.643 25.6252 3.0258 24.91 3.8995 24.5107C4.28229 24.3353 4.61304 24.0869 4.85809 23.763C5.38183 23.0706 6.15783 22.7516 6.84814 22.31C7.1893 22.0916 7.55688 21.926 7.8724 21.6541C8.60035 21.0274 9.47165 20.6564 10.3534 20.3147C10.8811 20.1101 11.4032 19.8755 12.0215 19.934L12.0223 19.9348Z" fill="black"/>
<path d="M31.7064 21.4592C31.7064 22.9058 31.7064 24.3523 31.7064 25.7989C31.7064 26.3136 31.599 26.4045 31.1314 26.2372C30.0615 25.8557 28.9996 25.4531 27.9273 25.0781C27.6277 24.9733 27.3098 24.9068 26.9951 24.8694C26.2247 24.7785 25.5512 24.3726 24.8168 24.1965C24.0801 24.0195 23.5475 23.5268 22.9173 23.1875C21.7553 22.5616 20.5204 22.1095 19.2455 21.7799C18.729 21.6468 18.3117 21.413 18.1972 20.8407C18.1011 20.3609 17.7656 19.9502 17.8168 19.4298C17.8625 18.9663 18.1876 18.2658 18.6649 18.2715C18.9612 18.2755 19.2335 18.1919 19.5178 18.17C19.7364 18.153 19.9398 18.1091 20.1072 17.9622C20.4027 17.7032 20.7943 17.674 21.1354 17.6131C21.708 17.5117 22.2566 17.3647 22.806 17.178C23.5195 16.9361 24.2306 16.9199 24.9754 17.1821C25.8643 17.4946 26.7709 17.7528 27.7295 17.2787C28.1299 17.0806 28.652 17.1561 29.0949 17.023C29.8524 16.7949 30.6461 16.7746 31.4028 16.5595C31.736 16.4645 31.7048 16.7145 31.7048 16.9166C31.7064 18.2958 31.7056 19.6742 31.7056 21.0534C31.7056 21.1889 31.7056 21.3237 31.7056 21.4592H31.7064Z" fill="black"/>
<path d="M149.464 32.172C149.464 32.6591 149.464 33.1453 149.464 33.6324C149.464 34.4912 149.469 34.5082 148.672 34.7583C147.517 35.1203 146.344 35.4158 145.121 35.3289C142.859 35.169 140.955 34.2063 139.985 31.8156C139.625 30.93 139.509 29.9478 139.698 28.9307C139.87 27.9988 140.156 27.1432 140.703 26.3996C141.388 25.4677 142.292 24.8321 143.397 24.4473C144.708 23.9911 146.01 24.0155 147.321 24.332C147.868 24.4636 148.392 24.6925 148.922 24.8889C149.122 24.9628 149.242 25.0975 149.222 25.3459C149.199 25.6284 149.205 25.9142 149.22 26.1975C149.234 26.4515 149.13 26.5254 148.918 26.4199C148.17 26.0473 147.388 25.7648 146.571 25.613C144.698 25.2656 142.758 25.7786 141.712 27.6854C141.328 28.3852 141.125 29.1579 141.199 29.9592C141.344 31.5299 142.024 32.8433 143.764 33.5617C144.576 33.897 145.414 33.966 146.262 33.8734C146.756 33.8191 147.24 33.6502 147.725 33.5228C147.911 33.4741 147.954 33.3141 147.954 33.1396C147.954 32.599 147.949 32.0575 147.956 31.5169C147.959 31.2474 147.82 31.1654 147.581 31.1679C147.114 31.1727 146.647 31.1622 146.18 31.1695C145.949 31.1727 145.847 31.0948 145.854 30.8407C145.883 29.559 145.679 29.7927 146.865 29.7733C147.558 29.7619 148.252 29.77 148.946 29.7716C149.431 29.7724 149.461 29.8017 149.464 30.3074C149.468 30.9292 149.465 31.5518 149.465 32.1736L149.464 32.172Z" fill="black"/>
<path d="M40.4487 28.1895C40.4487 29.2716 40.4719 30.3545 40.4423 31.4358C40.4102 32.6209 41.4793 33.4668 42.3562 33.746C43.1667 34.0042 43.9643 33.9522 44.7363 33.7046C45.7397 33.3832 46.5189 32.7695 46.5478 31.5161C46.599 29.2716 46.5814 27.0255 46.5694 24.7802C46.567 24.3921 46.6759 24.2606 47.0619 24.2606C48.1454 24.2606 48.1454 24.2452 48.1454 25.324C48.1454 27.2852 48.167 29.2473 48.1374 31.2085C48.1182 32.444 47.6761 33.5187 46.7111 34.3224C46.161 34.781 45.5099 35.0245 44.8188 35.1642C44.3239 35.264 43.8322 35.3687 43.3188 35.3371C42.0079 35.2567 40.8018 34.9393 39.8769 33.9067C39.4444 33.4238 39.1858 32.8636 39.0136 32.2353C38.8342 31.5802 38.8775 30.9243 38.875 30.266C38.8678 28.399 38.8791 26.5319 38.8662 24.6657C38.8646 24.3727 38.9303 24.2411 39.2378 24.2647C39.5165 24.2858 39.7984 24.2769 40.0779 24.2704C40.3486 24.2639 40.4455 24.3775 40.4423 24.66C40.4287 25.8371 40.4367 27.0141 40.4367 28.1904C40.4407 28.1904 40.4447 28.1904 40.4487 28.1904V28.1895Z" fill="black"/>
<path d="M123.484 32.5211C123.993 32.9716 124.457 33.3759 125.024 33.6454C125.87 34.0488 127.141 34.048 127.716 33.3645C128.164 32.8328 128.201 32.2857 127.805 31.6858C127.302 30.9252 126.512 30.5493 125.791 30.0753C125.037 29.5793 124.249 29.1344 123.762 28.3056C123.051 27.0977 123.462 25.0708 125.019 24.4376C126.331 23.9043 127.549 24.0447 128.761 24.6698C128.916 24.7493 129.035 24.8695 129.029 25.0805C129.019 25.4588 129.027 25.8379 129.027 26.2162C129.027 26.4784 128.938 26.4914 128.747 26.3379C127.969 25.7177 127.102 25.3922 126.096 25.5319C125.555 25.6065 125.108 25.876 124.919 26.3736C124.739 26.8493 124.827 27.3445 125.217 27.752C125.832 28.3933 126.635 28.7342 127.367 29.1888C128.167 29.6864 128.896 30.2482 129.272 31.1703C129.832 32.543 129.313 34.3378 127.903 34.9799C126.362 35.6821 124.974 35.2713 123.631 34.4344C123.542 34.3792 123.488 34.3061 123.488 34.2071C123.484 33.6454 123.486 33.0828 123.486 32.5211H123.484Z" fill="black"/>
<path d="M106.278 31.5494C106.119 29.5167 107.989 27.8494 109.957 27.8469C112.195 27.8445 113.802 29.4842 113.814 31.426C113.83 33.9367 112.136 35.2372 110.168 35.3216C107.953 35.4166 106.196 33.8101 106.278 31.5494ZM109.991 29.1466C108.718 29.0126 107.683 30.1272 107.678 31.5023C107.671 33.1096 108.749 34.0666 109.956 34.0666C111.342 34.0666 112.38 33.1234 112.404 31.5729C112.422 30.3252 111.402 29.0037 109.991 29.1474V29.1466Z" fill="black"/>
<path d="M71.1197 31.7678C70.4927 31.7678 69.8656 31.7661 69.2378 31.7678C68.6892 31.7694 68.5651 31.9285 68.7444 32.4586C68.9839 33.1656 69.7575 33.897 70.5775 33.9295C71.5241 33.9668 72.397 33.811 73.1922 33.2931C73.4477 33.1266 73.4869 33.2403 73.5014 33.4619C73.503 33.4887 73.5014 33.5163 73.5014 33.5431C73.527 34.5553 73.3612 34.7867 72.1784 35.1106C71.7636 35.2242 71.3367 35.3273 70.8891 35.3427C68.8261 35.4134 67.3734 33.8572 67.2693 31.9821C67.2069 30.861 67.3078 29.7895 68.0701 28.9152C68.6612 28.2374 69.4235 27.9005 70.3413 27.864C71.5642 27.8153 72.5171 28.2244 73.1057 29.3406C73.4613 30.0136 73.5846 30.7482 73.5654 31.5096C73.5582 31.7816 73.3716 31.7629 73.2018 31.7637C72.5083 31.7686 71.814 31.7653 71.1197 31.7653V31.767V31.7678ZM70.427 30.8221C70.9075 30.8221 71.388 30.8075 71.8677 30.8277C72.1704 30.8407 72.2216 30.7255 72.18 30.4454C72.1111 29.9786 71.8829 29.619 71.5217 29.3503C70.9243 28.9055 70.2604 28.9607 69.6454 29.2537C69.1288 29.4997 68.8061 29.9657 68.7124 30.5639C68.682 30.7579 68.7493 30.8302 68.9455 30.8261C69.4388 30.8164 69.9329 30.8229 70.4262 30.8237L70.427 30.8221Z" fill="black"/>
<path d="M168.227 31.7678C167.614 31.7678 167 31.7669 166.387 31.7678C165.812 31.7686 165.69 31.9285 165.884 32.4732C166.167 33.2687 166.894 33.9222 167.8 33.9303C168.641 33.9376 169.431 33.8483 170.155 33.375C170.505 33.1469 170.557 33.181 170.545 33.5877C170.512 34.699 170.813 34.4798 169.53 35.0026C168.213 35.5392 166.924 35.5027 165.729 34.6284C165.174 34.2217 164.883 33.634 164.594 33.0268C164.363 32.543 164.353 32.0129 164.344 31.5348C164.326 30.5858 164.535 29.6353 165.209 28.8974C165.795 28.2569 166.521 27.9143 167.408 27.8689C169.041 27.7845 169.926 28.4866 170.448 29.8277C170.657 30.3618 170.723 30.9454 170.687 31.5323C170.672 31.7816 170.503 31.7637 170.348 31.7645C169.64 31.7694 168.934 31.7661 168.227 31.7661V31.7678ZM167.56 30.8221C168.053 30.8221 168.546 30.8261 169.039 30.8196C169.158 30.818 169.346 30.8683 169.318 30.6443C169.253 30.1296 169.095 29.6507 168.644 29.3463C168.141 29.0062 167.607 28.9794 167.022 29.1555C166.48 29.3187 165.874 29.9908 165.843 30.5639C165.833 30.7595 165.887 30.8285 166.081 30.8253C166.573 30.8164 167.067 30.8221 167.56 30.8229V30.8221Z" fill="black"/>
<path d="M96.2348 38.7975C95.4805 38.7789 95.422 38.9477 95.8288 38.067C96.4799 36.6602 97.0973 35.2372 97.7748 33.8434C97.931 33.5211 97.7364 33.3596 97.6435 33.1648C96.8683 31.5339 96.0707 29.9137 95.2794 28.2901C95.1713 28.0677 95.2482 27.9549 95.4861 27.9516C95.7928 27.9476 96.0995 27.9614 96.4062 27.9468C96.789 27.9281 96.8627 28.2617 96.9612 28.4907C97.4153 29.55 97.9494 30.5696 98.4243 31.6184C98.4731 31.7271 98.5268 31.8197 98.6309 31.8408C98.7967 31.8749 98.7598 31.7101 98.7991 31.624C99.3172 30.5054 99.8418 29.3901 100.346 28.265C100.452 28.0288 100.595 27.9387 100.836 27.946C101.115 27.9541 101.395 27.946 101.676 27.95C101.921 27.9533 102.015 28.0182 101.885 28.295C101.033 30.1028 100.193 31.9163 99.3557 33.7314C98.6181 35.3305 97.8845 36.9321 97.1614 38.5386C97.0821 38.7147 96.9844 38.7951 96.8066 38.7967C96.6336 38.7984 96.4599 38.7967 96.2348 38.7967V38.7975Z" fill="black"/>
<path d="M151.213 30.3106C151.213 29.7529 151.168 29.3178 151.225 28.8965C151.287 28.4403 151.728 28.2902 152.072 28.1416C153.001 27.7422 153.972 27.7203 154.896 28.1319C155.562 28.4282 155.95 28.9688 156.045 29.7594C156.207 31.1208 156.103 32.4813 156.144 33.8418C156.157 34.2615 156.315 34.38 156.65 34.2217C156.779 34.1608 156.928 33.9311 157.039 34.1389C157.135 34.3199 157.156 34.5902 157.003 34.7891C156.431 35.5262 155.312 35.5172 154.759 34.7623C154.652 34.617 154.61 34.703 154.513 34.7412C154.145 34.8857 153.806 35.087 153.435 35.2323C152.624 35.5505 151.587 35.0992 151.269 34.4506C150.841 33.5771 151.026 32.6688 151.781 32.0884C152.358 31.6452 153.044 31.4511 153.706 31.2068C153.94 31.1199 154.162 31.0022 154.415 30.9495C154.642 30.9024 154.763 30.7246 154.751 30.4421C154.702 29.4291 153.759 28.8576 152.779 29.2334C152.207 29.4526 151.704 29.7538 151.213 30.3131V30.3106ZM154.745 32.7556C154.745 32.5259 154.749 32.2962 154.744 32.0665C154.736 31.7117 154.595 31.6127 154.266 31.7418C153.983 31.853 153.697 31.9626 153.429 32.1046C152.969 32.349 152.525 32.6355 152.442 33.2127C152.362 33.7647 152.807 34.2663 153.364 34.302C154.124 34.3516 154.737 33.9173 154.744 33.3222C154.747 33.1331 154.744 32.944 154.744 32.7548L154.745 32.7556Z" fill="black"/>
<path d="M49.8134 31.5453C49.8134 30.5176 49.8246 29.4891 49.8078 28.4615C49.8014 28.0702 49.9552 27.9111 50.3299 27.9476C50.4092 27.9549 50.4901 27.9476 50.5702 27.9484C51.13 27.9582 51.2405 27.8478 51.2012 28.5434C51.1964 28.6295 51.1644 28.7732 51.2821 28.7788C51.3686 28.7829 51.4719 28.6944 51.5472 28.6246C52.1422 28.071 52.8269 27.8194 53.6446 27.8705C54.5135 27.9249 55.1005 28.3665 55.4849 29.1174C55.7115 29.5589 55.8116 30.0517 55.8196 30.5412C55.8428 31.9609 55.8212 33.3815 55.8348 34.8021C55.838 35.0935 55.7355 35.1649 55.4656 35.1698C54.4222 35.1885 54.4222 35.1966 54.4222 34.1486C54.4222 32.9586 54.4342 31.7677 54.4158 30.5777C54.407 30.0135 54.238 29.4924 53.7327 29.1701C53.1793 28.817 52.3488 28.968 51.7522 29.4688C51.3606 29.7968 51.162 30.1491 51.182 30.7019C51.2293 32.0527 51.1884 33.4067 51.2045 34.7599C51.2085 35.0781 51.118 35.1804 50.8008 35.1714C49.6749 35.1398 49.823 35.3135 49.8142 34.1835C49.8078 33.3044 49.8126 32.4253 49.8134 31.5453Z" fill="black"/>
<path d="M172.276 31.5575C172.276 30.503 172.286 29.4486 172.271 28.3949C172.266 28.0661 172.367 27.9111 172.704 27.946C172.836 27.9598 172.972 27.9614 173.104 27.946C173.471 27.903 173.62 28.0605 173.584 28.4314C173.574 28.541 173.531 28.6912 173.684 28.748C173.826 28.8008 173.908 28.675 173.987 28.5946C174.693 27.8737 175.578 27.7357 176.488 27.9346C177.268 28.1059 177.735 28.7074 178.026 29.4567C178.208 29.9251 178.194 30.4032 178.194 30.8862C178.195 32.1972 178.188 33.5082 178.2 34.8191C178.202 35.0797 178.134 35.1666 177.868 35.1715C176.783 35.1901 176.783 35.199 176.783 34.1032C176.783 32.8596 176.783 31.616 176.777 30.3731C176.775 29.8561 176.542 29.4542 176.124 29.1726C175.689 28.8803 174.886 28.9453 174.434 29.2513C173.828 29.662 173.519 30.1637 173.562 30.956C173.63 32.2231 173.573 33.496 173.584 34.7664C173.586 35.0546 173.513 35.1698 173.204 35.1715C172.276 35.1747 172.276 35.1877 172.276 34.2331C172.276 33.3409 172.276 32.4488 172.276 31.5567V31.5575Z" fill="black"/>
<path d="M116.981 27.17C116.997 28.0207 116.847 27.9379 117.705 27.9484C118.218 27.9541 118.255 27.989 118.259 28.4972C118.259 28.5784 118.249 28.6612 118.261 28.7399C118.312 29.0987 118.158 29.2067 117.811 29.2026C116.98 29.1921 116.98 29.2075 116.98 30.042C116.98 31.5697 116.98 33.0974 116.98 34.6252C116.98 35.1382 116.955 35.1617 116.468 35.1658C115.873 35.1701 115.575 34.8746 115.575 34.2793C115.575 32.7784 115.575 31.2783 115.575 29.7773C115.575 29.2351 115.54 29.1823 115.008 29.2026C114.656 29.2156 114.474 29.1255 114.542 28.7359C114.556 28.6571 114.544 28.5743 114.545 28.4931C114.546 27.9622 114.546 27.9428 115.073 27.9549C115.467 27.9639 115.612 27.834 115.585 27.4159C115.518 26.4045 115.723 25.4685 116.489 24.7404C117.131 24.1308 117.901 23.9984 118.737 24.1478C118.96 24.1876 119.088 24.3313 119.087 24.5723C119.087 24.5991 119.089 24.6267 119.09 24.6535C119.115 25.2185 118.853 25.508 118.305 25.5221C117.384 25.5456 117 26.0246 116.982 27.1708L116.981 27.17Z" fill="black"/>
<path d="M83.0435 27.8656C83.657 27.8364 84.216 28.015 84.7677 28.2691C84.9615 28.3584 85.0424 28.472 85.0456 28.6563C85.0512 28.9664 85.1529 29.3682 85.0024 29.5654C84.7781 29.8585 84.5475 29.4185 84.2968 29.356C83.7267 29.2131 83.1837 28.9444 82.5663 29.1587C82.1194 29.3138 81.9816 29.7554 82.3012 30.1264C82.6439 30.5241 83.1204 30.7303 83.5417 31.0152C84.0622 31.3675 84.5755 31.719 85.0232 32.1817C85.6526 32.8319 85.426 34.2736 84.6892 34.7875C83.9116 35.3297 83.0804 35.4718 82.1586 35.2234C81.723 35.1057 81.3009 34.9709 80.8893 34.7899C80.6947 34.7047 80.5994 34.574 80.601 34.3629C80.6018 34.1194 80.593 33.8759 80.6042 33.6332C80.6098 33.5073 80.5306 33.3312 80.6779 33.2654C80.8004 33.2102 80.9302 33.3304 81.0367 33.3977C81.6565 33.7906 82.3052 34.1243 83.0548 34.0666C83.637 34.0212 84.0093 33.7013 83.9685 33.237C83.9429 32.9537 83.7667 32.8003 83.5849 32.6542C83.0291 32.2093 82.3829 31.9082 81.783 31.5323C80.9566 31.0144 80.5642 30.1783 80.7484 29.2237C80.8645 28.6238 81.6181 27.976 82.2876 27.9103C82.539 27.8859 82.7929 27.8802 83.0459 27.8656H83.0435Z" fill="black"/>
<path d="M60.8876 27.9517C61.6524 27.9484 61.6171 27.9622 61.9287 28.7512C62.3803 29.8958 62.876 31.0233 63.3846 32.1436C63.5007 32.3993 63.6408 32.1168 63.6801 32.0413C63.8338 31.7474 63.9507 31.4349 64.0805 31.1281C64.4825 30.1759 64.8925 29.2269 65.2801 28.2682C65.3866 28.0052 65.5548 27.9346 65.8055 27.946C66.0185 27.9557 66.2323 27.9565 66.4453 27.946C66.7568 27.9305 66.8337 28.0832 66.7208 28.347C66.3412 29.2359 65.9448 30.1166 65.57 31.0071C65.0599 32.2174 64.5794 33.4408 64.0484 34.6413C63.9379 34.8906 63.9331 35.2997 63.5359 35.3248C63.0915 35.3524 63.1491 34.91 63.0274 34.6665C62.3235 33.2573 61.7709 31.7775 61.0998 30.3512C60.7843 29.6799 60.5096 28.985 60.2125 28.3023C60.1236 28.097 60.1532 27.9581 60.4071 27.9517C60.5672 27.9476 60.7274 27.9517 60.8876 27.9517Z" fill="black"/>
<path d="M132.546 26.7007C132.639 26.9613 132.613 27.247 132.59 27.5206C132.561 27.8559 132.708 27.9516 133.003 27.9484C133.496 27.9419 133.99 27.9598 134.483 27.9452C134.795 27.9362 134.907 28.0637 134.898 28.377C134.872 29.3495 135.015 29.1766 134.097 29.1936C133.737 29.2009 133.377 29.2009 133.017 29.1936C132.729 29.188 132.602 29.3333 132.602 29.6117C132.602 30.7197 132.575 31.8294 132.612 32.9358C132.644 33.8775 133.453 34.2598 134.205 33.9749C134.53 33.8515 134.87 33.7622 135.255 33.5625C135.255 33.9627 135.268 34.3077 135.251 34.6519C135.236 34.9555 134.951 34.9587 134.756 35.0407C133.884 35.4093 133.015 35.488 132.177 34.9449C131.68 34.6235 131.369 34.1819 131.326 33.5593C131.24 32.3303 131.305 31.1005 131.285 29.8715C131.275 29.2188 131.256 29.1993 130.603 29.1904C130.438 29.188 130.194 29.2789 130.126 29.1181C130.062 28.9655 130.29 28.8486 130.406 28.7309C131.037 28.0969 131.667 27.4622 132.308 26.8379C132.363 26.7843 132.397 26.6561 132.545 26.6991L132.546 26.7007Z" fill="black"/>
<path d="M94.8361 33.569C94.8361 33.9644 94.8289 34.2874 94.8377 34.6105C94.8465 34.9369 94.579 34.9442 94.3828 35.031C93.5107 35.415 92.6395 35.4872 91.7978 34.9588C91.2708 34.6276 90.9185 34.1584 90.9113 33.5C90.8976 32.2564 90.8993 31.012 90.8936 29.7684C90.8912 29.2375 90.8496 29.2042 90.3155 29.1904C90.1096 29.1847 89.7901 29.2984 89.7252 29.1206C89.6508 28.9177 89.9607 28.7813 90.1104 28.6254C90.6742 28.0418 91.242 27.4614 91.8242 26.8956C91.9027 26.8193 91.9892 26.6423 92.1381 26.7194C92.2559 26.7803 92.2126 26.9378 92.215 27.0555C92.231 27.972 92.03 27.9509 93.1392 27.9476C93.4859 27.9468 93.8327 27.9525 94.1794 27.9509C94.378 27.9509 94.4757 28.0458 94.4749 28.2455C94.4749 28.2593 94.4749 28.2723 94.4765 28.2861C94.5246 28.8917 94.2502 29.1945 93.6533 29.1945C93.3202 29.1945 92.9854 29.2075 92.6531 29.1912C92.3616 29.1766 92.2238 29.3203 92.2222 29.5906C92.215 30.7125 92.1878 31.8367 92.2302 32.957C92.2671 33.9441 93.0919 34.2412 93.8255 33.97C94.1402 33.854 94.4613 33.7509 94.8361 33.569Z" fill="black"/>
<path d="M159.617 29.7075C159.617 31.383 159.61 33.0585 159.623 34.7339C159.626 35.0676 159.529 35.1812 159.193 35.1723C158.13 35.1431 158.219 35.3103 158.219 34.2055C158.218 31.0843 158.219 27.9631 158.219 24.8427C158.219 24.2761 158.225 24.2647 158.774 24.2696C159.776 24.2785 159.608 24.1502 159.614 25.1284C159.624 26.6553 159.617 28.1822 159.617 29.7083V29.7075Z" fill="black"/>
<path d="M161.568 29.7164C161.568 28.0418 161.575 26.3663 161.562 24.6917C161.559 24.3808 161.643 24.2687 161.96 24.2622C162.978 24.2411 162.978 24.2298 162.978 25.2623C162.978 28.4095 162.971 31.5567 162.987 34.7039C162.989 35.0878 162.869 35.178 162.515 35.1731C161.568 35.1585 161.568 35.1731 161.568 34.2144C161.568 32.7151 161.568 31.2158 161.568 29.7164Z" fill="black"/>
<path d="M76.8619 29.4956C77.1494 29.1084 77.3833 28.7456 77.6828 28.4274C78.4171 27.6481 79.3637 27.7536 80.1261 28.3153C80.2871 28.4339 80.4424 28.5784 80.2238 28.8316C80.0292 29.0581 79.9619 29.4218 79.7401 29.5931C79.4406 29.8244 79.23 29.4007 78.9561 29.3154C78.233 29.0906 77.501 29.3568 77.1302 30.0306C76.878 30.4892 76.7586 30.9674 76.7634 31.4926C76.7738 32.5746 76.757 33.6575 76.7698 34.7396C76.773 35.0464 76.6874 35.1682 76.3654 35.1706C75.3764 35.1788 75.3764 35.1909 75.3764 34.177C75.3764 32.2694 75.3852 30.3618 75.3692 28.4542C75.366 28.0913 75.4933 27.9841 75.8297 27.985C76.9941 27.9866 76.7378 27.9955 76.7658 28.9144C76.7714 29.0987 76.7314 29.2919 76.8611 29.4948L76.8619 29.4956Z" fill="black"/>
<path d="M88.4048 31.5997C88.4048 32.6525 88.3928 33.7062 88.412 34.7591C88.4176 35.087 88.3055 35.1706 87.9988 35.1714C87.0042 35.1714 87.0042 35.1828 87.0042 34.1738C87.0042 32.2702 87.0138 30.3658 86.9962 28.4622C86.993 28.0726 87.1123 27.9362 87.4951 27.9427C88.5642 27.9614 88.3952 27.8835 88.4032 28.8454C88.4112 29.7635 88.4048 30.6816 88.4048 31.5997Z" fill="black"/>
<path d="M59.0616 31.5859C59.0616 32.655 59.0544 33.7233 59.0656 34.7923C59.0688 35.07 58.9807 35.1658 58.7004 35.1714C57.6714 35.1925 57.6722 35.2015 57.6722 34.1713C57.6722 32.2637 57.6818 30.3561 57.6641 28.4493C57.6601 28.0507 57.7963 27.9338 58.1727 27.9427C59.1961 27.9671 59.0536 27.8664 59.06 28.8267C59.0664 29.7465 59.0616 30.6662 59.0608 31.5867L59.0616 31.5859Z" fill="black"/>
<path d="M136.167 34.3662C136.068 33.8369 136.684 33.4067 137.074 33.3953C137.566 33.3807 137.985 33.8353 137.987 34.3694C137.989 34.8914 137.568 35.3354 137.075 35.3322C136.596 35.3281 136.168 34.8727 136.167 34.367V34.3662Z" fill="black"/>
<path d="M58.3752 24.9993C58.8565 25.0017 59.1873 25.3151 59.1977 25.7794C59.2081 26.2259 58.8109 26.6325 58.3688 26.6285C57.9548 26.6244 57.5175 26.1747 57.5367 25.7705C57.5584 25.311 57.9003 24.9969 58.3752 24.9985V24.9993Z" fill="black"/>
<path d="M86.9492 25.7956C86.9468 25.2591 87.2031 24.9961 87.7236 24.9993C88.2177 25.0025 88.5741 25.3394 88.5725 25.8029C88.5709 26.2169 88.1401 26.6326 87.7156 26.6301C87.2656 26.6269 86.9508 26.2843 86.9492 25.7964V25.7956Z" fill="black"/>
</g>
<defs>
<clipPath id="clip0_1273_2055">
<rect width="178.2" height="38" fill="white" transform="translate(0 0.799988)"/>
</clipPath>
</defs>
</svg>
