<svg width="121" height="120" viewBox="0 0 121 120" fill="none" xmlns="http://www.w3.org/2000/svg">
<path d="M90.1895 30C90.1895 35.5228 76.758 40 60.1895 40C43.6209 40 30.1895 35.5228 30.1895 30M90.1895 30C90.1895 24.4771 76.758 20 60.1895 20C43.6209 20 30.1895 24.4771 30.1895 30M90.1895 30V94.1955C90.1895 99.7183 76.758 104.195 60.1895 104.195C43.6209 104.195 30.1895 99.7183 30.1895 94.1955V30M30.1895 51.3985C30.1895 56.9213 43.6209 61.3985 60.1895 61.3985C76.758 61.3985 90.1895 56.9213 90.1895 51.3985M30.1895 72.797C30.1895 78.3198 43.6209 82.797 60.1895 82.797C76.758 82.797 90.1895 78.3198 90.1895 72.797" stroke="black" stroke-width="5.14286" stroke-miterlimit="10"/>
</svg>
