<svg width="148" height="121" viewBox="0 0 148 121" fill="none" xmlns="http://www.w3.org/2000/svg">
<path fill-rule="evenodd" clip-rule="evenodd" d="M73.6112 42.0377C72.1884 34.295 67.261 28.9041 61.5647 28.9041H56.1273C49.3542 28.9041 43.6681 36.3584 43.6681 46.6603C43.6681 56.9622 49.1033 64.4165 55.7092 64.4165V64.4255H56.502V80.5076H51.6797C31.1798 80.5076 16.3004 99.608 16.2979 120.035H0.887695C0.889318 97.8998 13.28 76.8713 32.1222 68.3773C27.7664 62.3122 25.3438 54.5849 25.3438 46.6615C25.3438 29.1757 38.0506 12.8242 55.5578 12.8242H61.6041C67.8714 12.8242 73.5011 14.8872 78.1586 18.3245C83.8438 7.77771 94.1427 0.199219 106.724 0.199219H113.844C133.45 0.199219 147.319 18.321 147.319 37.3532V37.9227H128.501V37.3532C128.501 31.273 126.792 25.9768 124.098 22.2156C121.404 18.4536 117.754 16.2582 113.844 16.2582H106.827C102.912 16.2582 99.2629 18.407 96.5714 22.1404C93.8796 25.8742 92.1697 31.1693 92.1697 37.3532C92.1697 43.5426 93.8058 48.8404 96.3984 52.5742C98.9905 56.3074 102.511 58.4482 106.316 58.4482H106.885V58.457H108.094V74.6719H106.197C82.592 74.6719 65.459 96.5761 65.459 120L65.459 120.035H49.8545C49.8663 96.2207 62.8639 73.567 82.8019 63.6712C77.7238 57.8195 74.5113 50.1434 73.6112 42.0377Z" fill="black"/>
</svg>
