<svg width="121" height="120" viewBox="0 0 121 120" fill="none" xmlns="http://www.w3.org/2000/svg">
<path d="M83.75 73.4289V53.4795C83.75 47.9287 79.2503 43.4289 73.6995 43.4289V113.429M113.801 73.4289V53.4795C113.801 47.9287 109.302 43.4289 103.751 43.4289V113.429M46.8487 113.429V43.4289C41.2979 43.4289 36.798 47.9287 36.798 53.4795V73.4289M16.7966 113.429V43.4289C11.2458 43.4289 6.74609 47.9287 6.74609 53.4795V73.4289M60.2838 73.4289V113.429M70.3354 23.3773C70.3354 28.9287 65.8352 33.429 60.2838 33.429C54.7324 33.429 50.2321 28.9287 50.2321 23.3773C50.2321 17.8259 54.7324 13.3256 60.2838 13.3256C65.8352 13.3256 70.3354 17.8259 70.3354 23.3773ZM90.3351 13.3256C84.7837 13.3256 80.2833 17.8259 80.2833 23.3773C80.2833 28.9287 84.7837 33.429 90.3351 33.429C95.8865 33.429 100.387 28.9287 100.387 23.3773C100.387 17.8259 95.8865 13.3256 90.3351 13.3256ZM30.2317 13.3256C24.6803 13.3256 20.18 17.8259 20.18 23.3773C20.18 28.9287 24.6803 33.429 30.2317 33.429C35.7831 33.429 40.2835 28.9287 40.2835 23.3773C40.2835 17.8259 35.7831 13.3256 30.2317 13.3256Z" stroke="black" stroke-width="5.14286" stroke-miterlimit="10"/>
</svg>
