<svg width="120" height="121" viewBox="0 0 120 121" fill="none" xmlns="http://www.w3.org/2000/svg">
<path d="M39.9999 76.0753C31.3214 76.0753 24.2861 83.1106 24.2861 91.7892V96.0753H95.7138V91.7892C95.7138 83.1106 88.6785 76.0753 80 76.0753M39.9999 76.0753L40 63.0583C40 45.7814 46.8632 29.2121 59.0798 16.9954L60.92 16.9954C73.1366 29.212 80 45.7814 80 63.0583V76.0753M39.9999 76.0753L40 96.0753M80 76.0753V96.0753M50 96.0753V110.43M70 96.0753V110.43M60 68.7592C55.9594 68.7592 52.6839 72.0347 52.6839 76.0753C52.6839 80.1159 55.9594 83.3914 60 83.3914C64.0405 83.3914 67.316 80.1159 67.316 76.0753C67.316 72.0347 64.0405 68.7592 60 68.7592Z" stroke="black" stroke-width="5" stroke-miterlimit="10"/>
</svg>
