<svg width="120" height="121" viewBox="0 0 120 121" fill="none" xmlns="http://www.w3.org/2000/svg">
<path d="M55 110.26V93.7555H79.8571C81.8656 91.7471 82.9916 90.621 85 88.6126V73.7555H91.5713C92.9102 72.4166 93.6609 71.6659 94.9999 70.3269V48.7554C94.9999 29.4255 79.3299 13.7555 59.9999 13.7555C40.67 13.7555 25 29.4255 25 48.7554V110.26M55.4495 51.4376H71.013C71.013 60.033 64.0449 67.001 55.4495 67.001C46.8541 67.001 39.886 60.033 39.886 51.4376C39.886 42.8421 46.8541 35.8741 55.4495 35.8741V51.4376ZM64.5504 26.7733V42.3367H80.1139C80.1139 33.7413 73.1458 26.7733 64.5504 26.7733Z" stroke="black" stroke-width="5" stroke-miterlimit="10"/>
</svg>
