<svg width="1920" height="49" viewBox="0 0 1920 49" fill="none" xmlns="http://www.w3.org/2000/svg">
<g clip-path="url(#clip0_765_2128)">
<path fill-rule="evenodd" clip-rule="evenodd" d="M1727.83 18.4305C1295.68 18.4305 865.054 24.2571 434.49 35.0468C307.283 38.2345 183.057 42.7068 57.2142 48.1037C55.2129 48.1895 53.008 48.2924 50.6506 48.4025C37.3824 49.0217 19.2829 49.8665 5.45571 49.1598C-2.81776 48.7369 -0.422893 41.7735 -1.52588e-05 33.5C0.422863 25.2265 -6.57006 -2.29165 1.70341 -1.86877C13.9025 -1.24524 45.4335 -0.928718 48.8351 -1.5483C51.3113 -1.66278 53.6904 -1.77277 55.9288 -1.86877C181.908 -7.27147 306.316 -11.7507 433.738 -14.9438C864.532 -25.7393 1295.41 -11.5695 1727.83 -11.5695H1927.22C1935.51 -11.5695 1942.22 -4.85382 1942.22 3.43045C1942.22 11.7147 1935.51 18.4305 1927.22 18.4305H1727.83Z" fill="#4583F5"/>
</g>
<defs>
<clipPath id="clip0_765_2128">
<rect width="1920" height="49" fill="white"/>
</clipPath>
</defs>
</svg>
