<svg width="1406" height="7" viewBox="0 0 1406 7" fill="none" xmlns="http://www.w3.org/2000/svg">
<path fill-rule="evenodd" clip-rule="evenodd" d="M1280 5.97899C1287.93 5.97899 1294.16 4.66017 1299.65 3.50014L1299.65 3.49959C1301.28 3.15439 1302.85 2.82328 1304.37 2.5452C1311 1.33436 1316.96 1.08844 1324.63 4.85933C1330.61 7.79901 1335.28 6.50902 1339.41 5.25599L1339.73 5.15709C1343.73 3.94034 1347.07 2.92165 1350.98 5.32486C1351.8 5.83168 1352.94 6.11671 1354.15 6.28458C1355.39 6.45488 1356.79 6.51477 1358.21 6.52131C1359.63 6.52785 1361.08 6.4808 1362.43 6.43268L1362.88 6.41646C1364.05 6.37391 1365.12 6.3353 1366 6.3353C1366.36 6.3353 1366.66 6.08499 1366.73 5.75L1405 5.75C1405.41 5.75 1405.75 5.41421 1405.75 5C1405.75 4.58578 1405.41 4.25 1405 4.25L1366 4.25C1365.64 4.25 1365.34 4.50391 1365.27 4.8425C1364.52 4.85583 1363.7 4.88588 1362.83 4.91739L1362.38 4.93364C1361.03 4.98176 1359.6 5.02772 1358.21 5.02132C1356.82 5.01492 1355.5 4.95592 1354.36 4.79868C1353.2 4.639 1352.32 4.38782 1351.77 4.04706C1347.27 1.28456 1343.32 2.49192 1339.42 3.68242L1338.97 3.82082C1334.91 5.05508 1330.72 6.18422 1325.29 3.51333C1317.23 -0.44985 1310.92 -0.174435 1304.1 1.06957C1302.52 1.35853 1300.91 1.69756 1299.26 2.04771L1299.25 2.0482C1293.92 3.17632 1288.04 4.41981 1280.54 4.47694C1280.4 4.33695 1280.21 4.25 1280 4.25H1C0.585786 4.25 0.25 4.58579 0.25 5C0.25 5.41421 0.585786 5.75 1 5.75H1279.46C1279.6 5.89119 1279.79 5.97899 1280 5.97899Z" fill="white"/>
</svg>
