<svg width="337" height="4" viewBox="0 0 337 4" fill="none" xmlns="http://www.w3.org/2000/svg">
<path fill-rule="evenodd" clip-rule="evenodd" d="M143.757 2.05898C145.686 2.75242 147.904 3.54938 150.545 3.54938H336.5C336.776 3.54938 337 3.32552 337 3.04938C337 2.77323 336.776 2.54938 336.5 2.54938H150.545C148.096 2.54938 146.099 1.83335 144.194 1.15038C143.596 0.936136 143.008 0.725144 142.418 0.540528C141.202 0.160407 139.98 -0.100256 138.712 0.0371556C137.433 0.175866 136.154 0.714521 134.81 1.85149C134.283 2.29722 133.845 2.45186 133.462 2.47517C133.067 2.49922 132.668 2.38772 132.21 2.19032C131.989 2.09503 131.766 1.98522 131.525 1.86687L131.5 1.85438C131.254 1.73333 130.991 1.60455 130.718 1.48857C130.169 1.25576 129.552 1.06194 128.852 1.06194V1.56194C128.852 1.06194 128.852 1.06194 128.852 1.06194L128.852 1.06194L128.851 1.06194L128.848 1.06195L128.843 1.06201L128.826 1.06233C128.812 1.06268 128.794 1.06332 128.772 1.06449C128.727 1.06684 128.666 1.07135 128.59 1.08C128.438 1.09728 128.227 1.13122 127.979 1.19809C127.485 1.33167 126.834 1.59895 126.212 2.1339C125.807 2.48267 125.081 2.62261 124.167 2.6378C123.727 2.64511 123.277 2.62398 122.846 2.60004C122.784 2.59661 122.722 2.59309 122.66 2.58958C122.301 2.5692 121.953 2.54938 121.658 2.54938H0.5C0.223846 2.54938 0 2.77324 0 3.04938C0 3.32552 0.223846 3.54938 0.5 3.54938H121.658C121.922 3.54938 122.237 3.56723 122.598 3.58769C122.661 3.59124 122.725 3.59488 122.79 3.59851C123.224 3.62256 123.705 3.64561 124.184 3.63766C125.106 3.62234 126.165 3.49403 126.865 2.89186C127.348 2.47587 127.854 2.26768 128.24 2.16353C128.433 2.11153 128.593 2.08604 128.703 2.07359C128.757 2.06739 128.799 2.06447 128.825 2.0631C128.838 2.06242 128.846 2.06213 128.851 2.06201L128.852 2.06194C128.852 2.06194 128.853 2.06194 128.853 2.06194C128.853 2.06194 128.853 2.06194 128.853 2.06194C128.853 2.06194 128.854 2.06194 128.854 2.06194C128.854 2.06194 128.854 2.06193 128.855 2.06193C129.365 2.06234 129.841 2.20297 130.327 2.40904C130.571 2.51264 130.81 2.62959 131.058 2.7517L131.092 2.76811C131.326 2.88319 131.569 3.00313 131.814 3.1087C132.327 3.32976 132.897 3.5114 133.523 3.47332C134.161 3.4345 134.798 3.17176 135.456 2.61489C136.671 1.58715 137.767 1.14547 138.82 1.03133C139.885 0.915892 140.951 1.12986 142.119 1.49497C142.642 1.65849 143.187 1.85422 143.757 2.05898Z" fill="white"/>
</svg>
