<svg width="1407" height="8" viewBox="0 0 1407 8" fill="none" xmlns="http://www.w3.org/2000/svg">
<path fill-rule="evenodd" clip-rule="evenodd" d="M0.361328 6.42773C0.361328 6.01352 0.697115 5.67773 1.11133 5.67773H547.111C547.526 5.67773 547.861 6.01352 547.861 6.42773C547.861 6.84195 547.526 7.17773 547.111 7.17773H1.11133C0.697115 7.17773 0.361328 6.84195 0.361328 6.42773Z" fill="white"/>
<path d="M659.111 6.42773L1406.11 6.42767" stroke="white" stroke-width="1.5" stroke-linecap="round"/>
<path d="M661.111 6.42773C633.65 6.42773 618.523 -3.50541 597.356 4.85216C587.552 8.72298 581.393 3.55637 571.374 3.55637C571.374 3.55637 566.373 3.55637 561.802 5.39207C557.231 7.22777 547.035 6.42773 541.611 6.42773" stroke="white" stroke-width="1.5" stroke-linecap="round"/>
</svg>
