<svg width="1397" height="6" viewBox="0 0 1397 6" fill="none" xmlns="http://www.w3.org/2000/svg">
<path fill-rule="evenodd" clip-rule="evenodd" d="M76.7338 2.42887C79.5793 2.0613 81.2345 2.34611 82.3247 2.77426C82.8733 2.98969 83.3039 3.25107 83.6952 3.52049C83.8136 3.602 83.9406 3.69363 84.0717 3.78819L84.072 3.78843C84.3359 3.97879 84.6162 4.18098 84.8754 4.33626L84.9952 4.40805L85.1328 4.4319C87.3225 4.81146 92.7014 4.99437 97.4557 5.08573C99.424 5.12355 101.302 5.14581 102.832 5.15893C102.886 5.17134 102.942 5.17791 103 5.17791L1396 5.17802C1396.41 5.17802 1396.75 4.84223 1396.75 4.42802C1396.75 4.0138 1396.41 3.67802 1396 3.67802L106.517 3.67791C106.511 3.67778 106.506 3.67771 106.5 3.67771V3.67791H106.5C106.5 3.67771 106.5 3.67771 106.5 3.67771H106.499L106.497 3.67771L106.488 3.67771L106.452 3.67769L106.309 3.67753C106.184 3.67736 106 3.677 105.764 3.67628C105.291 3.67485 104.612 3.67198 103.783 3.66625C102.125 3.65478 99.8705 3.63185 97.4845 3.586C92.7854 3.49571 87.6701 3.31729 85.5296 2.97727C85.3653 2.87221 85.2099 2.75959 85.0302 2.62931C84.8891 2.52705 84.733 2.41391 84.5458 2.28501C84.0991 1.97741 83.5646 1.64965 82.873 1.37807C81.4831 0.832189 79.5584 0.551522 76.5416 0.941227C75.4478 1.0825 74.1205 1.42962 72.622 1.83063L72.2794 1.92242C70.847 2.30638 69.2321 2.73927 67.4226 3.12702C63.5271 3.96172 58.7455 4.58305 53.1105 4.01332C42.0562 1.84139 35.1795 1.84016 27.9708 2.38503C26.1728 2.52093 24.36 2.69003 22.4599 2.86726C16.7504 3.39983 10.2528 4.00592 1 4.00592C0.585786 4.00592 0.25 4.3417 0.25 4.75592C0.25 5.17013 0.585786 5.50592 1 5.50592C10.3294 5.50592 16.9193 4.8911 22.6393 4.35745C24.5265 4.18139 26.3189 4.01416 28.0839 3.88076C35.1828 3.34419 41.9295 3.34241 52.8552 5.49185L52.8894 5.49857L52.924 5.50209C58.774 6.09823 63.7308 5.45214 67.7369 4.59372C69.5853 4.19765 71.2346 3.75548 72.664 3.3723L73.0098 3.27964C74.5344 2.87165 75.7587 2.55481 76.7338 2.42887Z" fill="white"/>
</svg>
