<svg width="1415" height="8" viewBox="0 0 1415 8" fill="none" xmlns="http://www.w3.org/2000/svg">
<path fill-rule="evenodd" clip-rule="evenodd" d="M1253.68 6.30877C1261.01 6.12962 1266.89 4.81234 1272.11 3.64429L1272.11 3.64337C1273.78 3.26979 1275.38 2.9115 1276.94 2.61064C1283.72 1.30024 1289.82 1.03364 1297.66 5.11556C1301.56 7.1467 1304.68 7.82087 1307.32 7.74408C1309.96 7.66739 1312.06 6.8422 1313.9 6.00466C1314.2 5.86647 1314.5 5.72955 1314.78 5.59605L1314.8 5.58808C1316.28 4.89855 1317.57 4.30126 1318.96 4.09036C1320.55 3.84907 1322.32 4.12026 1324.62 5.61996C1325.47 6.16853 1326.63 6.47787 1327.87 6.65998C1329.14 6.84462 1330.57 6.90949 1332.02 6.91657C1333.48 6.92367 1334.97 6.8727 1336.35 6.82059L1336.81 6.80303C1337.31 6.78362 1337.8 6.76496 1338.26 6.74988L1414 6.74988C1414.41 6.74988 1414.75 6.4141 1414.75 5.99988C1414.75 5.58567 1414.41 5.24988 1414 5.24988L1340.23 5.24988C1340.15 5.22732 1340.08 5.21516 1340 5.21516C1339.47 5.21516 1338.87 5.22924 1338.24 5.24988H1338C1337.95 5.24988 1337.91 5.25425 1337.86 5.26262C1337.5 5.2753 1337.13 5.28954 1336.75 5.30406L1336.29 5.32166C1334.91 5.37377 1333.45 5.42351 1332.03 5.41659C1330.61 5.40966 1329.25 5.34579 1328.09 5.17575C1326.91 5.00318 1326.01 4.73189 1325.44 4.36266C1322.87 2.69196 1320.74 2.30329 1318.73 2.60731C1317.11 2.85351 1315.6 3.56012 1314.12 4.25136L1314.11 4.25349C1313.83 4.38366 1313.55 4.51326 1313.28 4.63913C1311.49 5.45189 1309.61 6.17682 1307.28 6.24471C1304.94 6.31251 1302.08 5.72572 1298.35 3.78501C1290.11 -0.507869 1283.63 -0.209956 1276.66 1.13787C1275.03 1.4511 1273.39 1.81854 1271.7 2.19798C1266.11 3.4485 1259.93 4.82933 1252 4.82933C1251.7 4.82933 1251.45 5.00087 1251.33 5.24999L1.5 5.24999C1.08579 5.24999 0.75 5.58577 0.75 5.99999C0.75 6.4142 1.08579 6.74999 1.5 6.74999L1253 6.74999C1253.3 6.74999 1253.57 6.56895 1253.68 6.30877Z" fill="white"/>
</svg>
