<svg width="1426" height="695" viewBox="0 0 1426 695" fill="none" xmlns="http://www.w3.org/2000/svg">
<mask id="path-1-inside-1_1475_3936" fill="white">
<path d="M0 5.42969H475.332V350.43H0V5.42969Z"/>
</mask>
<path d="M475.332 350.43V352.43H477.332V350.43H475.332ZM0 350.43H-2V352.43H0V350.43ZM473.332 5.42969V350.43H477.332V5.42969H473.332ZM475.332 348.43H0V352.43H475.332V348.43ZM2 350.43V5.42969H-2V350.43H2Z" fill="black" mask="url(#path-1-inside-1_1475_3936)"/>
<mask id="path-3-inside-2_1475_3936" fill="white">
<path d="M0 350.002H475.332V695.002H0V350.002Z"/>
</mask>
<path d="M475.332 695.002V697.002H477.332V695.002H475.332ZM0 695.002H-2V697.002H0V695.002ZM473.332 350.002V695.002H477.332V350.002H473.332ZM475.332 693.002H0V697.002H475.332V693.002ZM2 695.002V350.002H-2V695.002H2Z" fill="black" mask="url(#path-3-inside-2_1475_3936)"/>
<path fill-rule="evenodd" clip-rule="evenodd" d="M0.0166016 5H1.0166H556.323H557.323V7H556.323H1.0166H0.0166016V5Z" fill="black"/>
<path d="M670.468 6H1427" stroke="black" stroke-width="2" stroke-linecap="square"/>
<path d="M673 5.99993C645.538 5.99993 630.411 -3.9332 609.244 4.42436C599.441 8.29519 593.282 3.12857 583.263 3.12857C583.263 3.12857 578.262 3.12857 573.691 4.96427C569.12 6.79998 558.923 5.99994 553.5 5.99994" stroke="black" stroke-width="2" stroke-linecap="round"/>
<mask id="path-8-inside-3_1475_3936" fill="white">
<path d="M473.33 5.42969H950.663V350.43H473.33V5.42969Z"/>
</mask>
<path d="M950.663 350.43V352.43H952.663V350.43H950.663ZM473.33 350.43H471.33V352.43H473.33V350.43ZM948.663 5.42969V350.43H952.663V5.42969H948.663ZM950.663 348.43H473.33V352.43H950.663V348.43ZM475.33 350.43V5.42969H471.33V350.43H475.33Z" fill="black" mask="url(#path-8-inside-3_1475_3936)"/>
<mask id="path-10-inside-4_1475_3936" fill="white">
<path d="M473.33 350.002H950.663V695.002H473.33V350.002Z"/>
</mask>
<path d="M950.663 695.002V697.002H952.663V695.002H950.663ZM473.33 695.002H471.33V697.002H473.33V695.002ZM948.663 350.002V695.002H952.663V350.002H948.663ZM950.663 693.002H473.33V697.002H950.663V693.002ZM475.33 695.002V350.002H471.33V695.002H475.33Z" fill="black" mask="url(#path-10-inside-4_1475_3936)"/>
<mask id="path-12-inside-5_1475_3936" fill="white">
<path d="M948.662 5.42969H1428V350.43H948.662V5.42969Z"/>
</mask>
<path d="M1428 350.43V352.43H1430V350.43H1428ZM948.662 350.43H946.662V352.43H948.662V350.43ZM1426 5.42969V350.43H1430V5.42969H1426ZM1428 348.43H948.662V352.43H1428V348.43ZM950.662 350.43V5.42969H946.662V350.43H950.662Z" fill="black" mask="url(#path-12-inside-5_1475_3936)"/>
<mask id="path-14-inside-6_1475_3936" fill="white">
<path d="M948.662 350.002H1428V695.002H948.662V350.002Z"/>
</mask>
<path d="M1428 695.002V697.002H1430V695.002H1428ZM948.662 695.002H946.662V697.002H948.662V695.002ZM1426 350.002V695.002H1430V350.002H1426ZM1428 693.002H948.662V697.002H1428V693.002ZM950.662 695.002V350.002H946.662V695.002H950.662Z" fill="black" mask="url(#path-14-inside-6_1475_3936)"/>
</svg>
