<svg width="1425" height="351" viewBox="0 0 1425 351" fill="none" xmlns="http://www.w3.org/2000/svg">
<mask id="path-1-inside-1_979_1861" fill="white">
<path d="M0 5.42798H475V350.428H0V5.42798Z"/>
</mask>
<path d="M475 350.428V352.428H477V350.428H475ZM0 350.428H-2V352.428H0V350.428ZM473 5.42798V350.428H477V5.42798H473ZM475 348.428H0V352.428H475V348.428ZM2 350.428V5.42798H-2V350.428H2Z" fill="black" mask="url(#path-1-inside-1_979_1861)"/>
<path fill-rule="evenodd" clip-rule="evenodd" d="M0.0166016 5.99829C0.0166016 5.44601 0.464317 4.99829 1.0166 4.99829H555.936C556.488 4.99829 556.936 5.44601 556.936 5.99829C556.936 6.55058 556.488 6.99829 555.936 6.99829H1.0166C0.464317 6.99829 0.0166016 6.55058 0.0166016 5.99829Z" fill="black"/>
<path d="M669.765 5.99829L1428.97 5.99823" stroke="black" stroke-width="2" stroke-linecap="round"/>
<path d="M673 5.99828C645.538 5.99828 630.411 -3.93485 609.244 4.42271C599.441 8.29354 593.282 3.12693 583.263 3.12693C583.263 3.12693 578.262 3.12693 573.691 4.96263C569.12 6.79833 558.923 5.99829 553.5 5.99829" stroke="black" stroke-width="2" stroke-linecap="round"/>
<mask id="path-6-inside-2_979_1861" fill="white">
<path d="M473 5.42798H950V350.428H473V5.42798Z"/>
</mask>
<path d="M950 350.428V352.428H952V350.428H950ZM473 350.428H471V352.428H473V350.428ZM948 5.42798V350.428H952V5.42798H948ZM950 348.428H473V352.428H950V348.428ZM475 350.428V5.42798H471V350.428H475Z" fill="black" mask="url(#path-6-inside-2_979_1861)"/>
<mask id="path-8-inside-3_979_1861" fill="white">
<path d="M948 5.42798H1427V350.428H948V5.42798Z"/>
</mask>
<path d="M1427 350.428V352.428H1429V350.428H1427ZM948 350.428H946V352.428H948V350.428ZM1425 5.42798V350.428H1429V5.42798H1425ZM1427 348.428H948V352.428H1427V348.428ZM950 350.428V5.42798H946V350.428H950Z" fill="black" mask="url(#path-8-inside-3_979_1861)"/>
</svg>
