<svg width="341" height="388" viewBox="0 0 341 388" fill="none" xmlns="http://www.w3.org/2000/svg">
<mask id="path-1-inside-1_979_1863" fill="white">
<path d="M0.5 0H340.5V130H0.5V0Z"/>
</mask>
<path d="M0.5 0V-1H-0.5V0H0.5ZM340.5 0H341.5V-1H340.5V0ZM0.5 1H340.5V-1H0.5V1ZM339.5 0V130H341.5V0H339.5ZM1.5 130V0H-0.5V130H1.5Z" fill="black" mask="url(#path-1-inside-1_979_1863)"/>
<mask id="path-3-inside-2_979_1863" fill="white">
<path d="M0.531006 129H340.531V259H0.531006V129Z"/>
</mask>
<path d="M340.531 259V260H341.531V259H340.531ZM0.531006 259H-0.468994V260H0.531006V259ZM339.531 129V259H341.531V129H339.531ZM340.531 258H0.531006V260H340.531V258ZM1.53101 259V129H-0.468994V259H1.53101Z" fill="black" mask="url(#path-3-inside-2_979_1863)"/>
<path fill-rule="evenodd" clip-rule="evenodd" d="M154.737 134.31C156.665 134.835 158.858 135.432 161.476 135.432H161.567H161.661H161.758H161.858H161.962H162.068H162.178H162.291H162.407H162.526H162.648H162.773H162.901H163.032H163.166H163.303H163.443H163.587H163.733H163.882H164.034H164.189H164.346H164.507H164.671H164.837H165.007H165.179H165.354H165.532H165.712H165.896H166.082H166.271H166.463H166.657H166.855H167.055H167.257H167.463H167.671H167.881H168.095H168.311H168.529H168.751H168.975H169.201H169.43H169.662H169.896H170.133H170.372H170.614H170.858H171.105H171.354H171.606H171.86H172.117H172.376H172.637H172.901H173.167H173.436H173.707H173.98H174.256H174.534H174.814H175.097H175.381H175.669H175.958H176.25H176.544H176.84H177.138H177.439H177.741H178.046H178.353H178.662H178.974H179.287H179.603H179.92H180.24H180.562H180.886H181.212H181.539H181.869H182.201H182.535H182.871H183.209H183.549H183.891H184.234H184.58H184.927H185.277H185.628H185.981H186.336H186.693H187.052H187.412H187.774H188.138H188.504H188.872H189.241H189.612H189.985H190.359H190.736H191.113H191.493H191.874H192.257H192.642H193.028H193.415H193.805H194.196H194.588H194.982H195.378H195.775H196.173H196.573H196.975H197.378H197.783H198.189H198.596H199.005H199.415H199.827H200.24H200.654H201.07H201.487H201.906H202.326H202.747H203.169H203.593H204.018H204.444H204.872H205.301H205.731H206.162H206.594H207.028H207.463H207.898H208.335H208.774H209.213H209.653H210.095H210.537H210.981H211.426H211.872H212.318H212.766H213.215H213.665H214.116H214.567H215.02H215.474H215.928H216.384H216.84H217.297H217.756H218.215H218.675H219.135H219.597H220.059H220.522H220.986H221.451H221.917H222.383H222.85H223.317H223.786H224.255H224.725H225.195H225.666H226.138H226.611H227.084H227.557H228.031H228.506H228.982H229.458H229.934H230.411H230.889H231.367H231.845H232.324H232.804H233.284H233.764H234.245H234.726H235.208H235.69H236.172H236.655H237.138H237.622H238.105H238.589H239.074H239.559H240.044H240.529H241.014H241.5H241.986H242.472H242.958H243.445H243.932H244.419H244.906H245.393H245.88H246.367H246.855H247.343H247.83H248.318H248.806H249.293H249.781H250.269H250.757H251.245H251.732H252.22H252.708H253.195H253.683H254.17H254.657H255.145H255.632H256.119H256.605H257.092H257.578H258.064H258.55H259.036H259.522H260.007H260.492H260.977H261.461H261.945H262.429H262.913H263.396H263.878H264.361H264.843H265.325H265.806H266.287H266.767H267.247H267.727H268.206H268.684H269.162H269.64H270.117H270.594H271.07H271.545H272.02H272.494H272.968H273.441H273.914H274.385H274.857H275.327H275.797H276.266H276.735H277.202H277.669H278.136H278.601H279.066H279.53H279.993H280.456H280.917H281.378H281.838H282.297H282.756H283.213H283.669H284.125H284.58H285.033H285.486H285.938H286.389H286.839H287.288H287.736H288.182H288.628H289.073H289.517H289.96H290.401H290.842H291.281H291.719H292.157H292.593H293.027H293.461H293.894H294.325H294.755H295.184H295.612H296.038H296.463H296.887H297.309H297.731H298.151H298.569H298.987H299.403H299.817H300.23H300.642H301.053H301.462H301.869H302.275H302.68H303.083H303.485H303.885H304.284H304.681H305.077H305.471H305.864H306.255H306.644H307.032H307.418H307.803H308.186H308.567H308.947H309.325H309.701H310.076H310.449H310.82H311.19H311.557H311.923H312.288H312.65H313.011H313.369H313.726H314.082H314.435H314.786H315.136H315.484H315.829H316.173H316.515H316.855H317.193H317.529H317.863H318.196H318.526H318.854H319.18H319.504H319.826H320.146H320.464H320.779H321.093H321.405H321.714H322.021H322.326H322.629H322.93H323.228H323.525H323.819H324.111H324.4H324.688H324.973H325.256H325.536H325.814H326.09H326.364H326.635H326.904H327.17H327.434H327.696H327.955H328.212H328.466H328.718H328.968H329.215H329.459H329.701H329.941H330.178H330.412H330.644H330.873H331.1H331.324H331.546H331.765H331.981H332.195H332.406H332.614H332.82H333.023H333.223H333.42H333.615H333.807H333.996H334.183H334.367H334.548H334.726H334.901H335.073H335.243H335.41H335.574H335.735H335.893H336.048H336.2H336.35H336.496H336.639H336.78H336.917H337.052H337.183H337.311H337.437H337.559H337.678H337.794H337.908H338.018H338.124H338.228H338.329H338.426H338.52H338.611H338.699H338.784H338.865H338.944H339.019H339.09H339.159H339.224H339.286H339.344H339.4H339.451H339.5C339.776 135.432 340 135.208 340 134.932C340 134.656 339.776 134.432 339.5 134.432H339.451H339.4H339.344H339.286H339.224H339.159H339.09H339.019H338.944H338.865H338.784H338.699H338.611H338.52H338.426H338.329H338.228H338.124H338.018H337.908H337.794H337.678H337.559H337.437H337.311H337.183H337.052H336.917H336.78H336.639H336.496H336.35H336.2H336.048H335.893H335.735H335.574H335.41H335.243H335.073H334.901H334.726H334.548H334.367H334.183H333.996H333.807H333.615H333.42H333.223H333.023H332.82H332.614H332.406H332.195H331.981H331.765H331.546H331.324H331.1H330.873H330.644H330.412H330.178H329.941H329.701H329.459H329.215H328.968H328.718H328.466H328.212H327.955H327.696H327.434H327.17H326.904H326.635H326.364H326.09H325.814H325.536H325.256H324.973H324.688H324.4H324.111H323.819H323.525H323.228H322.93H322.629H322.326H322.021H321.714H321.405H321.093H320.779H320.464H320.146H319.826H319.504H319.18H318.854H318.526H318.196H317.863H317.529H317.193H316.855H316.515H316.173H315.829H315.484H315.136H314.786H314.435H314.082H313.726H313.369H313.011H312.65H312.288H311.923H311.557H311.19H310.82H310.449H310.076H309.701H309.325H308.947H308.567H308.186H307.803H307.418H307.032H306.644H306.255H305.864H305.471H305.077H304.681H304.284H303.885H303.485H303.083H302.68H302.275H301.869H301.462H301.053H300.642H300.23H299.817H299.403H298.987H298.569H298.151H297.731H297.309H296.887H296.463H296.038H295.612H295.184H294.755H294.325H293.894H293.461H293.027H292.593H292.157H291.719H291.281H290.842H290.401H289.96H289.517H289.073H288.628H288.182H287.736H287.288H286.839H286.389H285.938H285.486H285.033H284.58H284.125H283.669H283.213H282.756H282.297H281.838H281.378H280.917H280.456H279.993H279.53H279.066H278.601H278.136H277.669H277.202H276.735H276.266H275.797H275.327H274.857H274.385H273.914H273.441H272.968H272.494H272.02H271.545H271.07H270.594H270.117H269.64H269.162H268.684H268.206H267.727H267.247H266.767H266.287H265.806H265.325H264.843H264.361H263.878H263.396H262.913H262.429H261.945H261.461H260.977H260.492H260.007H259.522H259.036H258.55H258.064H257.578H257.092H256.605H256.119H255.632H255.145H254.657H254.17H253.683H253.195H252.708H252.22H251.732H251.245H250.757H250.269H249.781H249.293H248.806H248.318H247.83H247.343H246.855H246.367H245.88H245.393H244.906H244.419H243.932H243.445H242.958H242.472H241.986H241.5H241.014H240.529H240.044H239.559H239.074H238.589H238.105H237.622H237.138H236.655H236.172H235.69H235.208H234.726H234.245H233.764H233.284H232.804H232.324H231.845H231.367H230.889H230.411H229.934H229.458H228.982H228.506H228.031H227.557H227.084H226.611H226.138H225.666H225.195H224.725H224.255H223.786H223.317H222.85H222.383H221.917H221.451H220.986H220.522H220.059H219.597H219.135H218.675H218.215H217.756H217.297H216.84H216.384H215.928H215.474H215.02H214.567H214.116H213.665H213.215H212.766H212.318H211.872H211.426H210.981H210.537H210.095H209.653H209.213H208.774H208.335H207.898H207.463H207.028H206.594H206.162H205.731H205.301H204.872H204.444H204.018H203.593H203.169H202.747H202.326H201.906H201.487H201.07H200.654H200.24H199.827H199.415H199.005H198.596H198.189H197.783H197.378H196.975H196.573H196.173H195.775H195.378H194.982H194.588H194.196H193.805H193.415H193.028H192.642H192.257H191.874H191.493H191.113H190.736H190.359H189.985H189.612H189.241H188.872H188.504H188.138H187.774H187.412H187.052H186.693H186.336H185.981H185.628H185.277H184.927H184.58H184.234H183.891H183.549H183.209H182.871H182.535H182.201H181.869H181.539H181.212H180.886H180.562H180.24H179.92H179.603H179.287H178.974H178.662H178.353H178.046H177.741H177.439H177.138H176.84H176.544H176.25H175.958H175.669H175.381H175.097H174.814H174.534H174.256H173.98H173.707H173.436H173.167H172.901H172.637H172.376H172.117H171.86H171.606H171.354H171.105H170.858H170.614H170.372H170.133H169.896H169.662H169.43H169.201H168.975H168.751H168.529H168.311H168.095H167.881H167.671H167.463H167.257H167.055H166.855H166.657H166.463H166.271H166.082H165.896H165.712H165.532H165.354H165.179H165.007H164.837H164.671H164.507H164.346H164.189H164.034H163.882H163.733H163.587H163.443H163.303H163.166H163.032H162.901H162.773H162.648H162.526H162.407H162.291H162.178H162.068H161.962H161.858H161.758H161.661H161.567H161.476C159.005 134.432 156.984 133.883 155.076 133.364C154.481 133.203 153.898 133.044 153.315 132.906C150.867 132.326 148.514 132.149 145.794 133.893C144.726 134.578 143.589 134.262 142.114 133.853L142.044 133.834C140.611 133.436 138.905 132.993 137.197 134.107C137 134.235 136.713 134.334 136.338 134.401C135.969 134.466 135.546 134.493 135.1 134.499C134.656 134.505 134.202 134.488 133.77 134.47C133.708 134.468 133.646 134.465 133.584 134.462C133.225 134.447 132.88 134.432 132.589 134.432H1.5C1.22385 134.432 1 134.656 1 134.932C1 135.208 1.22385 135.432 1.5 135.432H132.589C132.857 135.432 133.176 135.446 133.537 135.461C133.599 135.464 133.663 135.467 133.728 135.469C134.162 135.488 134.639 135.505 135.113 135.499C135.586 135.493 136.068 135.464 136.512 135.385C136.952 135.308 137.387 135.176 137.743 134.944C139.035 134.102 140.317 134.392 141.777 134.797C141.847 134.817 141.917 134.836 141.989 134.856C143.326 135.231 144.88 135.667 146.334 134.734C148.731 133.198 150.766 133.33 153.084 133.879C153.615 134.005 154.164 134.154 154.737 134.31Z" fill="black"/>
<rect x="1" y="258.5" width="339" height="129" stroke="black"/>
</svg>
