<svg width="1920" height="49" viewBox="0 0 1920 49" fill="none" xmlns="http://www.w3.org/2000/svg">
<g clip-path="url(#clip0_765_1727)">
<path fill-rule="evenodd" clip-rule="evenodd" d="M192.172 17.2881C624.317 17.2881 1054.95 23.1148 1485.51 33.9044C1612.72 37.0922 1736.94 41.5645 1862.79 46.9613C1864.79 47.0472 1866.99 47.1501 1869.35 47.2601C1882.62 47.8794 1900.72 48.7242 1914.54 48.0175C1922.82 47.5946 1919.18 40.5448 1918.76 32.2713C1918.34 23.9979 1926.57 -3.43398 1918.3 -3.0111C1906.1 -2.38758 1874.57 -2.07105 1871.16 -2.69064C1868.69 -2.80512 1866.31 -2.91511 1864.07 -3.0111C1738.09 -8.4138 1613.68 -12.893 1486.26 -16.0861C1055.47 -26.8816 624.586 -12.7119 192.172 -12.7119H-7.22144C-15.5057 -12.7119 -22.2214 -5.99615 -22.2214 2.28812C-22.2214 10.5724 -15.5057 17.2881 -7.22144 17.2881H192.172Z" fill="#F1F1F1"/>
</g>
<defs>
<clipPath id="clip0_765_1727">
<rect width="1920" height="48" fill="white" transform="matrix(-1 0 0 1 1920 0.427979)"/>
</clipPath>
</defs>
</svg>
