<svg width="1013" height="814" viewBox="0 0 1013 814" fill="none" xmlns="http://www.w3.org/2000/svg">
<path d="M6.00061 0C3.22061 0 0.970607 2.26 0.980607 5.04C0.980607 5.04 -2.82939 201.59 4.57061 397.66C12.0606 596.26 5.94061 736.92 5.94061 736.92C5.95061 740 8.46061 742.5 11.5506 742.5C25.3606 742.5 32.4406 740.74 56.0906 740.84C90.4206 740.98 116.271 742.5 116.271 742.5C119.441 742.5 122.041 745.03 122.121 748.2C122.121 748.2 122.601 755.6 122.311 773.36C121.961 795.06 123.861 809.06 123.861 809.06C123.971 813.29 127.531 814.8 130.291 811.6C130.291 811.6 147.121 791.53 160.451 776.08C172.861 761.71 183.501 750.33 183.501 750.33C188.851 744.74 193.791 742.48 202.071 742.48C248.191 742.48 423.981 734.92 601.471 739.48C778.961 744.04 958.321 741.28 1005.44 741.45C1009.59 741.46 1012.95 738.11 1012.95 733.96V0H6.00061Z" fill="#FC912F"/>
</svg>
