<svg width="1920" height="49" viewBox="0 0 1920 49" fill="none" xmlns="http://www.w3.org/2000/svg">
<path fill-rule="evenodd" clip-rule="evenodd" d="M1717.83 18.4305C1285.68 18.4305 855.054 24.2571 424.49 35.0468C297.283 38.2345 173.057 42.7068 47.2142 48.1037C45.2129 48.1895 43.008 48.2924 40.6506 48.4025C27.3824 49.0217 9.28288 49.8665 -4.54429 49.1598C-12.8178 48.7369 -9.18193 41.6871 -8.75905 33.4137C-8.33617 25.1402 -16.5701 -2.29165 -8.29659 -1.86877C3.90249 -1.24524 35.4335 -0.928719 38.8351 -1.5483C41.3113 -1.66278 43.6904 -1.77277 45.9288 -1.86877C171.908 -7.27147 296.316 -11.7507 423.738 -14.9438C854.532 -25.7393 1285.41 -11.5695 1717.83 -11.5695H1917.22C1925.51 -11.5695 1932.22 -4.85382 1932.22 3.43045C1932.22 11.7147 1925.51 18.4305 1917.22 18.4305H1717.83Z" fill="#FC912F"/>
</svg>
