<svg width="1426" height="351" viewBox="0 0 1426 351" fill="none" xmlns="http://www.w3.org/2000/svg">
<mask id="path-1-inside-1_971_1859" fill="white">
<path d="M1 5.85596H476V350.856H1V5.85596Z"/>
</mask>
<path d="M476 350.856V352.856H478V350.856H476ZM1 350.856H-1V352.856H1V350.856ZM474 5.85596V350.856H478V5.85596H474ZM476 348.856H1V352.856H476V348.856ZM3 350.856V5.85596H-1V350.856H3Z" fill="black" mask="url(#path-1-inside-1_971_1859)"/>
<mask id="path-3-inside-2_971_1859" fill="white">
<path d="M474 5.85596H951V350.856H474V5.85596Z"/>
</mask>
<path d="M951 350.856V352.856H953V350.856H951ZM474 350.856H472V352.856H474V350.856ZM949 5.85596V350.856H953V5.85596H949ZM951 348.856H474V352.856H951V348.856ZM476 350.856V5.85596H472V350.856H476Z" fill="black" mask="url(#path-3-inside-2_971_1859)"/>
<mask id="path-5-inside-3_971_1859" fill="white">
<path d="M949 5.85596H1429V350.856H949V5.85596Z"/>
</mask>
<path d="M1429 350.856V352.856H1431V350.856H1429ZM949 350.856H947V352.856H949V350.856ZM1427 5.85596V350.856H1431V5.85596H1427ZM1429 348.856H949V352.856H1429V348.856ZM951 350.856V5.85596H947V350.856H951Z" fill="black" mask="url(#path-5-inside-3_971_1859)"/>
<path fill-rule="evenodd" clip-rule="evenodd" d="M1264 7.41992C1271.46 7.29686 1277.43 5.81831 1282.67 4.51903C1284.25 4.12772 1285.76 3.75267 1287.23 3.4358C1293.77 2.02411 1299.6 1.6967 1307.08 5.88449C1310.61 7.85973 1313.56 8.51129 1316.15 8.42008C1318.72 8.32945 1320.86 7.50602 1322.73 6.69662C1323 6.58024 1323.26 6.46532 1323.52 6.35313L1323.52 6.3528C1325.09 5.66257 1326.43 5.07563 1327.84 4.88458C1329.38 4.67541 1331.04 4.9481 1333.1 6.39315C1333.97 7.00367 1335.15 7.32391 1336.36 7.50101C1337.59 7.68122 1338.98 7.72835 1340.37 7.7158C1341.77 7.70322 1343.2 7.63006 1344.52 7.56134L1344.63 7.55546C1345.91 7.48839 1347.06 7.4281 1348 7.4281C1348.55 7.4281 1349 6.98039 1349 6.4281C1349 5.87582 1348.55 5.4281 1348 5.4281C1347.01 5.4281 1345.81 5.49085 1344.56 5.55649L1344.41 5.56407C1343.09 5.63304 1341.7 5.70374 1340.36 5.71588C1339.01 5.72804 1337.73 5.68074 1336.65 5.52203C1335.54 5.36021 1334.74 5.09706 1334.25 4.75437C1331.8 3.0448 1329.64 2.62055 1327.57 2.90279C1325.86 3.13486 1324.23 3.85209 1322.68 4.53633C1322.43 4.64601 1322.18 4.75483 1321.94 4.86068C1320.11 5.65006 1318.26 6.34444 1316.08 6.42132C1313.91 6.49762 1311.32 5.96639 1308.06 4.13923C1300 -0.370885 1293.62 0.00985114 1286.81 1.48079C1285.25 1.81637 1283.68 2.20497 1282.07 2.60476C1276.62 3.95279 1270.67 5.42816 1263 5.42816C1262.99 5.42816 1262.99 5.42823 1262.98 5.42836H1.75781H0.757812V7.42836H1.75781H1263H1264V7.41992Z" fill="black"/>
<path d="M1348 6.42822L1426 6.42822" stroke="black" stroke-width="2" stroke-linecap="round"/>
</svg>
