<svg width="552" height="5" viewBox="0 0 552 5" fill="none" xmlns="http://www.w3.org/2000/svg">
<path fill-rule="evenodd" clip-rule="evenodd" d="M551.75 2.91818L106.267 2.91814L106.25 2.91795V2.91814H106.25L106.25 2.91795H106.249L106.247 2.91795L106.238 2.91794L106.202 2.91793L106.059 2.91777C105.934 2.91759 105.75 2.91723 105.514 2.91652C105.041 2.91508 104.362 2.91222 103.533 2.90648C101.875 2.89502 99.6205 2.87208 97.2345 2.82624C92.5354 2.73594 87.4201 2.55752 85.2796 2.2175C85.1153 2.11245 84.9599 1.99983 84.7802 1.86955C84.6391 1.76728 84.483 1.65414 84.2958 1.52525C83.8491 1.21765 83.3146 0.889887 82.623 0.618302C81.2331 0.0724229 79.3084 -0.208244 76.2916 0.181461C75.1978 0.322738 73.8705 0.669853 72.372 1.07087L72.0294 1.16265C70.597 1.54661 68.9821 1.97951 67.1726 2.36725C63.2771 3.20196 58.4955 3.82328 52.8605 3.25355C41.8062 1.08162 34.9295 1.08039 27.7208 1.62526C25.9228 1.76117 24.11 1.93026 22.2099 2.1075C16.5004 2.64007 10.0028 3.24615 0.75 3.24615C0.335786 3.24615 0 3.58194 0 3.99615C0 4.41036 0.335786 4.74615 0.75 4.74615C10.0794 4.74615 16.6693 4.13134 22.3893 3.59769C24.2765 3.42162 26.0689 3.2544 27.8339 3.121C34.9328 2.58442 41.6795 2.58265 52.6052 4.73209L52.6394 4.7388L52.674 4.74233C58.524 5.33846 63.4808 4.69237 67.4869 3.83396C69.3353 3.43789 70.9846 2.99572 72.414 2.61254L72.7598 2.51988C74.2844 2.11188 75.5087 1.79504 76.4838 1.6691C79.3293 1.30153 80.9845 1.58634 82.0747 2.01449C82.6233 2.22992 83.0539 2.49131 83.4452 2.76072C83.5636 2.84223 83.6906 2.93387 83.8217 3.02843L83.822 3.02867C84.0859 3.21903 84.3662 3.42122 84.6254 3.57649L84.7452 3.64828L84.8828 3.67214C87.0725 4.0517 92.4514 4.2346 97.2057 4.32596C99.5996 4.37196 101.86 4.39495 103.522 4.40645C104.237 4.41139 104.842 4.41421 105.299 4.41582C105.318 4.41736 105.338 4.41814 105.358 4.41814L551.75 4.41818V2.91818Z" fill="black"/>
</svg>
