<svg width="551" height="7" viewBox="0 0 551 7" fill="none" xmlns="http://www.w3.org/2000/svg">
<path fill-rule="evenodd" clip-rule="evenodd" d="M551 4.92143L261.009 4.92145L261 4.92139C250.541 4.92139 241.908 3.47557 233.98 2.14795C231.555 1.74177 229.195 1.34665 226.87 1.00738C216.954 -0.43922 207.729 -0.850334 196.969 3.39823C192.254 5.25977 188.426 4.95718 184.482 4.16421C183.555 3.97782 182.613 3.76157 181.649 3.53995L181.648 3.53983L181.647 3.5396L181.645 3.53909C178.526 2.82246 175.164 2.05004 171.263 2.05004V2.80004C171.263 2.05004 171.263 2.05004 171.262 2.05004L171.261 2.05004L171.257 2.05005L171.244 2.05011L171.197 2.05054C171.156 2.05102 171.097 2.05198 171.021 2.05385C170.868 2.0576 170.648 2.06503 170.37 2.07977C169.815 2.10925 169.029 2.16803 168.097 2.28538C166.24 2.51935 163.778 2.98937 161.411 3.93976C159.276 4.79739 155.722 5.06242 151.909 5.09198C150.023 5.1066 148.108 5.06428 146.319 5.01798C146.057 5.01118 145.796 5.00429 145.539 4.99748L145.538 4.99745L145.537 4.99743C145.074 4.98516 144.62 4.97314 144.18 4.96243C144.103 4.93588 144.021 4.92146 143.935 4.92146H141.583L141.5 4.9214L141.49 4.92146H0V6.42146H141.582C142.71 6.42312 144.041 6.45836 145.496 6.49686L145.496 6.49687C145.754 6.50369 146.015 6.51061 146.28 6.51747C148.071 6.56381 150.008 6.60677 151.921 6.59193C155.705 6.56259 159.535 6.30979 161.97 5.33171C164.175 4.44641 166.499 3.99857 168.285 3.77362C169.175 3.6615 169.924 3.60555 170.45 3.57766C170.712 3.56373 170.918 3.55682 171.057 3.5534C171.127 3.55168 171.18 3.55084 171.214 3.55043L171.253 3.55008L171.261 3.55004L171.263 3.55004C174.977 3.55004 178.116 4.27026 181.203 4.97875C182.197 5.20677 183.186 5.43358 184.186 5.63477C188.277 6.4574 192.431 6.8027 197.519 4.79342C207.926 0.684422 216.848 1.06109 226.653 2.49167C228.929 2.82371 231.256 3.21361 233.662 3.61655L233.662 3.61661L233.662 3.61663C240.713 4.79783 248.432 6.09111 257.485 6.36757C257.571 6.40233 257.666 6.42145 257.765 6.42145L261 6.42139L551 6.42139V4.92143Z" fill="black"/>
</svg>
