<svg width="553" height="8" viewBox="0 0 553 8" fill="none" xmlns="http://www.w3.org/2000/svg">
<path fill-rule="evenodd" clip-rule="evenodd" d="M0 6.33885V4.83885H202.75C206.994 4.83885 210.258 3.43701 213.317 2.12347L213.319 2.12248C214.267 1.71524 215.196 1.31652 216.128 0.970731C218.065 0.251681 220.021 -0.224819 222.1 0.108429C224.189 0.443401 226.296 1.57761 228.584 3.86551C230.614 5.89545 232.06 6.39451 233.121 6.33525C234.212 6.27436 235.135 5.62097 236.13 4.75194C236.272 4.62748 236.419 4.49572 236.569 4.36162L236.58 4.35216L236.58 4.35166C236.918 4.04938 237.268 3.73587 237.606 3.46789C238.106 3.07089 238.67 2.69656 239.304 2.51193C239.967 2.31881 240.67 2.34382 241.4 2.68364C242.105 3.01153 242.794 3.61339 243.503 4.499C243.76 4.82103 244.167 5.06297 244.742 5.22449C245.318 5.38642 246.012 5.45229 246.772 5.45941C247.528 5.46649 248.313 5.41554 249.07 5.36049L249.324 5.34185C249.978 5.29365 250.616 5.24654 251.149 5.24654H551.5C551.914 5.24654 552.25 5.58232 552.25 5.99654C552.25 6.41075 551.914 6.74654 551.5 6.74654H251.149C250.676 6.74654 250.097 6.78907 249.431 6.83806L249.179 6.85653C248.422 6.9116 247.582 6.96706 246.758 6.95934C245.937 6.95165 245.094 6.8815 244.336 6.66864C243.577 6.45539 242.85 6.08381 242.331 5.43604C241.7 4.64664 241.182 4.2367 240.767 4.04355C240.378 3.86234 240.049 3.85708 239.724 3.95206C239.368 4.05554 238.986 4.28768 238.538 4.64309C238.235 4.8836 237.942 5.14594 237.624 5.43081C237.463 5.57529 237.295 5.72556 237.116 5.88172C236.115 6.75649 234.851 7.74103 233.205 7.83292C231.53 7.92644 229.69 7.09311 227.523 4.92618C225.386 2.78946 223.553 1.86048 221.862 1.58952C220.161 1.31684 218.496 1.69167 216.65 2.37703C215.831 2.68083 214.976 3.04904 214.074 3.43716L214.074 3.43723C210.978 4.77054 207.335 6.33885 202.75 6.33885H0Z" fill="black"/>
</svg>
