<svg width="1920" height="69" viewBox="0 0 1920 69" fill="none" xmlns="http://www.w3.org/2000/svg">
<g clip-path="url(#clip0_765_1685)">
<path fill-rule="evenodd" clip-rule="evenodd" d="M1727.83 37.4305C1295.68 37.4305 865.054 43.2571 434.49 54.0468C307.283 57.2345 183.057 61.7068 57.2142 67.1037C55.2129 67.1895 53.008 67.2924 50.6506 67.4025C37.3824 68.0217 19.2829 68.8665 5.45571 68.1598C-2.81776 67.7369 0.818071 60.6871 1.24095 52.4137C1.66383 44.1402 -6.57006 16.7084 1.70341 17.1312C13.9025 17.7548 45.4335 18.0713 48.8351 17.4517C51.3113 17.3372 53.6904 17.2272 55.9288 17.1312C181.908 11.7285 306.316 7.2493 433.738 4.05619C864.532 -6.73926 1295.41 7.43045 1727.83 7.43045H1927.22C1935.51 7.43045 1942.22 14.1462 1942.22 22.4305C1942.22 30.7147 1935.51 37.4305 1927.22 37.4305H1727.83Z" fill="#F7F14E"/>
</g>
<defs>
<clipPath id="clip0_765_1685">
<rect width="1920" height="68.4279" fill="white"/>
</clipPath>
</defs>
</svg>
