<svg width="229" height="67" viewBox="0 0 229 67" fill="none" xmlns="http://www.w3.org/2000/svg">
<path d="M21.1 55.0002C17.3 56.7002 11.2 58.2002 7.8 54.9002C0.3 47.8002 6.3 42.0002 8.2 16.4002C8.2 15.8002 7.7 15.6002 7.4 15.4002C5.2 14.2002 1.9 10.1002 4.7 8.70024C5.7 8.20024 7.1 8.10024 8.3 7.90024C8.6 7.90024 8.9 7.60024 9 7.30024C10.2 4.00024 12.1 2.80024 14.9 6.80024C15.2 7.00024 15.5 7.20024 15.8 7.20024C20.5 6.80024 30.6 3.90024 36.3 3.00024C38 2.80024 40.2 5.00024 40.8 6.80024C41.7 9.30024 40.4 10.4002 38.1 10.7002C28.8 11.6002 24.7 13.4002 15.8 14.7002C15.5 14.8002 15.2 15.1002 15.1 15.4002C15 17.9002 13.5 26.8002 13.3 30.2002C13.3 30.7002 13.7 31.1002 14.1 31.0002C18.7 30.4002 22 29.5002 26.5 28.8002C28.4 28.6002 30 30.4002 30.7 32.2002C31.5 33.6002 31.7 35.9002 29.9 36.2002L13.2 39.0002C12.8 39.0002 12.3 39.4002 12.2 39.7002C11.6 42.3002 11 44.3002 11.1 46.5002C11.2 48.1002 12.7 49.0002 14.2 48.4002C20.5 46.1002 30.4 40.0002 30.4 49.9002C30.4 51.3002 28.1 51.8002 26.4 52.5002C24.5 53.3002 22.9 54.2002 21.1 55.0002ZM78.5414 16.1002C67.7414 22.0002 67.2414 22.9002 58.1414 32.0002C57.8414 32.3002 57.7414 32.7002 58.1414 33.3002C63.7414 41.6002 66.5414 41.2002 66.5414 45.3002C66.5414 46.1002 66.0414 47.2002 65.3414 47.5002C62.5414 48.9002 59.6414 44.5002 58.1414 42.4002C56.9414 40.6002 55.7414 38.8002 54.6414 36.9002C54.5414 36.6002 54.2414 36.6002 53.9414 36.9002C50.1414 40.1002 46.4414 47.9002 45.5414 50.3002C44.5414 52.7002 42.9414 58.0002 39.7414 54.9002C37.0414 52.2002 37.8414 48.5002 39.4414 45.3002C42.3414 39.5002 45.1414 33.8002 49.8414 29.1002C50.0414 28.9002 50.1414 28.5002 50.0414 28.2002C48.0414 23.9002 46.9414 20.4002 45.4414 15.5002C44.8414 13.6002 45.0414 11.8002 46.9414 11.2002C48.8414 10.6002 50.9414 15.2002 51.5414 16.8002C52.4414 18.8002 53.2414 21.1002 54.0414 23.2002C54.2414 23.5002 54.5414 23.6002 54.7414 23.4002C56.8414 21.2002 70.9414 8.70024 75.2414 7.90024C78.9414 7.20024 81.8414 14.3002 78.5414 16.1002ZM82.7695 59.2002C79.8695 56.3002 80.7695 51.3002 81.4695 47.7002C82.7695 41.3002 84.0695 35.3002 83.9695 28.7002C83.9695 25.9002 82.8695 19.9002 85.2695 17.7002C86.3695 16.8002 87.6695 17.3002 88.7695 18.0002C89.2695 18.4002 89.9695 18.2002 90.2695 17.7002C93.8695 10.8002 99.0695 0.100241 107.97 2.90024C116.57 5.60024 118.17 16.6002 114.97 24.3002C112.37 30.7002 98.7695 47.7002 90.9695 42.9002C90.5695 42.7002 90.0695 42.9002 89.9695 43.4002C89.2695 48.3002 88.3695 53.0002 87.5695 57.9002C87.1695 60.8002 84.6695 61.1002 82.7695 59.2002ZM91.9695 34.5002C91.7695 35.3002 92.4695 35.9002 93.1695 35.5002C101.07 31.5002 109.67 24.0002 109.67 15.1002C109.67 5.20024 102.57 11.6002 99.1695 18.1002C96.3695 23.4002 93.5695 28.7002 91.9695 34.5002ZM136.01 55.0002C132.21 56.7002 126.11 58.2002 122.71 54.9002C115.21 47.8002 121.21 42.0002 123.11 16.4002C123.11 15.8002 122.61 15.6002 122.31 15.4002C120.11 14.2002 116.81 10.1002 119.61 8.70024C120.61 8.20024 122.01 8.10024 123.21 7.90024C123.51 7.90024 123.81 7.60024 123.91 7.30024C125.11 4.00024 127.01 2.80024 129.81 6.80024C130.11 7.00024 130.41 7.20024 130.71 7.20024C135.41 6.80024 145.51 3.90024 151.21 3.00024C152.91 2.80024 155.11 5.00024 155.71 6.80024C156.61 9.30024 155.31 10.4002 153.01 10.7002C143.71 11.6002 139.61 13.4002 130.71 14.7002C130.41 14.8002 130.11 15.1002 130.01 15.4002C129.91 17.9002 128.41 26.8002 128.21 30.2002C128.21 30.7002 128.61 31.1002 129.01 31.0002C133.61 30.4002 136.91 29.5002 141.41 28.8002C143.31 28.6002 144.91 30.4002 145.61 32.2002C146.41 33.6002 146.61 35.9002 144.81 36.2002L128.11 39.0002C127.71 39.0002 127.21 39.4002 127.11 39.7002C126.51 42.3002 125.91 44.3002 126.01 46.5002C126.11 48.1002 127.61 49.0002 129.11 48.4002C135.41 46.1002 145.31 40.0002 145.31 49.9002C145.31 51.3002 143.01 51.8002 141.31 52.5002C139.41 53.3002 137.81 54.2002 136.01 55.0002ZM155.052 29.3002C158.152 17.8002 166.052 7.30024 171.952 4.20024C174.052 3.00024 177.052 1.70024 179.352 3.30024C181.352 4.70024 182.852 7.10024 182.352 9.60024C181.852 11.9002 180.152 12.6002 178.552 11.0002C178.152 10.7002 177.752 10.7002 177.352 10.9002C168.052 15.3002 158.752 32.8002 158.752 45.7002C158.752 46.6002 159.452 47.4002 160.352 47.3002C163.552 46.9002 166.352 43.7002 169.152 42.3002C171.752 41.0002 174.352 44.5002 174.552 47.8002C174.552 48.5002 174.452 49.4002 173.852 49.8002C170.952 51.5002 168.052 53.3002 164.752 54.1002C159.152 55.4002 153.452 52.5002 152.952 45.0002C152.552 39.8002 153.652 34.4002 155.052 29.3002ZM222.987 3.50024C223.687 4.70024 224.187 6.90024 222.487 7.60024C216.987 9.80024 210.787 10.9002 204.587 12.6002C204.287 12.7002 203.887 12.9002 203.787 13.3002C200.687 25.9002 200.387 40.0002 198.187 52.8002C197.887 54.5002 196.187 54.9002 194.987 53.9002C191.687 51.4002 192.587 46.4002 193.087 42.8002C193.987 37.1002 194.687 31.4002 195.387 25.6002C195.687 22.6002 196.087 19.5002 196.587 16.5002C196.687 15.9002 196.087 15.4002 195.487 15.7002C193.387 16.6002 188.687 19.3002 188.687 21.3002C188.687 25.2002 183.887 23.2002 183.087 19.8002C180.887 9.90024 194.687 8.00024 201.487 5.90024C207.687 4.00024 213.187 2.70024 218.987 0.900243C220.687 0.400244 222.287 2.10024 222.987 3.50024ZM219.365 62.4002C214.765 57.7002 219.365 53.1002 224.065 57.7002C228.665 62.4002 224.065 67.0002 219.365 62.4002Z" fill="black"/>
</svg>
