<?xml version="1.0" standalone="no"?>
<!DOCTYPE svg PUBLIC "-//W3C//DTD SVG 20010904//EN"
 "http://www.w3.org/TR/2001/REC-SVG-20010904/DTD/svg10.dtd">
<svg version="1.0" xmlns="http://www.w3.org/2000/svg"
 width="708.000000pt" height="782.000000pt" viewBox="0 0 708.000000 782.000000"
 preserveAspectRatio="xMidYMid meet">

<g transform="translate(0.000000,782.000000) scale(0.100000,-0.100000)"
fill="#000000" stroke="none">
<path d="M4025 6281 c-6 -4 -24 -13 -41 -19 -68 -22 -114 -61 -142 -119 -15
-31 -40 -69 -56 -83 -41 -37 -39 -77 3 -118 18 -17 36 -32 40 -34 9 -4 51
-115 51 -136 0 -9 28 -42 62 -74 l61 -57 -23 -93 c-13 -51 -27 -100 -31 -108
-4 -8 -18 -46 -30 -85 -12 -38 -25 -75 -30 -80 -4 -6 -13 -33 -19 -60 -7 -28
-21 -78 -32 -113 -11 -34 -23 -83 -28 -110 -6 -39 -9 -43 -15 -24 -8 23 -28
27 -115 22 -40 -2 -148 -36 -168 -53 -9 -7 -12 -25 -10 -49 l3 -38 -36 6 c-29
5 -41 2 -58 -15 -25 -25 -28 -86 -5 -119 18 -26 65 -52 94 -52 23 0 60 -33 60
-53 0 -8 -12 -20 -26 -28 -60 -31 -111 -145 -138 -304 -9 -55 -22 -120 -27
-145 -6 -25 -13 -78 -16 -117 l-6 -73 -95 0 c-77 0 -93 3 -89 14 3 8 -1 20 -9
26 -25 21 -15 30 31 30 39 0 50 5 81 36 60 62 35 86 -111 107 -47 7 -86 17
-85 22 0 6 35 11 79 13 64 2 82 6 97 23 18 20 18 21 -5 40 -13 10 -38 19 -57
19 -18 0 -36 5 -39 10 -7 12 -88 14 -99 3 -4 -5 -37 -13 -72 -18 l-64 -11 0
62 c0 51 -4 65 -25 88 -19 21 -31 26 -48 20 -32 -10 -37 -22 -37 -99 0 -58 -4
-77 -25 -107 -14 -21 -29 -54 -33 -75 -6 -32 -15 -42 -51 -60 -24 -12 -52 -31
-63 -43 -10 -11 -28 -20 -38 -20 -12 0 -22 -9 -26 -25 -3 -13 -22 -34 -42 -46
-125 -76 -163 -85 -200 -46 -30 32 -112 178 -112 199 0 10 -4 18 -10 18 -26 0
-48 191 -24 211 22 18 17 43 -19 90 -36 47 -71 108 -65 114 2 2 23 0 46 -6 23
-5 53 -7 66 -3 36 9 74 51 87 97 7 23 16 46 21 52 4 5 8 17 8 27 0 12 8 18 24
18 37 0 76 18 76 35 0 8 5 15 10 15 18 0 11 26 -12 47 -13 11 -35 23 -50 27
-15 3 -33 16 -39 29 -7 12 -15 24 -19 27 -12 8 -29 125 -19 128 15 6 10 32 -7
32 -9 0 -14 3 -12 8 24 48 32 62 40 62 20 0 6 53 -22 83 l-30 32 -158 -2 c-96
-1 -170 -7 -188 -14 -16 -7 -31 -13 -34 -14 -3 0 -23 -10 -45 -22 -61 -32
-122 -101 -133 -149 -19 -86 17 -207 80 -264 26 -24 28 -31 19 -49 -7 -11 -16
-21 -20 -21 -5 0 -12 -11 -15 -24 -6 -24 -36 -53 -120 -116 -104 -78 -270
-260 -313 -345 -9 -16 -19 -32 -22 -35 -8 -7 -91 -174 -91 -184 0 -4 -10 -28
-21 -54 -12 -26 -25 -58 -30 -72 l-8 -25 -6 23 c-4 12 -11 22 -15 22 -4 0 -11
12 -15 27 -3 15 -21 59 -39 97 -18 39 -50 111 -72 159 -50 113 -108 172 -179
183 -58 8 -284 -11 -299 -26 -5 -5 -25 -10 -44 -10 -51 0 -179 -36 -247 -69
-83 -40 -100 -85 -75 -196 5 -22 12 -53 15 -70 4 -16 11 -39 16 -50 5 -11 21
-63 35 -115 13 -52 29 -111 34 -130 5 -19 16 -66 25 -105 9 -38 20 -74 24 -80
5 -5 19 -55 31 -110 13 -55 26 -106 30 -115 4 -8 18 -58 30 -110 13 -52 26
-99 30 -105 4 -5 13 -35 19 -65 7 -30 23 -91 36 -135 12 -44 28 -105 35 -135
7 -30 16 -59 20 -65 4 -5 17 -55 30 -110 23 -97 66 -185 92 -185 6 0 8 -10 5
-22 -3 -13 -17 -79 -31 -148 -15 -69 -30 -132 -33 -140 -4 -8 -19 -71 -34
-140 -15 -69 -36 -165 -48 -215 -25 -113 -26 -104 6 -116 26 -10 84 4 81 20
-1 3 2 13 5 21 3 8 15 65 27 125 12 61 24 117 27 125 6 14 21 79 72 310 11 52
23 105 26 117 5 22 9 23 130 23 124 0 125 0 125 -23 0 -13 -3 -27 -7 -30 -13
-14 -62 -282 -53 -291 16 -16 72 -10 86 8 7 10 16 37 19 59 4 23 11 47 15 52
5 6 16 53 25 105 10 52 22 101 28 108 7 9 82 12 334 10 l324 -3 -1 -354 c0
-252 3 -357 11 -367 12 -14 56 -19 83 -8 12 5 16 21 17 68 0 49 2 57 11 40 8
-18 22 -22 85 -28 183 -15 390 -5 528 26 56 13 60 16 63 45 2 21 -4 39 -20 57
-20 24 -33 28 -113 36 -112 10 -130 17 -183 70 -45 45 -53 70 -24 70 25 0 42
40 42 100 0 27 4 59 9 72 5 13 19 66 31 118 12 52 26 100 30 105 4 6 18 43 30
84 12 41 28 81 36 88 8 8 14 21 14 28 0 8 4 16 8 19 4 2 6 -23 4 -57 -6 -107
30 -398 59 -474 7 -20 14 -24 33 -19 23 6 23 4 29 -90 7 -126 14 -133 105
-122 122 14 215 30 231 38 9 4 71 18 139 30 67 12 125 26 128 31 3 5 10 9 16
9 13 0 2 -152 -12 -160 -5 -3 -10 -50 -12 -105 l-3 -100 29 0 c26 0 30 4 41
50 7 28 23 114 34 192 11 79 25 151 30 160 5 10 21 99 35 198 36 250 39 260
56 260 9 0 14 -8 12 -20 -14 -116 -44 -397 -44 -422 0 -18 -4 -33 -9 -33 -21
0 -7 -41 16 -52 43 -19 54 4 76 158 11 76 23 148 28 159 5 11 15 64 22 117
l13 98 403 0 c222 0 403 -2 403 -4 0 -2 -25 -16 -56 -32 -66 -33 -76 -50 -45
-76 17 -13 40 -18 86 -18 52 0 73 6 131 36 38 20 86 49 107 66 22 17 47 28 59
26 18 -2 22 -10 22 -43 1 -38 3 -40 31 -40 28 0 30 3 33 43 l3 42 214 0 c131
0 216 -4 220 -10 12 -19 9 -114 -3 -118 -7 -2 -12 -10 -12 -18 0 -17 -34 -87
-55 -112 -66 -81 -145 -153 -183 -168 -37 -14 -43 -20 -40 -43 3 -24 7 -26 61
-29 97 -5 149 19 239 109 82 84 88 84 88 4 0 -33 4 -44 19 -48 38 -9 43 6 48
149 5 119 3 144 -11 173 -13 23 -16 44 -11 72 l7 39 486 -2 487 -3 22 -135
c46 -287 63 -382 68 -391 8 -12 38 -12 51 1 10 10 -24 381 -36 390 -4 3 -10
36 -14 73 -7 67 -6 68 16 65 19 -3 24 -11 30 -58 4 -30 12 -73 18 -95 6 -22
22 -110 36 -195 14 -85 37 -230 52 -321 27 -166 39 -199 72 -199 30 0 40 22
29 65 -5 22 -21 123 -34 225 -14 102 -30 219 -36 261 -7 42 -9 83 -6 91 4 12
32 15 133 17 71 1 131 4 133 7 3 3 5 1264 1 1419 -1 43 -36 91 -162 218 l-57
57 -131 0 -130 0 0 65 c0 37 -4 65 -10 65 -5 0 -10 19 -10 43 -1 72 -36 252
-64 326 -15 38 -44 89 -64 112 -33 37 -46 43 -122 61 -102 23 -259 47 -319 48
-37 0 -42 2 -36 18 4 9 10 40 13 69 4 44 0 62 -28 119 -28 59 -31 71 -24 118
15 98 -2 162 -58 218 -30 30 -46 40 -113 63 -30 11 -132 5 -202 -11 -131 -30
-226 -104 -238 -187 -8 -49 11 -100 42 -111 15 -6 11 -13 -26 -47 -42 -39 -42
-41 -25 -60 9 -10 24 -19 33 -19 11 0 24 -21 39 -64 12 -36 22 -70 22 -75 0
-7 -36 -11 -101 -11 l-101 0 6 28 c17 78 18 241 1 347 -9 61 -20 115 -25 120
-4 6 -10 24 -14 40 -12 51 -39 140 -46 145 -3 3 -14 27 -24 54 -39 103 -132
216 -206 249 -25 11 -47 24 -50 28 -3 5 -39 14 -80 21 -41 7 -78 17 -82 23
-13 18 4 79 28 101 13 12 24 26 24 31 0 15 -24 33 -49 38 -29 5 -41 14 -41 29
0 8 -7 19 -15 26 -8 7 -15 26 -14 44 0 77 -13 130 -43 172 -31 44 -86 84 -114
84 -8 0 -14 5 -14 10 0 12 -112 13 -125 1z m137 -33 c22 -6 44 -20 49 -30 5
-10 16 -18 24 -18 18 0 31 -24 40 -75 7 -39 7 -39 -11 -23 -51 48 -87 70 -145
88 -35 11 -74 20 -87 20 -27 0 -41 28 -21 41 20 13 105 11 151 -3z m-132 -59
c36 -5 85 -21 109 -35 24 -13 48 -24 54 -24 6 0 20 -9 32 -19 11 -11 32 -31
47 -45 15 -14 26 -31 23 -38 -8 -21 -67 -15 -103 10 -18 13 -47 28 -65 33 -80
25 -132 37 -139 33 -5 -3 -8 0 -8 6 0 12 -53 9 -97 -5 -34 -11 -30 25 6 64 32
34 44 36 141 20z m-65 -121 c7 -6 4 -14 -7 -22 -22 -17 -23 -30 -2 -22 9 4 45
-7 80 -24 35 -16 70 -30 78 -30 18 0 56 -47 56 -70 0 -23 26 -44 45 -36 8 3
15 17 15 32 0 29 28 94 40 94 16 0 21 -58 9 -104 -8 -34 -16 -46 -30 -46 -11
0 -19 -6 -19 -12 0 -7 -3 -24 -6 -38 -6 -21 -4 -23 7 -12 23 21 31 13 12 -13
-13 -18 -28 -24 -53 -25 -53 0 -102 -17 -132 -45 -35 -32 -62 -32 -86 3 -16
23 -17 30 -5 52 21 40 15 59 -8 28 -11 -16 -28 -28 -36 -28 -12 0 -14 7 -9 28
17 72 17 99 2 136 -8 20 -20 35 -26 31 -7 -4 -5 -14 5 -28 20 -29 19 -34 -9
-34 -20 0 -25 6 -30 36 -9 55 -7 101 4 101 7 0 7 6 0 19 -5 11 -10 24 -10 30
0 20 93 20 115 -1z m215 -98 c0 -5 -4 -10 -10 -10 -5 0 -10 5 -10 10 0 6 5 10
10 10 6 0 10 -4 10 -10z m201 -258 c65 -5 94 -11 97 -21 4 -11 -6 -12 -49 -5
-66 9 -106 10 -140 1 -20 -5 -29 -3 -33 9 -8 21 1 34 19 28 8 -3 56 -9 106
-12z m-243 -21 c9 -6 38 -13 64 -16 40 -5 48 -10 62 -39 9 -19 16 -44 16 -56
0 -20 -3 -22 -37 -15 -21 4 -49 13 -63 20 -14 7 -51 16 -82 19 -52 7 -58 10
-58 31 0 24 42 65 66 65 8 0 22 -4 32 -9z m432 -71 c82 -10 86 -12 123 -52 26
-29 34 -45 27 -52 -7 -7 -17 -6 -33 3 -16 10 -72 16 -199 19 l-178 5 0 33 c0
18 -5 34 -12 36 -7 3 -8 10 -3 17 9 15 113 11 275 -9z m-470 -71 c25 -6 56
-13 70 -15 13 -3 29 -8 35 -13 29 -20 96 -30 245 -36 153 -5 300 -27 326 -47
11 -8 41 -98 36 -107 -4 -8 -117 0 -202 15 -47 8 -119 14 -160 12 -41 -1 -81
1 -88 6 -6 4 -17 4 -23 0 -14 -8 -109 -16 -109 -9 0 3 7 21 14 40 13 30 13 35
1 35 -7 0 -17 -9 -20 -20 -8 -25 -12 -25 -61 -1 -22 11 -72 23 -112 26 -80 8
-79 8 -61 81 13 49 24 53 109 33z m27 -185 c29 -8 55 -19 59 -25 10 -17 -37
-109 -56 -109 -10 0 -35 6 -56 14 -22 7 -65 16 -96 20 -34 4 -58 12 -58 19 0
15 22 78 34 95 9 15 90 9 173 -14z m153 -74 c0 -5 -15 -17 -32 -27 -27 -14
-29 -18 -15 -21 11 -2 36 10 59 29 l41 32 156 -7 c178 -8 206 -11 276 -24 27
-5 55 -8 62 -5 15 6 28 -21 37 -72 4 -22 12 -55 19 -72 6 -18 8 -35 5 -38 -7
-7 -170 25 -182 36 -6 5 -5 17 2 31 16 33 19 70 5 75 -7 3 -16 -17 -23 -51
l-11 -56 -77 8 c-103 9 -291 9 -374 -1 -65 -8 -68 -8 -79 15 -15 34 35 140 71
149 38 10 60 10 60 -1z m1200 -40 c44 -12 108 -72 127 -119 12 -27 14 -56 9
-121 -7 -82 -6 -87 23 -142 37 -68 40 -122 11 -172 -34 -56 -47 -53 -43 12 l3
57 -16 -35 c-9 -19 -23 -50 -30 -68 -8 -18 -24 -36 -36 -41 -15 -5 -18 -10 -9
-15 7 -5 18 -3 24 3 18 18 25 13 19 -14 -2 -14 -22 -41 -43 -60 -51 -45 -111
-49 -158 -9 -36 30 -39 49 -12 63 18 10 47 71 34 71 -3 0 -21 -16 -40 -35 -43
-45 -74 -52 -122 -30 -36 16 -41 16 -69 1 -27 -14 -53 -15 -174 -9 -199 10
-695 9 -801 -1 -48 -5 -90 -13 -94 -19 -4 -6 24 -7 78 -2 215 20 919 8 919
-16 0 -3 -8 -17 -19 -30 -25 -32 -32 -55 -46 -153 -4 -26 -11 -49 -16 -52 -5
-3 -9 -12 -9 -21 0 -8 -16 -52 -36 -96 -31 -67 -38 -95 -42 -168 -4 -84 -4
-88 21 -111 40 -37 54 -47 96 -69 48 -25 52 -39 11 -39 -57 0 -123 -25 -162
-61 -22 -20 -59 -76 -86 -130 l-48 -94 -166 -3 c-204 -3 -201 -5 -170 106 33
117 44 203 47 362 1 80 6 170 10 201 l7 56 -32 7 c-18 3 -56 6 -84 6 -50 1
-153 21 -175 35 -6 3 -92 6 -190 7 -140 0 -190 -4 -232 -17 -101 -32 -115 -35
-162 -35 -25 0 -57 -4 -71 -10 -25 -9 -26 -13 -26 -85 l0 -75 -29 0 c-27 0
-30 -4 -44 -61 -15 -59 -15 -60 6 -68 21 -8 22 -14 22 -177 1 -93 5 -188 9
-211 l9 -43 -45 0 c-25 0 -50 6 -56 13 -20 24 -5 390 27 665 10 79 39 203 67
277 4 11 22 39 41 62 48 60 77 68 418 108 98 12 260 16 665 18 332 1 538 6
542 12 4 5 11 6 15 1 11 -10 -34 -46 -59 -46 -10 0 -16 -4 -13 -10 12 -20 55
-10 85 20 29 29 61 37 94 24 23 -9 2 -44 -26 -44 -16 0 -19 -3 -11 -11 29 -29
91 33 100 101 5 33 3 40 -12 40 -9 0 -28 -9 -42 -20 -15 -11 -28 -18 -31 -15
-3 3 3 11 13 19 26 19 45 89 45 171 0 59 3 72 20 83 11 7 20 8 20 3 0 -5 14
-14 30 -20 17 -5 30 -8 30 -5 0 3 -23 26 -51 51 -27 25 -56 60 -64 77 -8 18
-14 24 -14 14 -1 -26 18 -70 37 -85 16 -12 15 -13 -3 -7 -52 18 -76 56 -84
140 -5 49 -4 61 6 57 8 -3 22 2 31 10 10 9 29 20 42 26 33 13 146 14 190 1z
m-1454 -55 c42 -8 79 -17 82 -20 3 -2 -1 -24 -8 -48 l-12 -45 -111 6 c-62 2
-113 5 -114 6 -6 5 22 102 31 108 16 11 46 10 132 -7z m1151 4 c-9 -5 -24 -23
-32 -39 -9 -18 -24 -30 -35 -30 -19 0 -28 -25 -12 -32 4 -1 3 -30 -3 -63 l-10
-60 -22 23 c-28 27 -30 77 -6 112 22 33 73 80 98 90 28 12 43 11 22 -1z m18
-76 c3 -21 20 -59 36 -85 34 -52 46 -126 35 -202 -5 -34 -17 -56 -42 -81 -21
-21 -31 -40 -28 -50 12 -29 -24 -15 -55 22 -33 40 -39 63 -17 63 14 0 26 21
26 46 0 21 -14 17 -25 -8 -12 -29 -28 -27 -35 4 -4 16 -14 24 -33 26 -34 4
-35 29 -2 42 14 5 32 25 40 42 14 31 15 32 21 11 3 -13 10 -23 15 -23 16 0 10
42 -8 55 -15 11 -16 17 -3 54 8 27 18 40 26 37 10 -4 12 3 7 24 -5 28 9 60 27
60 4 0 11 -17 15 -37z m-1049 -38 c5 -28 1 -43 -17 -70 -13 -19 -27 -35 -31
-35 -12 0 -9 56 4 100 16 49 35 51 44 5z m-1905 -1 c10 -13 10 -20 -5 -45 -10
-17 -15 -33 -12 -36 3 -3 8 2 12 11 3 9 12 16 19 16 15 0 30 -93 15 -98 -5 -2
-9 -20 -9 -40 2 -31 3 -32 6 -9 6 35 13 34 38 -6 12 -19 34 -37 55 -43 47 -16
59 -37 36 -63 -13 -14 -31 -21 -58 -21 -21 0 -38 -3 -38 -7 0 -5 -4 -14 -9
-21 -12 -20 -58 5 -70 37 l-9 26 -1 -26 c-1 -26 29 -61 61 -72 14 -5 15 -11 6
-40 -26 -83 -63 -102 -165 -84 l-41 7 -17 -50 c-9 -28 -22 -50 -29 -50 -22 0
-82 58 -101 99 -11 22 -23 41 -27 41 -3 0 -12 17 -18 38 -7 20 -19 52 -28 70
-11 25 -12 36 -3 45 8 8 14 8 23 -1 30 -30 68 -8 68 40 0 17 2 18 15 4 8 -8
15 -20 15 -26 0 -21 33 -60 51 -60 10 0 23 -9 29 -20 6 -11 15 -18 21 -14 6 4
6 11 -2 20 -6 7 -9 20 -6 29 5 11 0 13 -22 9 -26 -5 -30 -2 -50 38 -25 53 -28
126 -6 134 22 9 51 -28 64 -81 6 -25 17 -45 24 -45 14 0 37 66 37 108 0 18 10
38 25 52 l26 24 -23 17 -23 18 22 38 c20 34 32 42 84 52 4 0 12 -6 20 -15z
m2403 -24 c10 -10 -38 -101 -68 -128 -18 -17 -42 -20 -193 -25 l-172 -6 -6 47
c-4 26 -9 59 -11 74 -8 43 -8 43 58 49 82 9 380 0 392 -11z m131 -19 c22 -6
54 -11 70 -11 47 -1 55 -12 62 -85 l6 -68 -24 7 c-13 4 -79 10 -146 13 -67 3
-127 9 -134 14 -10 6 -4 21 23 61 19 29 38 61 42 72 7 19 18 19 101 -3z m-738
-29 c-24 -26 -22 -46 2 -32 30 15 38 12 44 -16 6 -33 -19 -49 -108 -68 -39 -9
-79 -18 -91 -22 -17 -5 -23 2 -37 38 -20 52 -22 104 -4 111 6 3 57 6 111 6 95
1 98 0 83 -17z m133 -12 c0 -11 -4 -20 -10 -20 -5 0 -10 9 -10 20 0 11 5 20
10 20 6 0 10 -9 10 -20z m-431 -34 c-13 -13 -111 -45 -147 -47 -58 -4 -57 13
3 33 44 14 156 25 144 14z m41 -42 c19 -50 12 -67 -45 -113 -62 -49 -71 -80
-32 -106 21 -14 27 -14 57 1 36 18 53 13 77 -23 13 -20 12 -21 -59 -31 -40 -6
-99 -17 -131 -23 -68 -15 -71 -12 -82 59 -4 24 -15 76 -26 116 -10 39 -19 76
-19 82 0 7 29 13 78 16 52 3 90 11 117 26 51 27 54 27 65 -4z m43 -24 c3 -11
6 -24 7 -27 1 -4 -3 -9 -8 -11 -5 -1 -12 11 -14 28 -5 33 7 41 15 10z m304
-63 l21 -52 -20 -16 c-23 -18 -144 -59 -175 -59 -14 0 -26 13 -39 43 -10 23
-23 45 -28 48 -18 14 6 27 57 31 30 2 75 16 103 30 27 14 51 26 54 27 3 0 15
-23 27 -52z m63 -53 c0 -2 -5 -4 -10 -4 -12 0 -29 41 -36 85 -4 23 2 17 21
-24 14 -29 25 -55 25 -57z m256 61 c-28 -22 -17 -25 29 -9 49 17 184 17 320 1
l100 -12 3 -39 c6 -69 -30 -118 -64 -87 -26 24 -400 46 -534 32 -52 -6 -95 -9
-97 -7 -2 1 0 30 3 64 l7 61 106 4 c58 1 115 4 126 5 20 1 20 1 1 -13z m-949
-24 c11 -11 24 -37 27 -58 4 -21 9 -46 12 -55 8 -26 -38 -23 -81 5 -43 27 -57
77 -30 107 23 25 46 25 72 1z m372 -27 c9 -23 22 -49 30 -58 11 -13 11 -17 -4
-22 -25 -10 -68 8 -80 32 l-11 22 -29 -24 c-17 -13 -38 -24 -47 -24 -37 0 -30
24 20 72 66 63 97 63 121 2z m-2011 -143 c16 -38 55 -107 86 -153 31 -46 56
-93 56 -103 0 -10 7 -23 15 -29 12 -9 16 -33 16 -104 0 -51 -4 -99 -9 -105 -5
-7 -13 -36 -17 -64 -7 -51 -25 -75 -25 -33 0 13 -7 20 -20 20 -12 0 -34 7 -50
15 -25 13 -30 22 -30 53 0 40 -38 127 -68 155 -9 9 -30 28 -46 42 -29 25 -29
25 -10 48 22 26 57 56 65 57 8 0 46 -79 55 -113 5 -23 11 -28 28 -23 68 19 66
20 77 -13 12 -35 35 -44 24 -8 -4 12 -7 35 -7 50 1 27 0 28 -31 22 -18 -4 -33
-11 -35 -16 -8 -20 -33 -7 -46 24 -8 17 -28 64 -45 103 -17 39 -31 77 -31 85
0 8 -6 23 -14 34 -27 40 -28 63 -5 95 13 16 26 30 29 30 4 0 21 -31 38 -69z
m2312 49 c0 -16 -7 -20 -37 -20 l-38 0 30 20 c38 25 45 25 45 0z m-250 -24 c0
-8 -51 -13 -56 -5 -3 5 9 9 25 9 17 0 31 -2 31 -4z m1847 -36 c38 -5 109 -14
159 -20 154 -17 212 -48 253 -135 50 -107 78 -259 91 -500 6 -104 15 -206 20
-225 13 -46 12 -146 -1 -193 l-10 -38 -91 3 -91 3 -12 55 c-6 30 -32 96 -57
145 -25 50 -54 115 -63 145 -10 30 -21 60 -25 65 -12 15 -41 131 -53 210 -12
82 -12 160 -2 232 6 40 4 61 -9 87 -9 19 -16 41 -16 50 0 24 44 20 90 -9 22
-14 44 -25 49 -25 5 0 18 -10 28 -23 10 -13 26 -26 36 -30 15 -5 16 -4 7 13
-11 21 -62 60 -78 60 -6 0 -12 5 -14 11 -5 14 -74 39 -108 39 -14 0 -44 9 -65
20 -37 19 -64 28 -137 44 -16 4 -28 11 -28 16 0 13 41 13 127 0z m-3983 -81
c15 -28 26 -57 26 -65 0 -8 -22 -37 -50 -64 -35 -36 -57 -50 -77 -50 -15 0
-35 -5 -43 -10 -12 -8 -9 -10 11 -10 34 0 89 -19 89 -31 0 -5 6 -9 13 -9 20 0
61 -49 85 -100 16 -34 25 -86 36 -208 8 -89 17 -166 20 -171 11 -17 62 -228
58 -239 -2 -7 -13 -10 -26 -6 -12 3 -42 -4 -66 -15 l-45 -20 60 5 c33 3 66 8
73 10 7 2 41 -9 75 -25 59 -27 101 -41 121 -40 21 1 27 -34 16 -84 -7 -29 -16
-56 -20 -62 -4 -5 -13 -27 -20 -48 -11 -36 -14 -39 -44 -34 -17 3 -66 16 -109
29 -70 21 -78 26 -88 55 -12 36 -38 56 -98 74 -39 12 -62 34 -96 90 -40 68
-90 174 -107 229 -11 36 -24 70 -28 75 -4 6 -14 30 -20 55 -7 25 -15 39 -17
32 -6 -16 26 -150 37 -157 5 -3 18 -34 30 -69 12 -36 28 -70 36 -76 8 -7 14
-18 14 -24 0 -14 39 -89 50 -96 5 -3 11 -17 15 -31 l7 -27 -160 -1 c-194 -2
-188 -6 -176 111 5 46 8 90 6 98 -1 8 3 24 8 35 14 30 42 147 36 152 -3 3 -8
-6 -12 -21 -3 -14 -10 -26 -15 -26 -5 0 -9 -13 -9 -29 0 -16 -7 -44 -15 -63
-8 -22 -15 -78 -17 -146 l-3 -112 -85 0 c-137 0 -132 -4 -128 104 5 107 41
301 67 360 10 22 22 52 26 66 4 14 32 75 63 135 30 61 60 120 66 132 6 13 14
23 18 23 4 0 19 17 32 38 37 59 134 163 216 233 41 35 77 67 78 72 2 4 17 7
32 7 25 0 33 -7 54 -51z m3972 17 c68 -31 93 -69 100 -148 6 -62 -18 -241 -35
-263 -5 -5 -18 -44 -31 -85 -12 -41 -25 -79 -29 -85 -4 -5 -18 -39 -31 -75
-13 -36 -27 -67 -30 -70 -4 -3 -12 -21 -19 -40 -21 -62 -84 -110 -74 -56 3 13
-5 45 -17 71 -17 37 -20 58 -15 91 3 24 10 44 14 44 7 0 56 171 56 197 0 6 4
15 8 19 4 4 7 28 7 53 0 25 7 70 14 99 8 28 10 52 6 52 -13 0 -47 -125 -64
-239 -9 -58 -20 -107 -25 -110 -4 -4 -14 -30 -22 -60 -7 -29 -19 -55 -25 -58
-7 -2 -27 4 -46 14 -18 10 -50 20 -71 23 -32 4 -41 11 -59 45 -42 83 -46 94
-41 113 4 17 -2 21 -35 27 -60 10 -75 32 -78 120 -3 74 -28 154 -54 170 -21
13 -20 -1 5 -51 25 -49 33 -111 17 -129 -14 -16 -52 -116 -52 -136 0 -11 -4
-19 -10 -19 -5 0 -10 -11 -10 -25 0 -18 -5 -25 -20 -25 -25 0 -70 -21 -70 -32
0 -5 8 -7 18 -4 57 17 69 16 102 -6 65 -44 128 -78 144 -78 20 0 21 -16 1 -24
-20 -7 -19 -56 2 -85 16 -24 16 -24 -8 -17 -13 3 -49 11 -79 17 -30 5 -64 14
-75 19 -11 5 -40 17 -65 28 -25 11 -64 36 -87 57 -43 36 -43 37 -43 105 0 38
4 71 9 74 4 3 11 20 15 38 3 18 19 59 36 93 16 33 36 100 45 150 13 66 25 100
47 132 39 53 90 80 125 64 13 -6 42 -11 64 -11 33 0 41 -4 49 -25 18 -48 120
-71 178 -41 36 19 68 54 82 90 10 28 11 28 68 21 31 -3 80 -17 108 -29z
m-3628 -145 c38 -58 38 -61 11 -95 -18 -23 -18 -27 -5 -32 24 -9 20 -63 -15
-210 -17 -71 -33 -140 -36 -154 -4 -14 -12 -34 -18 -45 -7 -11 -16 -33 -19
-50 -9 -41 -69 -175 -78 -175 -5 0 -8 5 -8 10 0 13 39 131 48 145 4 5 7 12 8
15 0 3 4 12 7 20 3 8 23 74 43 145 33 117 37 142 37 250 0 87 -5 132 -17 164
-15 41 -14 61 3 61 4 0 22 -22 39 -49z m-65 -20 c6 -14 11 -33 12 -42 1 -9 5
-27 8 -40 12 -53 -30 -289 -77 -432 -20 -60 -36 -114 -36 -121 0 -8 -6 -19
-14 -25 -25 -21 -25 13 0 65 13 27 24 55 24 63 0 23 30 144 40 162 10 19 26
106 35 197 7 65 -18 192 -37 192 -5 0 -7 4 -3 10 9 15 36 -1 48 -29z m807 -12
c10 -17 14 -88 8 -139 0 -8 0 -42 0 -75 2 -58 3 -59 18 -37 9 14 14 36 12 53
-3 16 1 34 7 39 43 36 310 35 310 0 0 -23 -165 -33 -183 -12 -10 13 -11 5 -6
-44 6 -53 -1 -97 -20 -145 -6 -13 1 -17 34 -22 22 -3 53 -13 68 -24 l27 -18
-38 -3 c-24 -2 -54 4 -77 16 -33 16 -46 17 -90 8 -36 -7 -56 -7 -68 1 -10 6
-33 14 -52 17 l-35 7 25 -23 25 -23 -25 -23 c-14 -12 -35 -29 -48 -38 -22 -15
-23 -14 -42 28 -26 58 -27 124 -1 138 16 8 21 6 26 -10 12 -39 22 -19 17 36
-4 44 -1 61 15 82 31 44 46 89 47 150 2 80 22 106 46 61z m-2003 -60 c50 -28
75 -51 95 -91 40 -79 108 -239 108 -253 0 -8 4 -15 8 -15 4 0 19 -29 33 -65
13 -36 27 -65 31 -65 4 0 6 -14 6 -30 -1 -33 -21 -36 -26 -4 -2 10 -32 78 -67
149 -34 72 -79 164 -99 205 -20 41 -49 90 -66 109 -28 33 -33 34 -107 39 -95
5 -279 -12 -299 -28 -7 -7 -20 -10 -28 -7 -7 3 -17 2 -22 -3 -5 -4 -26 -13
-46 -20 -27 -8 -38 -17 -38 -31 0 -16 -7 -19 -42 -19 -85 0 -92 37 -12 58 27
8 58 18 69 23 11 5 36 11 55 14 19 2 71 11 115 19 84 16 208 32 262 35 18 0
49 -8 70 -20z m-157 -51 c0 -9 3 -9 12 0 18 18 99 14 133 -7 22 -13 45 -47 81
-122 28 -57 57 -120 64 -139 7 -19 19 -42 25 -50 7 -8 19 -33 26 -55 7 -22 19
-47 26 -56 30 -36 49 -122 41 -184 -4 -33 -7 -98 -6 -145 l2 -85 -45 1 c-90 3
-210 81 -266 173 -64 104 -114 230 -156 387 -44 165 -60 181 -183 194 -49 5
-92 10 -96 10 -5 0 -8 6 -8 13 0 14 101 41 200 53 30 3 62 10 70 15 23 13 80
11 80 -3z m3543 -33 c32 -8 89 -15 127 -15 l70 0 0 -35 c0 -19 -4 -35 -9 -35
-5 0 -10 -99 -13 -219 -2 -139 -8 -224 -15 -232 -6 -8 -19 -49 -28 -91 -9 -43
-21 -78 -25 -78 -15 0 -15 -45 0 -57 13 -10 12 -14 -4 -32 -15 -16 -31 -21
-71 -21 -28 0 -56 5 -62 11 -8 8 -38 7 -107 -1 -110 -13 -382 -16 -473 -6 -56
7 -62 6 -68 -13 -9 -30 -61 -29 -70 0 -4 13 -2 25 4 29 9 5 8 24 -4 76 -9 38
-21 77 -26 86 -12 24 -12 255 1 263 6 3 10 18 10 33 0 15 7 56 16 92 8 36 16
97 17 135 l2 70 56 0 c31 1 63 6 70 12 19 15 90 33 169 43 97 13 365 4 433
-15z m-4020 -49 c4 -10 35 -16 114 -20 146 -9 243 -37 243 -72 0 -7 5 -25 11
-41 7 -15 24 -73 40 -128 65 -238 140 -371 253 -454 99 -72 98 -72 506 -76
201 -2 379 -6 395 -10 66 -16 68 -25 85 -250 6 -77 14 -160 20 -185 5 -25 19
-162 31 -304 21 -251 21 -260 3 -273 -14 -10 -132 -13 -616 -13 l-598 0 -45
41 c-25 23 -45 50 -45 60 0 11 -4 27 -9 37 -6 9 -20 60 -32 112 -12 52 -28
109 -34 125 -7 17 -20 69 -30 118 -10 48 -22 87 -27 87 -5 0 -7 4 -3 10 3 5 1
17 -4 27 -6 10 -20 54 -30 98 -42 169 -72 281 -80 300 -5 11 -20 65 -32 120
-12 55 -26 107 -31 115 -4 8 -16 49 -26 90 -48 191 -76 298 -89 328 -21 49
-28 138 -13 157 16 19 36 19 43 1z m5006 -72 c37 -19 65 -54 94 -118 24 -53
26 -61 13 -74 -11 -11 -19 -12 -28 -5 -7 6 -29 13 -48 17 -55 10 -130 66 -130
96 0 38 20 103 38 123 14 16 16 16 26 -5 6 -13 22 -28 35 -34z m650 -99 c6
-11 18 -47 27 -80 9 -33 20 -64 25 -70 5 -5 9 -16 9 -25 0 -25 -68 -90 -116
-111 -43 -19 -164 -38 -164 -25 0 4 16 41 35 82 19 41 35 77 35 81 0 4 8 25
18 47 45 99 52 118 52 134 0 9 6 29 14 43 7 14 16 39 21 55 7 26 9 22 21 -41
7 -38 18 -79 23 -90z m-2729 110 c74 -11 120 -27 120 -43 0 -13 -13 -14 -82
-9 -46 4 -95 7 -110 7 -25 0 -28 4 -28 31 0 28 2 30 28 25 15 -3 47 -8 72 -11z
m-902 -180 c14 -22 35 -50 45 -62 17 -19 19 -32 13 -92 -7 -80 8 -107 17 -30
7 54 20 79 43 79 12 0 45 15 138 62 23 12 32 0 41 -60 4 -25 11 -55 17 -68 8
-18 8 -27 -3 -40 -8 -9 -18 -28 -24 -41 -14 -34 -112 -73 -201 -80 -67 -5 -76
-3 -132 27 -63 34 -162 118 -162 139 0 6 10 16 23 22 21 9 55 53 84 108 7 13
13 37 12 55 0 31 0 31 -11 6 -20 -49 -53 -110 -59 -110 -10 0 7 79 46 208 l19
64 34 -74 c18 -40 45 -91 60 -113z m935 109 c54 -9 49 -34 -7 -34 -76 0 -136
12 -136 26 0 15 74 19 143 8z m-1243 -38 c0 -44 -13 -53 -40 -26 -33 33 -25
60 17 60 20 0 23 -5 23 -34z m1513 -18 c-6 -35 -11 -44 -17 -37 -7 8 6 69 15
69 5 0 6 -15 2 -32z m-779 -36 c4 -28 22 -75 46 -116 22 -37 40 -77 40 -87 0
-23 -37 -33 -118 -30 -44 1 -68 43 -77 131 -10 97 -1 128 38 139 59 17 64 15
71 -37z m-750 -39 c-8 -46 -24 -67 -24 -32 0 13 -4 31 -9 39 -12 18 -5 30 20
30 18 0 19 -5 13 -37z m1096 23 c19 -7 35 -17 35 -23 0 -6 -35 -49 -78 -96
-43 -47 -84 -92 -90 -100 -8 -10 -25 -13 -54 -10 -45 5 -52 13 -30 32 12 9 12
22 1 78 l-13 68 32 25 c28 22 76 35 142 38 11 0 36 -5 55 -12z m300 -52 c0 -3
-13 -24 -28 -47 -16 -23 -47 -69 -68 -102 l-40 -60 -127 -3 c-164 -3 -170 -22
-8 -22 l120 0 3 -122 c2 -68 2 -385 0 -705 l-3 -583 -144 0 -145 0 0 585 0
585 23 11 c40 18 72 77 71 131 -1 51 -21 83 -61 99 -13 5 -23 12 -23 16 0 10
155 194 177 211 17 12 253 18 253 6z m2184 -24 c38 -34 69 -92 63 -118 -3 -15
-5 -14 -11 3 -18 47 -29 61 -64 85 -20 14 -40 27 -44 28 -14 6 -8 -16 8 -33
21 -20 33 -100 14 -93 -7 2 -20 24 -29 48 -11 30 -23 46 -36 48 -12 2 -16 0
-10 -5 15 -11 35 -60 35 -83 0 -31 -18 -23 -34 15 -8 19 -18 35 -21 35 -3 0
-3 -16 1 -35 3 -20 2 -35 -3 -35 -14 0 -39 31 -47 56 -4 12 -16 24 -26 27 -26
7 -25 28 3 59 20 22 32 25 95 26 66 1 74 -1 106 -28z m1067 13 c16 -10 29 -21
29 -27 0 -5 29 -41 63 -80 35 -39 70 -83 78 -98 12 -22 14 -143 11 -727 l-2
-701 -130 0 -129 0 -5 33 c-23 143 -30 236 -31 387 l0 175 28 3 c24 3 27 8 28
40 3 72 -3 108 -31 162 l-28 55 3 270 c1 149 3 273 4 278 0 4 55 7 121 7 73 0
120 4 120 10 0 9 -157 16 -226 11 -16 -2 -32 14 -63 58 -22 34 -41 64 -41 69
0 4 -11 23 -25 42 -14 19 -25 38 -25 42 0 4 50 8 111 8 87 0 117 -4 140 -17z
m-3239 -205 c-4 -182 -5 -193 -27 -222 -13 -17 -33 -51 -44 -76 -12 -25 -30
-56 -41 -70 l-20 -25 0 196 0 196 28 36 c15 20 44 64 66 97 21 33 39 60 40 60
0 0 -1 -86 -2 -192z m3036 94 l62 -96 0 -196 -1 -195 -33 60 c-19 33 -40 67
-47 76 -44 50 -49 74 -49 221 1 79 -2 162 -6 186 -3 23 -3 42 2 42 5 -1 37
-44 72 -98z m-853 18 c3 -5 1 -10 -4 -10 -6 0 -11 5 -11 10 0 6 2 10 4 10 3 0
8 -4 11 -10z m16 -46 c12 -14 11 -16 -5 -13 -11 2 -21 10 -24 17 -5 17 13 15
29 -4z m-3472 -30 c18 -9 35 -22 38 -30 2 -7 29 -27 59 -44 30 -16 54 -32 54
-35 0 -3 -52 -5 -115 -5 -109 0 -115 1 -115 20 0 17 38 110 45 110 1 0 16 -7
34 -16z m734 -14 l49 0 -4 -90 c-3 -50 -9 -95 -14 -100 -13 -13 -128 -30 -201
-30 l-63 0 0 116 0 117 92 -7 c50 -3 113 -6 141 -6z m137 -79 c46 -43 37 -103
-24 -160 -39 -37 -45 -3 -6 38 18 20 30 44 30 60 0 30 -32 71 -55 71 -8 0 -15
5 -15 10 0 20 41 9 70 -19z m-447 -16 c-5 -16 -25 -20 -36 -8 -8 7 25 33 35
27 4 -3 5 -11 1 -19z m57 -16 c0 -4 -13 -30 -29 -58 l-30 -50 31 -10 c44 -16
163 -14 255 4 43 8 79 15 81 15 1 0 2 -7 2 -15 0 -25 -43 -44 -123 -57 -42 -7
-77 -16 -77 -20 0 -16 22 -17 76 -3 66 17 104 19 104 6 0 -19 -53 -41 -115
-49 -36 -4 -67 -11 -68 -17 -3 -14 58 -18 82 -6 13 8 22 8 26 1 7 -12 -53 -40
-84 -40 -30 0 -36 -19 -9 -29 21 -8 21 -10 5 -16 -30 -13 -199 1 -247 19 -25
10 -58 20 -74 23 -27 5 -28 7 -22 51 3 25 6 64 6 88 0 36 3 44 19 44 11 0 23
11 30 28 8 18 26 33 58 46 27 11 52 30 62 47 12 21 19 25 28 17 7 -6 13 -14
13 -19z m368 -31 c-4 -41 -28 -50 -28 -10 0 16 3 32 7 35 15 16 24 5 21 -25z
m-498 13 c0 -11 -69 -81 -80 -81 -5 0 -11 8 -15 19 -4 15 -19 19 -78 24 -41 4
-76 2 -81 -3 -6 -6 -20 -10 -33 -10 -28 0 -103 28 -123 46 -12 12 19 14 198
14 119 0 212 -4 212 -9z m-112 -77 c31 -10 -4 -223 -47 -283 -24 -33 -41 -37
-113 -25 -46 8 -47 18 -10 98 31 66 58 176 49 200 -3 8 -3 16 0 19 5 6 97 -1
121 -9z m1162 -41 c0 -18 4 -33 9 -33 5 0 11 -10 13 -22 3 -21 7 -23 63 -20
33 2 65 8 72 14 8 6 30 7 60 1 72 -12 305 -8 358 7 46 13 221 8 261 -7 15 -6
15 -7 1 -18 -9 -6 -21 -24 -26 -38 l-11 -27 -422 0 c-233 0 -428 -4 -434 -8
-6 -4 -28 -41 -48 -82 -21 -41 -48 -91 -59 -110 -12 -19 -29 -48 -37 -65 -9
-17 -24 -31 -37 -33 -23 -3 -23 -1 -23 98 0 97 1 104 41 188 23 48 51 101 63
117 12 17 25 38 29 47 6 18 32 25 90 24 35 0 37 -2 37 -33z m1256 2 c-4 -16
-10 -31 -15 -35 -4 -3 -16 -29 -25 -57 -10 -29 -19 -53 -21 -53 -2 0 -10 -3
-19 -6 -14 -5 -16 4 -16 58 0 49 -4 69 -17 81 -25 21 -97 30 -165 19 -43 -7
-58 -6 -58 3 0 6 3 15 7 18 3 4 80 6 170 4 l164 -2 -5 -30z m1582 13 c6 -6 12
-16 12 -22 0 -6 14 -29 30 -50 17 -22 30 -44 30 -50 0 -6 14 -38 30 -71 31
-62 37 -85 21 -85 -9 0 -43 49 -66 95 -10 19 -22 20 -178 23 l-167 2 35 66
c19 36 35 74 35 83 0 10 2 20 5 22 8 9 200 -3 213 -13z m-1734 -34 c34 -13 2
-24 -69 -24 -68 0 -94 8 -78 24 8 8 126 8 147 0z m-1707 -512 c2 -302 -1 -462
-7 -452 -5 8 -10 30 -10 48 0 18 -4 40 -9 50 -6 9 -20 100 -32 202 -12 102
-25 187 -29 190 -4 3 -10 28 -14 55 -10 75 -34 140 -61 170 -31 33 -31 38 0
55 14 7 25 19 25 25 0 7 14 18 30 25 17 7 33 22 36 34 3 11 20 31 37 43 18 11
32 22 32 22 0 1 1 -209 2 -467z m1741 382 c3 -80 -9 -124 -38 -131 -11 -3 -20
-9 -20 -13 0 -4 -26 -7 -57 -8 -44 0 -64 4 -83 20 -22 18 -25 28 -26 97 -2
117 -10 110 114 108 l107 -2 3 -71z m-248 36 c0 -27 -3 -30 -30 -30 -34 0 -34
-1 -20 34 14 38 50 35 50 -4z m-2407 -65 c15 -8 43 -17 62 -21 31 -6 35 -10
35 -39 0 -24 7 -37 27 -50 18 -12 28 -14 31 -7 5 16 24 15 58 -3 16 -8 34 -15
41 -15 20 0 80 59 87 85 12 47 91 43 208 -12 68 -31 90 -70 90 -160 1 -55 -31
-182 -52 -208 -4 -5 -13 -28 -20 -50 -13 -43 -57 -142 -94 -215 -13 -25 -27
-56 -31 -70 -4 -14 -15 -43 -25 -65 -9 -22 -26 -74 -36 -115 -10 -41 -21 -77
-25 -80 -10 -8 -29 -130 -29 -184 0 -41 -3 -48 -25 -56 -14 -5 -46 -11 -70
-13 -24 -1 -47 -6 -51 -10 -10 -9 -144 -9 -144 1 0 4 -14 8 -31 9 -18 1 -34 5
-37 7 -6 7 27 223 38 245 4 9 19 57 33 106 31 111 73 233 85 249 5 6 17 36 27
66 26 83 48 112 126 170 84 62 153 130 134 130 -12 0 -36 -18 -135 -103 -8 -8
-37 -26 -63 -41 -48 -28 -80 -31 -192 -23 -36 2 -37 7 -59 242 -8 83 -17 171
-20 198 -7 53 4 60 57 32z m2327 1 c0 -7 11 -21 24 -29 34 -23 57 -47 51 -56
-2 -5 7 -18 20 -31 44 -42 217 -39 247 4 4 6 8 37 8 69 l0 57 834 0 c503 0
845 -4 860 -10 17 -6 36 -32 61 -82 20 -40 40 -77 45 -83 4 -5 11 -21 15 -35
4 -13 17 -37 28 -52 11 -15 19 -29 16 -30 -2 -2 -727 -2 -1611 0 l-1607 2 17
32 c9 18 20 37 25 42 4 6 19 34 34 61 32 63 67 126 76 142 6 9 114 12 432 13
357 0 425 -2 425 -14z m76 3 c3 -6 2 -15 -3 -20 -13 -13 -43 -1 -43 17 0 16
36 19 46 3z m-1714 -79 c38 -16 48 -28 70 -77 15 -33 33 -105 43 -168 9 -60
21 -119 25 -130 5 -11 16 -87 25 -170 10 -82 23 -156 29 -164 6 -8 9 -16 8
-18 -2 -2 2 -36 8 -76 6 -39 13 -83 15 -97 2 -14 6 -43 10 -65 9 -61 -7 -74
-190 -142 -22 -8 -65 -17 -96 -20 l-56 -5 -11 68 c-6 38 -14 119 -17 179 -4
61 -9 117 -13 125 -10 27 -10 135 1 148 7 9 7 16 -1 24 -13 13 -16 58 -4 58 4
0 15 21 26 48 10 26 26 65 36 87 10 22 26 67 36 100 10 33 22 62 25 65 8 6 13
67 11 121 -1 20 -13 53 -27 73 -42 61 -30 70 47 36z m593 -327 c5 -20 12 -23
55 -23 45 0 50 -2 50 -22 0 -19 -14 -114 -47 -320 -5 -32 -9 -37 -39 -40 -19
-2 -37 -2 -39 1 -8 8 -6 507 3 515 4 4 8 -14 10 -41 1 -26 5 -58 7 -70z m3265
47 l0 -40 -1620 0 -1620 0 0 40 0 40 1620 0 1620 0 0 -40z m-2990 -83 c0 -25
-22 -132 -32 -157 -23 -57 -35 -75 -51 -78 -15 -3 -17 2 -11 40 4 24 11 53 15
66 13 35 11 74 -3 70 -8 -3 -20 -50 -30 -119 -9 -63 -22 -139 -28 -169 -6 -30
-19 -111 -30 -179 -11 -68 -29 -174 -40 -235 -21 -116 -54 -307 -72 -413 -6
-37 -15 -63 -22 -63 -9 0 -10 16 -4 63 32 248 40 304 43 322 4 19 25 172 90
650 14 105 28 196 30 203 6 18 145 17 145 -1z m46 -9 c-3 -13 -6 -31 -6 -40 0
-10 -6 -18 -14 -18 -12 0 -13 28 -1 68 8 23 28 13 21 -10z m942 -8 c-3 -34 1
-36 43 -14 17 8 33 13 36 11 7 -8 -27 -118 -55 -176 -14 -30 -52 -81 -83 -113
l-57 -58 -432 0 -432 0 7 53 c3 28 10 61 15 72 4 11 13 56 19 100 10 71 15 84
48 117 l37 38 429 0 429 0 -4 -30z m768 -165 c-8 -201 -19 -272 -47 -301 -24
-25 -44 -31 -54 -14 -3 5 -12 47 -20 92 -8 46 -19 92 -24 103 -4 11 -19 58
-31 105 -13 47 -27 87 -31 90 -4 3 -9 14 -11 24 -2 16 5 22 42 29 25 5 47 12
50 16 3 4 30 16 60 28 l55 20 9 -21 c4 -11 5 -88 2 -171z m889 153 c32 -36 39
-52 46 -108 11 -81 25 -166 34 -202 l7 -28 -481 0 -481 0 4 188 c3 103 5 188
5 190 1 1 187 2 414 2 l414 0 38 -42z m55 33 c0 -12 -29 -23 -42 -15 -6 4 -5
10 3 15 18 11 39 11 39 0z m186 -40 c4 -25 8 -53 10 -61 16 -95 36 -281 31
-287 -5 -4 -16 -3 -25 3 -13 8 -22 46 -38 150 -21 145 -29 174 -46 174 -10 0
-5 -76 9 -155 l5 -30 -27 26 c-20 20 -30 44 -41 100 -7 41 -15 86 -18 101 l-5
27 68 -1 69 -1 8 -46z m43 7 l-2 -43 -6 35 c-7 33 -5 50 5 50 2 0 3 -19 3 -42z
m-1659 27 c0 -12 -66 -111 -96 -143 -29 -31 -39 -37 -74 -36 -22 1 -43 4 -46
7 -8 7 17 97 38 140 l18 37 80 0 c44 0 80 -2 80 -5z m118 -37 c24 -10 61 -18
82 -18 31 0 40 -4 46 -22 3 -13 14 -41 24 -63 10 -22 22 -58 28 -80 21 -73 32
-120 32 -132 0 -10 -48 -13 -209 -13 l-208 0 5 28 c2 15 9 33 14 39 14 18 13
114 -2 123 -8 5 -2 21 22 56 18 27 38 54 45 61 6 7 15 22 18 33 7 23 28 20
103 -12z m-2928 -33 c-7 -8 -16 -15 -21 -15 -5 0 -9 7 -9 15 0 9 9 15 21 15
18 0 19 -2 9 -15z m142 -17 c-4 -22 -31 -78 -43 -88 -3 -3 -9 -23 -13 -45 -8
-42 -64 -170 -71 -163 -3 2 -7 33 -11 69 -3 35 -10 68 -15 74 -5 5 -9 31 -9
58 0 39 6 56 30 85 28 35 33 37 82 36 49 -2 53 -4 50 -26z m1415 -58 c-4 -34
-9 -65 -12 -71 -4 -5 -8 -35 -10 -67 -3 -31 -9 -79 -15 -107 -12 -57 -59 -344
-60 -362 0 -10 -30 -20 -30 -10 0 1 5 41 11 87 6 47 13 96 15 110 1 14 11 93
20 177 14 126 20 152 34 156 13 3 20 19 25 58 8 63 14 89 22 89 3 0 3 -27 0
-60z m2728 -15 c4 -27 11 -54 15 -60 14 -20 22 -63 50 -295 16 -129 30 -243
32 -252 2 -9 -1 -18 -7 -20 -6 -2 -20 58 -32 137 -12 77 -31 192 -43 255 -11
63 -19 126 -19 140 1 14 0 32 -3 40 -21 60 -30 101 -24 116 10 27 23 2 31 -61z
m91 -120 c9 -8 18 -31 21 -50 5 -33 4 -35 -21 -35 -25 0 -26 3 -26 50 0 54 3
58 26 35z m-2918 -37 c-2 -31 -8 -44 -20 -46 -15 -3 -17 2 -12 30 9 49 12 58
24 58 7 0 10 -17 8 -42z m-198 -119 c-13 -45 -20 -48 -20 -7 0 36 7 51 21 43
4 -3 3 -19 -1 -36z m35 -111 c-9 -79 -22 -156 -28 -172 l-12 -28 -125 5 c-96
4 -136 10 -172 26 -51 22 -57 31 -33 51 8 7 15 23 15 36 l0 24 147 -2 146 -3
35 108 c19 59 37 105 40 103 2 -3 -3 -69 -13 -148z m1210 127 c-11 -8 -26 -20
-33 -26 -16 -14 -97 -39 -124 -39 -31 0 -12 17 27 24 19 4 35 11 35 16 0 4 13
11 30 15 16 4 32 11 35 16 4 5 16 9 28 9 22 -1 22 -1 2 -15z m1977 -21 c4 -36
-1 -48 -17 -36 -12 9 -18 40 -11 58 10 25 24 15 28 -22z m-5720 -55 c18 -10
20 -17 14 -61 -4 -27 -11 -57 -16 -66 -8 -14 -21 -72 -54 -232 -2 -8 -6 -22
-9 -30 -4 -8 -13 -55 -22 -105 -9 -49 -19 -97 -22 -105 -9 -23 -11 -31 -24
-82 -9 -41 -14 -48 -35 -48 -29 0 -32 26 -10 92 8 24 24 93 36 153 11 61 24
117 27 125 6 14 48 190 75 318 13 58 11 56 40 41z m1204 -89 c-8 -51 -17 -95
-20 -98 -3 -3 -6 34 -6 83 0 72 3 90 17 101 10 7 19 11 21 9 2 -1 -4 -44 -12
-95z m-826 65 c0 -19 -20 -116 -28 -135 -3 -8 -13 -49 -22 -90 -14 -70 -17
-75 -43 -78 -15 -2 -27 0 -27 5 0 23 34 179 40 183 4 3 10 27 14 54 4 27 10
55 13 62 7 19 53 18 53 -1z m770 -345 l0 -360 -25 0 -25 0 0 360 0 360 25 0
25 0 0 -360z m4586 292 c6 -4 21 -83 33 -177 12 -93 24 -179 26 -190 10 -53
35 -251 35 -272 0 -34 -17 -20 -23 19 -53 327 -68 416 -73 431 -10 33 -31 187
-26 192 7 7 15 6 28 -3z m-3596 -142 c0 -13 -59 -42 -70 -35 -18 11 -10 26 22
40 33 13 48 12 48 -5z m35 -55 c-35 -29 -48 -31 -65 -10 -10 12 -8 16 11 24
13 5 38 10 54 10 l30 0 -30 -24z m95 8 c-1 -20 -41 -53 -64 -53 -36 0 -33 24
7 44 35 17 57 20 57 9z m58 -15 c-6 -18 -57 -53 -65 -44 -5 4 6 19 22 32 33
26 49 31 43 12z m170 -5 c-2 -10 -21 -22 -48 -30 -25 -7 -67 -20 -93 -29 -27
-8 -52 -12 -55 -9 -4 4 13 25 37 46 40 36 48 39 103 39 50 0 59 -3 56 -17z
m180 -70 c-5 -31 -11 -59 -13 -62 -7 -6 -6 80 1 106 12 45 21 12 12 -44z
m1552 17 c-19 -16 -43 -30 -53 -30 -24 0 -13 17 27 41 48 30 66 23 26 -11z
m1404 -2 c3 -13 6 -36 6 -53 l0 -30 -15 29 c-16 31 -20 76 -6 76 5 0 11 -10
15 -22z m-3144 -13 c0 -22 -6 -26 -60 -37 -33 -6 -60 -15 -60 -19 0 -3 -66
-17 -147 -30 -82 -13 -150 -26 -153 -30 -4 -5 -151 -23 -170 -20 -12 1 -10 41
1 41 38 0 267 32 284 40 11 5 67 19 124 31 57 12 115 28 130 35 38 20 51 17
51 -11z m-1287 -68 c-12 -114 -21 -126 -22 -30 -1 77 1 91 13 87 11 -4 14 -18
9 -57z m287 38 c0 -8 -9 -15 -20 -15 -11 0 -23 0 -27 -1 -5 0 -9 7 -11 15 -3
12 5 16 27 16 21 0 31 -5 31 -15z m37 -51 c5 -16 -47 -28 -61 -14 -8 8 -7 13
4 20 19 13 52 9 57 -6z m37 -39 c6 -18 -26 -37 -48 -29 -22 8 -20 17 7 30 31
16 34 16 41 -1z m56 -35 c0 -10 -32 -30 -49 -30 -15 0 -14 27 2 33 21 9 47 7
47 -3z m155 -20 c3 -5 17 -10 31 -10 27 0 34 -20 7 -21 -23 0 -146 -16 -195
-25 -25 -4 -38 -2 -38 5 0 6 17 22 38 35 28 19 51 25 94 25 31 1 60 -3 63 -9z
m75 -64 c0 -18 -28 -25 -128 -33 -45 -3 -85 -10 -88 -15 -8 -12 -324 -10 -324
2 0 6 -23 10 -51 10 -47 0 -50 2 -47 23 2 14 9 20 18 18 105 -29 452 -25 570
7 39 10 50 7 50 -12z"/>
<path d="M3900 6150 c0 -5 18 -10 41 -10 24 0 38 4 34 10 -3 6 -22 10 -41 10
-19 0 -34 -4 -34 -10z"/>
<path d="M3997 5900 c3 -11 12 -20 20 -20 10 0 13 6 9 16 -3 9 -6 18 -6 20 0
2 -6 4 -14 4 -9 0 -12 -7 -9 -20z"/>
<path d="M4090 5823 c0 -16 -11 -39 -27 -55 -36 -38 -23 -46 16 -9 22 20 31
38 31 60 0 17 -4 31 -10 31 -5 0 -10 -12 -10 -27z"/>
<path d="M5345 5060 c9 -17 42 -50 75 -73 32 -23 64 -52 69 -65 8 -17 16 -22
31 -17 17 6 20 2 20 -30 0 -22 4 -34 10 -30 26 16 -4 137 -35 144 -13 2 -16
-1 -12 -13 8 -20 -7 -21 -23 -1 -7 8 -17 15 -22 15 -12 0 -33 17 -77 63 -44
45 -57 47 -36 7z"/>
<path d="M5467 4650 c-20 -28 -37 -41 -62 -46 -20 -3 -35 -12 -35 -20 0 -47
137 50 140 99 0 17 -17 4 -43 -33z"/>
<path d="M3815 4546 c-38 -6 -74 -14 -80 -17 -5 -4 -32 -14 -60 -23 -55 -18
-122 -65 -93 -66 9 0 23 7 32 15 26 26 177 70 326 94 l55 9 -55 0 c-30 -1 -86
-6 -125 -12z"/>
<path d="M1726 4057 c-12 -31 -16 -76 -16 -164 0 -120 4 -153 20 -153 5 0 6
45 3 100 -4 59 -1 130 6 175 7 42 11 79 8 81 -2 2 -12 -15 -21 -39z"/>
<path d="M1400 3967 c0 -22 69 -151 100 -187 39 -45 38 -31 -4 39 -19 31 -46
80 -60 109 -26 52 -36 63 -36 39z"/>
<path d="M5093 4427 c6 -36 35 -86 50 -87 13 0 7 25 -13 50 -11 14 -20 33 -20
42 0 9 -5 20 -12 24 -8 5 -9 -3 -5 -29z"/>
<path d="M5775 4270 c-4 -22 -11 -42 -16 -46 -5 -3 -9 -15 -9 -27 0 -22 -35
-107 -48 -117 -14 -10 -32 -50 -23 -50 14 0 47 50 67 101 9 24 21 49 26 56 10
13 24 123 15 123 -3 0 -8 -18 -12 -40z"/>
<path d="M5415 4221 c-22 -37 86 -144 116 -114 9 9 2 16 -31 29 -33 13 -46 26
-60 57 -10 22 -21 34 -25 28z"/>
<path d="M3785 4190 c-27 -4 -66 -13 -85 -19 -19 -7 -41 -15 -49 -17 -8 -3
-11 -7 -8 -10 3 -3 29 -1 59 5 29 6 64 12 78 14 14 2 33 7 42 11 17 8 158 3
193 -6 11 -3 52 -8 90 -12 l70 -5 -35 15 c-65 30 -234 41 -355 24z"/>
<path d="M4311 3935 c0 -72 -5 -135 -9 -140 -11 -13 -36 -174 -29 -182 3 -3 9
8 13 23 4 16 10 34 15 39 22 29 36 292 19 360 -5 19 -8 -19 -9 -100z"/>
<path d="M520 4066 c0 -24 20 -119 30 -141 5 -11 16 -44 24 -72 14 -49 93
-222 107 -233 3 -3 14 -20 23 -37 9 -18 20 -33 24 -33 4 0 16 -14 26 -31 23
-39 86 -98 134 -125 20 -11 48 -26 62 -34 14 -8 27 -15 30 -15 3 -1 23 -7 45
-13 27 -8 142 -12 352 -12 l311 0 11 -31 c6 -18 11 -44 11 -58 0 -15 4 -31 9
-36 4 -6 14 -50 20 -100 7 -49 19 -130 27 -180 41 -249 63 -392 63 -407 1 -10
8 -18 16 -18 16 0 22 55 6 64 -4 3 -11 27 -14 53 -25 199 -38 293 -46 323 -5
19 -14 67 -20 105 -5 39 -15 108 -22 155 -14 101 -34 141 -74 152 -17 4 -165
8 -330 8 -335 2 -376 8 -458 73 -83 65 -166 160 -192 218 -9 19 -24 48 -34 65
-10 16 -22 41 -26 55 -4 13 -11 26 -14 29 -4 3 -17 39 -29 80 -12 41 -29 96
-37 121 -8 26 -15 54 -15 62 0 9 -4 19 -10 22 -5 3 -10 -1 -10 -9z"/>
<path d="M2246 3418 c-3 -7 -7 -35 -10 -63 -2 -27 -8 -60 -11 -72 -13 -40 9
-24 28 20 19 46 23 112 7 122 -6 3 -12 0 -14 -7z"/>
<path d="M2457 3035 c-10 -24 -27 -51 -38 -61 -10 -9 -19 -21 -19 -27 0 -14
-83 -97 -97 -97 -7 0 -13 -4 -13 -10 0 -40 132 77 164 145 9 19 21 37 26 40
12 7 13 42 2 49 -4 2 -15 -15 -25 -39z"/>
<path d="M2072 2403 c-8 -14 -9 -24 -2 -28 5 -3 10 -21 10 -38 0 -51 40 -166
67 -194 23 -26 21 -12 -8 52 -19 39 -36 98 -43 148 -11 72 -13 79 -24 60z"/>
<path d="M2550 2298 c0 -19 54 -61 99 -76 39 -14 145 -16 137 -4 -3 5 -26 10
-52 10 -52 2 -127 32 -161 64 -18 17 -23 18 -23 6z"/>
<path d="M3672 5601 c-60 -93 -69 -192 -27 -298 9 -22 15 -44 14 -49 -4 -21 2
-35 11 -29 16 10 11 67 -10 114 -32 69 -27 138 15 223 43 87 42 106 -3 39z"/>
<path d="M3535 5506 c-43 -74 -45 -136 -5 -210 28 -51 31 -64 25 -107 -4 -27
-11 -51 -16 -55 -5 -3 -9 -15 -9 -28 0 -22 21 -76 30 -76 3 0 6 33 8 73 2 39
4 92 5 117 1 32 -6 60 -26 97 -34 66 -34 102 -1 163 35 65 25 88 -11 26z"/>
</g>
</svg>
