<?xml version="1.0" encoding="UTF-8" standalone="no"?>
<!DOCTYPE svg PUBLIC "-//W3C//DTD SVG 1.1//EN" "http://www.w3.org/Graphics/SVG/1.1/DTD/svg11.dtd">
<svg xmlns="http://www.w3.org/2000/svg" version="1.1" viewBox="0.00 0.00 1249.00 1677.00">
<path fill="#000000" d="
  M 429.54 225.46
  C 442.58 238.18 451.47 254.71 453.80 272.85
  C 454.12 275.36 454.76 277.99 454.75 280.42
  Q 454.63 313.01 434.84 338.83
  C 430.95 343.90 424.97 348.14 419.74 352.21
  Q 419.30 352.55 419.59 353.02
  Q 420.74 354.88 421.96 356.53
  C 430.38 367.89 438.80 377.66 449.81 387.83
  Q 473.91 410.10 496.95 433.47
  C 507.49 444.16 520.22 451.69 532.21 460.50
  C 562.54 482.80 588.26 498.62 616.47 517.36
  A 0.98 0.98 0.0 0 0 617.75 517.20
  L 632.01 501.28
  Q 632.39 500.86 632.06 500.39
  C 628.89 495.75 625.95 490.79 622.66 486.46
  Q 594.89 449.93 583.03 432.71
  Q 581.46 430.42 583.58 427.34
  C 585.31 424.83 588.02 424.00 591.20 424.00
  Q 702.44 424.00 813.39 424.00
  A 0.68 0.68 0.0 0 0 814.07 423.32
  L 813.98 378.24
  A 0.98 0.98 0.0 0 0 813.00 377.26
  Q 755.08 377.24 696.99 377.25
  C 692.09 377.25 683.44 378.61 678.02 377.21
  C 665.43 373.95 658.87 361.37 658.68 349.15
  C 658.19 316.97 658.43 291.39 658.63 263.58
  Q 658.99 211.79 658.52 160.00
  C 658.44 150.97 658.65 143.79 663.20 136.48
  Q 669.80 125.87 681.00 122.34
  Q 685.35 120.98 693.63 120.98
  Q 753.46 121.02 813.50 120.99
  Q 814.04 120.99 814.05 120.46
  Q 814.28 107.37 814.15 94.00
  C 814.07 84.94 816.34 79.30 825.50 76.56
  C 833.06 74.29 845.75 74.83 852.31 79.37
  C 855.44 81.54 856.68 85.24 856.70 88.81
  Q 856.79 104.62 856.74 120.14
  A 0.72 0.71 0.4 0 0 857.46 120.86
  Q 912.76 120.77 967.97 120.98
  Q 968.07 120.98 973.03 120.84
  C 985.60 120.48 1000.28 126.52 1004.45 139.28
  Q 1006.31 144.98 1006.32 150.06
  Q 1006.50 241.65 1006.50 333.25
  Q 1006.50 347.65 1005.02 353.12
  Q 1001.98 364.35 992.92 371.68
  C 985.42 377.76 977.67 377.26 968.25 377.26
  Q 913.51 377.24 858.49 377.25
  A 1.74 1.74 0.0 0 0 856.75 378.99
  L 856.75 423.00
  A 1.00 1.00 0.0 0 0 857.75 424.00
  Q 975.77 424.00 1093.97 424.00
  C 1099.11 424.00 1102.42 425.30 1103.73 430.37
  A 1.07 1.04 55.7 0 1 1103.58 431.23
  Q 1102.80 432.37 1102.14 433.46
  Q 1083.73 463.88 1063.05 492.81
  Q 1059.01 498.46 1054.63 503.66
  A 1.84 1.83 -42.3 0 0 1054.52 505.90
  C 1064.29 519.88 1074.03 534.19 1084.70 547.60
  C 1093.84 559.08 1104.35 570.60 1112.27 582.90
  C 1114.45 586.28 1116.20 588.16 1113.91 591.45
  C 1110.06 597.00 1105.82 594.73 1100.45 594.73
  Q 997.20 594.78 894.18 594.73
  A 0.51 0.51 0.0 0 0 893.89 595.66
  C 917.65 611.97 940.61 627.36 964.81 645.44
  Q 972.97 651.54 997.00 667.04
  C 1005.73 672.68 1015.64 677.95 1024.95 683.49
  C 1027.39 684.94 1029.38 686.80 1031.13 688.81
  A 2.15 2.13 -52.5 0 1 1031.43 691.16
  C 1024.18 705.91 1014.82 719.41 1006.18 733.43
  Q 1000.51 742.64 995.49 750.31
  Q 947.81 823.09 901.53 896.77
  Q 898.52 901.55 888.55 915.86
  C 877.63 931.53 867.75 948.00 857.22 963.96
  C 855.90 965.96 856.69 969.25 856.68 970.97
  Q 856.35 1065.86 856.54 1160.75
  C 856.55 1162.85 857.24 1165.73 857.24 1168.18
  Q 857.26 1250.47 857.25 1332.75
  C 857.25 1340.34 861.38 1348.24 863.44 1354.17
  Q 875.39 1388.54 885.78 1429.49
  Q 888.60 1440.61 889.16 1449.92
  C 889.64 1457.87 879.88 1465.49 874.09 1469.42
  A 1.77 1.77 0.0 0 0 873.47 1471.62
  L 880.97 1487.95
  Q 881.19 1488.42 881.68 1488.57
  C 889.81 1491.13 899.43 1491.48 908.00 1492.22
  Q 937.97 1494.84 967.23 1501.80
  Q 981.61 1505.22 994.29 1510.70
  C 999.44 1512.92 1000.36 1516.52 1000.41 1522.11
  Q 1000.54 1537.88 1000.24 1542.24
  C 999.77 1549.06 992.31 1551.12 985.46 1552.82
  C 970.23 1556.59 958.12 1557.13 939.54 1558.40
  Q 927.32 1559.24 915.05 1558.67
  A 1.71 1.66 29.9 0 0 914.11 1558.91
  C 880.91 1579.13 844.80 1589.37 807.72 1597.33
  Q 776.78 1603.98 745.19 1601.93
  Q 722.61 1600.47 692.02 1594.43
  C 682.46 1592.54 669.64 1589.47 664.07 1581.60
  C 659.43 1575.05 660.02 1566.37 663.46 1559.18
  Q 664.00 1558.04 663.05 1556.65
  C 658.81 1550.40 657.42 1541.97 660.08 1535.17
  C 660.63 1533.77 662.39 1532.29 661.43 1530.23
  C 657.84 1522.54 657.17 1514.26 664.21 1508.71
  C 670.14 1504.04 678.54 1503.68 684.68 1508.31
  C 688.21 1510.98 691.13 1516.02 693.31 1518.70
  C 696.77 1522.96 699.19 1526.30 704.04 1529.21
  A 0.62 0.61 16.6 0 0 704.97 1528.71
  C 705.13 1524.90 705.67 1520.76 710.50 1520.53
  Q 721.97 1519.99 733.05 1519.96
  A 0.87 0.87 0.0 0 0 733.87 1518.80
  C 730.12 1508.09 739.31 1504.02 747.32 1501.45
  Q 770.29 1494.08 794.22 1490.80
  Q 796.89 1490.43 799.54 1489.94
  Q 800.11 1489.83 799.64 1489.49
  Q 799.06 1489.07 798.43 1489.11
  C 784.80 1490.00 756.75 1481.73 751.29 1467.25
  C 747.42 1457.00 742.69 1446.54 739.17 1436.77
  Q 726.06 1400.46 711.96 1364.52
  C 705.14 1347.12 697.45 1321.31 688.67 1298.45
  Q 671.84 1254.61 655.53 1210.57
  C 642.89 1176.45 628.26 1142.78 613.39 1109.57
  A 0.88 0.88 0.0 0 1 613.32 1109.07
  Q 613.42 1108.39 613.17 1107.79
  Q 612.81 1106.89 612.56 1107.83
  C 610.24 1116.56 608.81 1126.87 607.23 1134.23
  C 601.54 1160.81 597.73 1187.84 591.12 1214.20
  Q 571.51 1292.37 542.17 1367.41
  C 536.02 1383.16 528.51 1398.92 521.52 1414.54
  Q 516.24 1426.35 501.30 1452.81
  Q 500.00 1455.12 496.88 1459.07
  Q 496.57 1459.46 496.09 1459.56
  C 484.09 1462.11 472.48 1461.76 458.75 1459.96
  C 456.86 1459.71 456.62 1462.29 455.93 1463.48
  Q 447.41 1478.14 438.68 1492.68
  Q 435.68 1497.65 433.76 1503.13
  Q 433.59 1503.61 433.77 1504.09
  C 439.75 1519.10 444.46 1531.19 434.59 1545.05
  A 0.76 0.76 0.0 0 0 435.07 1546.24
  C 449.21 1548.90 444.23 1565.48 439.40 1573.18
  C 436.05 1578.52 420.14 1577.80 414.74 1577.33
  C 376.05 1573.95 337.80 1561.93 302.39 1546.39
  Q 293.05 1542.29 284.59 1537.31
  C 257.30 1521.23 234.69 1502.03 212.82 1478.54
  C 209.38 1474.85 203.80 1467.07 203.18 1462.05
  C 202.07 1453.09 207.35 1445.38 214.91 1440.77
  A 1.15 1.10 80.2 0 0 215.43 1440.00
  C 217.26 1429.85 217.84 1422.44 228.07 1417.27
  A 0.97 0.97 0.0 0 0 228.59 1416.54
  C 229.51 1409.65 232.89 1401.94 239.66 1399.47
  C 246.68 1396.90 255.74 1400.64 259.40 1407.15
  Q 260.91 1409.82 261.33 1415.15
  C 262.07 1424.53 262.26 1430.98 265.45 1437.50
  A 0.99 0.98 -48.7 0 0 267.27 1437.38
  Q 269.56 1430.64 276.56 1434.46
  C 284.27 1438.67 295.36 1446.40 304.51 1451.29
  Q 310.93 1454.72 317.39 1457.80
  A 0.77 0.77 0.0 0 0 318.47 1456.91
  Q 317.00 1451.31 321.45 1449.30
  C 327.71 1446.47 333.95 1458.80 335.71 1463.34
  A 0.92 0.92 0.0 0 0 336.39 1463.92
  Q 343.16 1465.36 349.78 1466.97
  C 355.52 1468.36 359.26 1466.14 362.73 1472.77
  A 1.16 1.14 -8.5 0 0 363.55 1473.37
  C 371.18 1474.67 379.00 1473.64 384.64 1468.55
  Q 387.18 1466.25 389.69 1460.65
  Q 397.03 1444.27 400.72 1435.44
  Q 401.70 1433.11 399.38 1431.57
  C 394.56 1428.35 381.13 1418.68 382.42 1411.24
  C 383.37 1405.74 385.35 1400.99 387.19 1395.79
  C 398.53 1363.65 407.62 1335.94 415.51 1303.75
  C 420.39 1283.84 430.58 1253.14 436.05 1227.34
  Q 445.61 1182.29 455.28 1137.26
  Q 460.79 1111.60 463.74 1090.18
  Q 465.27 1079.06 466.97 1070.45
  Q 471.20 1049.07 471.82 1041.56
  C 473.98 1015.11 479.32 988.95 482.09 962.55
  Q 485.38 931.20 488.68 899.85
  C 489.89 888.30 489.35 876.32 489.90 864.46
  Q 489.92 863.93 489.39 863.99
  C 478.24 865.29 466.46 866.70 455.86 870.37
  C 440.39 875.73 426.32 886.87 415.45 899.43
  C 412.06 903.35 407.49 900.20 407.23 896.00
  C 406.99 892.12 407.86 887.63 407.71 883.66
  Q 407.07 867.54 406.09 851.44
  Q 405.75 845.81 406.29 840.08
  A 0.45 0.45 0.0 0 0 405.56 839.68
  C 402.15 842.42 400.34 845.76 396.30 848.56
  C 394.19 850.03 395.31 852.21 395.10 853.85
  C 393.24 868.37 371.91 878.30 359.40 880.09
  C 350.19 881.40 341.81 875.63 341.98 865.78
  A 1.08 1.08 0.0 0 0 340.79 864.69
  C 333.88 865.42 322.83 862.42 323.46 853.33
  Q 323.78 848.70 324.02 844.06
  Q 324.04 843.57 323.57 843.41
  C 321.86 842.87 320.35 843.38 318.86 842.96
  C 314.34 841.69 308.14 838.80 305.58 834.51
  C 302.92 830.05 305.21 817.49 306.40 812.55
  A 0.73 0.73 0.0 0 0 305.22 811.83
  C 297.73 818.30 291.18 832.79 288.21 838.95
  C 283.19 849.34 277.33 859.44 264.95 860.50
  C 257.39 861.15 252.73 855.12 252.25 847.98
  C 252.11 845.91 254.11 840.79 255.49 838.26
  Q 265.12 820.53 271.23 802.03
  C 273.05 796.52 274.64 790.09 278.59 786.00
  Q 298.40 765.47 323.97 752.70
  C 331.41 748.99 341.79 751.80 349.43 753.36
  Q 350.54 753.59 349.67 752.86
  C 346.32 750.05 335.79 743.25 335.77 738.95
  C 335.75 735.07 335.51 731.14 336.22 727.38
  Q 338.36 716.17 342.28 706.55
  Q 342.85 705.15 342.46 704.24
  Q 337.66 692.74 334.03 680.82
  A 1.55 1.52 -80.7 0 0 333.47 680.03
  C 309.76 663.00 292.62 633.98 297.46 603.20
  C 300.92 581.17 308.61 555.97 323.07 538.82
  C 330.96 529.46 350.36 524.40 362.57 523.90
  C 363.88 523.84 364.23 522.73 364.61 521.68
  Q 372.76 499.16 383.67 477.86
  C 384.42 476.39 384.28 474.96 383.06 473.93
  C 369.26 462.28 360.74 453.49 347.29 439.06
  C 341.04 432.36 335.23 424.98 329.25 417.79
  A 1.74 1.73 59.5 0 0 327.29 417.28
  Q 313.24 422.72 298.09 424.19
  C 271.66 426.76 247.42 414.02 235.60 390.41
  Q 229.74 378.71 226.93 360.88
  A 1.34 1.33 -73.1 0 0 226.51 360.09
  C 222.34 356.18 215.82 351.49 225.29 347.44
  Q 225.75 347.25 225.75 346.75
  L 225.75 338.01
  Q 225.75 337.52 225.31 337.31
  C 214.89 332.39 203.29 326.36 203.46 312.92
  C 203.56 304.84 209.12 297.74 216.98 295.62
  C 228.02 292.64 236.27 302.55 246.22 294.72
  C 254.89 287.89 259.57 275.17 263.53 264.23
  Q 267.16 254.21 272.05 244.73
  C 274.56 239.88 278.08 235.38 281.37 230.89
  A 0.96 0.96 0.0 0 0 281.33 229.71
  C 274.62 221.81 271.56 230.33 265.37 231.77
  Q 264.86 231.89 264.41 231.64
  C 261.72 230.18 261.70 227.37 263.14 224.88
  C 268.60 215.46 280.86 215.34 288.55 222.18
  A 0.62 0.62 0.0 0 0 289.32 222.21
  L 299.79 214.55
  Q 300.20 214.25 300.14 213.74
  C 298.13 197.10 279.08 188.03 264.46 193.96
  C 261.43 195.18 258.28 194.90 258.10 191.09
  C 257.81 184.57 268.47 181.61 273.23 181.73
  Q 291.56 182.19 303.69 195.34
  A 0.74 0.73 16.4 0 0 304.95 194.66
  C 302.73 186.32 299.87 172.32 292.53 167.47
  C 289.86 165.70 287.79 163.53 290.09 160.57
  C 293.17 156.61 301.28 161.29 303.58 163.93
  C 308.04 169.06 310.24 175.98 312.53 183.21
  Q 315.79 193.50 315.40 204.21
  A 0.83 0.83 0.0 0 0 316.64 204.96
  C 332.96 195.42 347.71 196.32 365.66 199.89
  Q 371.14 200.98 378.44 202.07
  C 398.25 205.03 415.03 211.30 429.54 225.46
  Z
  M 845.3997 88.7461
  A 1.78 1.78 0.0 0 0 843.6353 86.9506
  L 827.5959 86.8106
  A 1.78 1.78 0.0 0 0 825.8004 88.5750
  L 825.5403 118.3739
  A 1.78 1.78 0.0 0 0 827.3047 120.1694
  L 843.3441 120.3094
  A 1.78 1.78 0.0 0 0 845.1396 118.5450
  L 845.3997 88.7461
  Z
  M 967.02 131.55
  C 878.41 131.20 789.76 131.30 701.16 131.53
  Q 701.05 131.53 695.37 131.34
  Q 678.38 130.75 670.75 145.58
  C 669.28 148.43 669.24 151.99 669.24 155.00
  Q 669.27 246.13 669.23 337.27
  C 669.23 349.47 668.23 355.21 674.91 363.09
  C 679.23 368.19 685.28 366.50 690.99 366.50
  Q 831.51 366.51 972.04 366.49
  C 976.93 366.49 981.59 365.93 985.20 363.46
  C 995.78 356.25 995.77 344.63 995.76 331.75
  Q 995.73 245.28 995.77 158.81
  C 995.77 151.41 996.30 146.69 992.20 140.02
  C 989.42 135.49 985.59 134.36 979.93 131.85
  C 977.01 130.56 969.92 131.56 967.02 131.55
  Z
  M 344.69 419.45
  Q 350.23 426.19 353.04 428.96
  C 364.13 439.91 373.82 452.15 385.99 462.01
  Q 389.76 465.07 395.91 471.68
  C 397.97 473.90 399.40 476.39 401.07 478.94
  A 0.73 0.72 49.3 0 0 402.22 479.03
  C 413.83 466.03 421.03 450.51 427.99 432.25
  Q 434.27 415.79 436.48 392.74
  C 436.74 390.00 432.38 387.15 430.78 384.80
  C 427.88 380.55 423.82 376.87 421.06 373.13
  Q 415.93 366.17 410.60 359.33
  Q 410.27 358.91 409.82 359.20
  Q 397.83 366.85 385.55 369.07
  C 380.31 370.02 368.98 373.32 366.28 367.21
  C 363.32 360.51 369.60 354.21 372.59 348.54
  A 0.14 0.14 0.0 0 0 372.51 348.34
  Q 372.37 348.29 372.22 348.24
  Q 371.91 348.14 371.73 348.43
  Q 370.54 350.32 368.67 350.91
  C 363.59 352.50 356.93 354.39 353.51 358.34
  C 347.31 365.50 338.70 370.58 331.00 361.75
  Q 328.39 358.76 328.26 354.71
  C 328.12 350.29 331.53 347.92 335.60 349.79
  C 337.31 350.57 338.32 352.25 339.71 353.58
  A 2.10 2.10 0.0 0 0 342.97 353.13
  C 351.40 338.88 356.21 322.32 359.01 306.07
  Q 360.50 297.42 357.28 288.53
  A 1.95 1.94 63.4 0 0 354.39 287.56
  Q 353.50 288.14 352.48 289.68
  Q 347.08 297.80 341.99 306.17
  A 1.51 1.49 -85.4 0 1 341.26 306.80
  C 338.12 308.06 331.79 308.13 331.46 303.51
  C 331.16 299.26 334.76 292.03 336.55 288.01
  C 338.14 284.44 339.54 277.70 338.99 273.75
  C 337.88 265.85 326.30 260.52 333.50 251.93
  A 1.09 1.09 0.0 0 0 333.36 250.39
  C 327.63 245.58 317.12 236.31 329.22 230.65
  Q 329.80 230.38 329.39 229.89
  C 327.13 227.20 316.57 225.00 313.10 224.90
  C 309.53 224.79 303.07 223.64 300.46 226.42
  Q 298.30 228.73 296.24 230.94
  A 1.07 1.03 57.7 0 0 296.02 231.99
  C 297.99 237.85 300.96 243.95 301.44 249.96
  C 301.73 253.58 302.61 261.68 297.62 262.31
  Q 291.91 263.02 291.38 256.93
  Q 290.69 249.00 287.25 242.44
  Q 286.99 241.95 286.57 242.30
  C 281.22 246.75 276.13 261.03 272.94 269.19
  C 271.72 272.31 272.83 273.07 272.99 275.65
  C 273.31 280.55 271.85 286.75 271.01 291.64
  C 269.63 299.65 268.95 306.64 268.25 314.26
  Q 268.03 316.72 265.06 320.31
  Q 264.79 320.64 264.37 320.71
  C 254.45 322.43 256.82 307.08 257.30 301.46
  A 0.71 0.71 0.0 0 0 256.12 300.87
  C 246.55 309.48 236.93 310.52 224.88 306.68
  C 221.71 305.67 219.42 305.65 216.97 307.68
  C 206.43 316.40 226.76 325.87 232.44 328.31
  Q 232.89 328.50 233.61 329.53
  Q 234.07 330.19 234.24 331.06
  Q 236.10 340.90 236.24 350.91
  C 236.31 356.14 242.92 357.67 243.84 362.65
  Q 244.57 366.59 240.73 368.53
  A 1.94 1.93 -21.3 0 0 239.73 370.78
  C 242.90 382.24 248.20 393.61 257.40 401.22
  C 267.96 409.95 280.51 414.48 294.31 413.59
  Q 310.05 412.58 325.77 405.97
  Q 328.15 404.97 332.38 405.98
  A 1.43 1.40 76.5 0 1 333.13 406.45
  C 336.88 410.86 341.14 415.13 344.69 419.45
  Z
  M 385.06 275.19
  Q 389.34 275.40 390.75 271.46
  A 1.88 1.88 0.0 0 1 393.83 270.75
  Q 397.79 274.65 399.65 280.25
  C 400.72 283.49 402.57 289.16 406.19 290.23
  Q 406.67 290.37 407.05 290.05
  C 413.17 284.89 406.28 274.92 403.76 269.66
  Q 402.36 266.74 401.28 265.72
  C 396.74 261.40 388.72 249.96 381.70 251.35
  C 375.19 252.63 366.59 233.63 359.56 240.09
  Q 357.94 241.59 359.55 243.22
  C 364.71 248.45 370.35 253.16 374.39 259.20
  Q 379.38 266.64 383.65 274.32
  A 1.73 1.70 -12.9 0 0 385.06 275.19
  Z
  M 845.43 379.61
  A 1.46 1.46 0.0 0 0 843.97 378.15
  L 826.99 378.15
  A 1.46 1.46 0.0 0 0 825.53 379.61
  L 825.53 422.09
  A 1.46 1.46 0.0 0 0 826.99 423.55
  L 843.97 423.55
  A 1.46 1.46 0.0 0 0 845.43 422.09
  L 845.43 379.61
  Z
  M 468.51 483.97
  C 471.61 479.61 476.07 477.90 479.06 483.74
  Q 480.15 485.85 479.28 486.99
  C 471.23 497.59 468.36 511.73 469.00 524.71
  C 469.59 536.49 475.53 551.06 481.47 561.02
  Q 498.22 589.12 507.32 614.53
  Q 507.81 615.89 510.01 620.53
  Q 513.29 627.47 516.64 637.19
  C 521.99 652.77 526.29 664.84 530.16 678.97
  Q 530.68 680.86 533.50 692.63
  C 536.12 703.58 539.02 713.88 541.05 726.43
  Q 541.14 727.00 541.71 726.91
  Q 543.23 726.68 544.53 725.76
  Q 567.69 709.38 596.24 709.81
  Q 602.05 709.90 606.39 711.60
  Q 606.87 711.79 607.03 712.29
  C 607.79 714.71 608.73 719.60 605.00 720.08
  C 597.91 720.99 589.41 720.99 583.71 721.85
  C 569.64 723.96 551.75 731.53 543.81 744.25
  C 532.94 761.67 504.76 770.06 485.84 773.39
  Q 478.18 774.74 467.55 774.74
  C 453.33 774.74 439.60 775.14 425.34 772.88
  A 1.17 1.16 9.9 0 0 424.01 773.81
  Q 423.96 774.09 423.95 774.78
  Q 423.93 775.25 424.07 775.73
  C 428.70 791.54 430.00 805.98 430.45 822.59
  C 430.51 824.80 431.19 827.58 430.92 830.21
  Q 430.46 834.74 430.48 835.82
  Q 430.87 855.03 426.34 873.76
  Q 426.18 874.38 426.79 874.17
  C 429.37 873.28 431.30 870.94 433.19 869.88
  C 446.00 862.74 456.66 857.62 471.70 855.83
  Q 475.17 855.42 478.23 854.72
  C 496.81 850.50 517.56 852.78 536.86 853.94
  Q 549.31 854.69 555.64 854.01
  C 568.69 852.59 580.21 847.99 592.36 841.76
  C 616.36 829.44 633.42 810.34 647.21 787.45
  Q 649.59 783.50 651.54 776.05
  Q 655.53 760.77 655.69 748.75
  Q 655.90 732.34 653.85 723.43
  Q 651.03 711.24 644.15 695.07
  C 634.49 672.40 625.79 649.42 617.26 626.31
  C 609.18 604.46 598.11 585.19 586.63 565.31
  C 580.65 554.96 573.44 545.37 565.94 534.55
  Q 519.02 466.90 457.82 409.91
  Q 453.29 405.69 449.05 401.24
  A 0.80 0.80 0.0 0 0 447.70 401.56
  C 446.18 406.62 445.25 413.39 444.49 416.89
  Q 440.61 434.67 435.28 446.29
  C 425.70 467.14 417.40 482.73 400.79 497.49
  A 1.22 1.19 23.8 0 1 399.99 497.79
  Q 396.70 497.78 393.94 499.38
  A 1.54 1.49 85.7 0 0 393.29 500.16
  Q 392.13 503.28 391.48 507.25
  C 384.22 551.38 392.18 594.09 403.73 636.93
  C 412.98 671.24 426.63 702.73 446.25 732.49
  C 448.23 735.49 450.71 740.06 453.82 743.92
  Q 462.60 754.80 472.23 762.22
  A 0.64 0.63 12.9 0 1 472.46 762.58
  Q 472.62 763.28 473.50 763.21
  C 492.61 761.78 511.55 755.80 527.33 744.58
  Q 529.81 742.82 531.28 740.47
  Q 531.56 740.03 531.50 739.52
  C 529.59 723.98 525.33 708.08 522.16 693.97
  C 516.94 670.73 509.08 647.65 499.42 624.67
  C 495.86 616.20 492.75 608.03 488.83 599.98
  C 487.72 597.71 487.21 594.57 486.22 592.76
  C 474.02 570.56 458.58 549.61 458.21 523.04
  C 458.01 508.83 460.10 495.78 468.51 483.97
  Z
  M 628.47 524.34
  L 726.25 585.52
  Q 726.72 585.81 727.26 585.81
  Q 782.33 585.52 837.39 585.67
  C 841.05 585.68 847.50 585.27 852.59 585.66
  C 855.75 585.89 857.25 585.53 859.23 583.24
  A 1.34 1.28 12.6 0 1 859.91 582.83
  Q 862.25 582.27 864.56 581.43
  C 869.17 579.75 873.59 581.16 877.52 583.78
  A 1.38 1.35 60.9 0 0 878.26 584.00
  L 1097.99 584.00
  A 0.70 0.70 0.0 0 0 1098.53 582.86
  C 1086.39 567.90 1074.19 553.34 1063.26 537.58
  C 1056.54 527.89 1049.50 518.80 1043.49 508.58
  C 1041.40 505.04 1046.16 498.37 1048.51 494.99
  Q 1064.98 471.28 1080.94 447.23
  C 1083.40 443.52 1086.17 439.85 1087.90 436.09
  Q 1088.61 434.54 1086.91 434.54
  Q 978.59 434.97 871.44 434.63
  C 792.05 434.39 712.65 435.10 633.27 434.59
  C 624.34 434.54 611.35 434.91 600.05 434.15
  A 1.16 1.16 0.0 0 0 598.96 435.89
  C 601.00 439.48 604.61 443.49 606.43 445.95
  C 614.49 456.85 622.43 467.84 630.78 478.51
  Q 635.74 484.85 639.35 492.08
  C 640.95 495.28 641.70 498.81 642.77 502.33
  Q 642.93 502.83 642.74 503.33
  C 640.19 510.20 632.95 516.92 628.19 522.50
  A 1.23 1.23 0.0 0 0 628.47 524.34
  Z
  M 538.48 480.05
  C 558.21 504.44 572.43 524.83 588.51 547.63
  Q 589.37 548.84 590.33 547.71
  L 608.64 526.24
  Q 609.76 524.93 608.30 524.01
  Q 573.10 501.83 539.14 478.07
  C 537.84 477.17 536.68 477.20 535.57 475.81
  A 0.31 0.31 0.0 0 0 535.04 476.13
  C 535.75 477.82 537.62 478.98 538.48 480.05
  Z
  M 363.66 584.88
  C 373.01 589.20 370.95 601.05 369.76 609.37
  Q 369.68 609.87 369.97 610.30
  C 373.18 614.99 374.79 620.84 373.06 626.41
  C 372.03 629.72 375.30 630.21 376.60 631.67
  C 381.75 637.42 380.24 643.61 378.84 650.36
  A 0.54 0.54 0.0 0 0 379.50 650.99
  Q 380.23 650.80 380.53 650.21
  Q 380.76 649.75 381.20 649.49
  Q 387.66 645.53 393.14 650.20
  C 394.64 651.48 395.47 653.41 397.11 654.87
  A 0.29 0.28 -88.3 0 0 397.52 654.48
  Q 396.36 652.99 396.52 651.01
  Q 396.57 650.50 396.31 650.06
  Q 395.32 648.33 394.59 645.48
  Q 387.86 619.15 384.02 602.16
  C 383.03 597.82 382.62 592.95 381.82 588.34
  C 379.84 576.97 378.91 565.54 378.15 554.03
  Q 377.73 547.72 378.29 539.98
  C 379.03 529.71 378.57 519.08 380.78 509.04
  Q 380.89 508.52 380.51 508.14
  L 380.31 507.93
  Q 379.93 507.55 379.74 508.06
  Q 376.71 516.64 373.25 525.07
  C 371.69 528.87 374.16 530.09 374.89 533.16
  C 377.46 544.04 366.80 548.03 363.52 555.94
  Q 358.34 568.41 354.67 582.42
  A 0.86 0.85 5.0 0 0 355.57 583.49
  Q 359.82 583.11 363.66 584.88
  Z
  M 611.92 585.74
  L 702.85 585.72
  A 0.39 0.39 0.0 0 0 703.06 585.00
  L 618.92 532.00
  Q 618.49 531.73 618.09 532.05
  C 616.51 533.33 615.50 535.40 614.25 536.60
  C 607.98 542.64 603.64 549.83 597.69 555.86
  Q 595.88 557.70 597.27 559.97
  Q 606.22 574.61 611.35 585.38
  Q 611.52 585.74 611.92 585.74
  Z
  M 347.18 655.84
  C 345.12 648.84 348.73 647.08 352.02 642.34
  C 356.69 635.60 363.69 629.39 363.51 619.32
  A 0.55 0.55 0.0 0 0 362.71 618.85
  Q 357.09 621.77 351.51 624.93
  C 349.02 626.33 345.49 628.11 343.44 629.79
  Q 336.64 635.38 330.73 638.49
  C 327.55 640.16 323.50 638.55 323.49 634.58
  C 323.48 630.45 325.86 629.22 329.49 626.38
  Q 341.74 616.81 355.63 609.73
  Q 357.73 608.66 358.63 606.96
  C 360.58 603.34 362.98 591.32 354.55 593.70
  Q 337.40 598.54 322.86 608.81
  C 320.50 610.48 314.25 613.50 312.97 608.99
  C 311.11 602.38 322.49 595.77 327.14 592.83
  Q 327.57 592.55 327.66 592.04
  Q 330.44 575.02 339.02 560.12
  C 341.07 556.54 345.74 554.64 349.08 552.36
  C 353.18 549.56 356.91 545.52 361.09 542.09
  Q 364.13 539.59 364.74 535.42
  A 0.66 0.66 0.0 0 0 364.29 534.69
  C 357.42 532.53 343.93 537.55 337.60 540.60
  C 327.62 545.41 324.03 554.09 319.15 564.69
  C 312.27 579.67 308.08 595.11 307.53 611.73
  C 306.75 635.46 320.36 656.67 339.07 670.40
  C 343.21 673.43 353.88 675.28 349.26 683.01
  Q 348.53 684.24 346.99 684.59
  A 1.03 1.03 0.0 0 0 346.27 686.00
  L 355.93 708.43
  A 0.83 0.83 0.0 0 0 357.32 708.65
  C 364.48 700.35 367.57 692.04 372.29 683.61
  C 374.49 679.67 380.81 668.98 371.95 667.84
  Q 371.35 667.77 371.04 668.29
  L 369.08 671.60
  A 0.80 0.77 -75.1 0 1 368.45 671.98
  L 361.57 672.34
  Q 360.96 672.37 360.86 671.77
  Q 360.09 666.86 361.00 665.03
  C 363.81 659.38 371.14 644.79 369.66 638.84
  A 0.51 0.50 54.0 0 0 368.74 638.69
  Q 363.55 647.13 356.42 654.11
  C 353.88 656.61 351.14 657.29 347.84 656.47
  A 0.93 0.92 -1.1 0 1 347.18 655.84
  Z
  M 349.76 565.51
  Q 349.85 564.89 349.07 564.65
  A 0.75 0.75 0.0 0 0 348.20 565.01
  Q 342.53 575.53 338.99 586.94
  A 0.64 0.64 0.0 0 0 339.70 587.76
  C 342.81 587.29 344.31 585.49 344.93 582.33
  Q 346.63 573.79 349.58 566.57
  Q 349.68 566.34 349.68 566.16
  Q 349.68 566.05 349.76 565.51
  Z
  M 727.50 933.63
  C 731.87 938.02 737.04 942.31 741.04 946.24
  C 753.76 958.72 766.53 971.61 780.23 983.01
  Q 786.79 988.47 793.35 993.91
  C 798.29 998.02 807.63 1004.89 814.10 1011.14
  Q 814.91 1011.91 815.49 1010.96
  Q 831.03 985.57 846.48 960.51
  C 851.59 952.22 857.40 943.83 862.30 935.99
  Q 873.05 918.74 884.60 902.01
  C 897.26 883.68 908.24 864.44 920.43 845.83
  C 931.79 828.47 942.64 810.77 954.09 793.47
  C 974.52 762.62 994.13 731.28 1013.99 700.07
  C 1015.59 697.55 1016.88 694.91 1018.32 692.33
  Q 1018.60 691.84 1018.10 691.57
  Q 1006.70 685.32 995.23 679.22
  C 993.42 678.26 991.78 676.66 989.96 675.52
  Q 973.80 665.34 958.35 654.14
  C 935.42 637.53 912.25 621.19 888.75 605.40
  C 883.52 601.88 878.29 597.30 872.62 594.64
  Q 872.15 594.42 871.80 594.79
  Q 871.02 595.62 870.16 596.92
  Q 851.31 625.27 835.06 652.36
  Q 828.94 662.57 824.55 669.38
  Q 796.31 713.20 766.21 755.76
  C 752.36 775.33 739.41 795.56 725.81 815.31
  C 723.13 819.21 718.86 823.76 715.92 828.48
  Q 715.65 828.91 715.79 829.40
  C 719.82 843.02 721.48 858.12 722.09 872.32
  C 722.75 887.36 723.83 899.90 723.81 913.71
  C 723.80 919.07 725.36 924.60 725.12 930.34
  C 725.05 932.23 726.51 932.63 727.50 933.63
  Z
  M 667.84 756.68
  Q 674.84 762.17 680.52 769.02
  Q 681.42 770.11 682.22 770.04
  Q 683.27 769.96 684.10 768.59
  Q 715.51 716.84 756.42 657.62
  Q 766.03 643.71 776.38 630.14
  A 0.85 0.84 -55.4 0 0 776.16 628.91
  Q 752.48 613.92 728.19 599.45
  Q 727.64 599.12 725.96 597.92
  Q 724.41 596.82 723.44 596.80
  C 698.90 596.33 657.64 597.18 617.67 596.56
  A 0.52 0.51 -11.4 0 0 617.19 597.28
  C 625.21 615.46 631.63 634.21 638.56 652.83
  C 648.21 678.79 661.53 703.99 665.53 731.14
  C 666.61 738.46 666.24 746.68 666.25 754.48
  Q 666.25 754.94 666.53 755.32
  Q 667.13 756.12 667.84 756.68
  Z
  M 745.14 597.51
  L 782.69 620.69
  A 0.72 0.72 0.0 0 0 783.64 620.52
  L 801.63 597.60
  A 0.57 0.56 18.9 0 0 801.18 596.69
  Q 773.89 596.83 746.65 596.82
  Q 746.49 596.82 745.87 596.71
  Q 745.18 596.59 745.03 597.25
  A 0.24 0.24 0.0 0 0 745.14 597.51
  Z
  M 837.22 598.30
  L 836.33 598.00
  A 0.62 0.49 57.2 0 0 836.22 599.11
  Q 836.97 599.37 837.78 599.23
  A 0.26 0.26 0.0 0 0 837.92 598.79
  Q 837.83 598.70 837.74 598.61
  Q 837.52 598.40 837.22 598.30
  Z
  M 795.64 628.14
  Q 808.61 636.08 821.36 644.52
  C 824.25 646.43 826.64 645.88 826.96 642.14
  Q 827.00 641.69 826.72 641.33
  C 820.81 633.45 809.04 632.25 810.19 620.44
  Q 811.03 611.84 812.43 603.34
  A 0.62 0.62 0.0 0 0 811.35 602.83
  Q 802.10 613.41 794.15 624.99
  Q 793.69 625.67 794.00 626.42
  Q 794.41 627.39 795.64 628.14
  Z
  M 825.83 623.13
  A 1.04 1.04 0.0 0 0 825.76 624.72
  L 832.49 630.88
  A 1.04 1.04 0.0 0 0 834.06 630.68
  L 848.95 607.68
  A 1.04 1.04 0.0 0 0 847.44 606.29
  L 825.83 623.13
  Z
  M 817.76 655.49
  Q 812.27 651.86 806.77 648.52
  C 804.42 647.10 800.75 645.35 797.86 643.33
  C 794.69 641.10 790.81 639.54 787.85 636.80
  A 2.23 2.23 0.0 0 0 784.55 637.09
  Q 764.05 664.13 745.41 692.17
  Q 719.48 731.16 694.65 770.86
  C 693.57 772.58 690.87 775.24 689.79 778.02
  A 1.07 1.07 0.0 0 0 689.95 779.07
  C 700.40 792.11 705.34 802.29 711.38 815.51
  A 0.44 0.44 0.0 0 0 712.13 815.59
  Q 719.14 805.98 725.40 796.19
  C 736.17 779.36 747.06 762.72 758.60 746.48
  C 778.62 718.30 797.36 689.25 816.35 660.38
  Q 817.43 658.74 818.21 657.11
  A 1.28 1.28 0.0 0 0 817.76 655.49
  Z
  M 391.4593 666.4016
  A 0.32 0.32 0.0 0 0 391.0122 666.3316
  L 390.0264 667.0504
  A 0.32 0.32 0.0 0 0 389.9564 667.4975
  L 394.7407 674.0584
  A 0.32 0.32 0.0 0 0 395.1878 674.1284
  L 396.1736 673.4096
  A 0.32 0.32 0.0 0 0 396.2436 672.9625
  L 391.4593 666.4016
  Z
  M 402.95 695.79
  Q 400.57 693.59 401.60 696.66
  C 402.82 700.32 404.53 703.93 404.78 707.95
  Q 406.00 727.23 401.52 745.99
  C 400.92 748.49 399.74 750.24 398.43 752.37
  Q 398.13 752.86 397.55 752.83
  L 392.81 752.53
  A 0.77 0.77 0.0 0 1 392.08 751.79
  Q 391.75 742.80 392.57 739.32
  Q 396.10 724.52 395.25 709.36
  C 394.96 704.18 390.31 694.95 397.41 692.31
  Q 397.85 692.15 397.51 691.82
  L 386.45 681.47
  A 0.50 0.49 -60.8 0 0 385.64 681.70
  C 385.20 683.23 385.05 684.71 384.34 686.15
  C 376.14 702.89 367.96 715.11 356.30 730.15
  C 354.18 732.89 351.75 735.36 349.31 737.84
  Q 348.94 738.21 349.33 738.57
  C 359.21 747.70 369.94 752.96 381.86 758.81
  C 385.89 760.78 394.14 763.01 392.59 769.17
  Q 392.43 769.79 393.02 770.02
  L 410.71 776.85
  Q 413.12 777.78 412.42 775.30
  C 411.42 771.73 410.26 769.10 410.84 765.07
  C 411.92 757.46 419.78 760.79 424.81 761.76
  Q 428.08 762.40 431.37 762.61
  Q 443.21 763.39 454.73 763.67
  A 0.58 0.58 0.0 0 0 455.13 762.65
  C 443.09 751.95 435.16 737.62 426.97 724.01
  C 424.03 719.12 420.70 714.87 417.32 710.39
  C 413.01 704.68 408.21 700.66 402.95 695.79
  Z
  M 263.41 849.71
  C 270.78 852.21 278.78 833.91 281.20 828.92
  C 288.06 814.79 296.11 803.43 310.04 795.51
  A 3.09 3.06 -4.8 0 0 311.43 793.88
  C 313.62 787.91 316.53 777.07 322.11 773.57
  A 0.91 0.90 -49.4 0 1 322.94 773.50
  L 327.45 775.40
  A 0.85 0.84 13.9 0 1 327.97 776.25
  C 327.52 782.48 324.83 787.83 323.22 792.62
  C 320.69 800.18 317.48 807.84 315.88 815.47
  Q 314.83 820.46 314.03 825.50
  C 313.28 830.18 320.22 832.61 323.60 833.11
  A 1.63 1.63 0.0 0 0 325.43 831.85
  Q 329.36 814.60 334.99 798.24
  Q 335.81 795.85 336.59 794.31
  A 1.02 1.01 13.2 0 1 337.50 793.75
  L 343.24 793.75
  A 1.72 1.72 0.0 0 1 344.96 795.37
  C 345.16 798.95 345.02 801.59 343.84 805.16
  Q 337.98 823.07 334.30 844.76
  Q 333.50 849.48 333.79 852.77
  Q 333.84 853.39 334.43 853.56
  Q 338.31 854.68 342.22 853.89
  A 0.95 0.95 0.0 0 0 342.96 853.18
  C 344.06 848.33 349.76 821.91 357.49 823.35
  C 360.82 823.97 361.05 827.01 360.31 829.97
  C 358.72 836.33 356.36 842.64 354.84 848.77
  C 353.71 853.33 347.44 871.53 358.00 869.77
  Q 370.04 867.77 378.95 859.64
  A 0.65 0.65 0.0 0 0 378.49 858.51
  C 375.57 858.62 369.27 859.25 369.06 854.76
  C 368.90 851.22 370.49 848.89 374.12 848.04
  C 385.46 845.40 393.42 838.05 400.63 828.69
  C 403.10 825.47 405.25 823.58 409.16 823.81
  Q 411.82 823.96 413.18 823.71
  Q 415.77 823.24 418.48 823.13
  Q 419.04 823.11 419.04 822.55
  Q 418.92 806.31 416.43 790.28
  A 1.52 1.51 90.0 0 0 415.17 789.01
  C 402.12 786.94 389.47 781.16 376.90 776.20
  C 367.90 772.65 352.89 765.98 340.32 761.95
  C 335.13 760.28 331.03 760.15 325.92 762.75
  C 317.86 766.84 310.48 771.72 301.03 778.43
  C 296.67 781.53 286.09 789.06 284.67 794.18
  Q 276.92 822.08 262.60 847.59
  A 1.48 1.47 -66.0 0 0 263.41 849.71
  Z
  M 768.94 987.57
  C 754.81 974.57 740.10 961.52 726.90 947.61
  Q 726.47 947.16 726.00 947.24
  A 0.58 0.57 -10.3 0 0 725.52 947.93
  Q 726.98 955.04 727.06 962.06
  C 727.10 966.22 728.03 970.26 728.35 973.69
  C 731.35 1006.02 735.64 1033.37 739.83 1063.10
  C 741.87 1077.62 744.42 1091.44 747.11 1105.53
  Q 749.01 1115.50 753.24 1124.72
  C 765.48 1151.41 778.84 1177.70 793.69 1203.03
  Q 804.01 1220.64 813.53 1238.58
  A 0.29 0.29 0.0 0 0 814.08 1238.45
  L 813.96 1024.21
  Q 813.96 1023.69 813.54 1023.37
  Q 783.25 1000.75 768.94 987.57
  Z
  M 845.31 1162.31
  C 845.58 1107.70 844.95 1053.04 845.52 998.45
  Q 845.58 992.79 845.24 987.04
  Q 845.16 985.58 844.17 986.66
  Q 843.63 987.27 842.81 988.52
  Q 834.23 1001.79 826.34 1015.17
  A 5.05 5.02 60.6 0 0 825.63 1017.75
  Q 825.38 1135.04 825.54 1253.11
  C 825.55 1256.83 825.19 1262.44 826.70 1265.79
  Q 834.52 1283.24 842.32 1300.70
  C 843.10 1302.43 844.67 1304.54 845.26 1306.88
  Q 845.35 1307.24 845.72 1307.25
  Q 845.86 1307.25 846.00 1307.25
  A 0.44 0.44 0.0 0 0 846.43 1306.71
  C 845.41 1302.13 846.33 1298.38 846.13 1294.48
  Q 845.93 1290.59 845.93 1290.49
  C 846.36 1247.77 845.12 1200.82 845.31 1162.31
  Z
  M 247.37 1423.78
  Q 247.09 1424.44 247.09 1425.10
  A 0.35 0.35 0.0 0 0 247.79 1425.14
  C 248.07 1422.32 249.85 1410.93 244.95 1411.23
  Q 244.31 1411.27 244.02 1411.84
  L 241.93 1415.84
  A 1.75 1.74 36.1 0 0 242.25 1417.87
  L 247.17 1422.79
  Q 247.60 1423.22 247.37 1423.78
  Z
  M 246.47 1462.03
  C 249.24 1467.18 254.86 1471.21 260.33 1473.29
  A 0.66 0.66 0.0 0 0 261.21 1472.82
  L 265.96 1453.12
  A 0.73 0.73 0.0 0 0 265.42 1452.23
  L 263.28 1451.75
  Q 262.62 1451.61 262.30 1452.20
  Q 259.78 1456.89 254.23 1456.20
  C 247.62 1455.38 243.10 1448.46 241.25 1442.66
  C 239.53 1437.29 238.76 1432.97 234.03 1429.27
  A 1.71 1.70 -56.8 0 0 231.48 1429.81
  Q 225.23 1441.49 232.51 1451.14
  C 235.95 1455.69 244.08 1457.56 246.47 1462.03
  Z
  M 365.95 1535.44
  C 375.82 1539.64 386.20 1542.09 396.50 1545.00
  C 403.62 1547.00 409.17 1543.82 415.96 1542.39
  C 423.92 1540.70 428.80 1529.33 426.01 1522.04
  C 422.68 1513.36 419.72 1506.49 421.66 1498.36
  Q 422.58 1494.53 427.00 1487.28
  Q 436.02 1472.50 444.64 1457.68
  A 0.96 0.95 -65.2 0 0 444.14 1456.30
  C 433.37 1452.45 422.41 1447.59 412.97 1441.13
  A 0.72 0.72 0.0 0 0 411.90 1441.44
  C 406.09 1455.08 400.16 1468.70 393.02 1481.72
  Q 391.11 1485.20 389.05 1486.32
  C 384.37 1488.88 382.59 1485.93 378.43 1485.88
  Q 374.39 1485.83 370.23 1486.81
  A 0.50 0.50 0.0 0 0 369.86 1487.39
  C 373.01 1503.68 373.01 1519.46 365.65 1534.62
  A 0.61 0.59 -65.8 0 0 365.95 1535.44
  Z
  M 323.83 1520.05
  C 321.22 1513.65 324.83 1503.43 325.58 1495.66
  C 326.27 1488.42 326.72 1482.39 324.97 1474.71
  A 1.09 1.06 7.3 0 0 324.39 1473.98
  C 322.99 1473.30 320.87 1473.15 319.76 1472.73
  Q 299.12 1464.78 281.06 1452.25
  A 1.15 1.15 0.0 0 0 279.26 1453.07
  Q 279.16 1454.04 278.69 1454.85
  Q 278.42 1455.32 278.40 1455.86
  C 278.08 1468.18 273.35 1483.68 267.42 1493.24
  C 265.33 1496.62 261.74 1499.03 259.08 1502.24
  A 0.60 0.59 -49.6 0 0 259.14 1503.07
  Q 264.94 1508.23 269.97 1511.51
  C 279.86 1517.97 285.98 1522.50 296.16 1528.18
  C 310.27 1536.06 326.30 1541.69 341.53 1546.89
  A 1.57 1.57 0.0 0 0 343.39 1546.20
  Q 350.46 1534.01 356.11 1520.85
  Q 357.57 1517.44 357.86 1513.88
  C 358.81 1501.86 358.06 1492.46 352.30 1481.89
  Q 352.05 1481.43 351.55 1481.24
  Q 346.77 1479.43 341.61 1478.84
  Q 339.94 1478.64 339.99 1480.32
  C 340.34 1492.49 339.59 1508.72 333.35 1518.89
  C 331.53 1521.85 325.93 1525.17 323.83 1520.05
  Z
  M 228.53 1475.70
  C 234.51 1481.43 241.01 1488.16 248.26 1493.28
  Q 248.85 1493.70 249.26 1493.10
  L 253.53 1487.01
  Q 253.86 1486.55 253.38 1486.25
  Q 243.38 1480.03 235.31 1471.45
  Q 233.59 1469.62 231.15 1468.21
  Q 223.27 1463.66 218.42 1456.10
  A 1.41 1.41 0.0 0 0 215.88 1456.47
  C 214.33 1461.83 224.51 1471.85 228.53 1475.70
  Z
  M 882.00 1510.37
  Q 879.12 1508.28 876.58 1504.93
  Q 867.42 1492.84 861.78 1478.89
  A 0.67 0.67 0.0 0 0 860.87 1478.54
  Q 853.98 1481.95 846.59 1484.47
  C 843.40 1485.55 840.03 1486.25 836.89 1488.19
  A 1.09 1.07 -11.5 0 0 836.39 1488.93
  C 835.91 1492.13 836.41 1505.66 830.00 1506.00
  C 825.40 1506.24 823.18 1509.68 819.80 1512.26
  A 1.22 1.21 -38.0 0 0 819.58 1513.99
  Q 823.31 1518.67 827.28 1523.34
  C 835.06 1532.52 839.24 1542.79 840.71 1554.56
  A 1.63 1.62 -10.3 0 0 842.71 1555.94
  Q 855.83 1552.76 868.74 1548.12
  C 881.18 1543.65 899.61 1528.14 886.75 1513.99
  Q 886.27 1513.46 882.00 1510.37
  Z
  M 770.07 1507.40
  L 777.02 1510.78
  Q 777.54 1511.03 778.10 1510.88
  Q 787.09 1508.53 795.36 1504.44
  C 798.93 1502.67 801.59 1502.30 804.82 1504.46
  Q 805.23 1504.73 805.66 1504.48
  L 812.08 1500.80
  A 0.49 0.48 32.7 0 0 811.88 1499.90
  Q 806.07 1499.30 800.00 1500.22
  Q 786.18 1502.31 772.44 1504.77
  C 771.57 1504.93 770.63 1505.65 769.95 1506.14
  A 0.74 0.74 0.0 0 0 770.07 1507.40
  Z
  M 906.38 1520.46
  C 913.76 1520.66 921.35 1519.78 928.57 1519.84
  C 937.92 1519.92 947.84 1518.40 956.24 1518.18
  Q 966.39 1517.91 976.97 1517.33
  A 0.82 0.82 0.0 0 0 977.33 1515.79
  Q 976.18 1515.14 974.46 1514.65
  C 964.24 1511.77 954.42 1509.09 943.77 1507.49
  Q 928.52 1505.20 913.23 1503.26
  C 909.20 1502.75 902.09 1501.53 896.44 1501.20
  A 0.94 0.94 0.0 0 0 895.69 1502.78
  Q 902.25 1509.86 904.85 1519.26
  A 1.63 1.63 0.0 0 0 906.38 1520.46
  Z
  M 746.17 1514.45
  C 749.20 1515.73 754.22 1518.27 757.31 1516.80
  A 0.52 0.52 0.0 0 0 757.50 1516.02
  Q 755.50 1513.36 755.74 1510.05
  A 0.65 0.65 0.0 0 0 754.88 1509.39
  Q 750.09 1511.07 746.14 1512.66
  Q 745.72 1512.83 745.57 1513.07
  Q 745.27 1513.57 745.77 1514.15
  A 1.16 1.04 78.9 0 0 746.17 1514.45
  Z
  M 671.96 1523.55
  C 672.55 1526.59 678.26 1527.04 680.58 1526.81
  Q 681.10 1526.76 680.97 1526.26
  Q 679.67 1521.25 675.44 1518.37
  Q 674.94 1518.03 674.39 1518.28
  Q 671.22 1519.72 671.96 1523.55
  Z
  M 734.44 1586.72
  Q 736.98 1588.13 739.01 1588.20
  C 753.21 1588.70 767.67 1589.24 781.67 1587.92
  C 797.59 1586.42 812.48 1582.36 827.65 1579.00
  Q 829.02 1578.70 828.94 1577.30
  Q 828.03 1561.33 825.01 1545.87
  Q 824.50 1543.23 822.95 1541.01
  Q 818.41 1534.51 813.42 1528.34
  C 811.28 1525.70 808.04 1523.88 805.80 1520.81
  Q 805.49 1520.38 805.00 1520.20
  L 800.02 1518.33
  A 0.69 0.65 -43.2 0 0 799.57 1518.33
  L 789.31 1522.12
  Q 788.89 1522.28 789.14 1522.65
  C 797.90 1535.19 805.99 1548.40 804.39 1564.94
  A 2.06 2.06 0.0 0 1 802.14 1566.79
  L 798.70 1566.45
  Q 798.23 1566.40 797.91 1566.06
  C 792.25 1560.21 790.92 1553.79 787.77 1547.58
  Q 782.44 1537.05 775.49 1528.50
  C 774.68 1527.51 773.44 1527.10 772.11 1527.50
  Q 762.76 1530.28 759.00 1530.74
  Q 741.59 1532.84 724.29 1532.48
  A 0.55 0.55 0.0 0 0 723.76 1533.23
  C 725.33 1537.31 727.88 1541.56 729.25 1545.05
  C 733.75 1556.54 738.63 1573.28 733.93 1585.30
  A 1.15 1.15 0.0 0 0 734.44 1586.72
  Z
  M 925.13 1548.36
  Q 943.25 1547.67 961.51 1545.79
  C 971.62 1544.74 976.45 1544.34 984.24 1541.96
  Q 987.08 1541.09 988.94 1539.72
  Q 989.45 1539.33 989.46 1538.69
  L 989.52 1529.05
  A 1.36 1.35 87.5 0 0 988.04 1527.69
  Q 981.23 1528.36 974.74 1528.57
  Q 947.49 1529.42 920.13 1531.14
  A 0.40 0.40 0.0 0 0 919.82 1531.75
  Q 924.25 1538.87 924.06 1547.31
  A 1.03 1.02 89.2 0 0 925.13 1548.36
  Z
  M 678.46 1555.29
  C 681.32 1558.08 684.23 1558.72 688.04 1559.39
  C 691.89 1560.07 696.09 1558.80 700.41 1559.20
  A 1.66 1.64 -24.1 0 1 701.24 1559.51
  C 706.35 1563.22 712.42 1562.48 718.03 1562.34
  A 1.79 1.79 0.0 0 0 719.69 1560.02
  Q 716.91 1550.99 712.95 1542.42
  A 1.08 1.06 -8.8 0 0 712.10 1541.81
  Q 710.10 1541.60 708.65 1542.90
  A 1.16 1.14 68.8 0 0 708.27 1543.78
  C 708.30 1546.69 708.72 1550.27 704.82 1550.86
  C 700.47 1551.51 692.41 1551.79 688.90 1548.60
  Q 682.89 1543.15 676.07 1538.86
  A 2.65 2.65 0.0 0 0 673.16 1538.91
  C 667.86 1542.53 675.44 1552.34 678.46 1555.29
  Z
  M 842.04 1572.84
  Q 841.81 1573.62 842.76 1574.00
  Q 843.51 1574.29 845.47 1573.77
  C 867.92 1567.79 891.13 1557.14 909.64 1545.54
  A 0.98 0.98 0.0 0 0 910.03 1544.32
  L 908.60 1540.89
  A 0.87 0.87 0.0 0 0 907.45 1540.42
  Q 904.03 1541.88 900.87 1543.76
  C 894.03 1547.82 889.15 1554.21 882.18 1558.09
  Q 875.57 1561.76 871.69 1562.93
  C 869.82 1563.49 867.19 1563.58 864.95 1564.42
  Q 854.17 1568.44 842.81 1570.20
  Q 842.36 1570.27 842.17 1570.68
  Q 841.83 1571.39 842.05 1572.25
  Q 842.13 1572.55 842.04 1572.84
  Z
  M 357.67 1551.87
  C 361.44 1552.89 364.57 1554.35 368.43 1555.04
  C 372.66 1555.80 376.85 1557.56 380.66 1558.31
  C 396.78 1561.51 410.25 1563.49 423.58 1563.89
  C 427.08 1563.99 429.81 1563.37 430.36 1559.58
  Q 430.44 1559.00 429.88 1558.81
  Q 422.69 1556.43 415.44 1557.82
  Q 408.80 1559.09 407.93 1559.15
  C 391.30 1560.37 374.33 1554.46 359.09 1548.35
  Q 358.54 1548.13 358.21 1548.61
  L 357.07 1550.26
  A 1.06 1.05 24.8 0 0 357.67 1551.87
  Z
  M 672.35 1570.58
  C 670.60 1577.49 696.58 1581.90 702.27 1582.83
  C 707.03 1583.61 713.39 1585.22 719.04 1585.82
  A 1.67 1.67 0.0 0 0 720.88 1584.28
  L 721.38 1577.38
  A 1.35 1.34 -89.2 0 0 719.99 1575.94
  Q 709.37 1576.33 698.94 1574.21
  C 690.37 1572.46 682.35 1573.63 674.30 1569.68
  A 1.38 1.38 0.0 0 0 672.35 1570.58
  Z"
/>
<path fill="#000000" d="
  M 961.61 151.13
  Q 959.02 151.49 957.44 151.49
  Q 832.60 151.52 707.78 151.49
  C 700.69 151.49 695.92 150.49 690.95 156.56
  C 687.60 160.64 688.96 165.31 688.97 170.08
  C 689.06 223.75 689.70 277.60 688.48 331.25
  C 688.35 336.77 689.19 346.67 695.77 348.41
  C 699.54 349.41 706.15 351.85 704.21 357.01
  Q 704.04 357.47 703.56 357.60
  C 697.80 359.12 690.40 359.30 685.66 355.10
  C 679.74 349.85 678.34 341.89 677.74 333.91
  C 676.86 322.22 677.83 309.17 677.77 296.94
  Q 677.45 233.47 677.52 170.00
  C 677.53 164.76 677.51 158.90 679.69 154.28
  C 685.23 142.57 695.18 140.26 707.98 140.26
  Q 830.54 140.24 953.09 140.25
  C 966.86 140.25 980.27 140.96 985.94 156.44
  Q 987.27 160.07 987.27 166.71
  Q 987.22 249.99 987.27 333.25
  Q 987.27 342.82 980.27 350.24
  C 976.70 354.02 969.81 351.93 971.15 345.92
  C 972.09 341.66 976.29 338.88 976.26 333.93
  C 975.93 278.21 975.69 222.41 976.31 166.70
  Q 976.36 162.18 975.13 159.52
  C 972.81 154.52 967.53 150.31 961.61 151.13
  Z"
/>
<path fill="#000000" d="
  M 853.53 231.00
  C 853.48 238.54 856.29 258.70 841.26 253.68
  A 1.51 1.51 0.0 0 1 840.52 253.17
  Q 837.60 249.58 837.51 247.00
  Q 837.01 233.67 837.51 201.71
  C 837.67 190.86 836.75 182.79 849.69 182.39
  C 860.02 182.07 868.10 183.13 875.59 190.73
  Q 879.53 194.73 880.94 200.03
  C 883.46 209.53 881.04 218.56 872.86 224.42
  A 0.89 0.89 0.0 0 0 872.61 225.59
  Q 877.04 233.03 881.68 240.46
  C 884.17 244.44 884.76 248.50 881.28 251.78
  C 871.84 260.66 861.01 237.89 858.14 232.20
  C 857.26 230.46 855.82 229.88 854.05 230.33
  Q 853.53 230.47 853.53 231.00
  Z
  M 853.28 198.16
  L 853.30 214.04
  A 0.42 0.42 0.0 0 0 853.72 214.46
  L 853.88 214.46
  A 12.18 8.36 -0.1 0 0 866.05 206.08
  L 866.05 206.08
  A 12.18 8.36 -0.1 0 0 853.86 197.74
  L 853.70 197.74
  A 0.42 0.42 0.0 0 0 853.28 198.16
  Z"
/>
<path fill="#000000" d="
  M 737.83 218.25
  L 755.22 218.25
  A 0.61 0.61 0.0 0 0 755.83 217.63
  Q 755.51 206.12 756.03 195.32
  C 756.35 188.61 758.22 183.91 765.96 185.34
  C 771.95 186.44 771.46 190.32 771.49 195.84
  Q 771.73 242.91 771.43 290.00
  C 771.40 294.86 770.81 299.00 766.05 301.25
  C 761.43 303.44 757.49 298.51 756.97 294.40
  C 756.66 291.99 755.98 289.52 755.95 287.17
  Q 755.63 261.04 755.71 235.19
  A 1.18 1.18 0.0 0 0 754.53 234.00
  L 738.28 234.00
  A 1.00 1.00 0.0 0 0 737.28 234.99
  Q 736.82 270.77 737.04 306.64
  C 737.08 314.34 734.07 319.11 725.55 317.59
  A 1.14 1.14 0.0 0 1 724.78 317.04
  C 723.20 314.18 721.57 311.47 721.57 308.03
  Q 721.42 248.73 721.54 189.44
  Q 721.54 187.03 724.66 184.43
  C 731.62 178.60 737.71 186.55 737.38 193.26
  Q 736.78 205.38 737.08 217.52
  A 0.75 0.75 0.0 0 0 737.83 218.25
  Z"
/>
<path fill="#000000" d="
  M 797.85 239.51
  C 805.65 239.14 818.86 236.68 822.51 245.75
  Q 822.72 246.28 822.58 246.82
  C 821.87 249.56 821.21 252.03 818.44 253.35
  C 811.50 256.66 799.50 255.21 791.73 255.42
  C 785.08 255.60 781.66 246.31 781.63 241.25
  Q 781.52 224.60 781.50 207.96
  Q 781.49 205.58 780.70 201.64
  C 778.60 191.16 782.11 182.86 793.82 182.77
  Q 802.92 182.70 812.04 182.77
  C 817.85 182.81 825.57 187.05 822.39 194.23
  C 819.72 200.26 802.99 199.29 797.65 199.01
  A 1.02 1.01 -7.0 0 0 796.62 200.32
  Q 797.91 204.57 797.34 208.98
  A 0.71 0.70 3.6 0 0 798.04 209.77
  C 803.44 209.72 825.55 207.17 822.97 218.49
  C 822.34 221.25 818.04 224.51 815.22 224.72
  C 809.80 225.11 803.01 223.90 797.99 225.15
  Q 797.55 225.25 797.55 225.70
  L 797.39 239.06
  Q 797.38 239.53 797.85 239.51
  Z"
/>
<path fill="#000000" d="
  M 912.90 287.04
  Q 912.88 288.39 914.22 288.35
  Q 926.17 288.01 937.44 288.20
  C 946.77 288.35 946.68 303.58 937.50 303.82
  Q 924.72 304.15 912.01 303.96
  C 906.06 303.87 897.02 300.01 897.01 292.56
  Q 896.98 246.24 897.01 199.92
  C 897.02 180.70 912.83 183.92 925.66 183.99
  C 931.43 184.03 942.95 185.20 940.41 194.31
  C 939.32 198.27 936.24 199.43 932.21 199.69
  Q 923.88 200.22 915.13 199.95
  A 2.06 2.06 0.0 0 0 913.00 202.01
  L 913.00 231.26
  A 1.27 1.27 0.0 0 0 914.28 232.53
  Q 925.40 232.41 936.73 232.23
  Q 940.87 232.16 943.07 233.43
  C 949.71 237.26 947.79 247.88 939.41 247.95
  Q 931.75 248.00 924.07 248.27
  C 921.57 248.35 917.84 249.11 914.40 248.45
  Q 913.86 248.34 913.60 248.83
  Q 912.90 250.21 912.92 251.75
  Q 913.17 269.86 912.90 287.04
  Z"
/>
<path fill="#000000" d="
  M 167.73 296.73
  C 167.81 303.89 159.76 302.39 159.97 295.93
  C 160.42 281.68 168.08 270.53 179.69 262.70
  C 182.42 260.86 188.68 257.40 191.98 258.57
  C 195.08 259.67 196.15 264.54 192.31 265.99
  Q 176.59 271.94 170.07 287.67
  Q 167.70 293.39 167.73 296.73
  Z"
/>
<path fill="#000000" d="
  M 143.59 336.91
  C 136.37 329.98 134.68 316.16 134.98 306.74
  Q 135.19 300.38 137.52 288.28
  Q 138.60 282.68 143.20 281.99
  A 1.38 1.37 -29.7 0 1 144.27 282.28
  C 146.50 284.06 147.00 286.12 146.40 289.01
  C 143.02 305.30 143.69 319.01 150.16 333.93
  C 152.52 339.38 146.83 340.03 143.59 336.91
  Z"
/>
<path fill="#000000" d="
  M 820.49 302.75
  C 815.91 304.06 805.55 303.44 804.89 296.88
  Q 804.03 288.20 812.94 288.04
  Q 834.34 287.67 855.75 287.89
  C 860.47 287.94 866.31 287.61 867.45 292.02
  C 868.34 295.44 867.95 300.01 864.31 301.74
  C 859.11 304.21 854.25 303.04 848.71 302.79
  Q 838.75 302.35 828.86 303.35
  C 826.24 303.61 822.34 302.22 820.49 302.75
  Z"
/>
<rect fill="#000000" x="713.25" y="347.25" width="241.76" height="10.98" rx="5.06"/>
<path fill="#000000" d="
  M 722.67 516.94
  A 0.54 0.53 12.7 0 0 722.19 516.19
  Q 708.51 515.86 694.78 516.02
  C 684.78 516.14 682.95 500.48 695.81 500.37
  Q 714.41 500.21 732.51 500.25
  A 2.57 2.56 -75.8 0 0 734.79 498.89
  Q 743.09 483.25 750.03 466.67
  C 752.43 460.93 759.19 456.00 764.16 452.58
  C 775.86 444.51 790.81 451.09 793.40 464.70
  C 794.44 470.21 797.44 490.98 788.28 491.80
  Q 780.41 492.51 780.19 484.73
  Q 780.00 478.01 779.64 471.26
  C 779.47 468.04 776.76 461.71 772.70 464.95
  C 768.69 468.15 765.36 470.47 763.18 475.16
  C 759.45 483.18 756.63 491.53 752.62 499.45
  A 0.57 0.57 0.0 0 0 753.14 500.28
  C 762.20 500.17 775.74 498.73 783.96 502.40
  C 788.28 504.34 790.17 508.72 786.30 512.31
  C 783.81 514.62 780.32 515.95 776.61 516.00
  C 765.54 516.16 754.07 515.66 743.07 516.16
  Q 742.58 516.18 742.34 516.62
  Q 741.55 518.04 738.79 522.01
  C 730.10 534.50 720.72 546.72 708.80 556.30
  C 703.35 560.69 696.44 563.79 689.56 559.85
  Q 689.16 559.62 689.00 559.19
  C 687.07 553.86 689.30 551.45 693.58 548.24
  C 704.55 539.99 712.92 529.81 721.33 519.10
  Q 722.18 518.02 722.67 516.94
  Z"
/>
<path fill="#000000" d="
  M 898.25 502.97
  C 902.09 503.76 905.64 504.48 909.59 504.02
  C 927.33 501.97 945.15 495.28 957.98 483.47
  C 961.25 480.45 971.31 476.71 971.99 483.95
  C 972.26 486.93 972.43 490.64 970.27 493.02
  C 953.13 511.90 924.40 521.75 899.44 519.45
  C 896.88 519.21 894.26 518.28 891.50 517.63
  A 0.75 0.75 0.0 0 0 890.66 518.04
  Q 884.54 530.89 877.27 543.03
  C 874.60 547.48 871.24 552.64 866.53 552.66
  C 856.48 552.69 858.89 541.88 862.49 536.57
  C 863.79 534.65 864.43 532.59 865.59 530.58
  Q 869.37 524.06 872.43 517.40
  A 0.45 0.45 0.0 0 0 871.82 516.81
  C 867.34 519.10 863.72 520.94 858.42 522.79
  Q 854.83 524.04 851.44 525.85
  Q 850.99 526.09 850.73 526.52
  C 844.23 537.32 836.99 546.54 826.66 552.16
  C 820.43 555.54 810.69 559.69 804.06 559.71
  C 786.79 559.75 782.01 540.59 785.79 527.43
  C 789.77 513.52 805.78 499.53 818.09 491.70
  C 825.60 486.93 838.68 481.05 847.29 485.65
  C 854.23 489.35 857.38 497.28 857.00 505.06
  A 0.66 0.66 0.0 0 0 857.95 505.69
  C 867.34 501.04 876.87 496.16 885.07 489.53
  C 888.74 486.55 891.32 485.53 895.70 486.58
  C 900.20 487.65 902.37 491.99 901.48 496.36
  C 901.04 498.56 899.40 500.52 898.04 502.44
  Q 897.73 502.87 898.25 502.97
  Z
  M 826.95 510.47
  C 830.49 511.82 840.72 514.87 840.97 508.51
  C 841.10 505.41 841.59 501.81 839.15 500.12
  A 1.00 1.00 0.0 0 0 838.25 500.00
  Q 830.78 502.63 826.58 509.37
  A 0.76 0.75 26.6 0 0 826.95 510.47
  Z
  M 802.73 543.56
  C 809.60 543.93 825.63 535.19 829.26 529.26
  A 1.09 1.09 0.0 0 0 828.60 527.64
  Q 821.87 525.86 816.36 522.27
  C 814.14 520.83 813.13 518.66 811.83 516.43
  Q 811.41 515.69 810.81 516.30
  Q 806.49 520.71 803.38 525.99
  C 799.69 532.26 797.73 536.70 801.84 543.05
  A 1.14 1.11 -14.6 0 0 802.73 543.56
  Z"
/>
<path fill="#000000" d="
  M 478.62 606.88
  Q 456.25 583.71 441.76 555.06
  C 440.02 551.62 420.65 519.67 436.78 523.87
  Q 437.29 524.00 437.51 524.48
  C 449.82 551.14 464.17 575.70 483.51 597.56
  C 484.79 599.00 485.81 601.01 487.25 602.48
  Q 490.02 605.33 491.16 609.85
  A 2.19 2.19 0.0 0 1 489.78 612.44
  C 485.49 613.97 481.37 609.72 478.62 606.88
  Z"
/>
<path fill="#000000" d="
  M 543.65 715.12
  Q 542.58 714.67 542.54 713.50
  C 542.42 709.75 542.86 706.70 544.35 703.08
  C 552.35 683.55 565.01 668.82 584.49 659.26
  Q 590.66 656.23 596.45 657.69
  Q 596.93 657.81 597.13 658.26
  Q 599.93 664.49 594.09 666.55
  C 579.15 671.81 567.88 682.60 559.62 695.81
  C 556.65 700.56 554.32 706.80 551.54 712.25
  C 549.68 715.88 547.39 716.71 543.65 715.12
  Z"
/>
<path fill="#000000" d="
  M 849.25 702.63
  A 0.48 0.48 0.0 0 0 848.46 702.52
  C 838.67 713.36 829.44 724.85 822.03 737.52
  C 818.38 743.76 812.92 754.83 805.68 751.67
  C 801.56 749.88 801.14 745.10 802.76 741.47
  Q 811.06 722.86 823.59 706.93
  C 836.26 690.81 849.34 677.01 871.24 675.60
  C 879.53 675.07 887.41 675.33 894.87 679.17
  C 914.18 689.13 924.80 712.73 928.14 733.09
  C 930.79 749.25 927.21 768.03 922.73 783.79
  C 921.25 789.02 914.98 791.12 910.54 788.23
  Q 909.31 787.43 907.27 784.09
  C 905.70 781.53 903.47 779.01 902.02 776.87
  Q 880.72 745.54 858.11 715.13
  C 855.55 711.69 851.67 707.43 849.25 702.63
  Z
  M 911.37 730.93
  C 907.79 715.41 899.80 697.84 883.69 691.77
  C 877.23 689.34 869.03 691.32 862.59 693.39
  A 0.87 0.86 62.5 0 0 862.17 694.74
  C 877.32 714.76 892.35 734.72 907.02 755.10
  C 907.90 756.32 909.61 758.08 910.29 760.00
  A 0.88 0.88 0.0 0 0 912.00 759.78
  C 912.41 754.70 913.61 749.05 913.12 744.05
  C 912.68 739.61 912.30 734.96 911.37 730.93
  Z"
/>
<path fill="#000000" d="
  M 836.56 729.25
  C 844.27 729.91 849.89 733.73 854.96 739.29
  C 869.06 754.72 879.11 765.88 887.15 781.20
  C 892.29 790.98 899.34 801.29 900.39 812.61
  C 901.03 819.56 899.69 826.12 894.74 831.29
  C 889.29 836.99 872.07 832.32 866.65 827.44
  Q 860.58 821.98 854.97 816.04
  C 853.96 814.97 853.39 813.61 852.44 812.55
  C 840.77 799.48 832.34 781.86 826.34 766.67
  C 821.21 753.69 818.99 738.59 832.57 730.19
  Q 834.40 729.06 836.56 729.25
  Z
  M 867.99 806.77
  C 873.57 812.73 875.95 815.86 882.49 817.83
  Q 884.21 818.35 884.41 816.56
  Q 884.94 811.96 882.67 806.89
  C 876.13 792.27 867.49 777.80 856.91 765.76
  C 853.90 762.35 842.54 748.05 838.20 748.34
  Q 836.81 748.43 837.23 749.76
  C 843.77 770.36 852.91 790.70 867.99 806.77
  Z"
/>
<path fill="#000000" d="
  M 842.13 879.95
  C 829.84 871.70 819.77 861.24 811.93 848.56
  Q 802.40 833.14 791.10 810.72
  Q 787.31 803.19 786.45 795.85
  C 784.65 780.45 794.36 770.85 809.77 778.23
  C 819.80 783.03 829.51 792.22 836.80 801.18
  C 840.78 806.08 845.09 810.97 848.60 816.02
  Q 860.08 832.58 865.50 842.75
  C 869.79 850.83 873.25 865.85 869.85 874.24
  C 865.74 884.39 850.79 885.77 842.13 879.95
  Z
  M 835.44 850.56
  C 841.56 856.21 846.08 861.58 853.52 865.63
  A 0.76 0.76 0.0 0 0 854.62 864.78
  Q 851.56 852.79 845.29 842.45
  C 834.10 824.00 821.59 804.89 802.58 792.54
  A 1.04 1.04 0.0 0 0 801.02 793.72
  C 805.59 808.53 814.56 822.66 823.66 835.06
  C 827.56 840.37 830.60 846.09 835.44 850.56
  Z"
/>
<path fill="#000000" d="
  M 784.63 922.12
  Q 767.14 906.09 755.06 885.70
  Q 751.47 879.63 743.96 860.82
  Q 737.94 845.72 742.00 829.53
  C 745.44 815.84 756.73 811.93 769.22 816.00
  C 775.06 817.90 784.39 823.99 785.54 830.72
  C 786.20 834.54 784.40 839.24 779.85 839.34
  C 772.96 839.49 769.31 830.03 762.06 830.36
  C 744.72 831.16 765.84 873.89 769.93 880.20
  Q 784.00 901.91 804.20 918.29
  C 808.04 921.39 819.62 926.78 822.60 919.64
  C 824.96 913.98 821.73 901.09 819.01 895.65
  Q 812.85 883.33 805.45 872.00
  A 0.58 0.58 0.0 0 0 804.46 872.03
  Q 801.93 876.47 798.22 879.93
  C 795.73 882.26 794.78 885.34 790.14 884.13
  C 773.07 879.68 792.54 860.88 797.80 856.00
  C 801.15 852.91 804.36 852.37 808.57 853.38
  C 817.04 855.40 828.73 879.73 832.95 887.78
  C 836.48 894.52 837.68 903.33 839.23 910.75
  Q 839.63 912.68 838.87 919.29
  C 837.24 933.33 827.35 939.78 814.01 938.70
  C 802.56 937.78 793.73 930.46 784.63 922.12
  Z"
/>
</svg>
