<?xml version="1.0" encoding="UTF-8" standalone="no"?>
<!DOCTYPE svg PUBLIC "-//W3C//DTD SVG 1.1//EN" "http://www.w3.org/Graphics/SVG/1.1/DTD/svg11.dtd">
<svg xmlns="http://www.w3.org/2000/svg" version="1.1" viewBox="0.00 0.00 1256.00 1669.00">
<path fill="#000000" d="
  M 489.15 348.00
  C 488.37 347.00 486.49 345.56 486.02 344.45
  Q 483.86 339.36 481.10 334.56
  C 479.01 330.94 477.91 325.67 477.70 321.43
  Q 477.56 318.58 476.92 316.32
  C 473.85 305.41 472.87 295.25 470.56 284.68
  Q 470.12 282.67 469.97 279.76
  C 469.82 276.85 468.88 274.02 469.20 271.17
  C 469.77 265.95 467.38 262.32 468.78 257.01
  C 470.40 250.83 466.93 245.79 467.01 239.71
  C 467.10 233.44 466.89 227.34 467.73 221.02
  C 468.27 216.95 468.35 213.21 469.36 209.07
  C 470.11 206.04 469.74 203.01 470.75 200.18
  Q 471.53 198.02 472.44 195.89
  Q 472.64 195.43 472.51 194.94
  C 472.03 193.05 470.57 191.73 469.91 190.26
  Q 467.95 185.84 466.04 181.42
  C 465.10 179.25 465.88 177.49 465.32 175.40
  C 464.14 171.00 464.16 166.08 463.31 162.25
  Q 461.59 154.49 459.08 146.93
  C 458.57 145.42 459.20 141.95 459.05 139.95
  Q 458.48 132.10 460.63 124.56
  C 461.36 121.99 461.32 119.12 462.46 116.20
  Q 463.65 113.17 465.01 107.02
  C 466.91 98.48 473.28 94.00 479.53 88.47
  Q 482.35 85.98 485.62 84.06
  A 1.40 1.37 -6.8 0 0 486.24 83.29
  C 487.68 79.04 488.20 74.42 491.92 71.26
  A 1.58 1.55 -13.7 0 0 492.43 70.44
  C 493.54 66.08 496.54 65.09 499.12 62.29
  C 501.00 60.25 503.24 58.78 505.07 56.66
  C 509.85 51.12 514.88 50.05 520.90 46.63
  Q 527.74 42.73 535.73 42.35
  Q 537.69 42.25 539.59 41.37
  Q 544.70 39.01 550.34 39.14
  Q 553.08 39.21 555.10 38.58
  Q 565.01 35.52 575.07 33.02
  C 580.06 31.78 583.99 32.76 589.25 32.26
  C 591.76 32.03 593.95 33.78 596.31 33.94
  C 598.56 34.09 600.64 33.82 602.84 34.41
  C 608.33 35.88 614.62 36.20 619.30 37.60
  C 623.76 38.93 627.71 41.17 632.31 42.00
  Q 644.71 44.24 655.29 51.12
  C 656.57 51.96 660.18 53.66 661.77 53.90
  C 667.23 54.73 671.04 57.71 675.57 60.52
  C 680.87 63.82 687.19 65.88 692.83 68.72
  Q 693.61 69.11 698.22 70.98
  C 701.25 72.20 703.42 74.18 706.43 75.68
  C 709.85 77.39 713.51 82.27 716.07 85.19
  Q 726.68 97.30 737.96 108.79
  C 744.11 115.06 746.59 124.23 755.65 128.27
  Q 761.70 130.98 762.09 131.22
  C 767.50 134.63 770.29 139.37 774.84 143.76
  Q 777.05 145.89 778.77 148.56
  C 781.00 152.01 783.60 155.03 785.22 158.82
  Q 790.12 170.29 793.02 174.46
  C 797.99 181.62 800.18 191.67 802.50 200.03
  C 803.15 202.41 805.22 204.17 804.01 207.42
  A 1.46 1.45 -44.7 0 0 804.00 208.40
  Q 805.52 212.82 804.51 217.21
  C 803.70 220.71 803.55 223.16 803.18 226.28
  C 802.59 231.21 804.87 234.69 802.04 239.50
  C 800.41 242.28 799.77 244.77 796.72 246.87
  C 793.06 249.38 790.96 253.76 787.21 255.48
  Q 774.27 261.41 761.32 266.26
  A 0.86 0.85 -86.0 0 1 760.27 265.05
  Q 763.99 258.24 771.30 255.54
  A 1.50 1.50 0.0 0 0 772.19 254.65
  Q 773.56 250.95 777.00 249.01
  A 1.38 1.37 83.7 0 0 777.63 248.22
  C 779.21 243.22 783.10 242.67 785.78 238.96
  C 787.59 236.46 788.68 235.43 790.69 233.73
  Q 791.08 233.40 791.22 232.90
  C 793.78 223.45 792.96 215.24 792.97 205.69
  C 792.98 200.22 792.62 194.81 789.73 190.01
  Q 789.48 189.59 789.49 188.34
  Q 789.51 187.39 789.33 186.68
  C 787.10 177.89 782.84 166.56 776.16 160.67
  C 774.29 159.02 773.76 156.91 772.03 155.34
  C 767.08 150.85 760.49 146.06 756.74 140.58
  Q 753.51 135.87 748.26 132.28
  C 745.25 130.22 743.31 126.63 739.81 124.69
  Q 727.35 117.76 714.85 110.88
  Q 713.22 109.99 713.53 108.58
  A 0.98 0.97 14.5 0 1 714.77 107.86
  Q 723.67 110.58 731.20 114.40
  Q 735.63 116.65 740.08 118.49
  A 0.38 0.38 0.0 0 0 740.49 117.87
  C 732.64 109.99 725.39 100.93 716.16 94.04
  Q 715.26 93.37 715.45 94.47
  L 715.80 96.52
  A 1.63 1.62 10.9 0 1 713.35 98.17
  Q 705.81 93.59 698.21 90.42
  Q 695.05 89.10 691.98 87.60
  C 686.40 84.87 681.14 84.21 675.44 82.41
  Q 671.31 81.11 667.03 80.34
  C 661.94 79.43 655.25 79.99 649.24 78.62
  C 644.89 77.63 640.82 78.47 636.41 78.01
  Q 634.29 77.79 631.33 78.62
  C 626.63 79.96 620.72 77.79 615.36 78.76
  Q 611.53 79.45 607.63 79.63
  C 603.55 79.81 599.89 81.35 595.14 79.06
  A 1.09 1.07 7.0 0 1 594.54 78.31
  C 593.66 74.43 595.58 71.94 599.24 70.49
  Q 607.65 67.18 613.26 66.77
  C 619.08 66.35 627.50 64.75 633.06 65.89
  C 637.19 66.73 640.41 65.12 644.48 65.19
  Q 646.91 65.23 650.86 66.47
  Q 658.70 68.93 666.67 70.81
  C 675.59 72.91 683.51 76.89 691.71 80.79
  A 0.39 0.38 13.7 0 0 692.26 80.46
  C 692.28 79.82 691.91 79.33 691.31 79.10
  C 688.67 78.13 686.30 76.39 683.79 75.55
  C 678.60 73.80 674.03 71.41 668.69 69.59
  C 664.25 68.07 660.70 64.95 656.77 63.56
  C 650.56 61.35 644.35 58.84 637.75 57.96
  C 634.54 57.52 632.13 57.19 628.93 55.75
  C 625.31 54.12 621.08 53.69 617.72 52.63
  C 608.53 49.72 597.89 48.94 589.12 47.11
  C 585.74 46.40 579.06 45.40 575.61 46.16
  C 571.39 47.08 565.99 49.45 561.79 49.17
  Q 557.05 48.86 552.55 50.13
  C 546.78 51.76 541.63 52.35 536.24 53.84
  C 533.69 54.54 531.92 54.12 530.62 57.04
  A 1.65 1.64 -3.7 0 1 529.96 57.79
  Q 526.44 59.92 521.50 61.00
  C 518.69 61.61 516.04 65.13 513.69 66.90
  C 508.83 70.54 504.25 75.34 501.47 80.81
  Q 499.08 85.50 496.62 90.16
  C 494.73 93.74 490.00 94.05 486.47 94.04
  A 0.88 0.87 -73.6 0 0 485.73 94.45
  Q 478.54 106.00 476.31 112.51
  Q 471.56 126.34 472.15 144.60
  C 472.24 147.47 473.98 149.19 474.50 151.81
  C 476.51 162.01 477.50 172.27 480.43 182.33
  A 0.63 0.63 0.0 0 0 481.49 182.60
  C 483.80 180.26 486.37 177.44 489.80 176.98
  Q 500.51 175.55 508.30 182.30
  C 512.62 186.04 517.59 194.42 519.81 199.92
  C 520.81 202.39 522.89 204.31 523.65 206.64
  C 525.52 212.38 525.33 218.06 526.97 223.72
  C 527.94 227.05 528.78 230.25 528.77 233.84
  Q 528.75 246.00 529.67 258.14
  Q 529.71 258.66 529.35 259.04
  Q 528.29 260.15 526.68 259.05
  Q 525.64 258.34 525.20 255.42
  C 523.28 242.67 522.94 231.55 518.39 218.20
  C 517.04 214.23 516.51 210.22 514.58 206.56
  C 511.17 200.13 508.30 191.75 501.99 187.47
  Q 501.58 187.19 501.09 187.18
  Q 498.76 187.12 495.01 186.71
  C 491.81 186.36 486.97 192.08 485.81 194.78
  Q 482.36 202.84 481.77 207.26
  Q 480.28 218.32 480.32 240.47
  C 480.33 245.87 483.47 249.77 482.19 255.49
  C 481.02 260.69 481.04 267.90 481.72 273.23
  C 482.37 278.26 482.04 283.27 482.85 288.20
  C 483.83 294.11 484.08 300.87 484.88 305.91
  C 487.26 320.76 491.83 337.63 505.26 346.48
  Q 505.64 346.73 506.10 346.65
  C 516.06 344.94 515.46 337.34 518.41 329.80
  C 521.34 322.28 521.03 313.30 523.64 306.43
  Q 524.63 303.82 527.74 303.94
  Q 528.22 303.96 528.33 304.43
  Q 529.71 310.67 530.08 316.99
  C 530.27 320.27 529.50 324.24 529.81 328.02
  Q 529.86 328.52 529.65 328.98
  C 527.57 333.48 528.36 341.80 524.76 345.38
  Q 524.39 345.75 524.46 346.26
  C 524.67 347.72 525.07 348.78 524.89 350.29
  C 524.32 355.12 526.12 359.08 526.01 363.37
  C 525.86 368.91 524.39 374.31 524.56 379.69
  C 525.01 394.39 523.70 407.28 523.81 423.75
  Q 523.84 428.81 524.94 432.78
  C 526.00 436.63 525.84 439.24 525.61 442.88
  Q 525.58 443.40 525.19 443.73
  L 521.06 447.25
  A 1.17 1.17 0.0 0 1 519.18 446.70
  C 517.08 439.85 516.97 432.92 516.20 425.90
  Q 516.15 425.39 514.26 412.65
  Q 512.58 401.36 513.55 389.92
  Q 513.74 387.68 513.38 385.11
  C 512.51 378.83 516.19 372.28 515.15 366.49
  Q 515.03 365.79 514.47 366.23
  C 510.30 369.57 504.37 373.22 498.90 371.30
  A 1.12 1.08 -50.0 0 0 497.97 371.40
  Q 492.80 374.50 486.81 374.54
  C 484.25 374.56 482.64 376.10 480.18 376.26
  C 471.89 376.83 464.09 378.60 455.65 377.84
  Q 449.22 377.25 442.79 377.75
  C 439.63 377.99 436.99 379.81 433.14 379.05
  C 424.60 377.36 415.04 377.25 406.46 379.25
  Q 400.96 380.54 395.30 380.71
  C 393.57 380.76 391.92 381.62 390.25 381.69
  Q 384.53 381.92 373.45 382.01
  C 369.45 382.05 366.04 383.34 362.14 384.14
  C 359.34 384.71 357.54 386.28 354.94 387.09
  C 346.75 389.64 341.77 395.00 334.44 399.72
  C 328.63 403.46 323.63 408.04 318.05 412.16
  Q 316.47 413.33 315.46 415.25
  C 313.16 419.63 309.15 422.29 306.61 426.64
  C 303.37 432.18 300.39 436.22 297.66 441.24
  A 1.74 1.70 -33.0 0 0 297.44 442.22
  Q 298.02 449.97 293.26 456.00
  A 1.43 1.39 63.8 0 0 292.97 456.89
  C 293.06 462.08 292.63 465.94 288.31 468.59
  C 285.47 470.33 283.81 471.59 282.79 475.01
  Q 281.31 480.02 279.10 484.74
  C 277.26 488.68 278.04 492.17 276.77 496.11
  Q 274.98 501.70 273.99 507.51
  C 273.74 508.94 274.82 511.57 274.77 513.51
  C 274.63 518.58 274.94 523.48 274.22 528.46
  C 271.47 547.60 270.85 563.18 269.40 580.63
  C 269.24 582.57 267.93 584.81 268.10 587.08
  C 268.30 589.75 267.85 591.95 268.19 594.51
  C 268.69 598.27 266.83 600.64 267.23 604.21
  Q 267.60 607.47 267.54 610.75
  C 267.48 614.54 265.02 616.69 264.64 620.47
  Q 264.32 623.54 263.33 626.29
  A 2.12 2.11 -55.4 0 0 263.71 628.37
  C 266.14 631.25 267.07 635.19 268.67 638.04
  C 271.44 642.98 273.36 647.39 276.45 653.10
  Q 280.16 659.94 281.55 667.72
  A 1.67 1.63 -72.7 0 0 281.99 668.58
  Q 285.01 671.64 285.52 672.74
  Q 290.17 682.67 295.66 692.16
  Q 297.88 696.00 303.96 704.48
  Q 311.79 715.41 317.58 727.60
  C 319.94 732.56 323.26 736.26 326.52 740.48
  C 331.67 747.14 336.11 754.48 340.95 761.37
  C 347.52 770.72 356.84 778.82 364.86 786.98
  C 366.10 788.24 367.33 788.74 369.01 788.75
  A 1.15 1.14 -89.5 0 1 370.14 789.91
  Q 370.12 791.08 368.68 791.66
  C 363.00 793.96 345.92 776.09 341.36 772.09
  C 336.37 767.71 331.75 762.50 326.88 757.72
  C 322.34 753.27 318.87 747.62 314.10 742.98
  C 311.90 740.84 310.11 737.67 307.06 735.70
  Q 306.65 735.44 306.44 735.00
  C 304.49 731.05 303.05 727.68 301.49 723.62
  C 299.00 717.16 293.61 711.99 289.74 706.26
  C 287.94 703.60 285.66 701.72 284.27 698.89
  Q 282.77 695.85 281.40 692.76
  C 280.18 690.01 277.92 687.47 276.75 684.43
  C 275.43 681.01 272.68 679.26 272.38 675.54
  Q 272.14 672.57 270.68 670.05
  C 268.32 665.97 266.45 661.90 264.46 657.64
  C 263.20 654.92 259.32 648.64 257.62 643.80
  Q 256.33 640.12 255.35 637.92
  C 250.35 626.77 250.17 617.25 253.34 605.10
  Q 253.47 604.60 253.28 604.13
  Q 252.54 602.22 254.77 602.08
  A 0.62 0.61 -4.9 0 0 255.35 601.40
  C 254.52 593.71 256.46 586.04 256.87 579.95
  C 257.27 573.91 257.24 567.58 257.84 561.80
  Q 258.60 554.34 259.33 546.87
  C 259.65 543.56 259.52 538.09 260.74 533.62
  C 262.16 528.43 261.73 523.46 261.76 518.24
  C 261.78 515.06 260.37 511.84 261.04 508.20
  C 261.90 503.62 261.59 499.88 263.10 495.53
  C 265.44 488.76 263.17 481.61 266.35 474.80
  C 270.93 465.02 276.21 455.64 280.64 445.80
  C 282.25 442.23 284.65 439.09 286.29 435.71
  C 289.04 430.06 293.51 423.81 295.94 419.60
  C 298.15 415.76 300.30 411.75 303.05 408.38
  C 310.21 399.60 321.12 388.16 331.79 383.93
  C 337.64 381.61 343.54 377.80 349.65 376.56
  Q 358.13 374.84 366.23 371.82
  C 368.84 370.85 371.20 371.56 373.82 371.00
  C 378.04 370.09 382.67 370.37 386.37 369.78
  Q 394.20 368.54 401.98 366.99
  C 410.25 365.35 418.85 365.83 427.19 365.73
  C 429.30 365.71 432.64 366.38 435.54 365.58
  Q 438.96 364.64 440.09 364.69
  C 443.08 364.83 445.38 366.29 448.10 366.29
  Q 452.77 366.29 457.21 364.77
  Q 457.69 364.61 458.19 364.71
  C 462.16 365.54 466.63 364.74 469.66 364.75
  C 481.19 364.79 486.13 362.60 496.13 355.78
  Q 496.50 355.53 496.16 355.24
  Q 492.20 351.94 489.15 348.00
  Z
  M 707.31 87.94
  C 705.01 86.26 702.58 83.83 699.77 83.15
  Q 698.03 82.72 696.30 82.19
  Q 695.93 82.08 696.10 82.43
  L 696.31 82.87
  Q 696.42 83.10 696.66 83.20
  Q 702.15 85.54 707.04 88.96
  A 0.50 0.50 0.0 0 0 707.80 88.39
  Q 707.65 87.94 707.31 87.94
  Z"
/>
<path fill="#000000" d="
  M 557.98 74.80
  C 559.21 61.08 573.73 57.13 585.62 55.23
  C 589.46 54.61 592.84 54.99 596.51 55.76
  A 0.89 0.88 86.5 0 1 597.18 56.36
  Q 597.48 57.31 597.06 57.75
  Q 596.78 58.03 595.98 58.07
  Q 582.00 58.77 569.82 65.29
  C 564.92 67.91 562.38 70.50 560.17 75.38
  A 1.15 1.15 0.0 0 1 557.98 74.80
  Z"
/>
<path fill="#000000" d="
  M 695.03 218.74
  C 694.29 223.33 689.75 232.08 683.98 228.65
  A 0.99 0.99 0.0 0 1 683.93 226.98
  Q 687.97 224.23 688.95 219.24
  C 692.25 202.56 688.92 184.41 682.17 169.00
  C 679.96 163.97 678.74 160.97 677.15 156.88
  C 675.33 152.23 670.93 149.82 666.69 146.82
  Q 658.65 141.13 646.31 128.80
  C 643.70 126.19 640.07 125.42 637.04 123.07
  C 633.96 120.68 630.89 119.28 627.90 117.11
  C 624.09 114.34 619.23 110.32 614.59 109.29
  Q 609.61 108.20 605.91 104.57
  Q 605.55 104.21 605.04 104.13
  Q 602.95 103.79 600.90 103.50
  C 597.82 103.07 595.37 101.23 592.06 100.93
  C 587.49 100.52 578.42 99.90 578.72 93.24
  C 579.14 84.15 591.35 87.56 596.99 89.28
  Q 601.94 90.79 605.38 91.39
  C 611.51 92.45 617.13 95.85 622.66 98.56
  C 632.81 103.54 642.57 110.83 650.96 117.56
  C 654.94 120.76 659.33 122.89 662.68 126.21
  C 666.72 130.21 672.82 134.59 675.50 139.52
  C 677.88 143.89 680.92 148.10 682.71 153.11
  Q 684.67 158.61 685.80 161.14
  Q 694.17 179.92 696.51 200.38
  C 697.21 206.53 696.01 212.62 695.03 218.74
  Z"
/>
<path fill="#000000" d="
  M 577.47 457.47
  C 572.31 454.29 567.61 451.19 563.51 446.45
  C 560.01 442.40 557.14 439.09 552.77 434.80
  C 549.34 431.43 547.53 427.87 545.21 424.22
  C 542.89 420.56 541.72 416.37 539.79 412.49
  C 537.48 407.84 537.78 403.13 535.22 398.24
  C 533.77 395.48 534.57 393.54 533.94 390.74
  Q 532.45 384.18 531.68 377.51
  Q 531.58 376.69 531.87 376.30
  A 0.83 0.82 53.9 0 1 533.33 376.53
  C 536.91 387.87 544.44 399.96 548.49 408.26
  C 550.20 411.77 551.14 416.13 553.32 419.58
  C 557.79 426.65 563.59 432.89 568.73 439.50
  Q 570.17 441.37 572.43 442.75
  C 576.99 445.56 580.35 449.46 584.79 452.20
  C 586.86 453.49 587.79 455.32 589.88 456.35
  Q 594.00 458.37 598.10 460.41
  C 602.01 462.35 605.70 462.31 609.88 462.26
  Q 610.38 462.25 610.78 462.55
  Q 613.99 464.92 616.26 465.43
  Q 630.86 468.71 645.78 468.78
  Q 648.90 468.79 652.57 467.74
  Q 658.95 465.92 665.51 464.94
  A 2.11 2.08 21.7 0 0 666.48 464.53
  Q 672.46 459.94 679.93 458.96
  Q 680.37 458.90 680.69 458.60
  Q 683.24 456.23 686.43 454.88
  C 688.97 453.82 689.80 452.13 691.90 450.80
  Q 698.26 446.78 704.69 442.90
  C 708.51 440.60 710.32 435.42 712.91 433.91
  C 719.48 430.09 720.27 426.74 724.48 421.50
  C 726.49 419.00 727.58 416.28 728.73 412.65
  C 729.72 409.56 731.45 406.26 732.40 403.78
  Q 736.21 393.80 737.27 388.01
  C 737.91 384.53 739.23 381.39 739.28 378.25
  Q 739.35 373.29 739.43 368.32
  C 739.47 365.49 738.76 361.75 739.29 358.26
  Q 739.49 356.99 739.06 355.89
  Q 738.86 355.37 738.36 355.14
  Q 735.56 353.90 732.48 353.86
  Q 731.95 353.86 731.55 353.52
  C 727.48 350.13 722.37 348.25 718.76 344.79
  C 714.77 340.97 711.57 337.21 707.12 333.16
  C 703.75 330.10 701.35 326.46 698.21 322.97
  Q 695.94 320.44 694.27 317.48
  A 1.93 1.93 0.0 0 1 695.28 314.72
  L 696.31 314.34
  Q 696.90 314.13 697.25 314.65
  Q 700.29 319.16 704.76 322.11
  C 708.57 324.62 710.18 326.52 712.94 329.80
  C 715.68 333.05 719.29 333.03 722.50 334.84
  C 728.99 338.52 736.47 342.93 744.15 343.57
  C 753.81 344.39 761.77 347.03 771.27 341.70
  C 773.60 340.40 777.08 336.19 778.33 333.72
  C 780.39 329.68 781.46 325.59 780.49 321.00
  C 777.06 304.81 765.01 299.88 749.23 293.99
  Q 743.19 291.74 730.94 284.08
  C 727.94 282.20 726.62 279.12 723.72 276.96
  C 719.71 273.98 717.19 270.33 714.14 266.69
  A 2.87 2.86 30.4 0 1 713.52 264.32
  Q 714.09 261.34 717.26 261.94
  A 0.68 0.67 89.1 0 0 718.04 261.13
  Q 716.59 254.75 715.81 248.36
  C 715.50 245.85 713.98 242.36 714.78 238.90
  A 0.59 0.59 0.0 0 0 713.67 238.52
  C 709.85 247.00 699.82 253.19 691.71 257.13
  A 0.67 0.67 0.0 0 1 690.75 256.53
  L 690.75 255.93
  A 1.07 1.06 -23.1 0 1 691.05 255.19
  C 694.93 251.27 698.20 247.03 702.40 243.44
  C 707.92 238.70 712.15 227.24 712.89 220.43
  C 713.75 212.57 713.64 204.56 711.49 196.86
  Q 709.75 190.64 709.11 184.20
  C 708.88 181.84 708.06 179.63 707.70 177.17
  C 707.21 173.72 704.29 172.14 703.70 168.59
  Q 702.57 161.85 699.97 155.57
  C 698.11 151.06 692.21 145.87 688.32 142.96
  Q 680.16 136.86 673.26 129.66
  A 0.98 0.98 0.0 0 1 674.19 128.03
  C 679.85 129.35 685.95 135.67 690.90 139.05
  Q 692.02 139.82 694.14 141.92
  C 695.57 143.34 697.39 144.18 698.73 145.59
  Q 701.76 148.80 705.01 151.79
  Q 705.40 152.15 705.85 151.87
  C 713.53 147.04 718.00 153.85 724.38 157.15
  C 727.42 158.71 731.62 160.00 735.12 161.88
  C 738.09 163.48 739.02 166.34 741.73 168.38
  Q 747.12 172.43 749.90 178.44
  C 752.13 183.24 753.73 185.88 756.26 189.59
  C 757.85 191.91 757.87 194.71 759.54 196.89
  Q 763.49 202.05 760.73 208.63
  A 1.28 1.26 -39.6 0 0 760.65 209.39
  C 761.06 211.41 761.53 212.77 760.83 214.86
  C 759.30 219.44 758.68 223.16 758.70 227.98
  C 758.71 231.66 755.84 233.13 754.38 235.31
  Q 751.49 239.63 750.60 244.77
  C 750.39 246.02 749.62 247.13 749.49 248.24
  C 748.60 255.88 747.95 269.43 741.47 271.42
  Q 740.99 271.56 740.83 271.09
  Q 739.57 267.46 740.02 264.26
  C 741.40 254.50 741.95 245.75 743.31 236.89
  C 743.76 234.03 742.83 231.07 743.91 227.88
  Q 744.07 227.41 743.94 226.93
  C 743.00 223.36 741.38 219.81 740.79 216.50
  C 739.97 211.97 740.20 207.60 739.55 203.11
  C 739.19 200.62 739.32 198.47 738.28 196.10
  C 736.12 191.19 735.47 185.60 733.16 181.23
  Q 731.34 177.79 729.32 174.92
  C 727.95 172.98 725.50 172.43 723.98 171.26
  Q 720.96 168.93 717.86 165.43
  Q 717.05 164.52 715.77 164.38
  Q 715.13 164.32 715.48 164.86
  Q 717.73 168.45 718.82 172.51
  C 720.03 177.00 721.98 181.23 722.36 185.93
  Q 723.01 194.22 722.27 202.46
  C 721.85 207.16 723.42 211.71 723.32 216.59
  C 723.21 221.74 720.22 226.46 717.50 230.70
  Q 717.16 231.24 717.67 231.62
  L 720.08 233.38
  A 1.40 1.37 -80.2 0 1 720.59 234.12
  C 722.98 242.55 723.85 250.57 724.56 259.27
  Q 724.74 261.37 724.00 264.50
  C 723.20 267.88 728.81 270.21 731.17 271.36
  C 737.66 274.54 743.69 278.21 749.80 282.05
  C 751.31 283.00 752.51 284.94 753.93 285.59
  Q 760.48 288.56 766.78 292.04
  C 771.80 294.82 778.08 296.90 782.09 302.44
  C 784.60 305.91 785.10 311.39 786.29 315.07
  Q 788.15 320.86 788.82 326.95
  C 789.64 334.42 785.80 338.70 781.63 344.15
  C 777.85 349.09 772.03 351.13 766.69 353.93
  C 765.66 354.46 763.63 354.07 762.18 354.67
  Q 757.87 356.43 753.35 357.15
  A 1.28 1.28 0.0 0 0 752.28 358.45
  L 752.58 370.84
  Q 752.63 372.73 754.51 372.69
  Q 764.65 372.47 773.98 372.64
  C 779.75 372.74 785.87 375.35 791.81 376.00
  C 797.19 376.58 801.11 378.42 806.08 379.93
  Q 809.86 381.07 813.55 382.83
  Q 823.56 387.62 834.16 390.91
  Q 836.87 391.75 839.45 393.45
  C 844.23 396.61 851.28 398.67 855.27 402.32
  Q 866.73 412.82 876.87 424.59
  Q 878.21 426.15 879.15 428.64
  Q 881.05 433.67 884.71 437.56
  C 896.44 450.02 901.24 469.38 903.77 485.84
  C 904.47 490.36 904.02 493.69 903.39 498.10
  C 902.40 504.95 900.26 507.25 903.07 514.57
  Q 905.19 520.07 906.32 525.87
  Q 906.41 526.36 906.23 526.84
  Q 903.24 534.36 901.94 542.28
  C 901.68 543.84 900.69 544.99 900.44 546.62
  Q 900.36 547.14 900.71 547.52
  C 901.86 548.76 902.47 550.24 903.49 551.41
  Q 909.54 558.30 912.77 565.23
  Q 914.68 569.33 913.00 574.25
  A 1.78 1.73 48.8 0 0 912.95 575.17
  C 914.24 581.14 914.59 587.63 912.74 593.48
  C 911.86 596.27 913.04 599.30 912.70 602.92
  Q 912.45 605.54 912.41 608.25
  Q 912.20 622.03 905.99 634.45
  Q 903.39 639.67 902.54 645.39
  Q 902.24 647.44 901.18 649.34
  C 897.48 655.98 897.20 663.31 891.67 669.47
  C 885.86 675.94 885.45 683.68 881.38 689.63
  C 878.76 693.49 876.14 698.02 873.79 700.55
  Q 866.77 708.12 861.50 717.21
  A 0.87 0.86 -23.3 0 1 859.91 716.58
  Q 862.43 705.97 868.95 696.92
  C 870.82 694.31 873.83 690.20 875.11 687.17
  C 878.93 678.22 880.28 668.91 886.11 660.78
  C 888.10 657.99 888.49 654.03 889.29 651.73
  C 892.43 642.66 895.74 633.71 897.70 624.19
  C 898.95 618.09 900.69 611.90 901.23 605.72
  C 901.50 602.61 901.50 599.61 902.59 596.64
  Q 904.78 590.70 905.01 588.51
  C 905.42 584.61 902.73 581.81 904.24 577.51
  A 1.78 1.73 -42.2 0 0 904.30 576.54
  C 903.85 574.46 903.21 573.08 903.38 570.82
  C 903.90 563.93 897.15 558.78 891.66 554.58
  C 887.66 551.52 891.60 539.95 893.77 535.10
  A 1.65 1.61 -38.3 0 0 893.89 534.17
  Q 893.15 529.55 892.36 525.00
  C 891.57 520.44 888.50 518.91 888.99 513.68
  C 889.49 508.41 888.16 503.88 889.08 498.06
  A 1.30 1.27 -58.2 0 0 888.87 497.13
  C 885.33 492.16 888.41 488.69 886.02 483.99
  Q 883.95 479.93 883.72 475.02
  C 883.57 471.58 882.24 469.35 881.83 466.21
  C 880.58 456.70 876.70 450.05 872.73 441.64
  C 870.77 437.49 867.10 434.59 864.94 431.25
  C 861.87 426.51 859.23 420.86 855.55 416.66
  Q 855.22 416.28 855.14 415.78
  C 853.70 406.81 844.09 404.62 837.97 398.91
  C 833.47 394.71 827.17 395.07 821.95 391.68
  Q 817.84 389.02 812.94 388.41
  C 809.40 387.96 805.99 389.84 802.55 390.90
  A 1.45 1.39 -43.8 0 1 801.74 390.90
  C 798.20 389.83 795.13 388.38 791.47 388.03
  Q 780.85 387.02 777.82 386.18
  Q 774.41 385.22 771.88 385.15
  C 767.60 385.03 763.82 384.61 759.74 384.38
  C 757.35 384.24 755.33 382.99 752.91 382.78
  A 1.48 1.47 -80.1 0 0 751.37 383.87
  Q 749.66 390.32 748.20 396.53
  C 747.37 400.01 745.30 402.77 744.81 406.20
  C 744.25 410.10 741.84 412.94 740.71 416.25
  C 738.37 423.07 734.17 426.58 731.77 432.59
  A 1.56 1.51 -5.3 0 1 731.13 433.34
  C 727.66 435.49 725.41 438.82 722.62 441.20
  Q 717.88 445.24 712.83 451.33
  C 710.54 454.09 706.52 455.83 703.83 458.05
  Q 697.20 463.50 689.42 467.21
  C 687.47 468.14 684.52 468.44 682.30 470.11
  Q 681.96 470.36 681.57 470.51
  L 676.17 472.59
  Q 675.61 472.81 675.52 473.41
  C 674.58 479.49 672.20 487.20 667.87 491.98
  C 666.12 493.91 665.91 496.38 664.16 497.84
  C 661.65 499.92 659.80 503.13 658.15 504.96
  Q 649.41 514.71 637.93 521.01
  C 633.23 523.59 627.56 524.40 622.34 526.68
  Q 620.14 527.65 617.82 527.72
  C 610.81 527.94 602.79 529.70 597.04 529.67
  C 581.39 529.57 557.96 518.73 551.34 503.66
  C 550.82 502.48 549.80 501.80 549.13 500.64
  C 546.65 496.33 542.39 491.95 540.32 489.07
  Q 529.80 474.43 526.16 456.81
  A 0.68 0.68 0.0 0 1 527.40 456.31
  C 529.07 458.97 529.82 461.84 531.66 464.26
  Q 537.18 471.53 541.98 479.29
  C 543.10 481.10 545.50 483.74 546.78 486.21
  C 548.65 489.79 554.79 498.09 558.33 499.86
  C 562.18 501.79 564.92 505.05 567.47 507.14
  Q 575.15 513.42 582.29 516.96
  C 589.83 520.70 600.50 517.85 609.04 517.68
  C 618.60 517.49 627.36 515.19 635.41 509.82
  C 641.12 506.01 647.13 502.30 651.41 497.18
  C 654.15 493.92 657.53 491.46 659.84 487.83
  Q 664.00 481.31 668.19 475.23
  A 0.66 0.66 0.0 0 0 667.19 474.37
  Q 660.15 481.00 650.41 479.97
  Q 649.94 479.92 649.53 480.16
  Q 645.68 482.44 641.46 481.51
  C 639.26 481.02 637.74 481.96 635.67 481.64
  C 631.33 480.97 627.16 479.95 622.75 479.32
  C 614.06 478.09 607.50 475.72 597.85 472.51
  Q 595.83 471.84 593.61 470.16
  Q 589.81 467.28 583.90 464.64
  Q 582.03 463.81 581.40 461.15
  A 1.22 1.20 10.0 0 0 580.86 460.39
  C 579.51 459.55 578.68 458.22 577.47 457.47
  Z"
/>
<path fill="#000000" d="
  M 589.91 146.90
  C 593.00 143.80 596.88 141.96 600.18 139.18
  C 604.30 135.71 609.73 134.24 614.53 132.24
  C 616.08 131.60 617.53 131.42 618.14 133.30
  A 1.89 1.89 0.0 0 1 617.45 135.42
  C 611.32 139.91 604.48 143.46 599.13 148.41
  C 595.04 152.19 591.15 155.77 587.73 160.25
  Q 581.29 168.69 575.49 177.09
  A 1.24 1.23 40.8 0 1 573.57 177.23
  C 570.20 173.63 572.71 169.40 574.77 166.08
  Q 581.22 155.61 589.91 146.90
  Z"
/>
<path fill="#000000" d="
  M 547.81 228.80
  C 552.47 222.55 558.10 216.54 563.01 210.78
  C 564.38 209.17 567.37 207.68 567.67 205.24
  Q 567.88 203.57 566.42 204.41
  C 562.74 206.54 555.64 211.64 551.55 210.78
  C 548.08 210.04 546.06 206.90 547.02 203.48
  C 548.12 199.60 555.24 195.46 559.03 195.14
  A 1.98 1.93 24.3 0 0 559.94 194.81
  Q 563.19 192.53 566.77 190.91
  C 570.95 189.03 574.16 186.35 578.48 184.70
  C 580.57 183.90 582.15 182.31 584.03 181.33
  C 587.70 179.43 590.37 176.29 593.59 174.26
  Q 601.27 169.41 607.67 163.04
  A 0.90 0.90 0.0 0 1 609.09 164.11
  C 607.91 166.25 606.71 168.55 604.96 170.38
  C 597.02 178.67 589.79 187.64 579.92 193.54
  A 1.64 1.64 0.0 0 0 579.41 195.88
  C 582.40 200.21 577.54 205.09 574.54 207.96
  Q 571.72 210.65 569.95 212.96
  C 566.49 217.49 553.35 232.78 547.11 232.55
  Q 546.46 232.53 546.54 231.89
  Q 546.76 230.20 547.81 228.80
  Z"
/>
<path fill="#000000" d="
  M 649.56 181.84
  A 2.16 2.16 0.0 0 0 647.13 183.13
  Q 643.32 192.37 642.10 202.34
  C 641.55 206.87 640.42 210.55 639.49 214.75
  A 1.22 1.22 0.0 0 1 637.10 214.71
  C 636.68 212.43 636.91 210.43 636.27 208.17
  C 634.74 202.81 635.80 197.89 636.87 191.64
  Q 637.97 185.27 641.70 179.95
  C 644.29 176.26 649.21 175.35 653.38 175.52
  C 656.62 175.65 659.22 178.14 661.88 179.89
  Q 662.30 180.17 662.51 180.62
  C 665.07 186.02 667.19 190.45 666.93 196.59
  A 1.67 1.67 0.0 0 1 664.82 198.13
  C 658.09 196.26 656.56 183.26 649.56 181.84
  Z"
/>
<path fill="#000000" d="
  M 671.69 297.59
  A 1.27 1.24 -87.6 0 1 670.87 296.68
  Q 669.07 288.95 666.63 281.16
  Q 664.91 275.65 663.67 264.33
  C 662.87 256.95 669.80 256.18 671.53 261.79
  C 672.37 264.53 672.56 268.77 673.46 272.34
  Q 676.36 283.90 675.47 295.86
  A 1.62 1.56 69.0 0 1 675.07 296.81
  Q 673.74 298.30 671.69 297.59
  Z"
/>
<path fill="#000000" d="
  M 657.19 354.81
  C 649.85 350.52 655.48 340.65 664.22 346.59
  Q 673.04 352.57 678.43 353.84
  Q 682.88 354.88 684.24 355.41
  C 690.07 357.69 693.58 356.18 699.33 355.77
  Q 701.59 355.61 704.45 354.44
  C 709.42 352.41 709.02 359.49 706.55 361.75
  C 704.54 363.58 701.82 362.86 699.63 364.36
  C 693.47 368.56 686.92 367.92 680.05 366.11
  C 676.61 365.20 672.96 363.03 669.22 361.70
  C 665.09 360.23 661.43 357.30 657.19 354.81
  Z"
/>
<path fill="#000000" d="
  M 913.10 1669.00
  L 706.95 1669.00
  Q 705.65 1668.63 705.82 1668.04
  C 707.26 1662.83 706.85 1657.65 707.75 1652.52
  C 708.71 1646.99 708.37 1641.47 709.17 1636.01
  Q 709.98 1630.44 709.96 1624.81
  Q 709.94 1619.44 708.18 1613.91
  C 704.65 1602.86 699.33 1594.75 693.22 1585.77
  C 685.49 1574.43 674.06 1565.92 665.40 1555.17
  A 1.86 1.86 0.0 0 0 664.60 1554.59
  Q 661.53 1553.39 658.44 1550.34
  Q 653.74 1545.69 646.43 1544.59
  Q 643.96 1544.22 641.26 1541.03
  A 1.87 1.85 -9.8 0 0 640.47 1540.48
  C 637.33 1539.37 634.82 1537.66 631.69 1536.90
  C 625.16 1535.31 614.61 1531.78 608.10 1532.79
  Q 602.48 1533.67 596.80 1533.56
  C 594.52 1533.51 592.46 1534.48 589.94 1534.19
  C 585.28 1533.66 580.62 1534.90 575.84 1534.70
  C 571.20 1534.52 568.56 1536.11 565.56 1539.29
  A 0.92 0.90 25.6 0 1 564.74 1539.57
  C 562.98 1539.26 561.92 1539.11 560.03 1539.61
  C 557.76 1540.21 555.29 1539.72 553.40 1540.38
  C 550.57 1541.38 545.36 1544.22 543.04 1546.37
  Q 540.37 1548.85 536.85 1550.03
  A 1.81 1.76 9.2 0 0 536.04 1550.60
  Q 530.85 1556.90 524.28 1561.68
  C 516.51 1567.34 510.32 1574.82 504.53 1582.42
  C 499.14 1589.49 496.93 1595.25 496.03 1603.75
  Q 495.23 1611.19 493.00 1621.68
  A 1.25 1.22 70.8 0 1 492.78 1622.15
  L 490.30 1625.22
  A 1.00 1.00 0.0 0 0 490.14 1626.17
  Q 491.41 1629.65 491.06 1631.26
  C 489.22 1639.58 491.71 1647.82 492.37 1657.24
  C 492.64 1661.08 494.76 1663.76 494.75 1668.01
  Q 494.75 1668.55 494.23 1668.70
  L 493.17 1669.00
  L 481.82 1669.00
  C 480.94 1665.87 481.37 1662.69 480.31 1659.75
  C 479.26 1656.83 477.77 1653.98 477.42 1650.93
  Q 476.14 1639.79 478.04 1630.00
  C 480.57 1616.98 482.36 1607.30 483.59 1596.37
  C 485.20 1582.01 492.94 1574.16 503.52 1562.74
  C 504.95 1561.18 505.97 1558.80 507.92 1557.29
  C 512.12 1554.02 515.91 1550.40 520.13 1547.14
  C 523.89 1544.25 526.34 1540.76 530.57 1538.27
  Q 535.23 1535.53 539.77 1533.11
  A 1.62 1.62 0.0 0 0 540.49 1531.05
  Q 537.57 1524.28 537.92 1516.94
  A 0.73 0.73 0.0 0 0 537.35 1516.20
  C 532.05 1515.05 531.90 1511.41 532.61 1506.51
  Q 533.38 1501.13 533.70 1495.68
  C 533.91 1492.08 534.98 1490.10 538.53 1489.39
  Q 539.08 1489.28 539.07 1488.72
  Q 538.34 1464.70 539.03 1440.69
  C 539.24 1433.38 538.58 1426.21 538.18 1418.92
  C 538.07 1416.79 538.87 1414.76 538.60 1412.46
  Q 538.25 1409.49 538.40 1408.13
  Q 539.35 1399.78 539.25 1391.35
  C 539.23 1389.41 539.85 1387.19 539.97 1385.06
  Q 540.01 1384.41 539.37 1384.34
  L 509.43 1380.77
  Q 508.92 1380.71 508.60 1380.31
  Q 506.92 1378.28 506.76 1375.60
  A 1.19 1.18 -74.8 0 0 506.23 1374.67
  Q 500.47 1370.84 496.58 1365.18
  A 0.64 0.63 32.1 0 0 495.43 1365.44
  C 494.76 1369.83 493.70 1373.78 493.48 1378.33
  C 493.13 1385.54 491.43 1393.08 490.96 1399.69
  Q 490.20 1410.39 489.26 1417.51
  C 489.05 1419.11 487.80 1420.17 487.57 1421.92
  C 486.21 1432.16 484.46 1438.53 483.25 1446.50
  C 482.24 1453.17 480.16 1458.78 478.69 1465.08
  Q 478.18 1467.26 476.99 1476.03
  Q 475.61 1486.18 471.29 1495.49
  C 466.86 1505.01 468.81 1515.82 464.31 1525.41
  C 462.58 1529.09 463.31 1534.78 462.76 1538.90
  C 461.98 1544.79 462.61 1550.22 458.85 1555.94
  A 2.00 1.98 -87.2 0 1 458.12 1556.61
  C 454.02 1558.79 453.71 1573.01 453.62 1576.69
  C 453.56 1578.99 451.66 1580.87 451.33 1583.59
  C 450.83 1587.67 450.07 1590.19 448.06 1594.40
  C 446.67 1597.30 446.96 1600.78 446.67 1603.18
  C 445.02 1616.62 444.90 1626.35 442.31 1637.23
  Q 441.33 1641.31 441.05 1645.00
  C 440.48 1652.57 439.04 1659.80 438.29 1668.03
  Q 438.25 1668.50 437.78 1668.61
  Q 437.29 1668.73 436.94 1669.00
  L 193.80 1669.00
  Q 192.67 1664.89 191.36 1660.80
  Q 190.04 1656.66 189.59 1652.49
  Q 188.84 1645.47 187.81 1638.49
  C 187.02 1633.12 186.82 1626.27 185.56 1620.19
  C 185.18 1618.30 185.75 1615.97 185.51 1613.92
  C 185.03 1609.65 186.60 1605.83 185.65 1601.87
  Q 181.06 1582.76 181.40 1563.12
  Q 181.40 1562.97 181.10 1557.89
  C 180.95 1555.41 181.72 1552.91 181.64 1550.61
  C 181.43 1544.27 181.34 1538.35 182.14 1532.04
  C 182.54 1528.87 181.67 1525.90 181.97 1522.99
  Q 182.92 1513.72 182.65 1507.25
  Q 182.49 1503.57 183.15 1501.22
  Q 183.29 1500.74 183.19 1500.24
  Q 182.18 1494.93 182.77 1489.59
  C 183.11 1486.52 185.62 1480.05 185.09 1477.25
  C 183.65 1469.68 184.85 1465.04 184.29 1458.61
  C 184.22 1457.84 184.72 1456.84 184.68 1456.26
  Q 182.95 1430.26 185.07 1404.31
  C 185.59 1398.00 185.06 1389.79 185.70 1382.92
  Q 187.06 1368.16 189.49 1353.61
  A 1.35 1.35 0.0 0 0 188.03 1352.04
  C 161.16 1354.73 139.70 1349.84 107.79 1343.92
  C 105.35 1343.47 102.91 1342.29 100.38 1341.48
  Q 99.83 1341.30 99.68 1341.86
  Q 98.62 1345.87 94.53 1344.18
  Q 87.68 1341.36 86.92 1333.64
  Q 86.87 1333.14 86.48 1332.81
  C 82.14 1329.10 82.95 1325.88 82.26 1320.70
  C 81.73 1316.76 82.68 1312.82 82.46 1308.66
  A 1.52 1.52 0.0 0 0 79.99 1307.56
  C 77.36 1309.68 71.48 1308.31 73.26 1304.08
  Q 73.43 1303.67 73.85 1303.51
  Q 77.04 1302.22 80.51 1302.54
  A 0.57 0.57 0.0 0 0 81.14 1301.99
  Q 81.36 1295.65 82.75 1289.55
  C 84.34 1282.55 87.60 1280.15 94.30 1278.67
  C 99.04 1277.63 102.38 1274.94 107.49 1274.47
  Q 125.93 1272.78 144.32 1277.32
  C 152.52 1279.34 162.86 1278.05 171.22 1277.16
  C 177.81 1276.46 184.29 1277.42 191.18 1276.22
  A 0.53 0.53 0.0 0 0 191.42 1275.29
  C 186.66 1271.35 185.92 1269.54 184.68 1263.38
  Q 183.33 1256.67 181.89 1249.97
  C 181.34 1247.37 182.16 1245.15 181.48 1242.76
  Q 181.01 1241.10 180.74 1238.25
  Q 180.03 1230.89 179.45 1223.51
  C 179.19 1220.22 180.07 1216.43 179.51 1212.49
  Q 178.96 1208.72 178.02 1197.43
  C 177.81 1194.95 178.63 1192.61 178.59 1190.00
  Q 178.11 1160.16 180.29 1140.00
  Q 181.58 1127.98 186.13 1109.86
  C 187.29 1105.24 187.71 1098.93 190.93 1093.57
  C 193.47 1089.34 192.93 1085.32 195.24 1081.12
  Q 198.81 1074.63 199.85 1067.24
  C 200.53 1062.36 201.66 1059.46 204.83 1056.26
  A 1.37 1.34 70.2 0 0 205.22 1055.41
  C 205.36 1053.53 204.73 1051.77 204.92 1050.09
  C 205.58 1044.27 208.22 1039.97 209.66 1034.52
  C 210.54 1031.19 212.00 1028.78 212.47 1025.15
  C 213.17 1019.84 218.37 1010.26 222.90 1007.01
  Q 223.33 1006.71 223.32 1006.18
  C 223.27 1001.05 223.22 996.82 222.78 991.02
  C 222.54 987.82 223.28 984.58 223.25 981.65
  Q 223.15 973.56 224.51 965.61
  C 225.58 959.35 224.78 952.92 225.29 946.57
  Q 225.33 946.02 225.71 945.62
  Q 227.89 943.30 226.46 940.31
  A 1.42 1.39 -51.7 0 1 226.36 939.39
  C 227.71 933.59 225.91 929.21 226.04 924.05
  C 226.18 918.96 227.04 913.80 227.03 908.97
  Q 226.97 888.07 228.54 867.23
  C 228.77 864.19 230.21 859.98 229.23 855.77
  C 228.98 854.73 230.27 852.44 230.23 850.94
  C 230.12 846.78 229.90 843.09 230.27 838.70
  C 230.74 833.19 229.59 827.02 230.88 821.77
  Q 232.57 814.93 233.08 807.90
  C 233.36 803.95 232.08 799.28 232.87 794.78
  C 234.18 787.28 234.60 779.54 236.62 772.20
  C 237.89 767.56 238.50 762.34 239.67 758.27
  C 241.76 750.99 244.33 744.55 246.05 737.48
  Q 246.17 736.98 245.91 736.54
  Q 240.75 727.73 237.51 718.13
  C 236.33 714.62 233.78 712.19 232.94 708.73
  C 232.00 704.84 229.69 701.30 229.27 697.41
  C 228.86 693.48 227.37 689.30 227.37 685.80
  C 227.37 680.45 228.56 671.24 235.18 670.21
  A 0.79 0.79 0.0 0 0 235.76 669.08
  Q 230.63 658.92 229.07 647.69
  Q 228.88 646.31 227.84 643.00
  C 227.12 640.69 227.38 638.28 226.83 636.05
  C 224.91 628.24 227.47 620.53 228.15 612.62
  Q 228.45 609.13 228.86 605.66
  C 229.26 602.27 228.19 599.75 231.72 597.31
  Q 232.19 596.99 232.75 596.99
  Q 241.99 597.04 250.73 600.02
  A 1.06 1.04 8.9 0 1 251.44 600.98
  Q 251.51 602.88 250.20 604.33
  Q 249.82 604.75 249.26 604.74
  L 236.98 604.50
  A 0.80 0.79 -86.9 0 0 236.18 605.22
  C 235.55 611.60 235.83 617.21 236.72 623.49
  C 237.05 625.89 236.74 628.50 237.54 630.71
  Q 241.81 642.50 242.55 648.20
  C 243.49 655.52 246.13 661.11 249.86 666.79
  C 253.51 672.34 255.33 676.18 256.81 681.91
  C 257.36 684.00 256.13 686.45 253.74 685.29
  Q 247.18 682.14 241.53 678.26
  A 2.72 2.72 0.0 0 0 237.94 678.72
  Q 237.56 679.16 237.98 680.14
  Q 238.31 680.87 238.33 681.43
  Q 238.61 690.13 239.22 692.50
  C 241.82 702.58 249.54 712.84 254.18 723.34
  Q 256.03 727.54 258.58 731.18
  Q 266.18 742.04 270.64 750.08
  C 272.08 752.68 271.97 755.62 274.05 758.39
  C 276.34 761.43 277.51 764.96 280.20 767.56
  Q 283.18 770.44 286.22 773.26
  C 288.36 775.25 290.71 778.64 293.85 780.65
  C 295.94 781.99 298.02 785.40 300.21 787.28
  Q 315.12 800.08 330.94 811.74
  C 334.50 814.36 338.86 816.38 342.76 818.86
  Q 346.52 821.24 348.63 822.01
  C 352.74 823.51 357.45 824.07 361.28 826.99
  Q 363.80 828.91 365.11 829.44
  C 367.84 830.55 370.65 830.53 373.27 831.85
  C 378.45 834.46 382.61 832.23 386.39 837.75
  C 388.20 840.41 391.71 842.87 388.93 846.42
  Q 387.57 848.15 385.15 847.47
  C 371.53 843.63 360.44 845.52 348.71 834.94
  Q 347.23 833.60 345.26 832.95
  Q 338.04 830.58 332.62 825.43
  Q 328.93 821.93 326.99 820.56
  C 310.00 808.60 292.02 797.23 280.13 780.48
  C 275.60 774.10 270.00 768.35 264.82 762.48
  C 260.43 757.49 256.38 750.98 251.68 745.63
  A 0.87 0.87 0.0 0 0 250.17 746.06
  C 249.35 751.01 248.32 755.66 248.15 760.69
  C 247.91 767.51 247.98 778.69 244.66 784.67
  Q 244.42 785.11 244.47 785.61
  Q 244.79 788.61 245.15 791.58
  C 245.67 795.90 245.09 800.50 245.74 805.04
  Q 246.12 807.75 245.68 810.12
  Q 243.39 822.37 243.83 831.25
  C 244.13 837.47 243.07 843.90 242.91 848.24
  C 242.70 853.77 243.39 860.00 242.11 865.33
  C 241.49 867.88 242.11 870.33 241.89 872.54
  C 241.42 877.41 240.49 881.80 240.73 886.84
  Q 240.93 890.93 240.68 895.01
  C 239.93 907.61 240.13 920.34 239.97 932.97
  Q 239.97 933.05 240.14 936.51
  C 240.30 939.59 238.90 942.42 238.90 945.22
  C 238.88 953.90 237.44 963.88 237.15 970.93
  C 236.66 983.20 236.78 996.46 235.65 1009.93
  C 235.01 1017.61 235.06 1025.01 235.89 1032.45
  C 237.53 1047.18 236.90 1064.93 237.99 1075.25
  C 240.96 1103.43 241.06 1122.55 240.03 1151.68
  C 239.89 1155.71 236.95 1158.73 236.69 1161.74
  Q 235.62 1174.04 228.61 1184.08
  Q 228.32 1184.49 228.31 1185.00
  Q 228.11 1193.70 223.67 1200.91
  C 221.40 1204.59 220.89 1208.32 218.92 1211.97
  C 217.70 1214.22 217.99 1218.42 217.11 1222.02
  Q 216.26 1225.47 215.93 1228.99
  C 215.48 1233.77 215.27 1238.92 212.88 1243.23
  C 210.00 1248.43 208.75 1255.65 210.09 1261.56
  Q 211.06 1265.88 210.73 1267.50
  Q 208.85 1276.58 208.39 1285.83
  C 208.12 1291.29 206.67 1300.08 208.16 1306.82
  C 210.37 1316.83 212.33 1327.02 216.01 1336.60
  C 219.98 1346.92 223.76 1357.21 228.59 1367.17
  C 228.95 1367.90 230.02 1369.01 230.82 1369.61
  Q 237.04 1374.31 243.41 1378.81
  C 244.75 1379.76 246.56 1379.75 247.64 1378.68
  A 0.77 0.77 0.0 0 0 247.75 1377.71
  C 242.86 1370.06 241.15 1363.00 239.66 1354.14
  C 237.90 1343.66 234.50 1333.56 232.31 1323.18
  C 230.32 1313.72 231.48 1303.76 230.93 1294.19
  Q 230.77 1291.35 230.90 1286.45
  C 231.04 1281.36 228.58 1276.77 229.22 1272.47
  A 1.39 1.36 76.9 0 1 229.76 1271.58
  C 232.40 1269.66 234.02 1271.12 235.18 1273.68
  C 235.81 1275.09 236.73 1275.99 236.89 1277.57
  Q 237.67 1285.38 239.11 1293.09
  C 241.34 1305.04 242.55 1314.29 244.14 1324.96
  Q 244.61 1328.10 246.10 1331.82
  C 249.93 1341.37 249.38 1354.15 250.97 1361.51
  C 252.30 1367.65 256.14 1374.99 258.64 1382.87
  C 259.60 1385.92 261.17 1387.71 260.60 1391.07
  A 2.18 2.17 -78.1 0 0 262.21 1393.55
  C 265.78 1394.47 272.06 1397.49 275.16 1396.76
  Q 275.70 1396.64 276.09 1396.23
  L 277.31 1394.95
  Q 277.68 1394.56 278.22 1394.60
  L 281.40 1394.86
  Q 282.16 1394.92 282.46 1394.23
  L 285.36 1387.75
  A 1.46 1.45 -66.6 0 1 287.25 1387.00
  Q 292.84 1389.35 297.94 1392.95
  Q 304.85 1397.81 306.38 1398.41
  C 317.47 1402.81 326.23 1395.09 330.17 1385.32
  C 332.19 1380.32 337.82 1377.19 337.71 1371.22
  C 337.60 1365.01 338.41 1359.07 337.93 1352.85
  C 337.63 1349.11 336.59 1336.94 338.45 1333.77
  A 1.72 1.68 61.0 0 0 338.67 1332.97
  C 338.86 1323.44 339.91 1313.29 338.40 1303.86
  Q 335.80 1287.62 336.97 1271.65
  A 1.12 1.12 0.0 0 1 339.14 1271.35
  Q 339.83 1273.29 339.93 1275.50
  C 340.41 1286.27 342.64 1298.43 343.37 1307.27
  Q 344.66 1322.74 344.21 1327.43
  C 342.94 1340.91 346.43 1352.75 344.73 1366.85
  C 344.29 1370.47 345.85 1373.53 345.29 1377.43
  C 345.01 1379.37 343.92 1380.49 342.98 1382.22
  Q 342.73 1382.67 342.87 1383.17
  C 345.56 1392.66 347.99 1400.37 358.73 1401.26
  C 363.44 1401.65 370.28 1404.86 372.78 1398.06
  Q 375.73 1390.02 379.03 1382.11
  Q 380.24 1379.20 380.52 1376.08
  C 381.15 1368.86 381.51 1362.84 384.11 1356.77
  C 386.86 1350.36 386.04 1343.19 386.38 1336.41
  C 386.88 1326.33 385.88 1316.25 386.30 1305.76
  C 386.54 1299.41 385.02 1293.04 385.04 1286.90
  C 385.05 1281.37 385.13 1276.24 383.85 1270.80
  Q 380.34 1255.81 374.92 1241.39
  C 374.25 1239.58 373.86 1237.30 376.51 1237.21
  C 382.74 1237.00 390.02 1270.14 391.08 1275.44
  Q 391.19 1276.00 391.76 1276.03
  C 399.27 1276.53 406.23 1277.04 415.63 1278.96
  C 425.17 1280.92 435.24 1281.95 444.33 1283.87
  Q 448.48 1284.74 450.46 1281.58
  A 1.17 1.15 53.2 0 0 450.59 1280.61
  L 448.20 1272.81
  A 0.96 0.94 1.4 0 0 447.61 1272.20
  C 445.92 1271.58 444.24 1271.43 442.61 1270.55
  Q 439.99 1269.13 437.06 1268.86
  C 431.42 1268.32 428.92 1264.37 423.94 1262.65
  Q 418.85 1260.90 413.78 1259.11
  C 409.37 1257.54 408.22 1254.38 404.51 1252.48
  Q 397.13 1248.70 390.62 1243.59
  C 388.21 1241.70 384.23 1239.11 381.60 1236.01
  C 377.71 1231.43 374.57 1228.04 372.13 1223.16
  Q 371.61 1222.12 370.08 1221.38
  A 0.37 0.37 0.0 0 0 369.56 1221.69
  L 369.36 1225.36
  A 0.51 0.51 0.0 0 1 368.55 1225.74
  Q 366.82 1224.46 366.01 1221.99
  C 364.77 1218.25 361.92 1215.36 360.42 1211.58
  C 358.65 1207.16 357.04 1205.06 357.29 1199.26
  Q 357.45 1195.52 356.44 1191.99
  C 353.71 1182.48 351.13 1172.28 350.52 1162.41
  Q 349.71 1149.12 349.45 1135.80
  Q 349.41 1133.56 350.26 1130.81
  Q 352.11 1124.81 351.61 1118.50
  C 351.44 1116.35 352.41 1114.93 352.52 1112.94
  Q 352.66 1110.08 353.33 1107.33
  C 354.40 1102.88 354.89 1099.20 356.05 1095.23
  C 356.45 1093.88 356.18 1092.26 356.46 1090.96
  Q 357.81 1084.77 358.99 1078.56
  C 359.48 1076.00 358.69 1073.75 359.14 1071.19
  C 360.39 1064.24 361.41 1057.21 360.80 1050.13
  C 360.55 1047.21 361.87 1044.83 362.04 1042.37
  C 362.32 1038.22 361.61 1034.19 361.99 1030.24
  Q 362.92 1020.64 362.72 1011.00
  C 362.67 1008.83 363.61 1007.02 363.15 1004.57
  C 361.21 994.25 365.18 985.19 365.21 975.03
  C 365.26 962.21 366.27 949.42 366.01 936.63
  Q 365.92 931.97 367.54 927.48
  C 370.97 917.95 374.14 908.90 376.33 898.61
  Q 378.95 886.28 382.04 874.05
  C 382.75 871.21 382.30 868.10 383.34 865.53
  Q 386.20 858.43 389.39 851.49
  A 1.88 1.86 85.0 0 1 390.01 850.74
  C 394.41 847.66 393.01 844.34 393.82 840.34
  Q 394.31 837.91 395.03 835.55
  C 396.67 830.22 391.86 825.94 390.22 821.49
  Q 389.01 818.22 388.93 812.85
  Q 388.74 800.59 388.93 788.35
  C 389.00 783.65 387.81 778.02 388.26 773.25
  C 389.56 759.54 391.03 748.47 391.25 736.35
  C 391.36 729.93 389.96 722.84 390.82 716.13
  C 392.24 705.08 392.02 693.96 393.48 682.87
  Q 393.60 682.00 393.53 678.14
  C 393.49 675.49 394.75 673.25 394.91 670.90
  Q 396.04 654.66 399.63 638.77
  Q 400.27 635.95 400.12 632.67
  C 399.84 626.66 400.86 620.05 401.33 615.17
  Q 401.93 609.02 402.87 602.92
  C 403.65 597.88 403.42 592.41 404.16 587.12
  Q 404.40 585.38 404.29 582.35
  C 404.21 580.15 404.73 577.79 404.81 575.88
  C 405.54 556.12 406.21 538.89 401.60 521.62
  C 400.12 516.05 399.51 510.43 398.27 504.86
  Q 397.85 503.00 399.78 502.57
  A 1.78 1.78 0.0 0 1 401.90 503.93
  C 403.16 509.69 406.20 516.12 407.41 519.95
  Q 411.00 531.29 411.37 541.18
  Q 412.14 562.12 411.28 593.40
  C 411.03 602.51 411.53 611.15 412.02 620.03
  C 412.24 623.92 413.83 628.25 412.62 633.09
  A 1.97 1.93 -46.7 0 0 412.64 634.08
  C 414.20 639.55 411.93 645.30 410.77 650.70
  C 408.66 660.57 408.04 671.08 406.53 681.20
  C 405.74 686.50 405.45 692.95 404.54 699.26
  C 404.04 702.72 406.31 707.09 405.26 710.25
  C 404.28 713.22 404.68 716.15 403.86 719.19
  C 400.22 732.56 403.02 746.49 398.84 759.57
  C 396.82 765.88 397.57 773.37 397.42 779.89
  C 397.28 785.89 395.86 796.90 396.89 803.57
  Q 397.68 808.67 397.37 811.00
  C 396.20 819.92 404.29 820.57 404.97 828.67
  A 1.80 1.78 -66.1 0 0 405.33 829.62
  Q 409.52 835.20 406.92 841.73
  A 1.37 1.32 51.3 0 0 406.85 842.50
  C 408.16 849.62 404.66 850.84 401.58 855.84
  C 400.01 858.40 397.68 860.38 396.16 862.70
  C 394.04 865.96 388.68 872.63 388.97 876.43
  C 389.34 881.19 387.72 886.33 386.81 891.00
  C 385.91 895.63 388.74 897.61 388.61 901.82
  Q 388.44 908.03 385.45 914.67
  Q 384.34 917.12 383.60 920.87
  C 382.44 926.76 380.07 932.27 378.61 938.08
  Q 378.43 938.79 379.15 938.68
  L 380.75 938.44
  Q 381.62 938.31 381.67 939.19
  L 381.78 941.08
  Q 381.80 941.51 382.12 941.79
  Q 394.68 952.98 409.19 961.40
  C 412.59 963.37 416.82 964.05 421.01 966.22
  C 423.48 967.50 427.41 968.21 430.43 969.71
  Q 437.14 973.04 443.83 976.38
  Q 444.28 976.61 444.77 976.52
  Q 450.70 975.44 456.27 977.15
  C 463.30 979.31 470.52 981.53 477.86 982.45
  Q 486.09 983.48 494.20 985.28
  C 500.90 986.77 507.05 985.42 513.44 986.94
  Q 521.79 988.92 530.41 988.32
  C 532.63 988.17 534.08 988.67 535.96 989.59
  Q 536.42 989.82 536.93 989.69
  C 540.40 988.80 543.92 986.76 547.69 987.63
  C 552.62 988.78 563.08 989.75 567.05 986.12
  A 1.03 0.99 -67.3 0 1 567.68 985.85
  L 572.48 985.45
  A 1.32 1.31 57.5 0 1 573.23 985.62
  C 580.89 989.95 590.91 993.41 599.77 991.85
  Q 611.32 989.81 623.05 990.29
  C 627.01 990.46 633.47 991.64 638.85 991.40
  C 642.41 991.23 645.02 992.83 648.71 991.41
  C 651.03 990.52 652.30 987.18 654.15 986.81
  Q 660.85 985.48 666.61 981.86
  A 1.48 1.47 -3.0 0 0 667.18 981.23
  C 669.09 977.29 672.29 976.34 675.11 974.27
  C 678.94 971.45 683.16 971.02 686.82 968.89
  C 692.66 965.51 700.26 961.08 704.11 955.45
  Q 706.97 951.28 709.08 950.08
  Q 715.78 946.26 717.11 944.10
  C 720.16 939.16 724.09 934.63 726.29 929.04
  C 731.93 914.70 740.93 905.41 736.83 888.53
  C 736.17 885.82 736.09 883.09 735.48 880.34
  A 0.46 0.46 0.0 0 0 734.66 880.18
  Q 733.02 882.53 731.25 884.91
  C 729.64 887.07 729.40 889.74 728.01 892.29
  C 725.01 897.79 721.16 904.64 716.13 908.11
  C 714.56 909.20 712.02 911.65 710.26 912.07
  Q 708.64 912.46 708.27 910.78
  C 707.79 908.59 708.45 904.90 709.80 902.51
  C 710.43 901.39 710.30 900.40 710.99 899.29
  C 713.89 894.67 715.29 889.25 718.48 885.01
  C 721.01 881.63 721.21 877.55 722.95 874.52
  C 724.77 871.34 727.29 869.50 728.72 866.26
  C 731.84 859.24 735.84 852.56 737.50 845.03
  C 739.27 837.01 737.64 828.19 740.61 820.60
  C 743.87 812.26 746.96 803.50 751.91 795.99
  C 753.24 793.99 753.60 791.78 754.87 789.73
  Q 755.91 788.06 756.79 785.04
  Q 759.03 777.34 764.33 769.06
  Q 766.10 766.30 766.85 763.53
  C 769.33 754.39 771.48 745.37 774.26 736.16
  Q 777.11 726.71 779.62 717.16
  C 780.14 715.20 781.62 714.03 782.15 712.15
  C 783.72 706.62 786.25 701.73 787.33 696.06
  Q 789.02 687.20 792.30 679.72
  C 794.24 675.29 793.82 671.26 795.03 667.31
  C 798.55 655.82 800.64 644.03 804.27 632.51
  Q 805.43 628.85 806.04 621.83
  C 806.96 611.21 809.84 600.75 812.15 590.38
  Q 812.90 587.04 813.00 582.54
  C 813.12 577.25 814.24 570.63 814.63 566.81
  C 815.65 556.90 817.34 546.85 817.65 536.91
  C 817.73 534.28 818.52 531.71 818.58 529.34
  C 818.79 521.27 818.51 513.57 820.09 505.62
  A 1.30 1.29 -72.2 0 1 821.89 504.69
  C 827.65 507.31 824.53 513.13 826.16 518.20
  Q 826.32 518.68 826.17 519.17
  C 824.32 525.20 825.92 531.31 824.99 537.02
  Q 824.90 537.53 825.42 537.51
  Q 825.62 537.50 825.75 537.40
  Q 825.86 537.31 825.90 537.09
  C 826.33 534.75 826.29 532.52 826.77 530.26
  C 827.97 524.54 828.53 518.70 829.49 512.93
  C 829.93 510.26 829.33 507.91 829.91 505.39
  Q 830.92 500.99 831.22 497.03
  A 2.03 2.03 0.0 0 1 835.24 496.86
  C 835.91 500.95 836.75 504.85 836.79 509.08
  C 836.88 518.33 837.57 528.60 836.11 537.71
  Q 835.68 540.39 836.32 543.93
  C 836.97 547.53 837.05 554.39 835.69 559.16
  Q 833.34 567.41 833.61 575.24
  C 833.78 580.31 834.03 583.44 832.27 588.30
  C 830.23 593.90 829.89 598.93 828.40 604.23
  Q 827.83 606.27 827.30 610.00
  C 826.93 612.67 825.85 615.33 825.42 617.71
  C 824.13 624.88 822.51 632.19 821.41 639.13
  Q 818.93 654.86 816.39 670.58
  Q 814.89 679.83 810.12 687.81
  C 808.91 689.83 808.24 692.83 808.04 695.17
  C 807.74 698.62 805.48 701.65 804.64 704.06
  C 802.22 711.01 801.10 718.33 798.92 725.38
  C 797.93 728.60 797.89 732.85 795.40 736.44
  Q 795.12 736.84 795.05 737.33
  Q 794.74 739.35 793.94 741.15
  C 793.06 743.11 790.86 744.48 790.07 747.06
  C 789.18 749.97 787.70 751.65 786.30 754.11
  C 783.79 758.51 780.30 760.93 781.13 766.65
  C 781.82 771.48 780.29 776.46 780.20 780.43
  C 780.05 787.67 780.64 794.22 780.93 802.12
  Q 781.52 817.65 787.06 832.23
  C 788.29 835.48 789.25 847.29 795.20 844.51
  Q 806.59 839.18 815.51 830.29
  Q 815.87 829.94 816.37 829.91
  C 820.59 829.66 823.54 828.75 826.75 825.63
  Q 833.86 818.74 841.82 812.82
  C 844.15 811.07 849.05 809.81 851.72 806.89
  C 853.04 805.45 854.19 803.81 855.63 802.57
  Q 873.06 787.49 887.51 769.51
  C 888.77 767.94 890.85 767.03 892.12 764.84
  C 894.90 760.09 897.69 755.50 899.63 750.28
  C 901.25 745.91 903.95 743.86 906.71 740.82
  C 909.50 737.75 910.76 733.93 913.14 730.38
  Q 915.14 727.40 916.14 725.14
  C 917.68 721.65 918.83 717.62 921.66 714.87
  Q 926.73 709.95 929.32 703.23
  A 1.89 1.86 81.4 0 1 929.88 702.46
  Q 934.14 698.88 936.72 694.02
  C 940.88 686.18 952.67 663.66 945.52 655.90
  A 0.73 0.72 51.6 0 0 944.59 655.79
  Q 940.74 658.28 936.31 663.29
  C 933.69 666.25 930.06 663.43 930.58 659.76
  Q 931.65 652.13 932.75 644.50
  C 933.29 640.78 936.98 636.46 936.99 632.98
  C 936.99 625.17 937.72 616.69 936.20 609.03
  Q 934.87 602.25 935.71 595.27
  Q 935.78 594.73 935.47 594.29
  Q 932.45 589.93 927.59 587.79
  A 1.82 1.81 -55.4 0 0 925.58 588.16
  C 924.02 589.72 920.88 592.75 918.54 592.60
  C 916.32 592.47 915.59 590.49 916.45 588.57
  C 919.32 582.17 925.82 576.73 932.63 582.26
  C 935.12 584.28 940.42 587.47 940.97 590.69
  C 942.40 599.08 943.13 607.62 944.74 615.95
  Q 945.25 618.60 944.78 622.25
  Q 944.33 625.74 945.05 636.01
  Q 945.09 636.55 944.81 637.01
  Q 941.35 642.76 939.77 649.29
  A 0.41 0.41 0.0 0 0 940.43 649.70
  C 944.41 646.44 950.65 646.35 952.41 651.97
  Q 953.78 656.37 954.78 660.78
  C 956.04 666.34 953.33 672.97 950.64 677.73
  Q 950.38 678.19 950.51 678.71
  C 952.26 686.15 943.59 700.14 939.35 706.15
  C 936.05 710.82 934.69 716.15 931.19 720.65
  A 1.31 1.26 -29.4 0 0 930.92 721.54
  C 931.19 724.63 931.19 727.89 931.63 730.83
  C 932.58 737.29 933.36 743.65 934.69 750.05
  C 935.28 752.92 934.84 756.01 935.24 758.64
  C 936.14 764.59 937.35 768.86 935.00 775.34
  Q 934.86 775.74 935.01 776.14
  L 937.06 781.54
  A 0.89 0.86 39.1 0 1 937.11 781.97
  C 936.64 785.71 937.77 789.06 937.24 792.66
  C 936.81 795.55 937.29 798.42 937.01 801.09
  Q 936.78 803.23 936.63 805.37
  C 936.41 808.39 935.19 811.29 935.67 814.74
  C 936.52 820.79 936.50 826.70 936.70 832.79
  C 936.78 835.16 935.57 837.13 935.85 839.46
  C 936.28 843.17 935.50 847.22 935.55 850.28
  C 935.60 853.96 936.05 856.67 935.08 860.51
  C 934.51 862.74 934.86 865.13 934.56 867.15
  C 933.61 873.51 933.16 879.91 932.03 886.23
  C 931.68 888.15 932.08 890.15 931.92 891.90
  C 931.23 899.65 931.25 907.23 929.59 915.01
  C 927.30 925.77 925.32 939.87 928.20 950.61
  C 929.90 956.94 931.12 963.35 932.60 969.74
  Q 933.27 972.66 933.49 976.50
  C 933.75 981.03 935.18 986.75 934.98 991.52
  Q 934.61 1000.11 931.32 1007.95
  A 1.75 1.75 0.0 0 1 928.18 1008.13
  C 925.42 1003.14 925.74 999.16 925.02 993.75
  C 924.10 986.72 924.92 979.73 924.44 972.61
  Q 924.37 971.55 923.61 968.37
  C 923.14 966.43 923.34 964.37 922.95 962.56
  C 921.69 956.83 919.57 950.05 920.19 944.19
  Q 920.86 937.83 918.77 921.99
  C 918.39 919.04 919.30 914.86 918.86 910.68
  C 918.57 907.99 919.22 904.98 919.28 902.78
  Q 919.79 885.10 921.58 867.50
  C 921.82 865.22 922.51 863.26 923.17 861.10
  Q 923.32 860.62 923.20 860.13
  Q 922.47 857.10 922.76 854.75
  Q 923.67 847.44 923.84 838.07
  C 923.90 834.76 923.39 830.98 923.29 828.71
  Q 922.56 812.90 924.91 797.24
  C 925.39 794.05 925.58 789.92 924.95 786.76
  C 924.03 782.12 925.50 778.10 925.52 774.06
  Q 925.56 765.27 925.65 756.49
  C 925.68 753.75 925.20 750.72 925.08 747.83
  C 924.98 745.31 923.89 742.33 924.36 739.54
  Q 924.83 736.80 922.93 738.83
  C 922.19 739.63 921.32 740.57 920.80 741.75
  Q 917.52 749.21 914.08 756.59
  C 912.73 759.47 910.39 761.93 909.43 764.89
  C 908.26 768.53 904.70 774.31 902.22 777.28
  C 899.41 780.62 898.83 784.75 895.90 787.44
  C 892.93 790.17 890.69 792.38 886.92 794.96
  Q 883.64 797.21 880.59 800.82
  Q 876.31 805.86 869.36 809.14
  Q 867.42 810.05 866.17 811.59
  Q 858.80 820.73 855.67 822.92
  C 851.38 825.92 847.11 831.34 841.88 833.51
  Q 841.41 833.70 841.14 834.12
  C 838.35 838.51 830.55 844.46 825.87 846.12
  Q 825.40 846.29 825.13 846.71
  C 822.54 850.77 817.92 855.51 812.84 855.90
  C 808.75 856.21 805.50 859.67 801.79 858.79
  A 0.86 0.85 3.1 0 0 800.74 859.73
  C 801.30 864.18 801.14 868.90 801.66 873.06
  Q 803.54 888.00 805.28 902.96
  C 806.07 909.73 806.78 920.95 808.25 929.89
  C 809.69 938.60 810.69 945.75 811.28 952.49
  C 811.50 955.00 810.97 957.99 811.13 960.51
  C 812.59 984.43 815.08 1013.01 819.10 1037.48
  C 821.05 1049.37 825.40 1061.73 828.29 1073.90
  C 830.16 1081.80 833.00 1091.31 834.74 1100.14
  Q 835.87 1105.87 837.66 1111.65
  C 842.17 1126.22 846.39 1141.73 848.58 1156.33
  C 849.79 1164.36 851.50 1170.38 853.99 1177.42
  C 857.07 1186.15 858.47 1194.76 860.57 1203.73
  A 0.59 0.59 0.0 0 0 861.72 1203.71
  Q 861.94 1202.64 862.94 1201.42
  Q 868.65 1194.48 870.71 1193.21
  C 875.51 1190.26 879.12 1190.99 884.01 1190.54
  A 1.83 1.81 -66.2 0 0 884.93 1190.18
  C 891.38 1185.22 896.68 1190.05 901.82 1193.84
  C 905.40 1196.49 909.91 1197.47 912.71 1201.28
  Q 920.89 1212.45 927.87 1227.64
  C 929.18 1230.48 929.17 1233.47 926.81 1235.50
  A 1.59 1.59 0.0 0 1 924.19 1234.18
  Q 924.37 1231.83 923.16 1229.53
  Q 915.72 1215.40 910.83 1207.19
  C 909.05 1204.20 905.78 1203.02 903.61 1201.58
  Q 900.33 1199.40 896.79 1197.66
  C 895.03 1196.79 893.57 1195.30 891.70 1194.33
  Q 891.25 1194.09 890.82 1194.37
  C 888.56 1195.83 887.05 1196.87 884.15 1196.90
  Q 872.77 1197.01 868.56 1207.28
  C 867.40 1210.11 866.39 1211.22 863.45 1211.63
  A 0.75 0.75 0.0 0 0 862.81 1212.50
  L 864.20 1220.57
  Q 864.26 1220.90 864.08 1221.18
  Q 863.06 1222.83 861.01 1223.01
  A 1.34 1.33 61.3 0 1 860.06 1222.73
  L 857.83 1220.95
  A 0.81 0.81 0.0 0 0 856.62 1221.19
  Q 853.72 1226.28 849.27 1230.28
  C 847.52 1231.86 847.06 1236.83 846.06 1239.31
  Q 844.95 1242.07 844.45 1244.99
  C 843.63 1249.82 840.20 1254.69 837.86 1258.96
  A 1.58 1.53 58.1 0 0 837.68 1259.80
  C 838.05 1264.84 833.83 1264.47 832.92 1268.20
  Q 830.54 1277.92 826.85 1287.20
  Q 825.58 1290.39 825.01 1294.01
  C 823.93 1300.77 820.93 1307.36 819.93 1312.79
  Q 818.21 1322.07 816.43 1331.35
  C 815.23 1337.61 814.83 1344.52 813.79 1351.12
  C 813.20 1354.91 813.27 1359.03 812.69 1362.99
  C 811.95 1368.11 811.02 1376.95 813.24 1381.38
  Q 816.23 1387.34 819.58 1393.05
  A 1.58 1.57 86.1 0 0 820.30 1393.68
  C 824.41 1395.46 829.90 1397.42 834.27 1395.71
  Q 838.81 1393.94 847.56 1390.30
  C 850.42 1389.11 848.88 1386.89 849.18 1385.08
  Q 849.49 1383.24 850.32 1381.56
  A 1.08 1.07 -85.6 0 1 850.94 1381.02
  L 855.79 1379.40
  A 1.01 0.99 -88.5 0 0 856.40 1378.81
  Q 857.96 1374.66 862.31 1367.82
  Q 865.71 1362.48 870.00 1350.94
  C 870.99 1348.25 873.09 1347.82 874.14 1345.57
  C 876.89 1339.66 879.81 1334.06 883.11 1328.44
  C 886.32 1322.97 887.29 1316.83 890.10 1311.24
  C 891.78 1307.90 891.09 1304.79 895.59 1303.12
  A 0.99 0.98 -3.1 0 0 896.20 1302.45
  C 897.50 1297.70 900.21 1294.53 901.92 1290.06
  Q 904.36 1283.69 909.11 1278.81
  Q 910.86 1277.01 911.92 1274.89
  Q 915.10 1268.56 919.99 1263.71
  A 1.26 1.26 0.0 0 1 922.13 1264.45
  C 922.71 1269.23 922.58 1273.27 920.95 1278.03
  C 918.86 1284.11 916.43 1292.16 912.22 1297.09
  A 2.07 2.02 72.0 0 0 911.79 1297.96
  Q 910.64 1303.48 907.58 1308.05
  C 906.12 1310.24 904.37 1313.21 902.27 1315.78
  C 900.76 1317.62 900.38 1320.60 899.82 1322.28
  C 898.27 1327.00 897.16 1331.32 894.10 1335.38
  C 888.63 1342.63 882.39 1349.60 877.61 1357.31
  C 874.92 1361.66 871.95 1365.14 870.00 1370.33
  Q 869.01 1372.97 867.31 1375.73
  Q 864.69 1379.98 862.91 1384.67
  Q 862.70 1385.23 862.95 1385.77
  Q 864.40 1388.94 867.75 1390.17
  A 1.21 1.17 -0.8 0 1 868.45 1390.83
  L 869.50 1393.31
  A 1.20 1.17 83.5 0 0 870.35 1394.00
  C 872.11 1394.37 873.24 1394.69 874.90 1395.49
  Q 887.03 1401.35 900.42 1400.72
  C 904.25 1400.53 907.60 1398.64 911.21 1397.26
  C 916.26 1395.32 920.96 1388.70 921.36 1384.40
  C 921.57 1382.25 922.34 1381.21 924.06 1380.20
  A 1.98 1.94 -1.0 0 0 924.74 1379.51
  Q 927.07 1375.46 930.32 1372.09
  C 931.99 1370.36 933.11 1368.06 935.05 1366.34
  A 1.62 1.56 76.1 0 0 935.54 1365.49
  Q 936.42 1361.29 938.22 1359.21
  C 941.82 1355.06 946.21 1360.06 944.04 1364.65
  C 942.28 1368.37 942.08 1372.45 940.30 1375.69
  Q 937.77 1380.30 934.26 1384.24
  Q 933.93 1384.61 933.82 1385.09
  C 933.11 1388.39 931.08 1390.32 930.26 1393.42
  Q 929.11 1397.79 926.30 1401.57
  A 0.67 0.67 0.0 0 0 926.62 1402.61
  Q 930.89 1404.05 935.50 1405.53
  C 937.58 1406.19 941.10 1402.76 943.36 1401.87
  A 0.66 0.66 0.0 0 0 943.78 1401.19
  C 943.38 1397.25 947.04 1393.68 950.11 1391.34
  Q 955.22 1387.44 958.56 1382.03
  C 959.72 1380.16 961.59 1378.53 962.27 1376.56
  Q 964.14 1371.16 968.59 1367.59
  Q 968.99 1367.27 969.19 1366.81
  L 971.17 1362.31
  Q 971.41 1361.78 971.92 1361.52
  Q 975.77 1359.53 975.80 1355.03
  Q 975.81 1354.51 976.09 1354.07
  C 987.27 1336.47 992.78 1325.59 999.20 1309.93
  Q 999.40 1309.44 999.29 1308.92
  Q 998.79 1306.57 1000.43 1304.91
  A 1.55 1.53 21.0 0 1 1001.48 1304.45
  C 1005.27 1304.32 1005.51 1307.35 1004.98 1310.34
  C 1002.12 1326.17 994.28 1340.48 987.14 1355.26
  C 985.48 1358.70 982.69 1362.69 981.01 1366.83
  C 979.67 1370.12 976.53 1371.33 975.29 1374.66
  C 974.16 1377.70 973.98 1379.96 970.40 1381.61
  A 0.97 0.96 81.8 0 0 969.84 1382.37
  C 968.67 1392.19 957.57 1401.22 949.44 1405.60
  Q 948.97 1405.86 948.82 1406.38
  Q 948.00 1409.32 948.97 1412.24
  Q 949.16 1412.82 949.75 1412.66
  Q 958.85 1410.09 968.25 1410.25
  C 971.50 1410.30 974.99 1404.05 976.31 1401.52
  C 978.95 1396.44 983.70 1392.22 987.68 1388.18
  C 990.32 1385.49 991.12 1380.35 993.62 1376.72
  C 995.25 1374.35 996.31 1371.73 997.82 1369.45
  C 1001.04 1364.61 1003.55 1359.36 1006.61 1354.43
  Q 1008.07 1352.06 1009.19 1348.44
  Q 1010.72 1343.52 1015.80 1338.35
  C 1019.03 1335.06 1020.59 1328.45 1021.93 1324.10
  C 1022.94 1320.81 1025.69 1317.19 1025.80 1313.93
  Q 1026.01 1307.50 1025.69 1301.06
  A 0.76 0.74 12.5 0 0 1025.28 1300.43
  Q 1022.45 1299.06 1023.16 1296.00
  Q 1023.28 1295.49 1023.67 1295.15
  C 1026.92 1292.26 1025.08 1289.85 1023.26 1286.12
  Q 1015.50 1270.16 1006.04 1255.15
  Q 1002.67 1249.80 998.05 1245.03
  A 0.88 0.88 0.0 0 1 999.11 1243.65
  Q 1003.88 1246.28 1007.10 1251.41
  Q 1018.54 1269.65 1027.52 1289.22
  Q 1028.26 1290.82 1028.29 1292.59
  Q 1028.30 1293.14 1028.82 1293.30
  Q 1030.96 1293.97 1032.81 1292.79
  Q 1033.28 1292.50 1033.45 1291.97
  C 1035.72 1284.72 1044.99 1290.19 1049.25 1291.01
  Q 1074.28 1295.85 1085.00 1296.28
  Q 1092.22 1296.57 1097.35 1297.67
  C 1105.71 1299.46 1114.04 1299.61 1122.44 1301.76
  C 1123.99 1302.16 1124.91 1302.18 1125.64 1300.69
  A 1.37 1.37 0.0 0 1 1126.21 1300.09
  C 1136.05 1294.84 1140.93 1310.75 1146.43 1315.54
  A 1.14 1.14 0.0 0 1 1146.82 1316.40
  C 1146.77 1325.04 1152.73 1332.25 1144.16 1338.79
  Q 1143.75 1339.10 1144.00 1339.55
  C 1147.97 1346.86 1140.05 1348.81 1135.31 1351.32
  Q 1133.26 1352.40 1130.81 1352.74
  Q 1126.46 1353.32 1122.27 1354.58
  C 1119.21 1355.50 1116.86 1355.12 1113.86 1354.76
  A 0.37 0.37 0.0 0 0 1113.59 1355.43
  C 1117.90 1358.68 1116.17 1363.51 1111.53 1364.60
  C 1100.77 1367.14 1092.60 1366.28 1080.77 1366.34
  Q 1078.20 1366.35 1074.00 1365.74
  Q 1060.71 1363.79 1036.67 1362.08
  C 1031.60 1361.72 1027.32 1363.35 1025.29 1356.81
  Q 1025.13 1356.32 1025.29 1355.82
  C 1026.82 1350.91 1026.54 1344.51 1033.50 1343.98
  Q 1039.52 1343.52 1043.59 1343.00
  C 1049.77 1342.20 1055.11 1344.29 1060.77 1343.12
  Q 1065.86 1342.07 1070.24 1342.79
  C 1077.47 1343.97 1085.26 1342.10 1094.23 1342.79
  Q 1094.78 1342.83 1094.74 1342.27
  Q 1094.71 1341.86 1094.25 1341.76
  Q 1091.14 1341.07 1087.97 1340.94
  Q 1087.39 1340.91 1087.29 1340.34
  L 1086.99 1338.66
  A 0.49 0.49 0.0 0 1 1087.64 1338.11
  Q 1089.62 1338.85 1091.50 1338.10
  A 0.36 0.36 0.0 0 0 1091.47 1337.41
  Q 1088.49 1336.58 1085.47 1337.75
  Q 1085.09 1337.90 1085.19 1338.30
  Q 1085.49 1339.48 1084.69 1339.98
  Q 1084.20 1340.29 1083.29 1340.10
  Q 1065.76 1336.43 1048.00 1334.26
  C 1044.21 1333.80 1041.13 1327.66 1047.25 1326.75
  Q 1057.29 1325.26 1064.76 1326.12
  Q 1081.88 1328.10 1099.10 1327.75
  A 1.04 1.01 -29.4 0 1 1099.67 1327.90
  Q 1100.57 1328.44 1101.67 1328.25
  Q 1102.93 1328.03 1101.78 1327.47
  Q 1100.04 1326.62 1096.50 1326.03
  C 1090.29 1324.99 1081.07 1322.11 1073.15 1320.78
  C 1067.69 1319.85 1062.70 1318.54 1056.93 1318.59
  Q 1051.32 1318.64 1045.82 1317.45
  Q 1044.54 1317.17 1043.22 1317.25
  A 1.33 1.32 -28.7 0 1 1042.32 1316.99
  C 1039.29 1314.75 1039.47 1311.41 1042.01 1308.84
  C 1047.02 1303.79 1056.34 1305.20 1062.50 1305.35
  C 1068.29 1305.50 1075.68 1304.62 1082.49 1305.83
  C 1088.69 1306.94 1095.51 1307.08 1101.12 1308.07
  C 1107.67 1309.24 1113.49 1310.53 1120.61 1311.17
  Q 1128.67 1311.89 1136.98 1314.03
  A 0.81 0.80 81.1 0 0 1137.86 1312.82
  L 1134.68 1307.77
  Q 1134.40 1307.33 1133.87 1307.32
  C 1125.47 1307.23 1114.68 1305.98 1105.23 1304.83
  C 1098.38 1303.99 1091.27 1305.01 1084.66 1303.87
  Q 1081.64 1303.35 1079.31 1303.43
  C 1072.01 1303.68 1065.91 1301.94 1057.48 1301.77
  C 1054.01 1301.70 1049.61 1300.95 1045.57 1301.20
  C 1043.08 1301.36 1041.73 1300.00 1039.55 1300.06
  Q 1034.40 1300.21 1029.73 1300.05
  Q 1028.59 1300.01 1028.83 1301.12
  L 1032.50 1318.68
  A 1.04 1.02 48.9 0 1 1032.47 1319.19
  Q 1028.93 1329.38 1027.34 1340.05
  A 2.18 2.17 68.9 0 1 1026.89 1341.07
  Q 1023.11 1345.81 1020.52 1351.72
  C 1017.47 1358.68 1014.02 1366.14 1009.61 1373.17
  Q 1003.41 1383.07 997.43 1393.11
  C 994.62 1397.83 991.17 1400.45 986.45 1402.58
  C 982.19 1404.51 979.21 1407.80 974.92 1409.66
  A 2.59 2.59 0.0 0 0 973.55 1412.99
  C 974.66 1415.75 975.50 1418.64 976.63 1421.32
  Q 981.55 1433.02 983.23 1443.50
  Q 984.67 1452.48 985.79 1458.15
  C 987.05 1464.53 986.93 1471.21 988.35 1477.79
  C 988.93 1480.45 988.41 1484.44 987.73 1487.07
  Q 984.43 1499.90 981.13 1512.73
  C 980.10 1516.72 977.56 1521.40 976.84 1526.17
  Q 976.41 1529.05 975.51 1531.68
  C 972.84 1539.53 973.03 1547.08 968.34 1555.40
  A 1.53 1.51 55.6 0 0 968.17 1556.34
  C 969.03 1562.30 965.69 1566.90 962.93 1571.74
  C 960.22 1576.51 959.30 1582.18 957.45 1586.20
  C 956.63 1587.97 954.18 1589.83 952.97 1591.99
  C 950.51 1596.37 947.25 1600.66 946.08 1605.58
  C 944.46 1612.35 940.82 1619.36 937.79 1625.62
  Q 937.12 1627.01 933.17 1633.59
  C 931.02 1637.17 929.64 1641.32 927.63 1644.63
  Q 922.64 1652.88 920.57 1655.57
  Q 915.18 1662.57 913.10 1669.00
  Z
  M 806.17 653.45
  Q 805.79 654.09 806.13 654.97
  A 0.30 0.30 0.0 0 0 806.71 654.82
  L 806.54 653.52
  Q 806.47 652.94 806.17 653.45
  Z
  M 800.3382 676.6119
  A 6.17 1.10 103.8 0 0 802.8782 670.8824
  A 6.17 1.10 103.8 0 0 803.2818 664.6281
  A 6.17 1.10 103.8 0 0 800.7418 670.3576
  A 6.17 1.10 103.8 0 0 800.3382 676.6119
  Z
  M 799.31 678.94
  Q 799.55 679.06 800.02 679.00
  A 0.60 0.60 0.0 0 0 800.28 677.90
  Q 798.88 676.96 798.57 678.05
  Q 798.50 678.28 798.60 678.45
  Q 798.71 678.65 798.92 678.74
  Q 799.02 678.79 799.31 678.94
  Z
  M 796.5139 687.7390
  A 1.10 0.60 92.4 0 0 797.1595 686.6651
  A 1.10 0.60 92.4 0 0 796.6061 685.5410
  A 1.10 0.60 92.4 0 0 795.9605 686.6149
  A 1.10 0.60 92.4 0 0 796.5139 687.7390
  Z
  M 737.49 875.35
  C 740.86 877.59 741.54 884.69 742.48 888.51
  C 745.62 901.20 740.61 915.08 733.83 925.77
  A 1.11 1.09 -38.1 0 0 733.71 926.70
  Q 733.88 927.26 733.71 927.71
  Q 729.70 938.04 723.39 948.76
  Q 723.12 949.22 723.57 949.49
  Q 729.12 952.84 734.88 955.79
  C 739.51 958.16 743.11 961.80 747.49 964.70
  Q 750.22 966.49 752.54 968.89
  C 755.95 972.42 760.28 975.03 763.14 979.01
  C 766.94 984.29 771.98 986.67 775.92 991.01
  Q 780.39 995.95 784.01 1001.59
  Q 784.29 1002.02 784.74 1002.26
  C 790.43 1005.28 791.85 1009.52 795.50 1014.11
  Q 798.97 1018.47 801.28 1023.59
  Q 801.42 1023.91 801.62 1023.98
  Q 801.85 1024.07 802.13 1023.96
  Q 802.62 1023.75 802.48 1023.24
  C 801.91 1021.14 801.09 1019.90 801.08 1017.64
  Q 801.05 1003.07 800.48 988.50
  C 800.31 984.09 801.92 977.75 801.67 972.46
  Q 801.03 959.37 797.99 946.64
  C 796.38 939.91 794.75 932.08 794.60 925.15
  Q 794.45 918.08 792.61 911.27
  Q 791.59 907.50 791.47 904.44
  C 790.97 891.56 789.56 879.39 790.77 865.85
  C 790.96 863.66 790.04 861.11 791.13 858.78
  A 1.53 1.52 14.9 0 0 789.87 856.62
  Q 779.22 855.74 776.93 845.51
  Q 775.48 839.02 772.37 833.21
  C 770.46 829.63 768.88 825.91 768.86 822.56
  Q 768.79 812.50 767.99 802.05
  A 0.96 0.96 0.0 0 0 766.12 801.80
  Q 761.44 815.04 756.08 828.54
  C 753.59 834.80 751.89 842.18 749.22 848.91
  C 747.73 852.67 744.90 855.44 744.29 860.28
  A 1.61 1.57 69.9 0 1 743.90 861.15
  Q 740.87 864.57 740.77 869.24
  A 0.58 0.57 68.6 0 1 740.59 869.66
  L 737.25 873.03
  A 1.51 1.51 0.0 0 0 737.49 875.35
  Z
  M 535.08 1290.93
  C 539.13 1295.28 546.37 1303.30 552.76 1303.42
  C 561.68 1303.58 574.07 1300.31 579.77 1292.58
  C 581.73 1289.91 583.87 1289.04 586.00 1286.73
  C 589.40 1283.04 593.04 1280.20 595.06 1275.31
  A 1.70 1.70 0.0 0 1 595.65 1274.58
  Q 598.83 1272.37 596.65 1269.10
  C 584.10 1250.27 569.49 1231.05 552.78 1214.95
  C 550.37 1212.63 543.04 1210.91 542.23 1216.25
  C 541.10 1223.65 540.06 1231.90 535.69 1238.18
  C 530.02 1246.35 525.46 1256.17 522.61 1266.63
  Q 522.49 1267.06 522.69 1267.47
  L 533.15 1288.15
  Q 533.92 1289.68 535.08 1290.93
  Z
  M 829.78 1250.06
  C 822.79 1253.61 818.02 1259.51 811.80 1263.81
  Q 810.45 1264.74 808.41 1265.22
  Q 807.91 1265.34 807.53 1265.70
  Q 803.82 1269.24 799.94 1272.59
  C 794.30 1277.47 790.18 1281.80 785.85 1287.01
  A 0.56 0.56 0.0 0 0 786.24 1287.93
  Q 792.10 1288.40 797.61 1287.72
  C 803.62 1286.99 811.93 1286.07 817.40 1287.71
  Q 817.94 1287.87 818.08 1287.33
  Q 820.86 1277.22 822.04 1270.01
  Q 822.80 1265.36 825.74 1262.42
  Q 826.10 1262.06 826.22 1261.57
  C 827.30 1257.09 828.33 1254.66 830.30 1250.57
  A 0.38 0.38 0.0 0 0 829.78 1250.06
  Z
  M 508.76 1302.75
  C 516.65 1310.03 523.33 1318.26 531.16 1325.47
  C 532.26 1326.47 534.12 1327.39 535.12 1329.02
  A 0.57 0.57 0.0 0 0 536.17 1328.70
  Q 535.74 1316.85 536.17 1305.25
  C 536.34 1300.94 529.40 1296.66 525.91 1295.73
  A 1.18 1.15 83.4 0 1 525.16 1295.12
  Q 522.69 1290.15 521.37 1284.72
  Q 520.83 1282.49 519.89 1281.15
  Q 519.30 1280.31 518.86 1281.23
  Q 516.22 1286.72 514.29 1292.24
  C 512.92 1296.13 511.02 1298.67 508.68 1301.90
  A 0.64 0.64 0.0 0 0 508.76 1302.75
  Z
  M 582.08 1340.25
  C 584.90 1340.57 587.17 1341.08 590.00 1340.77
  C 597.42 1339.98 603.29 1341.33 609.69 1341.16
  C 619.88 1340.89 629.71 1342.47 639.72 1341.61
  A 0.95 0.95 0.0 0 0 640.42 1340.11
  C 638.53 1337.47 636.26 1335.48 634.64 1332.63
  C 630.35 1325.08 624.67 1318.54 620.48 1310.77
  C 618.47 1307.05 615.20 1305.14 613.48 1300.96
  C 611.23 1295.50 608.16 1287.25 603.50 1283.44
  A 0.77 0.77 0.0 0 0 602.27 1283.83
  Q 601.08 1288.11 597.78 1291.28
  Q 591.26 1297.55 583.38 1305.12
  A 0.99 0.96 -21.1 0 0 583.08 1305.77
  L 580.81 1338.73
  Q 580.72 1340.10 582.08 1340.25
  Z
  M 188.47 1295.58
  L 167.50 1295.43
  A 0.94 0.52 -23.4 0 0 166.58 1296.63
  L 190.38 1301.62
  Q 190.97 1301.74 191.19 1302.31
  Q 192.22 1304.98 190.54 1306.89
  A 1.21 1.19 -68.6 0 1 189.65 1307.29
  C 182.84 1307.19 175.38 1308.38 169.48 1308.60
  C 158.73 1308.98 148.40 1308.98 137.09 1309.62
  C 133.93 1309.80 130.74 1309.40 127.48 1309.49
  C 125.54 1309.54 123.74 1308.66 121.56 1309.22
  Q 121.13 1309.33 121.52 1309.53
  C 127.03 1312.26 131.49 1311.25 136.95 1312.36
  C 146.36 1314.27 153.15 1314.03 160.82 1315.64
  Q 166.44 1316.82 175.19 1317.41
  C 182.56 1317.91 187.53 1318.08 191.96 1323.01
  A 0.74 0.73 32.1 0 1 192.13 1323.72
  L 191.71 1325.14
  A 0.87 0.86 5.4 0 0 192.63 1326.24
  Q 195.73 1325.95 198.22 1327.79
  Q 200.58 1329.54 199.25 1326.87
  Q 199.00 1326.37 198.81 1324.32
  Q 197.78 1313.05 196.31 1301.83
  Q 196.00 1299.43 196.44 1296.70
  C 197.16 1292.31 196.24 1288.76 196.20 1284.61
  Q 196.19 1284.07 195.66 1284.13
  L 169.18 1287.25
  Q 168.79 1287.29 169.01 1287.63
  C 169.40 1288.22 169.84 1288.50 170.62 1288.56
  C 174.67 1288.92 178.16 1290.34 182.16 1290.58
  Q 185.60 1290.78 188.91 1291.48
  A 2.07 2.07 0.0 0 1 188.47 1295.58
  Z
  M 132.55 1301.73
  C 137.29 1301.41 142.19 1302.60 147.38 1301.53
  A 0.35 0.35 0.0 0 0 147.40 1300.85
  Q 145.21 1300.24 140.99 1299.57
  Q 123.93 1296.88 106.83 1294.47
  C 101.63 1293.74 100.97 1290.02 104.09 1286.32
  A 0.70 0.70 0.0 0 0 103.66 1285.18
  Q 100.07 1284.67 96.87 1286.62
  C 92.18 1289.48 94.52 1295.91 95.02 1300.19
  Q 95.25 1302.16 97.51 1301.99
  C 101.46 1301.69 105.03 1302.28 108.17 1302.16
  C 116.10 1301.86 123.27 1302.37 132.55 1301.73
  Z
  M 130.75 1285.95
  L 135.28 1286.29
  Q 135.75 1286.33 135.76 1285.86
  Q 135.77 1285.57 135.55 1285.41
  Q 135.34 1285.25 134.90 1285.30
  Q 132.90 1285.49 130.77 1285.53
  A 0.21 0.21 0.0 0 0 130.75 1285.95
  Z
  M 653.19 1377.81
  Q 653.34 1378.45 655.58 1377.57
  A 1.08 1.07 -21.9 0 1 656.97 1378.16
  Q 657.52 1379.53 659.25 1378.64
  A 1.60 1.60 0.0 0 1 660.10 1378.46
  C 665.74 1378.77 672.02 1379.32 677.46 1377.39
  C 681.30 1376.03 686.05 1375.74 688.18 1371.75
  Q 688.43 1371.30 688.87 1371.05
  C 691.21 1369.72 692.98 1368.89 695.24 1367.04
  C 698.49 1364.39 702.63 1363.49 705.67 1360.44
  Q 709.84 1356.27 713.62 1351.73
  Q 715.07 1350.00 717.24 1348.77
  C 722.87 1345.58 727.50 1340.72 731.56 1336.81
  C 734.64 1333.84 735.35 1330.81 740.00 1329.75
  Q 746.89 1328.19 751.49 1327.64
  Q 755.48 1327.16 758.40 1326.25
  Q 773.46 1321.59 789.19 1320.45
  C 793.37 1320.15 798.65 1321.20 803.46 1320.59
  Q 806.57 1320.19 809.72 1320.57
  A 1.77 1.76 8.5 0 0 811.66 1319.14
  L 815.80 1296.71
  Q 815.93 1296.00 815.24 1296.21
  L 810.52 1297.68
  Q 810.11 1297.81 809.69 1297.74
  Q 806.38 1297.21 803.29 1298.63
  A 1.92 1.89 34.9 0 1 802.30 1298.80
  C 796.92 1298.23 791.72 1300.01 786.61 1298.73
  A 1.54 1.49 40.3 0 0 785.68 1298.79
  C 781.61 1300.35 779.80 1298.12 776.47 1298.19
  C 773.07 1298.25 770.45 1300.20 767.82 1300.83
  Q 761.50 1302.34 758.56 1301.95
  C 755.32 1301.52 752.60 1302.08 750.46 1301.99
  Q 737.48 1301.45 725.06 1304.97
  C 720.72 1306.20 717.57 1306.34 713.71 1304.76
  A 1.16 1.16 0.0 0 0 712.29 1305.21
  Q 706.09 1314.99 697.27 1322.81
  C 693.84 1325.85 692.21 1330.03 688.39 1332.55
  Q 683.65 1335.69 679.50 1339.60
  C 678.11 1340.91 677.92 1342.51 676.96 1344.14
  A 1.64 1.62 3.0 0 1 676.24 1344.78
  Q 670.74 1347.17 664.85 1347.93
  C 657.19 1348.92 649.59 1350.20 641.93 1351.25
  C 631.10 1352.72 619.77 1352.55 609.00 1350.95
  C 607.63 1350.75 605.76 1351.76 603.90 1351.54
  Q 599.64 1351.04 595.34 1350.57
  A 1.43 1.42 32.1 0 0 594.45 1350.77
  C 591.40 1352.57 589.14 1350.11 586.06 1351.76
  Q 585.62 1351.99 585.11 1352.00
  C 577.60 1352.06 570.09 1350.06 562.44 1349.83
  C 557.42 1349.68 549.35 1347.50 540.32 1347.13
  C 537.10 1346.99 535.37 1342.83 536.10 1340.05
  A 1.82 1.82 0.0 0 0 535.18 1337.98
  Q 530.30 1335.43 527.41 1330.58
  C 526.19 1328.53 523.15 1327.95 521.39 1326.26
  C 518.44 1323.43 515.69 1321.18 513.01 1317.83
  C 508.24 1311.83 502.35 1307.57 495.72 1302.68
  Q 488.62 1297.44 480.19 1294.30
  Q 479.71 1294.13 479.22 1294.25
  C 475.13 1295.32 472.66 1295.55 468.15 1294.62
  C 464.26 1293.81 460.19 1294.17 456.65 1293.53
  Q 446.30 1291.66 435.97 1289.59
  C 428.24 1288.04 420.10 1288.10 412.07 1286.95
  C 410.26 1286.69 408.50 1287.19 406.75 1287.02
  Q 399.03 1286.27 391.46 1285.77
  A 0.66 0.66 0.0 0 0 390.75 1286.43
  L 390.85 1308.09
  A 2.53 2.53 0.0 0 0 392.81 1310.54
  Q 396.90 1311.46 401.26 1311.90
  Q 405.96 1312.37 409.72 1313.28
  C 426.18 1317.26 445.41 1318.41 460.92 1319.08
  C 464.24 1319.22 467.12 1318.99 469.95 1321.04
  C 474.08 1324.03 476.47 1327.74 479.39 1331.21
  Q 487.26 1340.58 489.59 1342.92
  Q 495.66 1349.03 498.02 1355.31
  A 0.92 0.91 85.2 0 0 498.69 1355.88
  C 500.18 1356.16 500.82 1356.71 501.48 1358.16
  Q 504.77 1365.34 510.61 1370.69
  Q 510.97 1371.02 511.45 1371.10
  C 515.58 1371.77 519.77 1371.03 523.52 1371.46
  C 530.42 1372.24 537.23 1372.71 544.22 1373.63
  Q 558.89 1375.57 573.69 1376.01
  C 581.79 1376.25 589.54 1377.16 599.34 1376.38
  C 605.49 1375.88 611.69 1376.88 618.00 1376.75
  Q 635.62 1376.40 653.19 1377.81
  Z
  M 164.80 1294.50
  L 159.78 1294.00
  A 0.05 0.05 0.0 0 0 159.73 1294.05
  L 159.72 1294.08
  A 1.56 1.10 5.7 0 0 161.17 1295.33
  L 163.18 1295.53
  A 1.56 1.10 5.7 0 0 164.84 1294.59
  L 164.84 1294.56
  A 0.05 0.05 0.0 0 0 164.80 1294.50
  Z
  M 160.1380 1301.4937
  A 0.27 0.27 0.0 0 0 159.8638 1301.2279
  L 150.6849 1301.3721
  A 0.27 0.27 0.0 0 0 150.4192 1301.6463
  L 150.4220 1301.8263
  A 0.27 0.27 0.0 0 0 150.6962 1302.0921
  L 159.8751 1301.9479
  A 0.27 0.27 0.0 0 0 160.1408 1301.6737
  L 160.1380 1301.4937
  Z
  M 1130.56 1302.44
  Q 1129.56 1301.80 1129.28 1302.64
  A 0.70 0.70 0.0 0 0 1129.91 1303.56
  Q 1130.72 1303.58 1131.10 1303.00
  Q 1131.35 1302.62 1130.92 1302.47
  Q 1130.77 1302.41 1130.56 1302.44
  Z
  M 103.25 1309.54
  C 101.14 1309.22 99.01 1308.80 96.85 1308.83
  C 95.25 1308.86 94.04 1309.52 94.57 1311.35
  A 0.57 0.57 0.0 0 0 95.41 1311.67
  C 98.26 1309.93 101.22 1311.02 103.31 1309.84
  Q 103.72 1309.60 103.25 1309.54
  Z
  M 110.16 1309.69
  Q 110.00 1309.71 109.91 1309.75
  Q 109.50 1309.97 110.00 1310.01
  L 112.00 1310.18
  Q 112.59 1310.23 112.28 1309.74
  Q 111.76 1308.90 110.49 1309.24
  Q 110.19 1309.32 110.19 1309.66
  Q 110.19 1309.69 110.16 1309.69
  Z
  M 109.5059 1309.9228
  A 1.54 0.29 4.2 0 0 107.9912 1309.5208
  A 1.54 0.29 4.2 0 0 106.4341 1309.6972
  A 1.54 0.29 4.2 0 0 107.9488 1310.0992
  A 1.54 0.29 4.2 0 0 109.5059 1309.9228
  Z
  M 1099.57 1339.81
  L 1099.20 1341.35
  Q 1099.07 1341.86 1098.56 1341.83
  L 1096.63 1341.75
  A 0.40 0.40 0.0 0 0 1096.48 1342.53
  Q 1100.71 1343.95 1105.11 1343.06
  A 0.44 0.43 -47.7 0 0 1105.07 1342.20
  L 1102.01 1341.90
  Q 1101.42 1341.84 1101.47 1341.25
  L 1101.62 1339.38
  A 0.67 0.67 0.0 0 1 1102.30 1338.76
  Q 1116.46 1338.89 1130.61 1338.16
  C 1134.53 1337.96 1140.10 1339.74 1142.47 1334.70
  C 1144.40 1330.62 1142.49 1324.23 1140.81 1319.95
  A 0.92 0.91 82.7 0 0 1140.08 1319.38
  C 1135.64 1318.84 1131.53 1320.35 1127.42 1319.85
  C 1122.03 1319.20 1116.92 1318.18 1111.38 1318.01
  C 1105.46 1317.84 1099.64 1317.05 1093.73 1316.86
  C 1089.48 1316.73 1086.33 1315.90 1080.81 1316.05
  C 1080.17 1316.07 1079.94 1315.84 1079.39 1315.60
  A 0.50 0.50 0.0 0 0 1078.90 1316.47
  Q 1079.56 1316.94 1080.25 1316.62
  Q 1080.70 1316.41 1081.16 1316.59
  C 1086.10 1318.50 1092.12 1319.40 1096.24 1320.54
  Q 1108.86 1324.05 1121.67 1326.85
  C 1127.12 1328.04 1133.56 1327.86 1139.57 1329.58
  Q 1140.08 1329.72 1140.38 1330.16
  C 1141.58 1331.89 1141.13 1333.95 1139.31 1335.07
  C 1136.96 1336.51 1131.50 1335.05 1129.00 1335.24
  Q 1123.67 1335.66 1114.63 1336.90
  C 1109.63 1337.58 1103.39 1337.14 1097.67 1338.43
  A 0.29 0.28 39.3 0 0 1097.73 1338.99
  L 1098.98 1339.03
  A 0.63 0.63 0.0 0 1 1099.57 1339.81
  Z
  M 137.51 1332.36
  C 140.40 1332.70 145.16 1332.62 147.81 1331.88
  Q 148.66 1331.64 147.79 1331.53
  C 139.56 1330.43 131.49 1328.80 123.29 1327.54
  C 119.34 1326.93 112.28 1325.48 106.60 1325.08
  C 103.08 1324.83 99.94 1326.57 96.78 1323.02
  A 0.33 0.32 -70.6 0 0 96.22 1323.29
  L 98.35 1336.71
  A 0.47 0.47 0.0 0 0 98.90 1337.09
  Q 101.13 1336.67 103.35 1337.22
  C 113.40 1339.70 123.79 1340.29 133.87 1342.55
  C 138.56 1343.60 143.05 1344.04 147.65 1345.00
  Q 148.19 1345.11 148.22 1344.55
  Q 148.23 1344.29 148.04 1344.06
  Q 147.81 1343.78 147.25 1343.67
  Q 142.44 1342.65 137.64 1341.68
  C 135.27 1341.21 132.60 1341.87 129.89 1340.69
  Q 129.79 1340.65 129.77 1340.55
  Q 129.74 1340.42 129.65 1340.32
  Q 129.49 1340.12 129.23 1340.07
  L 118.85 1338.09
  Q 118.29 1337.99 118.07 1337.45
  C 114.56 1328.90 133.85 1331.94 137.51 1332.36
  Z
  M 621.33 1493.26
  L 626.60 1493.68
  Q 627.11 1493.73 627.55 1493.98
  Q 632.53 1496.89 638.11 1496.48
  C 642.09 1496.19 659.02 1494.53 656.33 1502.47
  Q 656.17 1502.92 656.28 1503.38
  Q 657.42 1508.52 655.82 1513.54
  Q 655.68 1513.99 655.76 1514.46
  C 656.16 1516.58 656.39 1521.76 653.59 1522.58
  Q 649.68 1523.73 647.07 1520.83
  Q 646.73 1520.45 646.21 1520.45
  Q 642.83 1520.45 639.45 1520.36
  C 634.00 1520.20 628.58 1518.43 622.99 1517.90
  Q 622.42 1517.85 622.57 1518.40
  L 623.77 1522.87
  A 0.85 0.84 -88.8 0 0 624.33 1523.46
  C 628.84 1524.94 632.87 1526.08 637.54 1527.17
  C 643.33 1528.52 648.13 1532.73 653.88 1535.15
  Q 660.88 1538.11 666.30 1543.36
  A 0.88 0.88 0.0 0 0 667.68 1543.17
  L 671.00 1537.42
  Q 671.27 1536.96 671.76 1536.75
  C 674.82 1535.48 674.78 1530.25 676.11 1527.41
  C 678.53 1522.25 681.16 1517.25 683.45 1512.03
  Q 685.10 1508.25 688.64 1505.75
  Q 689.04 1505.47 689.18 1505.00
  Q 691.99 1495.60 698.20 1488.15
  C 701.45 1484.25 703.07 1480.08 705.53 1475.80
  Q 705.77 1475.37 705.58 1474.91
  C 703.77 1470.76 703.86 1465.78 701.78 1462.22
  C 700.50 1460.03 696.42 1455.92 697.21 1453.38
  Q 697.36 1452.90 697.12 1452.46
  C 696.48 1451.32 696.10 1450.91 695.74 1449.65
  C 694.06 1443.89 692.78 1438.19 689.89 1432.83
  C 681.90 1417.98 674.93 1402.77 671.53 1388.50
  Q 671.01 1386.35 670.90 1385.17
  A 0.74 0.74 0.0 0 0 670.07 1384.50
  Q 663.41 1385.33 656.88 1384.32
  C 645.94 1382.64 634.06 1383.53 623.17 1384.45
  A 1.72 1.72 0.0 0 0 621.59 1386.13
  Q 621.13 1405.95 621.26 1426.07
  Q 621.27 1426.99 620.67 1430.34
  C 620.06 1433.74 621.10 1437.28 621.20 1441.29
  C 621.26 1443.87 619.59 1447.73 620.02 1449.74
  C 620.87 1453.63 619.87 1457.31 620.66 1461.02
  Q 620.98 1462.50 620.89 1464.02
  C 620.62 1468.18 621.27 1473.10 621.30 1476.32
  Q 621.37 1484.42 620.58 1492.35
  A 0.83 0.82 -84.6 0 0 621.33 1493.26
  Z
  M 593.22 1462.08
  C 593.14 1470.85 592.11 1480.50 593.21 1489.15
  Q 593.38 1490.47 594.70 1490.30
  Q 604.66 1489.02 614.26 1492.03
  Q 615.75 1492.50 615.79 1490.94
  Q 616.27 1472.67 616.68 1454.40
  Q 616.79 1449.60 616.01 1443.68
  Q 614.59 1432.83 614.65 1421.88
  C 614.73 1409.66 612.39 1396.88 614.32 1385.09
  A 0.63 0.63 0.0 0 0 613.65 1384.36
  L 591.78 1386.04
  A 0.43 0.42 -2.8 0 0 591.38 1386.47
  Q 591.81 1414.12 593.19 1441.81
  Q 593.79 1453.78 593.40 1459.28
  Q 593.37 1459.76 592.95 1459.98
  Q 592.58 1460.18 592.50 1460.49
  Q 592.34 1461.14 592.79 1461.38
  Q 593.22 1461.60 593.22 1462.08
  Z
  M 585.53 1447.94
  C 584.91 1438.74 585.54 1429.10 584.51 1419.69
  C 583.32 1408.85 583.74 1397.89 583.58 1386.99
  Q 583.57 1386.36 582.94 1386.32
  L 581.29 1386.22
  A 1.06 1.06 0.0 0 0 580.17 1387.19
  Q 578.86 1403.04 579.26 1418.65
  C 579.36 1422.49 580.88 1425.32 578.21 1429.33
  Q 577.93 1429.74 578.00 1430.24
  C 578.31 1432.43 579.10 1434.35 579.03 1436.52
  Q 578.73 1445.65 579.39 1454.76
  C 579.73 1459.44 578.83 1464.73 580.25 1470.00
  C 580.87 1472.34 579.31 1476.78 579.21 1479.43
  Q 579.07 1483.38 578.95 1487.80
  A 1.35 1.34 88.8 0 0 580.38 1489.18
  L 584.30 1488.93
  A 0.97 0.97 0.0 0 0 585.21 1487.87
  Q 584.34 1478.07 585.03 1468.13
  C 585.47 1461.64 585.96 1454.29 585.53 1447.94
  Z
  M 595.63 1501.69
  C 592.97 1500.41 591.27 1501.75 588.90 1501.20
  Q 587.34 1500.84 585.88 1500.25
  Q 585.45 1500.08 584.99 1500.15
  Q 581.19 1500.71 578.04 1502.72
  A 1.66 1.60 -58.1 0 1 577.05 1502.97
  C 572.09 1502.68 567.23 1500.99 562.72 1500.79
  C 557.08 1500.55 552.26 1501.15 546.76 1499.06
  Q 546.22 1498.85 546.12 1499.42
  L 544.89 1506.38
  A 0.73 0.72 -4.4 0 0 545.84 1507.19
  C 549.97 1505.83 553.69 1507.22 557.96 1507.42
  C 562.03 1507.62 565.70 1508.89 569.81 1509.02
  Q 571.46 1509.08 576.09 1508.23
  C 583.81 1506.80 591.46 1508.34 600.44 1507.65
  Q 602.33 1507.51 604.49 1508.24
  Q 611.50 1510.63 618.57 1507.79
  A 1.47 1.43 -47.4 0 1 619.52 1507.74
  C 628.63 1510.40 637.00 1510.94 645.87 1512.58
  Q 646.18 1512.63 646.24 1512.32
  L 647.65 1504.79
  A 1.42 1.41 -82.7 0 0 646.36 1503.12
  C 642.36 1502.82 638.27 1504.22 634.79 1503.95
  Q 631.73 1503.71 628.77 1502.87
  C 623.99 1501.51 619.29 1502.04 614.45 1501.90
  C 607.95 1501.72 603.44 1499.52 596.57 1501.76
  Q 596.09 1501.92 595.63 1501.69
  Z
  M 596.69 1521.93
  C 601.67 1522.05 610.73 1523.05 615.04 1520.46
  A 0.80 0.80 0.0 0 0 614.55 1518.97
  C 612.27 1519.20 610.43 1518.33 608.15 1518.64
  Q 603.94 1519.20 599.71 1518.90
  C 596.98 1518.70 594.57 1519.44 591.85 1519.61
  A 0.81 0.79 -84.6 0 0 591.12 1520.23
  L 590.71 1521.95
  A 0.76 0.76 0.0 0 0 591.73 1522.83
  Q 594.12 1521.86 596.69 1521.93
  Z
  M 580.9249 1522.4646
  A 2.27 1.64 21.3 0 0 579.4057 1520.1120
  A 2.27 1.64 21.3 0 0 576.6951 1520.8154
  A 2.27 1.64 21.3 0 0 578.2143 1523.1680
  A 2.27 1.64 21.3 0 0 580.9249 1522.4646
  Z"
/>
<path fill="#000000" d="
  M 985.21 1234.65
  Q 985.30 1235.01 985.58 1235.20
  Q 985.86 1235.38 985.95 1235.70
  Q 988.83 1245.71 987.48 1254.00
  Q 986.07 1262.61 985.99 1268.79
  C 985.92 1274.38 983.95 1279.77 982.79 1285.17
  C 979.05 1302.56 973.08 1312.43 962.63 1327.06
  Q 961.59 1328.52 961.13 1330.71
  Q 959.40 1338.92 951.57 1342.37
  Q 951.06 1342.59 950.78 1343.07
  L 944.74 1353.23
  A 0.94 0.94 0.0 0 1 942.99 1352.74
  C 943.09 1346.62 947.78 1342.84 945.62 1337.08
  Q 945.45 1336.61 945.56 1336.13
  C 946.16 1333.54 948.01 1331.92 948.96 1329.89
  C 949.87 1327.95 950.45 1326.61 951.81 1324.75
  C 953.46 1322.52 953.82 1320.46 955.96 1318.59
  C 960.86 1314.29 965.98 1310.93 968.90 1304.91
  C 970.54 1301.53 973.32 1298.48 974.68 1295.40
  Q 981.72 1279.57 978.93 1262.13
  C 978.55 1259.76 979.06 1257.81 981.94 1258.69
  A 0.69 0.68 -65.6 0 0 982.72 1258.39
  C 986.47 1252.20 983.07 1240.34 980.51 1233.70
  C 978.90 1229.53 975.62 1224.93 973.72 1220.11
  C 972.23 1216.35 969.42 1215.16 969.99 1210.40
  C 970.84 1203.42 966.15 1193.62 964.23 1186.80
  C 963.88 1185.53 964.24 1184.13 963.83 1183.00
  C 961.49 1176.61 961.31 1170.49 960.18 1163.87
  Q 959.56 1160.26 959.54 1156.60
  C 959.52 1154.67 958.88 1153.05 958.99 1151.22
  C 959.37 1144.38 959.78 1134.42 956.30 1127.80
  C 954.74 1124.83 954.33 1123.35 955.13 1120.33
  Q 955.26 1119.86 955.05 1119.43
  Q 953.07 1115.40 951.45 1111.25
  C 950.73 1109.41 951.06 1107.92 951.06 1106.02
  C 951.06 1103.73 949.69 1101.92 949.72 1099.39
  Q 949.73 1098.90 949.48 1098.48
  Q 942.88 1087.56 941.47 1076.54
  C 940.80 1071.31 939.27 1066.51 939.23 1061.89
  C 939.19 1057.91 937.90 1053.66 938.81 1050.63
  Q 938.95 1050.16 938.81 1049.68
  Q 937.85 1046.34 937.88 1042.87
  C 937.94 1037.41 936.58 1033.32 935.05 1028.00
  C 934.01 1024.39 938.72 1024.41 940.68 1025.85
  Q 941.06 1026.13 941.18 1026.58
  C 941.72 1028.59 942.44 1030.46 942.64 1032.50
  C 944.12 1047.59 946.68 1061.31 953.12 1074.75
  C 954.99 1078.66 955.15 1082.93 957.26 1086.98
  C 958.83 1090.01 958.98 1093.09 960.63 1095.71
  C 962.40 1098.50 962.63 1101.93 963.49 1104.40
  C 965.64 1110.60 966.90 1116.96 969.00 1123.18
  Q 970.36 1127.20 971.41 1131.31
  C 972.37 1135.05 971.50 1139.23 972.09 1143.28
  C 972.52 1146.29 972.65 1150.57 972.66 1153.78
  C 972.67 1160.83 974.70 1167.05 975.64 1173.93
  Q 976.17 1177.87 977.28 1181.68
  C 978.46 1185.69 978.87 1189.99 980.57 1194.17
  C 982.36 1198.56 982.43 1202.12 982.15 1206.54
  C 981.67 1214.07 990.05 1218.84 988.59 1226.70
  Q 988.49 1227.22 988.62 1227.73
  L 990.54 1235.39
  A 1.45 1.45 0.0 0 1 988.08 1236.73
  L 985.81 1234.32
  A 0.35 0.35 0.0 0 0 985.21 1234.65
  Z"
/>
<path fill="#000000" d="
  M 273.68 1229.16
  C 265.53 1228.42 260.98 1232.74 255.09 1236.95
  Q 253.32 1238.21 251.01 1238.68
  Q 243.21 1240.25 236.01 1243.67
  C 230.99 1246.05 229.72 1240.55 231.15 1237.26
  C 231.83 1235.69 236.22 1231.52 238.06 1230.74
  Q 248.24 1226.41 253.94 1222.95
  C 255.32 1222.11 256.06 1220.03 257.74 1219.13
  Q 262.96 1216.34 268.85 1216.46
  Q 271.55 1216.52 273.64 1215.95
  Q 282.38 1213.56 291.50 1213.49
  Q 293.35 1213.47 297.20 1211.51
  C 301.87 1209.12 308.38 1207.18 313.44 1209.25
  Q 316.37 1210.45 319.55 1209.46
  A 1.45 1.34 40.4 0 1 320.23 1209.43
  L 336.92 1212.67
  A 0.61 0.60 20.0 0 1 337.34 1213.56
  C 334.47 1218.66 319.22 1217.30 313.73 1219.23
  C 311.26 1220.10 307.06 1219.40 305.20 1220.82
  C 300.94 1224.07 296.86 1225.65 291.44 1225.74
  C 288.56 1225.79 286.28 1227.20 283.12 1226.65
  A 1.16 1.13 -56.5 0 0 282.25 1226.84
  Q 278.34 1229.58 273.68 1229.16
  Z"
/>
<path fill="#000000" d="
  M 284.15 1374.81
  C 284.18 1377.81 279.36 1378.84 277.91 1375.67
  C 272.32 1363.50 270.16 1348.44 269.22 1335.17
  C 269.10 1333.48 269.52 1331.60 269.28 1329.75
  Q 267.16 1313.19 263.64 1296.89
  C 262.46 1291.43 261.42 1283.89 259.74 1277.01
  Q 258.18 1270.67 258.20 1262.39
  A 0.76 0.75 -90.0 0 1 258.94 1261.64
  L 262.39 1261.57
  Q 263.10 1261.55 263.23 1262.25
  C 263.81 1265.47 264.93 1268.81 265.53 1271.69
  Q 269.15 1288.83 272.61 1306.00
  Q 274.47 1315.26 275.42 1325.14
  Q 276.57 1337.20 277.80 1349.25
  C 278.03 1351.50 279.48 1354.15 279.86 1356.90
  Q 280.89 1364.31 283.59 1371.29
  C 284.02 1372.39 284.14 1373.69 284.15 1374.81
  Z"
/>
<path fill="#000000" d="
  M 658.10 1669.00
  L 652.22 1669.00
  L 651.44 1668.70
  Q 650.95 1668.52 651.16 1668.04
  L 660.96 1645.98
  A 0.45 0.45 0.0 0 0 660.48 1645.35
  Q 651.58 1646.87 642.49 1647.83
  C 637.45 1648.36 630.45 1649.04 624.85 1648.82
  Q 624.26 1648.80 624.13 1649.37
  L 619.55 1669.00
  L 616.18 1669.00
  L 619.89 1649.10
  A 0.95 0.95 0.0 0 0 618.96 1647.98
  C 611.07 1647.96 604.83 1647.74 598.12 1646.77
  C 592.12 1645.90 586.57 1645.95 579.39 1644.31
  C 576.19 1643.58 572.04 1643.78 568.93 1642.49
  Q 566.73 1641.59 566.41 1643.94
  Q 565.01 1654.02 563.61 1663.27
  Q 563.33 1665.07 563.75 1666.86
  Q 563.87 1667.38 564.39 1667.28
  L 565.80 1667.01
  Q 566.29 1666.92 566.76 1667.06
  Q 569.06 1667.79 571.38 1667.26
  Q 571.83 1667.16 572.22 1666.92
  Q 573.07 1666.39 573.94 1666.94
  Q 574.32 1667.18 574.77 1667.21
  Q 578.52 1667.42 582.27 1667.07
  Q 583.05 1666.99 585.71 1667.79
  A 0.50 0.50 0.0 0 1 585.99 1668.53
  Q 585.82 1668.82 585.43 1669.00
  L 535.98 1669.00
  L 526.64 1665.52
  A 1.03 1.02 -83.1 0 0 525.27 1666.60
  Q 525.54 1668.95 523.19 1669.00
  L 511.52 1669.00
  Q 511.31 1665.30 513.16 1661.71
  A 2.32 2.31 23.2 0 0 511.86 1658.47
  C 508.63 1657.35 495.32 1653.72 497.75 1648.73
  C 499.58 1644.99 512.04 1651.24 514.74 1652.73
  A 1.60 1.60 0.0 0 0 517.04 1651.79
  C 518.55 1646.74 520.92 1642.25 522.34 1637.13
  C 522.92 1635.06 524.10 1633.93 525.29 1632.30
  A 1.11 1.11 0.0 0 0 524.48 1630.53
  C 520.60 1630.24 513.00 1629.17 510.31 1626.15
  C 507.32 1622.80 509.83 1616.88 514.10 1616.11
  C 517.15 1615.55 520.61 1617.38 523.93 1617.47
  Q 526.79 1617.54 529.53 1618.53
  A 0.87 0.86 17.8 0 0 530.66 1617.95
  C 533.55 1607.72 536.92 1598.81 538.52 1587.52
  A 1.81 1.81 0.0 0 1 538.89 1586.66
  Q 539.92 1585.35 540.21 1583.75
  C 541.30 1577.88 544.75 1565.50 550.29 1562.33
  A 1.78 1.78 0.0 0 1 552.88 1563.38
  C 553.15 1564.34 553.35 1565.14 553.12 1566.20
  C 551.65 1572.78 551.64 1580.54 548.82 1587.29
  A 1.20 1.20 0.0 0 0 548.82 1588.21
  Q 549.43 1589.66 549.22 1590.49
  Q 545.52 1605.86 542.34 1621.36
  Q 542.25 1621.78 542.67 1621.91
  L 562.37 1628.06
  A 1.34 1.34 0.0 0 0 564.04 1627.19
  C 568.67 1612.61 573.54 1597.77 579.70 1583.69
  Q 580.59 1581.64 581.86 1579.81
  A 1.30 1.29 -75.4 0 1 582.79 1579.26
  Q 584.71 1579.04 585.96 1580.63
  A 1.20 1.18 -74.3 0 1 586.17 1581.01
  C 591.35 1595.78 592.79 1613.29 595.78 1625.75
  Q 596.36 1628.18 599.04 1633.93
  Q 599.24 1634.37 599.73 1634.39
  Q 608.97 1634.60 618.04 1635.97
  Q 619.15 1636.14 621.81 1635.59
  Q 622.31 1635.48 622.40 1634.98
  Q 624.44 1623.39 625.08 1611.76
  Q 626.78 1580.99 624.40 1550.27
  Q 624.37 1549.77 624.84 1549.61
  C 630.41 1547.77 630.33 1568.36 630.53 1570.77
  Q 632.41 1592.84 630.53 1608.56
  Q 628.91 1622.12 626.96 1635.48
  A 0.63 0.63 0.0 0 0 627.65 1636.20
  L 663.43 1632.56
  A 0.91 0.91 0.0 0 0 664.25 1631.68
  C 664.62 1616.00 663.49 1600.98 662.27 1585.40
  C 662.09 1583.08 662.34 1580.97 661.40 1578.38
  C 659.30 1572.62 660.87 1566.96 657.68 1562.20
  A 1.26 1.25 -56.9 0 1 657.49 1561.28
  C 657.74 1559.98 658.13 1558.66 659.35 1557.96
  C 664.96 1554.72 667.72 1569.88 668.12 1573.45
  Q 668.93 1580.54 670.71 1587.46
  C 672.04 1592.60 671.44 1597.82 672.01 1603.27
  C 672.29 1605.89 671.90 1608.40 672.21 1610.92
  Q 673.39 1620.28 671.93 1629.51
  A 0.93 0.93 0.0 0 0 673.13 1630.55
  C 681.52 1627.91 690.23 1625.39 697.82 1621.02
  C 700.19 1619.66 702.12 1619.00 704.63 1619.43
  A 2.04 2.04 0.0 0 1 705.98 1622.59
  C 704.75 1624.40 703.52 1625.69 701.58 1626.97
  C 695.23 1631.19 688.62 1636.25 681.60 1639.13
  Q 675.70 1641.54 673.22 1641.99
  C 667.94 1642.94 669.40 1644.93 667.93 1648.70
  Q 663.71 1659.54 658.10 1669.00
  Z
  M 570.90 1629.86
  L 591.33 1632.94
  A 1.40 1.40 0.0 0 0 592.86 1631.11
  C 588.24 1617.40 586.99 1602.78 584.34 1588.64
  A 0.52 0.52 0.0 0 0 583.34 1588.58
  Q 581.50 1594.26 579.79 1600.25
  C 579.06 1602.85 577.65 1605.25 576.79 1607.96
  C 574.54 1615.00 572.03 1621.86 570.35 1629.06
  A 0.66 0.66 0.0 0 0 570.90 1629.86
  Z
  M 528.91 1658.12
  C 537.91 1661.26 546.43 1664.17 555.85 1665.18
  A 0.99 0.99 0.0 0 0 556.92 1664.37
  Q 558.80 1653.52 560.72 1642.79
  Q 561.24 1639.93 559.02 1639.49
  Q 549.33 1637.57 542.70 1635.29
  Q 541.71 1634.94 538.22 1634.74
  Q 537.72 1634.71 537.41 1635.10
  Q 536.36 1636.47 536.02 1637.50
  Q 532.77 1647.28 528.23 1656.46
  A 1.20 1.19 -67.4 0 0 528.91 1658.12
  Z"
/>
</svg>
